mtllib model_1.mtl
o model_1
v 0.8400635123252869 1.3552095890045166 3.9321584701538086 
v 0.8340765833854675 1.3552279472351074 3.9321584701538086 
v 0.8400918841362 1.3384395837783813 3.9321751594543457 
v 0.8341048359870911 1.3385149240493774 3.9321751594543457 
v 0.8403233885765076 1.201546549797058 3.932453155517578 
v 0.8343250155448914 1.2083412408828735 3.932446241378784 
v 0.8403520584106445 1.1846058368682861 3.9324700832366943 
v 0.83436518907547 1.1845957040786743 3.9324700832366943 
v 0.8403851389884949 1.1650456190109253 3.9324896335601807 
v 0.8343982696533203 1.1650354862213135 3.9324896335601807 
v 0.840413510799408 1.14827561378479 3.9325063228607178 
v 0.8344266414642334 1.1482654809951782 3.9325063228607178 
v -0.844368577003479 1.3525316715240479 3.932173013687134 
v -0.8444015979766846 1.3358755111694336 3.932189702987671 
v -0.838381826877594 1.3525418043136597 3.932173013687134 
v -0.8383536338806152 1.335885763168335 3.932189702987671 
v -0.844376266002655 1.320899248123169 3.9322047233581543 
v -0.8383283615112305 1.320937991142273 3.932204484939575 
v -0.8441686630249023 1.1981568336486816 3.9324681758880615 
v -0.8381210565567017 1.1983662843704224 3.9324679374694824 
v -0.8441411852836609 1.1818993091583252 3.9324846267700195 
v -0.8381543159484863 1.181909441947937 3.9324843883514404 
v -0.8441081047058105 1.1623390913009644 3.932504177093506 
v -0.838121235370636 1.1623492240905762 3.932504177093506 
v -0.8440797328948975 1.145569086074829 3.932520866394043 
v -0.8380928635597229 1.145579218864441 3.932520866394043 
v 0.05885785073041916 0.5881819128990173 3.9247684478759766 
v 0.025485573336482048 0.598289966583252 3.9247586727142334 
v 0.04705459624528885 0.5957924127578735 3.9247610569000244 
v -0.02741827815771103 0.5982005000114441 3.9247591495513916 
v -0.04897873103618622 0.5956300497055054 3.9247617721557617 
v -0.060756172984838486 0.5879796147346497 3.924769639968872 
v 0.025485573336482048 0.598289966583252 3.9247586727142334 
v -0.060756172984838486 0.5879796147346497 3.924769639968872 
v -0.02741827815771103 0.5982005000114441 3.9247591495513916 
v -0.060756172984838486 0.5879796147346497 3.924769639968872 
v -0.06678052991628647 0.5740466117858887 3.92478346824646 
v -0.07108155637979507 0.5525429248809814 3.924805164337158 
v -0.07108155637979507 0.5525429248809814 3.924805164337158 
v -0.07458853721618652 0.49499502778053284 3.9248626232147217 
v -0.07366272062063217 0.5255185961723328 3.9248321056365967 
v -0.060756172984838486 0.5879796147346497 3.924769639968872 
v -0.07108155637979507 0.5525429248809814 3.924805164337158 
v -0.07458853721618652 0.49499502778053284 3.9248626232147217 
v -0.07458853721618652 0.49499502778053284 3.9248626232147217 
v -0.06955671310424805 0.44560468196868896 3.9250526428222656 
v -0.07331859320402145 0.46652525663375854 3.9250316619873047 
v -0.06955671310424805 0.44560468196868896 3.9250526428222656 
v -0.06336332857608795 0.43183469772338867 3.9250662326812744 
v -0.055043064057826996 0.4247307777404785 3.9250733852386475 
v -0.07458853721618652 0.49499502778053284 3.9248626232147217 
v -0.055043064057826996 0.4247307777404785 3.9250733852386475 
v -0.06955671310424805 0.44560468196868896 3.9250526428222656 
v -0.060756172984838486 0.5879796147346497 3.924769639968872 
v -0.07458853721618652 0.49499502778053284 3.9248626232147217 
v -0.055043064057826996 0.4247307777404785 3.9250733852386475 
v -0.055043064057826996 0.4247307777404785 3.9250733852386475 
v -0.02314768359065056 0.4209694564342499 3.925076961517334 
v -0.042331598699092865 0.42193353176116943 3.9250760078430176 
v -0.055043064057826996 0.4247307777404785 3.9250733852386475 
v -0.02314768359065056 0.4209694564342499 3.925076961517334 
v 0.02175339311361313 0.4210453927516937 3.925076484680176 
v 0.02175339311361313 0.4210453927516937 3.925076484680176 
v 0.053635869175195694 0.4249145984649658 3.925072431564331 
v 0.04093393683433533 0.4220743775367737 3.9250752925872803 
v 0.053635869175195694 0.4249145984649658 3.925072431564331 
v 0.06199319288134575 0.4320182204246521 3.925065279006958 
v 0.06813997030258179 0.44580909609794617 3.92505145072937 
v 0.02175339311361313 0.4210453927516937 3.925076484680176 
v 0.06813997030258179 0.44580909609794617 3.92505145072937 
v 0.053635869175195694 0.4249145984649658 3.925072431564331 
v -0.055043064057826996 0.4247307777404785 3.9250733852386475 
v 0.02175339311361313 0.4210453927516937 3.925076484680176 
v 0.06813997030258179 0.44580909609794617 3.92505145072937 
v 0.07183106243610382 0.46674227714538574 3.925030469894409 
v 0.06813997030258179 0.44580909609794617 3.92505145072937 
v 0.07294356822967529 0.4952445328235626 3.924861431121826 
v 0.06930303573608398 0.5527803301811218 3.9248039722442627 
v 0.07197564840316772 0.5257364511489868 3.924830913543701 
v -0.055043064057826996 0.4247307777404785 3.9250733852386475 
v 0.06813997030258179 0.44580909609794617 3.92505145072937 
v 0.06930303573608398 0.5527803301811218 3.9248039722442627 
v -0.060756172984838486 0.5879796147346497 3.924769639968872 
v 0.06930303573608398 0.5527803301811218 3.9248039722442627 
v -0.055043064057826996 0.4247307777404785 3.9250733852386475 
v 0.025485573336482048 0.598289966583252 3.9247586727142334 
v -0.060756172984838486 0.5879796147346497 3.924769639968872 
v 0.06930303573608398 0.5527803301811218 3.9248039722442627 
v 0.05885785073041916 0.5881819128990173 3.9247684478759766 
v 0.06930303573608398 0.5527803301811218 3.9248039722442627 
v 0.025485573336482048 0.598289966583252 3.9247586727142334 
v 0.06492929905653 0.5742693543434143 3.9247825145721436 
v 0.05885785073041916 0.5881819128990173 3.9247684478759766 
v 0.06930303573608398 0.5527803301811218 3.9248039722442627 
v -0.999173104763031 1.0773791074752808 -0.6445373296737671 
v -0.9963012933731079 1.0770405530929565 -0.6462258696556091 
v -1.0012516975402832 1.078287959098816 -0.6432716250419617 
v -1.0019868612289429 1.0795400142669678 -0.6427099108695984 
v -0.9875044226646423 1.077049970626831 -0.651714563369751 
v -0.9875260591506958 1.08986234664917 -0.6517273783683777 
v -0.9730478525161743 1.089877724647522 -0.6608753204345703 
v -0.9730695486068726 1.1027185916900635 -0.660888135433197 
v -0.9585913419723511 1.1027339696884155 -0.6698952913284302 
v -0.9585696458816528 1.0898932218551636 -0.6698824763298035 
v -0.9730261564254761 1.077065348625183 -0.6608625054359436 
v -0.9585479497909546 1.0770808458328247 -0.6698696613311768 
v -0.9440128207206726 1.0796018838882446 -0.6788793206214905 
v -0.9496899247169495 1.0770902633666992 -0.6753584146499634 
v -0.9448049068450928 1.078348159790039 -0.6784558296203613 
v -0.9468803405761719 1.07743501663208 -0.6770475506782532 
v -1.0020042657852173 1.0898468494415283 -0.6427202224731445 
v -1.0020217895507812 1.1001536846160889 -0.6427305340766907 
v -0.9875478148460388 1.1027032136917114 -0.6517401933670044 
v -0.944030225276947 1.0899087190628052 -0.6788896322250366 
v -0.9440476894378662 1.1002155542373657 -0.6788999438285828 
v -0.949733316898346 1.1027435064315796 -0.6753840446472168 
v -0.9448440074920654 1.1014673709869385 -0.6784789562225342 
v -0.9469226002693176 1.1024049520492554 -0.6770725250244141 
v -0.9963446855545044 1.102693796157837 -0.6462514996528625 
v -1.0012907981872559 1.1014071702957153 -0.6432947516441345 
v -0.999215304851532 1.1023489236831665 -0.644562304019928 
v 0.9968972206115723 1.1056963205337524 -0.6445797085762024 
v 0.9940254092216492 1.1060315370559692 -0.6462688446044922 
v 0.9989757537841797 1.1047900915145874 -0.6433122158050537 
v 0.9997110366821289 1.1035391092300415 -0.6427479982376099 
v 0.985228419303894 1.106011152267456 -0.6517574191093445 
v 0.9852501153945923 1.0931987762451172 -0.6517446041107178 
v 0.9707717299461365 1.0931651592254639 -0.6608923077583313 
v 0.9707934260368347 1.080352783203125 -0.6608794927597046 
v 0.9563149213790894 1.0803192853927612 -0.6698863506317139 
v 0.9562932848930359 1.0931316614151 -0.6698991656303406 
v 0.9707500338554382 1.1059775352478027 -0.6609050631523132 
v 0.9562715888023376 1.105944037437439 -0.6699119806289673 
v 0.9417364001274109 1.1034048795700073 -0.6789163947105408 
v 0.9474135637283325 1.1059235334396362 -0.6754005551338196 
v 0.942528486251831 1.1046594381332397 -0.678495466709137 
v 0.9446039795875549 1.105575442314148 -0.6770890355110168 
v 0.9997284412384033 1.093232274055481 -0.6427376866340637 
v 0.9997459053993225 1.0829254388809204 -0.6427273750305176 
v 0.9852717518806458 1.0803864002227783 -0.6517317891120911 
v 0.9417538642883301 1.0930980443954468 -0.6789060831069946 
v 0.9417712688446045 1.0827912092208862 -0.6788957715034485 
v 0.9474568963050842 1.0802987813949585 -0.6753749251365662 
v 0.9425675868988037 1.0815401077270508 -0.6784723401069641 
v 0.9446462392807007 1.0806055068969727 -0.677064061164856 
v 0.9940687417984009 1.0804067850112915 -0.6462432146072388 
v 0.9990148544311523 1.0816707611083984 -0.6432890892028809 
v 0.9969394207000732 1.0807265043258667 -0.6445547342300415 
vn 0.0000022269837245403323 0.0021231784485280514 0.6666629314422607 
vn 0.0000022269837245403323 0.0021231784485280514 0.6666629314422607 
vn 0.0000022269837245403323 0.0021231784485280514 0.6666629314422607 
vn 0.0000022269837245403323 0.0021231784485280514 0.6666629314422607 
vn 0.0000022269837245403323 0.0021231784485280514 0.6666629314422607 
vn 0.0000022269837245403323 0.0021231784485280514 0.6666629314422607 
vn 0.0000022269837245403323 0.0021231784485280514 0.6666629314422607 
vn 0.0000022269837245403323 0.0021231784485280514 0.6666629314422607 
vn 0.0000022269837245403323 0.0021231784485280514 0.6666629314422607 
vn 0.0000022269837245403323 0.0021231784485280514 0.6666629314422607 
vn 0.0000022269837245403323 0.0021231784485280514 0.6666629314422607 
vn 0.0000022269837245403323 0.0021231784485280514 0.6666629314422607 
vn 0.0000022269837245403323 0.0021231784485280514 0.6666629314422607 
vn 0.0000022269837245403323 0.0021231784485280514 0.6666629314422607 
vn 0.0000022269837245403323 0.0021231784485280514 0.6666629314422607 
vn 0.0000022269837245403323 0.0021231784485280514 0.6666629314422607 
vn 0.0000022269837245403323 0.0021231784485280514 0.6666629314422607 
vn 0.0000022269837245403323 0.0021231784485280514 0.6666629314422607 
vn 0.0000022269837245403323 0.0021231784485280514 0.6666629314422607 
vn 0.0000022269837245403323 0.0021231784485280514 0.6666629314422607 
vn 0.0000022269837245403323 0.0021231784485280514 0.6666629314422607 
vn 0.0000022269837245403323 0.0021231784485280514 0.6666629314422607 
vn 0.0000022269837245403323 0.0021231784485280514 0.6666629314422607 
vn 0.0000022269837245403323 0.0021231784485280514 0.6666629314422607 
vn 0.0000022269837245403323 0.0021231784485280514 0.6666629314422607 
vn 0.0000022269837245403323 0.0021231784485280514 0.6666629314422607 
vn 0.0000022269837245403323 0.0021231784485280514 0.6666629314422607 
vn 0.0000022269837245403323 0.0021231784485280514 0.6666629314422607 
vn 0.0000022269837245403323 0.0021231784485280514 0.6666629314422607 
vn 0.0000022269837245403323 0.0021231784485280514 0.6666629314422607 
vn 0.0000022269837245403323 0.0021231784485280514 0.6666629314422607 
vn 0.0000022269837245403323 0.0021231784485280514 0.6666629314422607 
vn 0.0000022269837245403323 0.0021231784485280514 0.6666629314422607 
vn 0.0000022269837245403323 0.0021231784485280514 0.6666629314422607 
vn 0.0000022269837245403323 0.0021231784485280514 0.6666629314422607 
vn 0.0000022269837245403323 0.0021231784485280514 0.6666629314422607 
vn 0.0000022269837245403323 0.0021231784485280514 0.6666629314422607 
vn 0.0000022269837245403323 0.0021231784485280514 0.6666629314422607 
vn 0.0000022269837245403323 0.0021231784485280514 0.6666629314422607 
vn 0.0000022269837245403323 0.0021231784485280514 0.6666629314422607 
vn 0.0000022269837245403323 0.0021231784485280514 0.6666629314422607 
vn 0.0000022269837245403323 0.0021231784485280514 0.6666629314422607 
vn 0.0000022269837245403323 0.0021231784485280514 0.6666629314422607 
vn 0.0000022269837245403323 0.0021231784485280514 0.6666629314422607 
vn 0.0000022269837245403323 0.0021231784485280514 0.6666629314422607 
vn 0.0000022269837245403323 0.0021231784485280514 0.6666629314422607 
vn 0.0000022269837245403323 0.0021231784485280514 0.6666629314422607 
vn 0.0000022269837245403323 0.0021231784485280514 0.6666629314422607 
vn 0.0000022269837245403323 0.0021231784485280514 0.6666629314422607 
vn 0.0000022269837245403323 0.0021231784485280514 0.6666629314422607 
vn 0.0000022269837245403323 0.0021231784485280514 0.6666629314422607 
vn 0.0000022269837245403323 0.0021231784485280514 0.6666629314422607 
vn 0.0000022269837245403323 0.0021231784485280514 0.6666629314422607 
vn 0.0000022269837245403323 0.0021231784485280514 0.6666629314422607 
vn 0.0000022269837245403323 0.0021231784485280514 0.6666629314422607 
vn 0.0000022269837245403323 0.0021231784485280514 0.6666629314422607 
vn 0.0000022269837245403323 0.0021231784485280514 0.6666629314422607 
vn 0.0000022269837245403323 0.0021231784485280514 0.6666629314422607 
vn 0.0000022269837245403323 0.0021231784485280514 0.6666629314422607 
vn 0.0000022269837245403323 0.0021231784485280514 0.6666629314422607 
vn 0.0000022269837245403323 0.0021231784485280514 0.6666629314422607 
vn 0.0000022269837245403323 0.0021231784485280514 0.6666629314422607 
vn 0.0000022269837245403323 0.0021231784485280514 0.6666629314422607 
vn 0.0000022269837245403323 0.0021231784485280514 0.6666629314422607 
vn 0.0000022269837245403323 0.0021231784485280514 0.6666629314422607 
vn 0.0000022269837245403323 0.0021231784485280514 0.6666629314422607 
vn 0.0000022269837245403323 0.0021231784485280514 0.6666629314422607 
vn 0.0000022269837245403323 0.0021231784485280514 0.6666629314422607 
vn 0.0000022269837245403323 0.0021231784485280514 0.6666629314422607 
vn 0.0000022269837245403323 0.0021231784485280514 0.6666629314422607 
vn 0.0000022269837245403323 0.0021231784485280514 0.6666629314422607 
vn 0.0000022269837245403323 0.0021231784485280514 0.6666629314422607 
vn 0.0000022269837245403323 0.0021231784485280514 0.6666629314422607 
vn 0.0000022269837245403323 0.0021231784485280514 0.6666629314422607 
vn 0.0000022269837245403323 0.0021231784485280514 0.6666629314422607 
vn 0.0000022269837245403323 0.0021231784485280514 0.6666629314422607 
vn 0.0000022269837245403323 0.0021231784485280514 0.6666629314422607 
vn 0.0000022269837245403323 0.0021231784485280514 0.6666629314422607 
vn 0.0000022269837245403323 0.0021231784485280514 0.6666629314422607 
vn 0.0000022269837245403323 0.0021231784485280514 0.6666629314422607 
vn 0.0000022269837245403323 0.0021231784485280514 0.6666629314422607 
vn 0.0000022269837245403323 0.0021231784485280514 0.6666629314422607 
vn 0.0000022269837245403323 0.0021231784485280514 0.6666629314422607 
vn 0.0000022269837245403323 0.0021231784485280514 0.6666629314422607 
vn 0.0000022269837245403323 0.0021231784485280514 0.6666629314422607 
vn 0.0000022269837245403323 0.0021231784485280514 0.6666629314422607 
vn 0.0000022269837245403323 0.0021231784485280514 0.6666629314422607 
vn 0.0000022269837245403323 0.0021231784485280514 0.6666629314422607 
vn 0.0000022269837245403323 0.0021231784485280514 0.6666629314422607 
vn 0.0000022269837245403323 0.0021231784485280514 0.6666629314422607 
vn 0.0000022269837245403323 0.0021231784485280514 0.6666629314422607 
vn 0.0000022269837245403323 0.0021231784485280514 0.6666629314422607 
vn 0.0000022269837245403323 0.0021231784485280514 0.6666629314422607 
vn 0.0000022269837245403323 0.0021231784485280514 0.6666629314422607 
vn -0.35347384214401245 0.0002933713258244097 -0.5652432441711426 
vn -0.3534689247608185 -0.0026195428799837828 -0.5652403235435486 
vn -0.3534689247608185 -0.0026195428799837828 -0.5652403235435486 
vn -0.3534689247608185 -0.0026195428799837828 -0.5652403235435486 
vn -0.3534689247608185 -0.0026195428799837828 -0.5652403235435486 
vn -0.35347384214401245 0.0002933713258244097 -0.5652432441711426 
vn -0.35347384214401245 0.0002933713258244097 -0.5652432441711426 
vn -0.35347384214401245 0.0002933713258244097 -0.5652432441711426 
vn -0.3534689247608185 -0.0026195428799837828 -0.5652403235435486 
vn -0.35347384214401245 0.0002933713258244097 -0.5652432441711426 
vn -0.35347384214401245 0.0002933713258244097 -0.5652432441711426 
vn -0.35347384214401245 0.0002933713258244097 -0.5652432441711426 
vn -0.3534689247608185 -0.0026195428799837828 -0.5652403235435486 
vn -0.35347384214401245 0.0002933713258244097 -0.5652432441711426 
vn -0.3534689247608185 -0.0026195428799837828 -0.5652403235435486 
vn -0.35347384214401245 0.0002933713258244097 -0.5652432441711426 
vn -0.35347384214401245 0.0002933713258244097 -0.5652432441711426 
vn -0.35347384214401245 0.0002933713258244097 -0.5652432441711426 
vn -0.35347384214401245 0.0002933713258244097 -0.5652432441711426 
vn -0.35347384214401245 0.0002933713258244097 -0.5652432441711426 
vn -0.35347384214401245 0.0002933713258244097 -0.5652432441711426 
vn -0.3534689247608185 -0.0026195428799837828 -0.5652403235435486 
vn -0.35347384214401245 0.0002933713258244097 -0.5652432441711426 
vn -0.3534689247608185 -0.0026195428799837828 -0.5652403235435486 
vn -0.35347384214401245 0.0002933713258244097 -0.5652432441711426 
vn -0.35347384214401245 0.0002933713258244097 -0.5652432441711426 
vn -0.3534689247608185 -0.0026195428799837828 -0.5652403235435486 
vn 0.35346588492393494 -0.0014239574084058404 -0.5652464628219604 
vn 0.35346588492393494 -0.0014239574084058404 -0.5652464628219604 
vn 0.35346096754074097 0.001488956855610013 -0.5652493834495544 
vn 0.35346096754074097 0.001488956855610013 -0.5652493834495544 
vn 0.35346096754074097 0.001488956855610013 -0.5652493834495544 
vn 0.35346096754074097 0.001488956855610013 -0.5652493834495544 
vn 0.35346096754074097 0.001488956855610013 -0.5652493834495544 
vn 0.35346096754074097 0.001488956855610013 -0.5652493834495544 
vn 0.35346096754074097 0.001488956855610013 -0.5652493834495544 
vn 0.35346096754074097 0.001488956855610013 -0.5652493834495544 
vn 0.35346096754074097 0.001488956855610013 -0.5652493834495544 
vn 0.35346588492393494 -0.0014239574084058404 -0.5652464628219604 
vn 0.35346588492393494 -0.0014239574084058404 -0.5652464628219604 
vn 0.35346588492393494 -0.0014239574084058404 -0.5652464628219604 
vn 0.35346096754074097 0.001488956855610013 -0.5652493834495544 
vn 0.35346096754074097 0.001488956855610013 -0.5652493834495544 
vn 0.35346096754074097 0.001488956855610013 -0.5652493834495544 
vn 0.35346588492393494 -0.0014239574084058404 -0.5652464628219604 
vn 0.35346096754074097 0.001488956855610013 -0.5652493834495544 
vn 0.35346096754074097 0.001488956855610013 -0.5652493834495544 
vn 0.35346096754074097 0.001488956855610013 -0.5652493834495544 
vn 0.35346096754074097 0.001488956855610013 -0.5652493834495544 
vn 0.35346588492393494 -0.0014239574084058404 -0.5652464628219604 
vn 0.35346588492393494 -0.0014239574084058404 -0.5652464628219604 
vn 0.35346588492393494 -0.0014239574084058404 -0.5652464628219604 
vn 0.35346588492393494 -0.0014239574084058404 -0.5652464628219604 
vn 0.35346096754074097 0.001488956855610013 -0.5652493834495544 
vt 0.1802217662334442 0.8653931617736816 
vt 0.21521423757076263 0.8654811382293701 
vt 0.1802217662334442 0.8303742408752441 
vt 0.21521423757076263 0.8305502533912659 
vt 0.1802217662334442 0.5474074482917786 
vt 0.21521423757076263 0.5616613626480103 
vt 0.1802217662334442 0.5119485855102539 
vt 0.21521423757076263 0.5120365619659424 
vt 0.1802217662334442 0.47103452682495117 
vt 0.21521423757076263 0.47103452682495117 
vt 0.1802217662334442 0.43601563572883606 
vt 0.21521423757076263 0.43601563572883606 
vt 0.21521423757076263 0.8654811382293701 
vt 0.21521423757076263 0.8306382298469543 
vt 0.1802217662334442 0.8653931617736816 
vt 0.1802217662334442 0.8305502533912659 
vt 0.21521423757076263 0.7993147969245911 
vt 0.1802217662334442 0.7993147969245911 
vt 0.21521423757076263 0.5459116697311401 
vt 0.1802217662334442 0.546263575553894 
vt 0.21521423757076263 0.5119485855102539 
vt 0.1802217662334442 0.5119485855102539 
vt 0.21521423757076263 0.47103452682495117 
vt 0.1802217662334442 0.47103452682495117 
vt 0.21521423757076263 0.43601563572883606 
vt 0.1802217662334442 0.4359276592731476 
vt 0.7949023246765137 0.8142725825309753 
vt 0.71636563539505 0.8409327268600464 
vt 0.767152726650238 0.8342456817626953 
vt 0.5916668176651001 0.8409327268600464 
vt 0.5408797264099121 0.8342456817626953 
vt 0.5131301283836365 0.8142725825309753 
vt 0.71636563539505 0.8409327268600464 
vt 0.5131301283836365 0.8142725825309753 
vt 0.5916668176651001 0.8409327268600464 
vt 0.5131301283836365 0.8142725825309753 
vt 0.4989062547683716 0.7777579426765442 
vt 0.48869648575782776 0.7213581204414368 
vt 0.48869648575782776 0.7213581204414368 
vt 0.48023197054862976 0.5702841281890869 
vt 0.4825007915496826 0.6503524780273438 
vt 0.5131301283836365 0.8142725825309753 
vt 0.48869648575782776 0.7213581204414368 
vt 0.48023197054862976 0.5702841281890869 
vt 0.48023197054862976 0.5702841281890869 
vt 0.4918379485607147 0.4406789541244507 
vt 0.48302438855171204 0.4955829679965973 
vt 0.4918379485607147 0.4406789541244507 
vt 0.5063235759735107 0.40451622009277344 
vt 0.5259577631950378 0.38586291670799255 
vt 0.48023197054862976 0.5702841281890869 
vt 0.5259577631950378 0.38586291670799255 
vt 0.4918379485607147 0.4406789541244507 
vt 0.5131301283836365 0.8142725825309753 
vt 0.48023197054862976 0.5702841281890869 
vt 0.5259577631950378 0.38586291670799255 
vt 0.5259577631950378 0.38586291670799255 
vt 0.601091206073761 0.37583237886428833 
vt 0.5559762716293335 0.3784720003604889 
vt 0.5259577631950378 0.38586291670799255 
vt 0.601091206073761 0.37583237886428833 
vt 0.7067667245864868 0.37583237886428833 
vt 0.7067667245864868 0.37583237886428833 
vt 0.78190016746521 0.3857749402523041 
vt 0.7520562410354614 0.3783840239048004 
vt 0.78190016746521 0.3857749402523041 
vt 0.8016216158866882 0.4044282138347626 
vt 0.8161072731018066 0.4405909776687622 
vt 0.7067667245864868 0.37583237886428833 
vt 0.8161072731018066 0.4405909776687622 
vt 0.78190016746521 0.3857749402523041 
vt 0.5259577631950378 0.38586291670799255 
vt 0.7067667245864868 0.37583237886428833 
vt 0.8161072731018066 0.4405909776687622 
vt 0.8249208331108093 0.4954949915409088 
vt 0.8161072731018066 0.4405909776687622 
vt 0.8277132511138916 0.5702841281890869 
vt 0.8192487359046936 0.7212701439857483 
vt 0.8254444003105164 0.6503524780273438 
vt 0.5259577631950378 0.38586291670799255 
vt 0.8161072731018066 0.4405909776687622 
vt 0.8192487359046936 0.7212701439857483 
vt 0.5131301283836365 0.8142725825309753 
vt 0.8192487359046936 0.7212701439857483 
vt 0.5259577631950378 0.38586291670799255 
vt 0.71636563539505 0.8409327268600464 
vt 0.5131301283836365 0.8142725825309753 
vt 0.8192487359046936 0.7212701439857483 
vt 0.7949023246765137 0.8142725825309753 
vt 0.8192487359046936 0.7212701439857483 
vt 0.71636563539505 0.8409327268600464 
vt 0.8091261982917786 0.7777579426765442 
vt 0.7949023246765137 0.8142725825309753 
vt 0.8192487359046936 0.7212701439857483 
vt 0.12105745822191238 0.21569567918777466 
vt 0.12908565998077393 0.21657554805278778 
vt 0.11512357741594315 0.2130560725927353 
vt 0.11294200271368027 0.2095365822315216 
vt 0.15421739220619202 0.21657554805278778 
vt 0.15421739220619202 0.18067677319049835 
vt 0.19549280405044556 0.18067677319049835 
vt 0.19549280405044556 0.14477799832820892 
vt 0.2367682009935379 0.14477799832820892 
vt 0.2367682009935379 0.18067677319049835 
vt 0.19549280405044556 0.21657554805278778 
vt 0.2367682009935379 0.21657554805278778 
vt 0.27804359793663025 0.2095365822315216 
vt 0.2618999481201172 0.21657554805278778 
vt 0.2758620083332062 0.2130560725927353 
vt 0.2700153887271881 0.21569567918777466 
vt 0.11294200271368027 0.18067677319049835 
vt 0.11294200271368027 0.1518169790506363 
vt 0.15421739220619202 0.14477799832820892 
vt 0.27804359793663025 0.18067677319049835 
vt 0.27804359793663025 0.1518169790506363 
vt 0.2618999481201172 0.14477799832820892 
vt 0.2758620083332062 0.1482974886894226 
vt 0.2700153887271881 0.14574585855007172 
vt 0.12908565998077393 0.14477799832820892 
vt 0.11512357741594315 0.1482974886894226 
vt 0.12105745822191238 0.14574585855007172 
vt 0.12105745822191238 0.21569567918777466 
vt 0.12908565998077393 0.21657554805278778 
vt 0.11512357741594315 0.2130560725927353 
vt 0.11294200271368027 0.2095365822315216 
vt 0.15421739220619202 0.21657554805278778 
vt 0.15421739220619202 0.18067677319049835 
vt 0.19549280405044556 0.18067677319049835 
vt 0.19549280405044556 0.14477799832820892 
vt 0.2367682009935379 0.14477799832820892 
vt 0.2367682009935379 0.18067677319049835 
vt 0.19549280405044556 0.21657554805278778 
vt 0.2367682009935379 0.21657554805278778 
vt 0.27804359793663025 0.2095365822315216 
vt 0.2618999481201172 0.21657554805278778 
vt 0.2758620083332062 0.2130560725927353 
vt 0.2700153887271881 0.21569567918777466 
vt 0.11294200271368027 0.18067677319049835 
vt 0.11294200271368027 0.1518169790506363 
vt 0.15421739220619202 0.14477799832820892 
vt 0.27804359793663025 0.18067677319049835 
vt 0.27804359793663025 0.1518169790506363 
vt 0.2618999481201172 0.14477799832820892 
vt 0.2758620083332062 0.1482974886894226 
vt 0.2700153887271881 0.14574585855007172 
vt 0.12908565998077393 0.14477799832820892 
vt 0.11512357741594315 0.1482974886894226 
vt 0.12105745822191238 0.14574585855007172 
s on 
f 1/1/1 2/2/2 3/3/3 
f 2/2/2 4/4/4 3/3/3 
f 3/3/3 4/4/4 5/5/5 
f 4/4/4 6/6/6 5/5/5 
f 5/5/5 6/6/6 7/7/7 
f 6/6/6 8/8/8 7/7/7 
f 7/7/7 8/8/8 9/9/9 
f 8/8/8 10/10/10 9/9/9 
f 9/9/9 10/10/10 11/11/11 
f 10/10/10 12/12/12 11/11/11 
f 11/11/11 12/12/12 12/12/12 
f 12/12/12 13/13/13 12/12/12 
f 12/12/12 13/13/13 13/13/13 
f 13/13/13 14/14/14 13/13/13 
f 13/13/13 14/14/14 15/15/15 
f 14/14/14 14/14/14 15/15/15 
f 15/15/15 14/14/14 16/16/16 
f 14/14/14 17/17/17 16/16/16 
f 16/16/16 17/17/17 18/18/18 
f 17/17/17 19/19/19 18/18/18 
f 18/18/18 19/19/19 20/20/20 
f 19/19/19 21/21/21 20/20/20 
f 20/20/20 21/21/21 22/22/22 
f 21/21/21 23/23/23 22/22/22 
f 22/22/22 23/23/23 24/24/24 
f 23/23/23 25/25/25 24/24/24 
f 24/24/24 25/25/25 26/26/26 
f 25/25/25 26/26/26 26/26/26 
f 26/26/26 26/26/26 27/27/27 
f 26/26/26 27/27/27 27/27/27 
f 27/27/27 27/27/27 28/28/28 
f 27/27/27 29/29/29 28/28/28 
f 28/28/28 29/29/29 29/29/29 
f 29/29/29 30/30/30 29/29/29 
f 29/29/29 30/30/30 30/30/30 
f 30/30/30 31/31/31 30/30/30 
f 30/30/30 31/31/31 32/32/32 
f 31/31/31 32/32/32 32/32/32 
f 32/32/32 32/32/32 33/33/33 
f 32/32/32 33/33/33 33/33/33 
f 33/33/33 33/33/33 34/34/34 
f 33/33/33 35/35/35 34/34/34 
f 34/34/34 35/35/35 35/35/35 
f 35/35/35 36/36/36 35/35/35 
f 35/35/35 36/36/36 36/36/36 
f 36/36/36 37/37/37 36/36/36 
f 36/36/36 37/37/37 38/38/38 
f 37/37/37 38/38/38 38/38/38 
f 38/38/38 38/38/38 39/39/39 
f 38/38/38 39/39/39 39/39/39 
f 39/39/39 39/39/39 40/40/40 
f 39/39/39 41/41/41 40/40/40 
f 40/40/40 41/41/41 41/41/41 
f 41/41/41 42/42/42 41/41/41 
f 41/41/41 42/42/42 42/42/42 
f 42/42/42 43/43/43 42/42/42 
f 42/42/42 43/43/43 44/44/44 
f 43/43/43 44/44/44 44/44/44 
f 44/44/44 44/44/44 45/45/45 
f 44/44/44 45/45/45 45/45/45 
f 45/45/45 45/45/45 46/46/46 
f 45/45/45 47/47/47 46/46/46 
f 46/46/46 47/47/47 47/47/47 
f 47/47/47 48/48/48 47/47/47 
f 47/47/47 48/48/48 48/48/48 
f 48/48/48 49/49/49 48/48/48 
f 48/48/48 49/49/49 50/50/50 
f 49/49/49 50/50/50 50/50/50 
f 50/50/50 50/50/50 51/51/51 
f 50/50/50 51/51/51 51/51/51 
f 51/51/51 51/51/51 52/52/52 
f 51/51/51 53/53/53 52/52/52 
f 52/52/52 53/53/53 53/53/53 
f 53/53/53 54/54/54 53/53/53 
f 53/53/53 54/54/54 54/54/54 
f 54/54/54 55/55/55 54/54/54 
f 54/54/54 55/55/55 56/56/56 
f 55/55/55 56/56/56 56/56/56 
f 56/56/56 56/56/56 57/57/57 
f 56/56/56 57/57/57 57/57/57 
f 57/57/57 57/57/57 58/58/58 
f 57/57/57 59/59/59 58/58/58 
f 58/58/58 59/59/59 59/59/59 
f 59/59/59 60/60/60 59/59/59 
f 59/59/59 60/60/60 60/60/60 
f 60/60/60 61/61/61 60/60/60 
f 60/60/60 61/61/61 62/62/62 
f 61/61/61 62/62/62 62/62/62 
f 62/62/62 62/62/62 63/63/63 
f 62/62/62 63/63/63 63/63/63 
f 63/63/63 63/63/63 64/64/64 
f 63/63/63 65/65/65 64/64/64 
f 64/64/64 65/65/65 65/65/65 
f 65/65/65 66/66/66 65/65/65 
f 65/65/65 66/66/66 66/66/66 
f 66/66/66 67/67/67 66/66/66 
f 66/66/66 67/67/67 68/68/68 
f 67/67/67 68/68/68 68/68/68 
f 68/68/68 68/68/68 69/69/69 
f 68/68/68 69/69/69 69/69/69 
f 69/69/69 69/69/69 70/70/70 
f 69/69/69 71/71/71 70/70/70 
f 70/70/70 71/71/71 71/71/71 
f 71/71/71 72/72/72 71/71/71 
f 71/71/71 72/72/72 72/72/72 
f 72/72/72 73/73/73 72/72/72 
f 72/72/72 73/73/73 74/74/74 
f 73/73/73 74/74/74 74/74/74 
f 74/74/74 74/74/74 75/75/75 
f 74/74/74 75/75/75 75/75/75 
f 75/75/75 75/75/75 76/76/76 
f 75/75/75 77/77/77 76/76/76 
f 76/76/76 77/77/77 78/78/78 
f 77/77/77 79/79/79 78/78/78 
f 78/78/78 79/79/79 79/79/79 
f 79/79/79 80/80/80 79/79/79 
f 79/79/79 80/80/80 80/80/80 
f 80/80/80 81/81/81 80/80/80 
f 80/80/80 81/81/81 82/82/82 
f 81/81/81 82/82/82 82/82/82 
f 82/82/82 82/82/82 83/83/83 
f 82/82/82 83/83/83 83/83/83 
f 83/83/83 83/83/83 84/84/84 
f 83/83/83 85/85/85 84/84/84 
f 84/84/84 85/85/85 85/85/85 
f 85/85/85 86/86/86 85/85/85 
f 85/85/85 86/86/86 86/86/86 
f 86/86/86 87/87/87 86/86/86 
f 86/86/86 87/87/87 88/88/88 
f 87/87/87 88/88/88 88/88/88 
f 88/88/88 88/88/88 89/89/89 
f 88/88/88 89/89/89 89/89/89 
f 89/89/89 89/89/89 90/90/90 
f 89/89/89 91/91/91 90/90/90 
f 90/90/90 91/91/91 91/91/91 
f 91/91/91 92/92/92 91/91/91 
f 91/91/91 92/92/92 92/92/92 
f 92/92/92 93/93/93 92/92/92 
f 92/92/92 93/93/93 94/94/94 
f 93/93/93 94/94/94 94/94/94 
f 94/94/94 94/94/94 95/95/95 
f 94/94/94 95/95/95 95/95/95 
f 95/95/95 95/95/95 96/96/96 
f 95/95/95 97/97/97 96/96/96 
f 96/96/96 97/97/97 96/96/96 
f 97/97/97 98/98/98 96/96/96 
f 96/96/96 98/98/98 99/99/99 
f 98/98/98 100/100/100 99/99/99 
f 99/99/99 100/100/100 101/101/101 
f 100/100/100 102/102/102 101/101/101 
f 101/101/101 102/102/102 101/101/101 
f 102/102/102 103/103/103 101/101/101 
f 101/101/101 103/103/103 101/101/101 
f 103/103/103 104/104/104 101/101/101 
f 101/101/101 104/104/104 105/105/105 
f 104/104/104 104/104/104 105/105/105 
f 105/105/105 104/104/104 106/106/106 
f 104/104/104 107/107/107 106/106/106 
f 106/106/106 107/107/107 108/108/108 
f 107/107/107 109/109/109 108/108/108 
f 108/108/108 109/109/109 110/110/110 
f 109/109/109 110/110/110 110/110/110 
f 110/110/110 110/110/110 101/101/101 
f 110/110/110 101/101/101 101/101/101 
f 101/101/101 101/101/101 99/99/99 
f 101/101/101 105/105/105 99/99/99 
f 99/99/99 105/105/105 105/105/105 
f 105/105/105 98/98/98 105/105/105 
f 105/105/105 98/98/98 98/98/98 
f 98/98/98 111/111/111 98/98/98 
f 98/98/98 111/111/111 100/100/100 
f 111/111/111 112/112/112 100/100/100 
f 100/100/100 112/112/112 100/100/100 
f 112/112/112 113/113/113 100/100/100 
f 100/100/100 113/113/113 102/102/102 
f 113/113/113 102/102/102 102/102/102 
f 102/102/102 102/102/102 107/107/107 
f 102/102/102 107/107/107 107/107/107 
f 107/107/107 107/107/107 114/114/114 
f 107/107/107 104/104/104 114/114/114 
f 114/114/114 104/104/104 115/115/115 
f 104/104/104 103/103/103 115/115/115 
f 115/115/115 103/103/103 115/115/115 
f 103/103/103 116/116/116 115/115/115 
f 115/115/115 116/116/116 117/117/117 
f 116/116/116 118/118/118 117/117/117 
f 117/117/117 118/118/118 118/118/118 
f 118/118/118 113/113/113 118/118/118 
f 118/118/118 113/113/113 113/113/113 
f 113/113/113 112/112/112 113/113/113 
f 113/113/113 112/112/112 119/119/119 
f 112/112/112 120/120/120 119/119/119 
f 119/119/119 120/120/120 121/121/121 
f 120/120/120 121/121/121 121/121/121 
f 121/121/121 121/121/121 122/122/122 
f 121/121/121 122/122/122 122/122/122 
f 122/122/122 122/122/122 123/123/123 
f 122/122/122 124/124/124 123/123/123 
f 123/123/123 124/124/124 123/123/123 
f 124/124/124 125/125/125 123/123/123 
f 123/123/123 125/125/125 126/126/126 
f 125/125/125 127/127/127 126/126/126 
f 126/126/126 127/127/127 128/128/128 
f 127/127/127 129/129/129 128/128/128 
f 128/128/128 129/129/129 128/128/128 
f 129/129/129 130/130/130 128/128/128 
f 128/128/128 130/130/130 128/128/128 
f 130/130/130 131/131/131 128/128/128 
f 128/128/128 131/131/131 132/132/132 
f 131/131/131 131/131/131 132/132/132 
f 132/132/132 131/131/131 133/133/133 
f 131/131/131 134/134/134 133/133/133 
f 133/133/133 134/134/134 135/135/135 
f 134/134/134 136/136/136 135/135/135 
f 135/135/135 136/136/136 137/137/137 
f 136/136/136 137/137/137 137/137/137 
f 137/137/137 137/137/137 128/128/128 
f 137/137/137 128/128/128 128/128/128 
f 128/128/128 128/128/128 126/126/126 
f 128/128/128 132/132/132 126/126/126 
f 126/126/126 132/132/132 132/132/132 
f 132/132/132 125/125/125 132/132/132 
f 132/132/132 125/125/125 125/125/125 
f 125/125/125 138/138/138 125/125/125 
f 125/125/125 138/138/138 127/127/127 
f 138/138/138 139/139/139 127/127/127 
f 127/127/127 139/139/139 127/127/127 
f 139/139/139 140/140/140 127/127/127 
f 127/127/127 140/140/140 129/129/129 
f 140/140/140 129/129/129 129/129/129 
f 129/129/129 129/129/129 134/134/134 
f 129/129/129 134/134/134 134/134/134 
f 134/134/134 134/134/134 141/141/141 
f 134/134/134 131/131/131 141/141/141 
f 141/141/141 131/131/131 142/142/142 
f 131/131/131 130/130/130 142/142/142 
f 142/142/142 130/130/130 142/142/142 
f 130/130/130 143/143/143 142/142/142 
f 142/142/142 143/143/143 144/144/144 
f 143/143/143 145/145/145 144/144/144 
f 144/144/144 145/145/145 145/145/145 
f 145/145/145 140/140/140 145/145/145 
f 145/145/145 140/140/140 140/140/140 
f 140/140/140 139/139/139 140/140/140 
f 140/140/140 139/139/139 146/146/146 
f 139/139/139 147/147/147 146/146/146 
f 146/146/146 147/147/147 148/148/148 

