mtllib model_2.mtl
o model_2
v 0.3494752049446106 -0.06716705858707428 -2.1223316192626953 
v 0.4388296604156494 -0.05216425284743309 -2.1250665187835693 
v 0.43885084986686707 -0.051703207194805145 -2.116364002227783 
v 0.5131463408470154 -0.0393318273127079 -2.120093584060669 
v 0.5131340622901917 -0.0390503816306591 -2.128796100616455 
v 0.5612292289733887 -0.03076154738664627 -2.125688076019287 
v 0.5612272024154663 -0.029767265543341637 -2.1340174674987793 
v 0.5867981314659119 -0.025474704802036285 -2.13240122795105 
v 0.3494647145271301 -0.06598017364740372 -2.113877773284912 
v 0.3494952917098999 -0.06762629747390747 -2.1310341358184814 
v 0.43885865807533264 -0.05188101902604103 -2.1337690353393555 
v 0.5131313800811768 -0.03804129362106323 -2.137249708175659 
v 0.34952428936958313 -0.06734307110309601 -2.1397366523742676 
v 0.4388566017150879 -0.05088673532009125 -2.1420986652374268 
v 0.34952160716056824 -0.06633396446704865 -2.1480660438537598 
v 0.2600267827510834 -0.08285675942897797 -2.1455798149108887 
v 0.2600241005420685 -0.0818476676940918 -2.154033899307251 
v 0.18530456721782684 -0.09587015211582184 -2.150552988052368 
v 0.18527621030807495 -0.09616819769144058 -2.141850471496582 
v 0.2599984407424927 -0.08315481245517731 -2.1368772983551025 
v 0.5131414532661438 -0.03637861832976341 -2.1449577808380127 
v 0.5611960291862488 -0.028106389567255974 -2.1417253017425537 
v 0.5868075489997864 -0.023797208443284035 -2.140109062194824 
v 0.34953171014785767 -0.06467128545045853 -2.1557741165161133 
v 0.2600335478782654 -0.0801701694726944 -2.1617417335510254 
v 0.4388660788536072 -0.049209240823984146 -2.149930715560913 
v 0.5131663084030151 -0.0341067798435688 -2.1517956256866455 
v 0.5612202286720276 -0.025819730013608932 -2.1485631465911865 
v 0.5867905020713806 -0.021512366831302643 -2.146946668624878 
v 0.18531005084514618 -0.0931539312005043 -2.166714668273926 
v 0.2600165009498596 -0.07788532972335815 -2.168579339981079 
v 0.3495146632194519 -0.06238643079996109 -2.162611722946167 
v 0.3495155870914459 -0.05956650897860527 -2.168206214904785 
v 0.26001614332199097 -0.07503576576709747 -2.1740496158599854 
v 0.3494977653026581 -0.056316982954740524 -2.172308921813965 
v 0.26003894209861755 -0.07176961749792099 -2.178276538848877 
v 0.34950825572013855 -0.052769385278224945 -2.174795389175415 
v 0.26000815629959106 -0.06822383403778076 -2.180762767791748 
v 0.3495129346847534 -0.04908846691250801 -2.1757898330688477 
v 0.2600115239620209 -0.06451328098773956 -2.181633234024048 
v 0.43884965777397156 -0.04693920165300369 -2.156644105911255 
v 0.1853121817111969 -0.08467932790517807 -2.1832494735717773 
v 0.4388485848903656 -0.0336560420691967 -2.1698222160339355 
v 0.43884390592575073 -0.037336960434913635 -2.168951988220215 
v 0.5131239891052246 -0.020825417712330818 -2.164849281311035 
v 0.43883275985717773 -0.04086973890662193 -2.1663413047790527 
v 0.4388505816459656 -0.04411926493048668 -2.162238597869873 
v 0.513126015663147 -0.031288642436265945 -2.1572656631469727 
v 0.5131494402885437 -0.028037315234541893 -2.1613681316375732 
v 0.5131605863571167 -0.024504534900188446 -2.1639790534973145 
v 0.5612191557884216 -0.012536583468317986 -2.161616802215576 
v 0.5612145066261292 -0.01621750183403492 -2.1607465744018555 
v 0.5867848992347717 -0.008125513792037964 -2.1600005626678467 
v 0.5612033605575562 -0.019750282168388367 -2.1582601070404053 
v 0.561221182346344 -0.022999808192253113 -2.1541574001312256 
v 0.5867908000946045 -0.018677623942494392 -2.152416944503784 
v 0.5867716670036316 -0.015398476272821426 -2.156643867492676 
v 0.5867815017700195 -0.011836056597530842 -2.159130334854126 
v 0.5973310470581055 -0.006299625150859356 -2.1596274375915527 
v 0.5973315238952637 -0.01009905431419611 -2.15863299369812 
v 0.6002441644668579 -0.005786559544503689 -2.1597516536712646 
v 0.5973249077796936 -0.013735541142523289 -2.156022071838379 
v 0.5973047018051147 -0.01706092059612274 -2.1519196033477783 
v 0.597307026386261 -0.019954925402998924 -2.14632511138916 
v 0.5973259806632996 -0.022284209728240967 -2.1394875049591064 
v 0.5973171591758728 -0.0239765252918005 -2.131655216217041 
v 0.5868008136749268 -0.02648380771279335 -2.1239473819732666 
v 0.5612008571624756 -0.031059598550200462 -2.116985559463501 
v 0.5131262540817261 -0.03887258470058441 -2.111391067504883 
v 0.43884098529815674 -0.050531141459941864 -2.107910394668579 
v 0.3494676947593689 -0.06415450572967529 -2.1061699390411377 
v 0.4388439655303955 -0.04870547726750374 -2.1002023220062256 
v 0.34944477677345276 -0.06173630803823471 -2.099332332611084 
v 0.43882104754447937 -0.04628727585077286 -2.093488931655884 
v 0.3494405150413513 -0.05879784747958183 -2.093862295150757 
v 0.43881678581237793 -0.043348804116249084 -2.0878946781158447 
v 0.34941941499710083 -0.055474236607551575 -2.089759588241577 
v 0.43879568576812744 -0.04002520814538002 -2.083791971206665 
v 0.3494279682636261 -0.05188219994306564 -2.087148666381836 
v 0.4388042390346527 -0.036433152854442596 -2.081181287765503 
v 0.3494313359260559 -0.04817163571715355 -2.0862786769866943 
v 0.4388076066970825 -0.032722607254981995 -2.0803110599517822 
v 0.3493940830230713 -0.04447771608829498 -2.087148666381836 
v 0.43877100944519043 -0.029043488204479218 -2.081181287765503 
v 0.3494052290916443 -0.04094491899013519 -2.089759588241577 
v 0.4387821555137634 -0.025510692968964577 -2.083791971206665 
v 0.34938740730285645 -0.03769539296627045 -2.093862295150757 
v 0.4387649595737457 -0.02227598801255226 -2.0878946781158447 
v 0.34938833117485046 -0.03487547114491463 -2.099332332611084 
v 0.43876588344573975 -0.0194560494273901 -2.093489170074463 
v 0.3494125306606293 -0.032588813453912735 -2.1061699390411377 
v 0.43879011273384094 -0.0171694066375494 -2.1002023220062256 
v 0.3494226634502411 -0.030926136299967766 -2.113878011703491 
v 0.43880021572113037 -0.015506729483604431 -2.108034610748291 
v 0.3494199812412262 -0.029917050153017044 -2.1223316192626953 
v 0.438798189163208 -0.014512446708977222 -2.1163642406463623 
v 0.34940770268440247 -0.029635604470968246 -2.1310341358184814 
v 0.43878525495529175 -0.014216196723282337 -2.1250667572021484 
v 0.3494277596473694 -0.030094847083091736 -2.1397366523742676 
v 0.4388059973716736 -0.014690243639051914 -2.1337692737579346 
v 0.3494376242160797 -0.03126692399382591 -2.148066282272339 
v 0.4388158321380615 -0.015862323343753815 -2.1422228813171387 
v 0.34943467378616333 -0.03309259191155434 -2.1558985710144043 
v 0.43881288170814514 -0.01768798753619194 -2.149930715560913 
v 0.3494575619697571 -0.03551077842712402 -2.162611722946167 
v 0.4388357698917389 -0.02010619081556797 -2.156644344329834 
v 0.3494618535041809 -0.0384492501616478 -2.168206214904785 
v 0.4388400614261627 -0.02304464764893055 -2.162238597869873 
v 0.34948357939720154 -0.04178766533732414 -2.172308921813965 
v 0.43881988525390625 -0.026370061561465263 -2.1663413047790527 
v 0.5131154656410217 -0.010214025154709816 -2.1572656631469727 
v 0.5131365656852722 -0.013537636958062649 -2.1613683700561523 
v 0.5131111741065979 -0.007275552488863468 -2.1517956256866455 
v 0.5131295323371887 -0.004855563398450613 -2.144958019256592 
v 0.5131325125694275 -0.0030298978090286255 -2.1372499465942383 
v 0.5131226778030396 -0.0018578190356492996 -2.128796100616455 
v 0.5131019353866577 -0.0013837716542184353 -2.120093584060669 
v 0.5131142139434814 -0.0016652023186907172 -2.111391067504883 
v 0.5131168961524963 -0.002674289746209979 -2.1030616760253906 
v 0.5131068229675293 -0.004336981568485498 -2.095353603363037 
v 0.5131232142448425 -0.006607018876820803 -2.0885159969329834 
v 0.5131222605705261 -0.00942694116383791 -2.0829217433929443 
v 0.5130988359451294 -0.012678269296884537 -2.0788190364837646 
v 0.5130876898765564 -0.016211049631237984 -2.0763325691223145 
v 0.5131242871284485 -0.019890181720256805 -2.0754623413085938 
v 0.5131208896636963 -0.023600727319717407 -2.0763325691223145 
v 0.5131117105484009 -0.02717796340584755 -2.0788190364837646 
v 0.5131328105926514 -0.030501574277877808 -2.0829215049743652 
v 0.5131370425224304 -0.03344003111124039 -2.0885159969329834 
v 0.5131186842918396 -0.03586003556847572 -2.095229387283325 
v 0.5131157636642456 -0.03768569976091385 -2.1030614376068115 
v 0.5612214207649231 -0.03058375045657158 -2.108283042907715 
v 0.5867717862129211 -0.02676703967154026 -2.1152448654174805 
v 0.5973204970359802 -0.02500043250620365 -2.123201370239258 
v 0.6002574563026428 -0.02408560737967491 -2.131531000137329 
v 0.6002643704414368 -0.022348864004015923 -2.1393630504608154 
v 0.6002421379089355 -0.01994551159441471 -2.14632511138916 
v 0.6002359390258789 -0.016962634399533272 -2.1520438194274902 
v 0.6002503037452698 -0.013503910973668098 -2.156270980834961 
v 0.6002511382102966 -0.009734123945236206 -2.158881664276123 
v 0.6029180884361267 -0.005476868711411953 -2.1603734493255615 
v 0.6029354333877563 -0.009661438874900341 -2.15937876701355 
v 0.6047647595405579 -0.0051587847992777824 -2.1612439155578613 
v 0.6029443144798279 -0.013653443194925785 -2.156643867492676 
v 0.6029383540153503 -0.01730472967028618 -2.152292490005493 
v 0.6029516458511353 -0.020450560376048088 -2.146573781967163 
v 0.6029371619224548 -0.022959405556321144 -2.1394875049591064 
v 0.6029334664344788 -0.024770217016339302 -2.131531000137329 
v 0.6002621054649353 -0.025139138102531433 -2.123076915740967 
v 0.5973334312438965 -0.025296682491898537 -2.114499092102051 
v 0.5867930054664612 -0.02630601078271866 -2.1065423488616943 
v 0.5612115859985352 -0.029411671683192253 -2.0998289585113525 
v 0.5612145662307739 -0.02758600562810898 -2.092121124267578 
v 0.5611916184425354 -0.025167804211378098 -2.0852835178375244 
v 0.5611873865127563 -0.02222934551537037 -2.0798134803771973 
v 0.5612068772315979 -0.018889114260673523 -2.0757107734680176 
v 0.5612161159515381 -0.015311893075704575 -2.0731000900268555 
v 0.5612194538116455 -0.011601331643760204 -2.0722298622131348 
v 0.5611822009086609 -0.007907410152256489 -2.0731000900268555 
v 0.5611933469772339 -0.004374614916741848 -2.0757107734680176 
v 0.561175525188446 -0.0011250897077843547 -2.0798134803771973 
v 0.5611764788627625 0.0016948329284787178 -2.0852835178375244 
v 0.5612006783485413 0.0039814915508031845 -2.0921213626861572 
v 0.5612108111381531 0.005644168704748154 -2.0998291969299316 
v 0.5612087845802307 0.006638451479375362 -2.108283042907715 
v 0.5611958503723145 0.006934701465070248 -2.116985559463501 
v 0.5612165331840515 0.006460654083639383 -2.125688076019287 
v 0.5611851215362549 0.005286773666739464 -2.1340177059173584 
v 0.5612234473228455 0.00346290972083807 -2.141725540161133 
v 0.5612050890922546 0.001042905612848699 -2.1485631465911865 
v 0.5612093806266785 -0.0018955523846670985 -2.1541574001312256 
v 0.5611898303031921 -0.005235784221440554 -2.1582601070404053 
v 0.5867718458175659 0.00258957059122622 -2.152416944503784 
v 0.5867942571640015 -0.0007636645459569991 -2.156643867492676 
v 0.5867669582366943 0.005542847793549299 -2.146946907043457 
v 0.5867846608161926 0.00797767098993063 -2.140109062194824 
v 0.5867869853973389 0.009818141348659992 -2.13240122795105 
v 0.5867771506309509 0.010990220122039318 -2.1239473819732666 
v 0.5867976546287537 0.011466069146990776 -2.1152451038360596 
v 0.5867693424224854 0.01116801705211401 -2.1065425872802734 
v 0.5867720246315002 0.010158929973840714 -2.0980887413024902 
v 0.586762547492981 0.008481433615088463 -2.0903806686401367 
v 0.5867795944213867 0.006196577101945877 -2.083543062210083 
v 0.5867799520492554 0.0033470308408141136 -2.077948570251465 
v 0.5867984294891357 0.00008268599776783958 -2.0738461017608643 
v 0.5867892503738403 -0.0034945376683026552 -2.071235418319702 
v 0.5867858529090881 -0.0072050802409648895 -2.0703649520874023 
v 0.586783766746521 -0.010945266112685204 -2.071235418319702 
v 0.5867758989334106 -0.014552125707268715 -2.0738461017608643 
v 0.5867982506752014 -0.017905360087752342 -2.077948570251465 
v 0.5868031978607178 -0.020858637988567352 -2.083543062210083 
v 0.5867854356765747 -0.023293446749448776 -2.0903806686401367 
v 0.5867831707000732 -0.025133932009339333 -2.0980887413024902 
v 0.5973133444786072 -0.024837439879775047 -2.1056721210479736 
v 0.6002337336540222 -0.025437189266085625 -2.1142501831054688 
v 0.6029400825500488 -0.025868190452456474 -2.122952699661255 
v 0.6047958135604858 -0.025757506489753723 -2.131531000137329 
v 0.6047955751419067 -0.023857809603214264 -2.1397359371185303 
v 0.6047623753547668 -0.021202631294727325 -2.146822452545166 
v 0.6047812700271606 -0.017847616225481033 -2.152789831161499 
v 0.604776918888092 -0.013959308154881 -2.1573896408081055 
v 0.604796290397644 -0.009669248946011066 -2.1601250171661377 
v 0.605867326259613 -0.004843493923544884 -2.162113904953003 
v 0.605873167514801 -0.009711291640996933 -2.161119222640991 
v 0.6063083410263062 -0.004527407698333263 -2.1631085872650146 
v 0.606290340423584 -0.00979696772992611 -2.161989688873291 
v 0.6058685779571533 -0.014342064037919044 -2.1581356525421143 
v 0.605885922908783 -0.018526626750826836 -2.153411388397217 
v 0.6058773398399353 -0.022118646651506424 -2.1473195552825928 
v 0.6058763861656189 -0.02493857964873314 -2.1398606300354004 
v 0.6058818101882935 -0.026956787332892418 -2.131531000137329 
v 0.6047636866569519 -0.02691652998328209 -2.122704029083252 
v 0.6029130220413208 -0.026195865124464035 -2.114001512527466 
v 0.6002549529075623 -0.024976160377264023 -2.1054234504699707 
v 0.5973028540611267 -0.023650556802749634 -2.0973427295684814 
v 0.597305178642273 -0.021810071542859077 -2.089510440826416 
v 0.5973215699195862 -0.019345639273524284 -2.082672595977783 
v 0.597314715385437 -0.016347918659448624 -2.077078342437744 
v 0.597331702709198 -0.012948437593877316 -2.0728514194488525 
v 0.5972951054573059 -0.00926931295543909 -2.0703649520874023 
v 0.5972939133644104 -0.005455074831843376 -2.0693702697753906 
v 0.5972934365272522 -0.0016556454356759787 -2.0703649520874023 
v 0.5972993969917297 0.001995645696297288 -2.0729756355285645 
v 0.5973182916641235 0.005350664258003235 -2.077078342437744 
v 0.5973153710365295 0.008259488269686699 -2.0826728343963623 
v 0.5972963571548462 0.010588773526251316 -2.089510440826416 
v 0.5973045229911804 0.012295893393456936 -2.0973427295684814 
v 0.597301185131073 0.013319799676537514 -2.1057965755462646 
v 0.5973295569419861 0.01361785177141428 -2.114499092102051 
v 0.5973089933395386 0.013142002746462822 -2.123325824737549 
v 0.5973188281059265 0.011969923973083496 -2.131655216217041 
v 0.5973171591758728 0.010114634409546852 -2.1394877433776855 
v 0.5973007678985596 0.007650186773389578 -2.14632511138916 
v 0.5973082780838013 0.004637661390006542 -2.1519196033477783 
v 0.5973339080810547 0.0012103591579943895 -2.156022310256958 
v 0.6002432703971863 0.005596932955086231 -2.1520438194274902 
v 0.6002334356307983 0.0020345132797956467 -2.156270980834961 
v 0.6002312302589417 0.008713164366781712 -2.14632511138916 
v 0.600244402885437 0.011251664720475674 -2.1394877433776855 
v 0.6002448201179504 0.013136578723788261 -2.131655216217041 
v 0.60023432970047 0.014323476701974869 -2.123077154159546 
v 0.6002554893493652 0.014784506522119045 -2.114250421524048 
v 0.600269079208374 0.014473452232778072 -2.10542368888855 
v 0.6002324223518372 0.013418120332062244 -2.0969698429107666 
v 0.6002674698829651 0.011668357998132706 -2.089137554168701 
v 0.6002490520477295 0.009248385205864906 -2.0821754932403564 
v 0.600257158279419 0.0062210652977228165 -2.0764567852020264 
v 0.6002441048622131 0.002732731867581606 -2.0722296237945557 
v 0.6002452373504639 -0.0010815131245180964 -2.0696189403533936 
v 0.6002528667449951 -0.005043881945312023 -2.068624258041382 
v 0.6002598404884338 -0.008991450071334839 -2.0696189403533936 
v 0.6002609729766846 -0.012805691920220852 -2.0722296237945557 
v 0.6002492308616638 -0.01632368378341198 -2.0764567852020264 
v 0.6002599596977234 -0.019410274922847748 -2.0820510387420654 
v 0.600245475769043 -0.021919166669249535 -2.08901309967041 
v 0.6002444624900818 -0.023789260536432266 -2.0968453884124756 
v 0.6029348373413086 -0.02574964053928852 -2.105050563812256 
v 0.6047791838645935 -0.027272041887044907 -2.113628625869751 
v 0.6058935523033142 -0.028173256665468216 -2.12257981300354 
v 0.6063101291656494 -0.028244145214557648 -2.131655216217041 
v 0.6062995195388794 -0.026107441633939743 -2.140109062194824 
v 0.606292724609375 -0.02310975082218647 -2.1476926803588867 
v 0.6062909364700317 -0.019280709326267242 -2.1540331840515137 
v 0.6063006520271301 -0.01476843748241663 -2.158881664276123 
v 0.6062838435173035 -0.029536498710513115 -2.122455596923828 
v 0.6058690547943115 -0.02856019325554371 -2.113380193710327 
v 0.6063019037246704 -0.029951242730021477 -2.113007068634033 
v 0.6047597527503967 -0.02682761661708355 -2.10455322265625 
v 0.6029230356216431 -0.02453313209116459 -2.0963480472564697 
v 0.6029221415519714 -0.022618578746914864 -2.0883915424346924 
v 0.6029327511787415 -0.02002081647515297 -2.0814294815063477 
v 0.6029168367385864 -0.016815712675452232 -2.0755865573883057 
v 0.6029208302497864 -0.013119976967573166 -2.071359395980835 
v 0.6029106378555298 -0.009098337963223457 -2.068624258041382 
v 0.602933943271637 -0.0048971413634717464 -2.0676300525665283 
v 0.6029152870178223 -0.0006829467602074146 -2.068624258041382 
v 0.60294508934021 0.003370106453076005 -2.071359634399414 
v 0.6029478311538696 0.007095460779964924 -2.0757107734680176 
v 0.6029312610626221 0.010315358638763428 -2.0815539360046387 
v 0.6029438376426697 0.012868646532297134 -2.0886402130126953 
v 0.6029468774795532 0.014694277197122574 -2.0965967178344727 
v 0.6029403209686279 0.015792250633239746 -2.105175018310547 
v 0.6029260754585266 0.016118124127388 -2.114126205444336 
v 0.6029455065727234 0.015673700720071793 -2.123077154159546 
v 0.6029160618782043 0.01445537619292736 -2.131655216217041 
v 0.6029176115989685 0.012526019476354122 -2.1396119594573975 
v 0.6029502153396606 0.009885629639029503 -2.146573781967163 
v 0.602928102016449 0.006604656111449003 -2.152416944503784 
v 0.6029273271560669 0.002834838815033436 -2.1567680835723877 
v 0.6047759056091309 0.007842974737286568 -2.15291428565979 
v 0.6047874093055725 0.003791706869378686 -2.1573898792266846 
v 0.6047889590263367 0.011331330053508282 -2.147071361541748 
v 0.6047924757003784 0.014092047698795795 -2.1398606300354004 
v 0.6047870516777039 0.01611027680337429 -2.131779670715332 
v 0.6047752499580383 0.017326800152659416 -2.122952938079834 
v 0.6047970652580261 0.01777302660048008 -2.113877296447754 
v 0.6047713160514832 0.017415713518857956 -2.104801893234253 
v 0.6047804951667786 0.016258491203188896 -2.096099376678467 
v 0.604781985282898 0.014329169876873493 -2.0880186557769775 
v 0.6047765612602234 0.011612942442297935 -2.08080792427063 
v 0.6047627925872803 0.008139417506754398 -2.074840545654297 
v 0.6047729849815369 0.004117793869227171 -2.0703649520874023 
v 0.604758083820343 -0.00027597195003181696 -2.0675055980682373 
v 0.6047909259796143 -0.004816059488803148 -2.0663866996765137 
v 0.6047812104225159 -0.009328329935669899 -2.0673811435699463 
v 0.6047617793083191 -0.013618417084217072 -2.0702407360076904 
v 0.6047681570053101 -0.017551172524690628 -2.074591875076294 
v 0.6047911643981934 -0.020919231697916985 -2.080559253692627 
v 0.6047857403755188 -0.023635491728782654 -2.0876455307006836 
v 0.6047892570495605 -0.025609292089939117 -2.095850706100464 
v 0.6058915853500366 -0.028128787875175476 -2.104180097579956 
v 0.6062837839126587 -0.029536455869674683 -2.1036829948425293 
v 0.605878472328186 -0.026882639154791832 -2.095229148864746 
v 0.605872392654419 -0.02484958991408348 -2.086899757385254 
v 0.605872631072998 -0.022014806047081947 -2.0795648097991943 
v 0.6058818101882935 -0.018437562510371208 -2.0734729766845703 
v 0.6058644652366638 -0.014252979308366776 -2.0688729286193848 
v 0.6058696508407593 -0.009637013077735901 -2.0660135746002197 
v 0.6058645248413086 -0.004784030374139547 -2.065019130706787 
v 0.6058967709541321 0.00015963635814841837 -2.0661380290985107 
v 0.605895459651947 0.004923723638057709 -2.069121837615967 
v 0.6058697700500488 0.009300864301621914 -2.0737216472625732 
v 0.6058712005615234 0.013055838644504547 -2.079937696456909 
v 0.605909526348114 0.01596646010875702 -2.0872726440429688 
v 0.6059021949768066 0.018029097467660904 -2.09560227394104 
v 0.6059316992759705 0.019247382879257202 -2.10455322265625 
v 0.6059561967849731 0.0196343045681715 -2.113753080368042 
v 0.605933666229248 0.01920289732515812 -2.122952938079834 
v 0.6059474349021912 0.017941931262612343 -2.131904125213623 
v 0.605913519859314 0.015877457335591316 -2.140109062194824 
v 0.6059171557426453 0.012953799217939377 -2.147444248199463 
v 0.6058738231658936 0.00921181496232748 -2.153535842895508 
v 0.605898916721344 0.0048494585789740086 -2.1581356525421143 
v 0.6063069701194763 0.010655518621206284 -2.1542816162109375 
v 0.6063056588172913 0.005950662307441235 -2.159005880355835 
v 0.6063799262046814 0.01466595008969307 -2.1479413509368896 
v 0.606451690196991 0.017756151035428047 -2.140481948852539 
v 0.6064810752868652 0.019924333319067955 -2.132028341293335 
v 0.6065086126327515 0.021187085658311844 -2.122952938079834 
v 0.6064898371696472 0.02161669172346592 -2.113504409790039 
v 0.6064253449440002 0.021198343485593796 -2.104180335998535 
v 0.6063578128814697 0.01990419067442417 -2.095104932785034 
v 0.6063296794891357 0.01770642213523388 -2.086526870727539 
v 0.6063010692596436 0.014573613181710243 -2.0789432525634766 
v 0.6063125729560852 0.010522370226681232 -2.0726027488708496 
v 0.6062719225883484 0.005771289579570293 -2.0677542686462402 
v 0.6062912940979004 0.0005924225552007556 -2.064646005630493 
v 0.6062765121459961 -0.004751190077513456 -2.0635271072387695 
v 0.6062985062599182 -0.009989314712584019 -2.0645217895507812 
v 0.6063075661659241 -0.014931188896298409 -2.067505359649658 
v 0.6062958836555481 -0.019399037584662437 -2.0722296237945557 
v 0.6062964200973511 -0.02319846861064434 -2.0785701274871826 
v 0.60630202293396 -0.02616656944155693 -2.086029291152954 
v 0.6063113212585449 -0.02827368676662445 -2.0944833755493164 
vn 0.16099320352077484 -0.9877469539642334 0.0971796065568924 
vn 0.16954617202281952 -0.9910511374473572 0.007460458669811487 
vn 0.16099320352077484 -0.9877469539642334 0.0971796065568924 
vn 0.16954617202281952 -0.9910511374473572 0.007460458669811487 
vn 0.17756858468055725 -0.987023651599884 -0.07220639288425446 
vn 0.17296098172664642 -0.9878852963447571 -0.07170021533966064 
vn 0.1725863516330719 -0.9769324064254761 -0.1636778712272644 
vn 0.16055914759635925 -0.9783637523651123 -0.16742730140686035 
vn 0.15959787368774414 -0.9756298661231995 0.18353165686130524 
vn 0.16954617202281952 -0.9910511374473572 0.007460458669811487 
vn 0.17756858468055725 -0.987023651599884 -0.07220639288425446 
vn 0.17770220339298248 -0.9757840633392334 -0.16500191390514374 
vn 0.17756858468055725 -0.987023651599884 -0.07220639288425446 
vn 0.17770220339298248 -0.9757840633392334 -0.16500191390514374 
vn 0.17770220339298248 -0.9757840633392334 -0.16500191390514374 
vn 0.17756858468055725 -0.987023651599884 -0.07220639288425446 
vn 0.17770220339298248 -0.9757840633392334 -0.16500191390514374 
vn 0.178854838013649 -0.9862880706787109 -0.0787583515048027 
vn 0.17385520040988922 -0.9902977347373962 0.007506046909838915 
vn 0.16954617202281952 -0.9910511374473572 0.007460458669811487 
vn 0.1792365163564682 -0.9532997012138367 -0.2646591067314148 
vn 0.18054170906543732 -0.9545394778251648 -0.2592408061027527 
vn 0.16733191907405853 -0.9563945531845093 -0.2613336145877838 
vn 0.18585358560085297 -0.9530107975006104 -0.26107195019721985 
vn 0.18585358560085297 -0.9530107975006104 -0.26107195019721985 
vn 0.18585358560085297 -0.9530107975006104 -0.26107195019721985 
vn 0.18000701069831848 -0.9114077091217041 -0.38454627990722656 
vn 0.18000701069831848 -0.9114077091217041 -0.38454627990722656 
vn 0.16749246418476105 -0.9137364625930786 -0.3847232758998871 
vn 0.18569760024547577 -0.9517025351524353 -0.2659110724925995 
vn 0.18000701069831848 -0.9114077091217041 -0.38454627990722656 
vn 0.18000701069831848 -0.9114077091217041 -0.38454627990722656 
vn 0.181637242436409 -0.8333665728569031 -0.532385528087616 
vn 0.1797516644001007 -0.8310266137123108 -0.5366713404655457 
vn 0.1631564199924469 -0.6880853176116943 -0.7147602438926697 
vn 0.1668362021446228 -0.6847377419471741 -0.7171136140823364 
vn 0.12942329049110413 -0.41828662157058716 -0.9051569104194641 
vn 0.13291993737220764 -0.41414114832878113 -0.9065501689910889 
vn 0.0679483711719513 0.0007654076325707138 -1.0032405853271484 
vn 0.0679483711719513 0.0007654076325707138 -1.0032405853271484 
vn 0.18000701069831848 -0.9114077091217041 -0.38454627990722656 
vn 0.16474270820617676 -0.6816290616989136 -0.7205551266670227 
vn 0.0679483711719513 0.0007654076325707138 -1.0032405853271484 
vn 0.12942329049110413 -0.41828662157058716 -0.9051569104194641 
vn 0.0679483711719513 0.0007654076325707138 -1.0032405853271484 
vn 0.1631564199924469 -0.6880853176116943 -0.7147602438926697 
vn 0.181637242436409 -0.8333665728569031 -0.532385528087616 
vn 0.181637242436409 -0.8333665728569031 -0.532385528087616 
vn 0.1631564199924469 -0.6880853176116943 -0.7147602438926697 
vn 0.12942329049110413 -0.41828662157058716 -0.9051569104194641 
vn 0.0679483711719513 0.0007654076325707138 -1.0032405853271484 
vn 0.12942329049110413 -0.41828662157058716 -0.9051569104194641 
vn 0.052886638790369034 0.00010779576405184343 -1.004157543182373 
vn 0.1631564199924469 -0.6880853176116943 -0.7147602438926697 
vn 0.17436747252941132 -0.833683967590332 -0.5343371629714966 
vn 0.16707177460193634 -0.8340024948120117 -0.5361883640289307 
vn 0.15200921893119812 -0.6853851675987244 -0.719816267490387 
vn 0.11795341223478317 -0.41479459404945374 -0.908340334892273 
vn -0.014990500174462795 -0.002855788916349411 -1.0054477453231812 
vn 0.05032387003302574 -0.4177473783493042 -0.9132928848266602 
vn -0.15060310065746307 0.000019000475731445476 -0.9940958619117737 
vn 0.07721437513828278 -0.6886507868766785 -0.7286523580551147 
vn 0.08747579157352448 -0.8398840427398682 -0.5459626913070679 
vn 0.08156822621822357 -0.9209998846054077 -0.3952822983264923 
vn 0.07219645380973816 -0.966663658618927 -0.2673957645893097 
vn 0.06193038821220398 -0.9892411828041077 -0.1694818139076233 
vn 0.1543256938457489 -0.9905661940574646 -0.07737096399068832 
vn 0.16954617202281952 -0.9910511374473572 0.007460458669811487 
vn 0.16099320352077484 -0.9877469539642334 0.0971796065568924 
vn 0.15959787368774414 -0.9756298661231995 0.18353165686130524 
vn 0.14471377432346344 -0.953490674495697 0.2845287621021271 
vn 0.14471377432346344 -0.953490674495697 0.2845287621021271 
vn 0.127733513712883 -0.9118883013725281 0.40400391817092896 
vn 0.127733513712883 -0.9118883013725281 0.40400391817092896 
vn 0.10597402602434158 -0.8342452645301819 0.5512819290161133 
vn 0.10597402602434158 -0.8342452645301819 0.5512819290161133 
vn 0.06763867288827896 -0.6858653426170349 0.7322287559509277 
vn 0.06968999654054642 -0.6889758706092834 0.7291083931922913 
vn 0.01435304619371891 -0.41531282663345337 0.915679931640625 
vn 0.01435304619371891 -0.41531282663345337 0.915679931640625 
vn -0.0679483711719513 -0.0007654076325707138 1.0032405853271484 
vn -0.0679483711719513 -0.0007654076325707138 1.0032405853271484 
vn -0.13316431641578674 0.4181232750415802 0.9046843647956848 
vn -0.13316431641578674 0.4181232750415802 0.9046843647956848 
vn -0.16359347105026245 0.6880662441253662 0.7146777510643005 
vn -0.16359347105026245 0.6880662441253662 0.7146777510643005 
vn -0.1786113977432251 0.8334986567497253 0.5332109332084656 
vn -0.1786113977432251 0.8334986567497253 0.5332109332084656 
vn -0.18434271216392517 0.9112184047698975 0.3829195499420166 
vn -0.18434271216392517 0.9112184047698975 0.3829195499420166 
vn -0.18141640722751617 0.9532045125961304 0.26350137591362 
vn -0.18141640722751617 0.9532045125961304 0.26350137591362 
vn -0.18186582624912262 0.9756022691726685 0.16146373748779297 
vn -0.18186582624912262 0.9756022691726685 0.16146373748779297 
vn -0.17700554430484772 0.9870482683181763 0.07325679808855057 
vn -0.17700554430484772 0.9870482683181763 0.07325679808855057 
vn -0.16925550997257233 0.9910637736320496 -0.011393699795007706 
vn -0.16925550997257233 0.9910637736320496 -0.011393699795007706 
vn -0.16466431319713593 0.9875866770744324 -0.09249398112297058 
vn -0.16466431319713593 0.9875866770744324 -0.09249398112297058 
vn -0.15761996805667877 0.9766600131988525 -0.1797368824481964 
vn -0.15756231546401978 0.9757187366485596 -0.1848277896642685 
vn -0.14707978069782257 0.9547024369239807 -0.27919259667396545 
vn -0.14707978069782257 0.9547024369239807 -0.27919259667396545 
vn -0.13350744545459747 0.911636233329773 -0.4026893973350525 
vn -0.13350744545459747 0.911636233329773 -0.4026893973350525 
vn -0.10627489537000656 0.8342320919036865 -0.5512434840202332 
vn -0.10627489537000656 0.8342320919036865 -0.5512434840202332 
vn -0.06787139922380447 0.689055323600769 -0.7292060256004333 
vn -0.06787139922380447 0.689055323600769 -0.7292060256004333 
vn -0.10627489537000656 0.8342320919036865 -0.5512434840202332 
vn -0.06787139922380447 0.689055323600769 -0.7292060256004333 
vn -0.13350744545459747 0.911636233329773 -0.4026893973350525 
vn -0.14707978069782257 0.9547024369239807 -0.27919259667396545 
vn -0.15756231546401978 0.9757187366485596 -0.1848277896642685 
vn -0.16466431319713593 0.9875866770744324 -0.09249398112297058 
vn -0.16925550997257233 0.9910637736320496 -0.011393699795007706 
vn -0.17700554430484772 0.9870482683181763 0.07325679808855057 
vn -0.18186582624912262 0.9756022691726685 0.16146373748779297 
vn -0.18141640722751617 0.9532045125961304 0.26350137591362 
vn -0.18434271216392517 0.9112184047698975 0.3829195499420166 
vn -0.1786113977432251 0.8334986567497253 0.5332109332084656 
vn -0.16359347105026245 0.6880662441253662 0.7146777510643005 
vn -0.13316431641578674 0.4181232750415802 0.9046843647956848 
vn -0.0679483711719513 -0.0007654076325707138 1.0032405853271484 
vn 0.01435304619371891 -0.41531282663345337 0.915679931640625 
vn 0.06968999654054642 -0.6889758706092834 0.7291083931922913 
vn 0.10597402602434158 -0.8342452645301819 0.5512819290161133 
vn 0.127733513712883 -0.9118883013725281 0.40400391817092896 
vn 0.14491428434848785 -0.9547969698905945 0.28000950813293457 
vn 0.15959787368774414 -0.9756298661231995 0.18353165686130524 
vn 0.16099320352077484 -0.9877469539642334 0.0971796065568924 
vn 0.15226076543331146 -0.9938763380050659 0.00748361786827445 
vn 0.05655078962445259 -1.0009430646896362 -0.07794129848480225 
vn -0.13555599749088287 -0.9813866019248962 -0.1712070107460022 
vn -0.11931010335683823 -0.9609643816947937 -0.27052605152130127 
vn -0.09672438353300095 -0.9180379509925842 -0.39850178360939026 
vn -0.07958103716373444 -0.8349864482879639 -0.554504930973053 
vn -0.07737217098474503 -0.6825210452079773 -0.7343103289604187 
vn -0.0970129445195198 -0.40812960267066956 -0.9138011336326599 
vn -0.31187012791633606 -0.007021984085440636 -0.9553861618041992 
vn -0.2743990123271942 -0.391568660736084 -0.8840776681900024 
vn -0.5430375337600708 -0.008319481275975704 -0.8443413972854614 
vn -0.2570700943470001 -0.653891384601593 -0.718744158744812 
vn -0.2748492658138275 -0.7991288900375366 -0.5440068244934082 
vn -0.3054365813732147 -0.8734289407730103 -0.39201635122299194 
vn -0.3350702226161957 -0.9091415405273438 -0.26605746150016785 
vn -0.3597225248813629 -0.9239108562469482 -0.16237901151180267 
vn -0.1504908949136734 -0.9910380840301514 -0.07706695050001144 
vn 0.045376475900411606 -1.004503607749939 0.008656147867441177 
vn 0.14513471722602844 -0.9903637170791626 0.0957159698009491 
vn 0.15328943729400635 -0.9768491387367249 0.18246452510356903 
vn 0.14491428434848785 -0.9547969698905945 0.28000950813293457 
vn 0.127733513712883 -0.9118883013725281 0.40400391817092896 
vn 0.10597402602434158 -0.8342452645301819 0.5512819290161133 
vn 0.06968999654054642 -0.6889758706092834 0.7291083931922913 
vn 0.006812236737459898 -0.4156420826911926 0.915617048740387 
vn -0.0679483711719513 -0.0007654076325707138 1.0032405853271484 
vn -0.13316431641578674 0.4181232750415802 0.9046843647956848 
vn -0.17100928723812103 0.6877424716949463 0.7132360935211182 
vn -0.1786113977432251 0.8334986567497253 0.5332109332084656 
vn -0.18434271216392517 0.9112184047698975 0.3829195499420166 
vn -0.18141640722751617 0.9532045125961304 0.26350137591362 
vn -0.18186582624912262 0.9756022691726685 0.16146373748779297 
vn -0.17700554430484772 0.9870482683181763 0.07325679808855057 
vn -0.1738472431898117 0.9902980327606201 -0.007644843775779009 
vn -0.1653403639793396 0.9868777394294739 -0.09864053130149841 
vn -0.15756231546401978 0.9757187366485596 -0.1848277896642685 
vn -0.14904315769672394 0.9533016681671143 -0.282904714345932 
vn -0.13350744545459747 0.911636233329773 -0.4026893973350525 
vn -0.10627489537000656 0.8342320919036865 -0.5512434840202332 
vn -0.07540570199489594 0.6887263655662537 -0.7287716865539551 
vn -0.12300950288772583 0.8310630917549133 -0.5525217056274414 
vn -0.08660463988780975 0.6850372552871704 -0.7309916615486145 
vn -0.15000343322753906 0.9090985655784607 -0.40257248282432556 
vn -0.16282224655151367 0.9513666033744812 -0.2817589342594147 
vn -0.17224422097206116 0.9731338620185852 -0.18524673581123352 
vn -0.18290464580059052 0.9839587211608887 -0.0965115949511528 
vn -0.1865110546350479 0.987934947013855 -0.011434314772486687 
vn -0.18959879875183105 0.9844031929969788 0.07697220146656036 
vn -0.19573818147182465 0.9721089005470276 0.1661040335893631 
vn -0.19643376767635345 0.9499003887176514 0.26456955075263977 
vn -0.19996291399002075 0.9069191217422485 0.38521090149879456 
vn -0.1966385543346405 0.8278509378433228 0.535602867603302 
vn -0.18000578880310059 0.6841627955436707 0.7144432663917542 
vn -0.1461576670408249 0.41356316208839417 0.9047548770904541 
vn -0.08299461752176285 -0.001422344008460641 1.0020946264266968 
vn -0.008266531862318516 -0.4163004159927368 0.9153023958206177 
vn 0.0525958389043808 -0.6865221261978149 0.732854962348938 
vn 0.09102016687393188 -0.8348981738090515 0.552981436252594 
vn 0.11482290923595428 -0.9142518639564514 0.4025643765926361 
vn 0.12516042590141296 -0.9569562077522278 0.2822299599647522 
vn 0.13492955267429352 -0.9794819355010986 0.18296438455581665 
vn 0.03808407858014107 -1.0002135038375854 0.09635177999734879 
vn -0.16047711670398712 -0.9923800826072693 0.011297868564724922 
vn -0.3756619691848755 -0.9283635020256042 -0.07906424254179001 
vn -0.6110475659370422 -0.7827586531639099 -0.14294642210006714 
vn -0.5829442739486694 -0.781531810760498 -0.23728415369987488 
vn -0.5487494468688965 -0.762363076210022 -0.3536441922187805 
vn -0.5110477805137634 -0.7046945691108704 -0.5001266598701477 
vn -0.4851829707622528 -0.5792362689971924 -0.6613177061080933 
vn -0.49787637591362 -0.343627005815506 -0.8014176487922668 
vn -0.8316681981086731 -0.0033344333060085773 -0.5583639740943909 
vn -0.8027340173721313 -0.2295249104499817 -0.5538402199745178 
vn -0.9309177994728088 0.009908880107104778 -0.36716514825820923 
vn -0.9157916903495789 -0.14315423369407654 -0.3775224983692169 
vn -0.7957241535186768 -0.39387446641921997 -0.4642043709754944 
vn -0.8067404627799988 -0.4790002703666687 -0.3510826826095581 
vn -0.8318466544151306 -0.5036250948905945 -0.2396520972251892 
vn -0.8503780364990234 -0.5044339895248413 -0.15838761627674103 
vn -0.8638545870780945 -0.4972141683101654 -0.09465057402849197 
vn -0.6298671960830688 -0.777745246887207 -0.06806084513664246 
vn -0.39101630449295044 -0.9252768158912659 0.007566151209175587 
vn -0.1769019514322281 -0.9853219985961914 0.09202728420495987 
vn 0.022594526410102844 -0.9878231883049011 0.1866857409477234 
vn 0.015834113582968712 -0.9642677903175354 0.28476423025131226 
vn 0.0025163982063531876 -0.9191552400588989 0.4077902138233185 
vn -0.018132511526346207 -0.8347712159156799 0.5603180527687073 
vn -0.05102246254682541 -0.6846065521240234 0.7347099184989929 
vn -0.1044897735118866 -0.40845179557800293 0.9128214716911316 
vn -0.17312858998775482 0.0034378638956695795 0.9903746247291565 
vn -0.2310556024312973 0.40585559606552124 0.8902518153190613 
vn -0.256016343832016 0.6679648756980896 0.7063047289848328 
vn -0.27748903632164 0.8093571066856384 0.5276825428009033 
vn -0.28358808159828186 0.8861289024353027 0.38058730959892273 
vn -0.2904007136821747 0.9268078804016113 0.259152889251709 
vn -0.2912639081478119 0.9484082460403442 0.16171953082084656 
vn -0.29137301445007324 0.9594104290008545 0.07142498344182968 
vn -0.28850260376930237 0.9628713726997375 -0.011394099332392216 
vn -0.28420254588127136 0.9597231149673462 -0.09310184419155121 
vn -0.2731200158596039 0.9504963755607605 -0.18034963309764862 
vn -0.2598743438720703 0.9297086000442505 -0.2805941104888916 
vn -0.23799565434455872 0.8900911211967468 -0.40226298570632935 
vn -0.2052735537290573 0.8150410652160645 -0.5517348051071167 
vn -0.16093508899211884 0.6721128821372986 -0.7302960157394409 
vn -0.3260619044303894 0.783733069896698 -0.5381993651390076 
vn -0.2769630253314972 0.6506568193435669 -0.7144298553466797 
vn -0.36001908779144287 0.8533782958984375 -0.39004188776016235 
vn -0.38509827852249146 0.8875640630722046 -0.2715778052806854 
vn -0.4019100069999695 0.9052650332450867 -0.16929903626441956 
vn -0.40945279598236084 0.9134948253631592 -0.08669348806142807 
vn -0.4113485813140869 0.9167115092277527 -0.007614011876285076 
vn -0.412594735622406 0.9133579730987549 0.07181109488010406 
vn -0.4080166518688202 0.9049991369247437 0.15539534389972687 
vn -0.39856645464897156 0.8869772553443909 0.2532491683959961 
vn -0.38454464077949524 0.8500826358795166 0.3732314109802246 
vn -0.37035220861434937 0.7764104604721069 0.519544243812561 
vn -0.3517196774482727 0.6407510042190552 0.6897282004356384 
vn -0.33176231384277344 0.38940873742103577 0.8650732636451721 
vn -0.30522042512893677 0.006465262733399868 0.957561194896698 
vn -0.2636151611804962 -0.3870168924331665 0.8893870115280151 
vn -0.2320978194475174 -0.6561763286590576 0.7252357602119446 
vn -0.21006329357624054 -0.8124711513519287 0.5534019470214844 
vn -0.19826877117156982 -0.8970416188240051 0.4080922305583954 
vn -0.19566644728183746 -0.9448366165161133 0.282018780708313 
vn -0.1855623722076416 -0.9705228805541992 0.18502619862556458 
vn -0.4068450927734375 -0.9142822027206421 0.08662126213312149 
vn -0.6433988809585571 -0.7694762945175171 1.080594458358064e-7 
vn -0.8741157650947571 -0.48588433861732483 -0.04549380764365196 
vn -0.9525467157363892 -0.3003261983394623 -0.05685584619641304 
vn -0.9452113509178162 -0.3127337396144867 -0.09844999015331268 
vn -0.9344134330749512 -0.3207218050956726 -0.15858878195285797 
vn -0.9219632148742676 -0.31171900033950806 -0.23286432027816772 
vn -0.9117599725723267 -0.2601048946380615 -0.3204807937145233 
vn -0.9565141797065735 -0.29198935627937317 -0.022778036072850227 
vn -0.8815150856971741 -0.4743525981903076 0.0037904733326286077 
vn -0.9592839479446411 -0.2835811376571655 -0.000001758110556693282 
vn -0.6562715768814087 -0.7549898028373718 0.07188607007265091 
vn -0.4173690974712372 -0.8982036709785461 0.1669500470161438 
vn -0.42343640327453613 -0.8716526031494141 0.2640308439731598 
vn -0.4240099787712097 -0.8270816802978516 0.3807288408279419 
vn -0.4279535710811615 -0.7450202107429504 0.5201920866966248 
vn -0.4368054270744324 -0.6024762392044067 0.6745334267616272 
vn -0.45222699642181396 -0.3541029393672943 0.8239090442657471 
vn -0.4718683958053589 0.00358592695556581 0.8865717053413391 
vn -0.47764548659324646 0.3546566963195801 0.8092310428619385 
vn -0.48179543018341064 0.5871819257736206 0.6572166085243225 
vn -0.50358647108078 0.7134217023849487 0.49608978629112244 
vn -0.5264684557914734 0.7776580452919006 0.3557220995426178 
vn -0.548032820224762 0.8075835108757019 0.23601138591766357 
vn -0.5590682625770569 0.8216830492019653 0.1427999585866928 
vn -0.5633699297904968 0.8285684585571289 0.06445185095071793 
vn -0.5635941028594971 0.830883800983429 -0.007603076286613941 
vn -0.5613314509391785 0.8286571502685547 -0.07952181994915009 
vn -0.5549024343490601 0.8218642473220825 -0.15742641687393188 
vn -0.5415516495704651 0.8078653216362 -0.24976295232772827 
vn -0.5175028443336487 0.7780478000640869 -0.3679528832435608 
vn -0.4784225523471832 0.7204952836036682 -0.5108171105384827 
vn -0.4265148341655731 0.5965774059295654 -0.6866986155509949 
vn -0.7020833492279053 0.5740514993667603 -0.42848464846611023 
vn -0.6559308171272278 0.4885217249393463 -0.5811852216720581 
vn -0.7355700135231018 0.6139280200004578 -0.2959637939929962 
vn -0.7553262114524841 0.6297722458839417 -0.19526802003383636 
vn -0.7649211883544922 0.6359479427337646 -0.12479589134454727 
vn -0.767282247543335 0.6423884034156799 -0.060737572610378265 
vn -0.7697456479072571 0.6422809958457947 -0.0000033436308513046242 
vn -0.7703750729560852 0.6389883756637573 0.0568910613656044 
vn -0.76613849401474 0.6358953714370728 0.117290198802948 
vn -0.7600200772285461 0.6262519359588623 0.18804123997688293 
vn -0.7439960241317749 0.6067920923233032 0.28930920362472534 
vn -0.7269922494888306 0.5588114261627197 0.4060473144054413 
vn -0.707438588142395 0.4634625017642975 0.5391045212745667 
vn -0.701529324054718 0.2787313461303711 0.6603277325630188 
vn -0.7022258639335632 0.006715317256748676 0.7158952951431274 
vn -0.6920610070228577 -0.2761792540550232 0.6711294651031494 
vn -0.6816981434822083 -0.48141634464263916 0.5560451745986938 
vn -0.6773183345794678 -0.6021766662597656 0.42926615476608276 
vn -0.6751231551170349 -0.6721416115760803 0.3131570816040039 
vn -0.6745225191116333 -0.7085909843444824 0.2203083485364914 
vn -0.6690669655799866 -0.7338998913764954 0.13937711715698242 
vn -0.8886944055557251 -0.4587436020374298 0.04170270636677742 
vn -0.962546706199646 -0.27089551091194153 0.026547666639089584 
vn -0.8933855891227722 -0.4428976774215698 0.08709300309419632 
vn -0.8950785398483276 -0.426797479391098 0.13615967333316803 
vn -0.8971414566040039 -0.3983009159564972 0.1958009898662567 
vn -0.8976330757141113 -0.35690829157829285 0.262188196182251 
vn -0.9005107879638672 -0.28101426362991333 0.3346511423587799 
vn -0.9034301042556763 -0.15572765469551086 0.4018641412258148 
vn -0.9057774543762207 0.0022218734957277775 0.4261292517185211 
vn -0.9045854806900024 0.1592944860458374 0.398165762424469 
vn -0.9068381190299988 0.26976659893989563 0.3272729814052582 
vn -0.9144911766052246 0.3233092725276947 0.24760395288467407 
vn -0.9225754141807556 0.34743767976760864 0.17358218133449554 
vn -0.925696849822998 0.3634752333164215 0.1136271208524704 
vn -0.9253485202789307 0.375540167093277 0.0682460144162178 
vn -0.9239494204521179 0.383594810962677 0.03414353355765343 
vn -0.919511079788208 0.3957180678844452 -0.000003168593366353889 
vn -0.918721079826355 0.3957524597644806 -0.037958867847919464 
vn -0.9183708429336548 0.3917993903160095 -0.07211858034133911 
vn -0.918224573135376 0.3798515796661377 -0.12116841226816177 
vn -0.9139637351036072 0.3680112659931183 -0.17725218832492828 
vn -0.90389084815979 0.34419023990631104 -0.2586010992527008 
vn -0.8838861584663391 0.29576799273490906 -0.3660290837287903 
vn -0.9653313159942627 0.2123367190361023 -0.15500882267951965 
vn -0.9583232998847961 0.1827431321144104 -0.22208517789840698 
vn -0.96705162525177 0.23347432911396027 -0.1061277762055397 
vn -0.9656839966773987 0.25040993094444275 -0.07587061077356339 
vn -0.9640585780143738 0.2630794942378998 -0.04933156818151474 
vn -0.9639015793800354 0.26727432012557983 -0.02277478575706482 
vn -0.9664525985717773 0.2587812840938568 -0.000002981167199322954 
vn -0.9695509672164917 0.2460305392742157 0.018983598798513412 
vn -0.9717878103256226 0.2332679033279419 0.04555404931306839 
vn -0.974364161491394 0.21619543433189392 0.068289615213871 
vn -0.9728305339813232 0.20775248110294342 0.10608531534671783 
vn -0.9709120988845825 0.19075971841812134 0.14758102595806122 
vn -0.96694415807724 0.1565713882446289 0.20346271991729736 
vn -0.9663048982620239 0.09590745717287064 0.2406374216079712 
vn -0.9662472605705261 0.003975010011345148 0.2590658962726593 
vn -0.9656109809875488 -0.09271344542503357 0.2443094551563263 
vn -0.9641754627227783 -0.16274762153625488 0.21102426946163177 
vn -0.9642994403839111 -0.2106233537197113 0.16238445043563843 
vn -0.9647922515869141 -0.23659896850585938 0.11732805520296097 
vn -0.9653691053390503 -0.24955223500728607 0.07956379652023315 
vn -0.9637964367866516 -0.26237598061561584 0.05311843380331993 
vt 0.27605393528938293 0.44223055243492126 
vt 0.27272653579711914 0.3980400860309601 
vt 0.27696138620376587 0.39776694774627686 
vt 0.2734525203704834 0.36101236939430237 
vt 0.26921766996383667 0.3612855076789856 
vt 0.2692781686782837 0.3373388946056366 
vt 0.2651642858982086 0.33767274022102356 
vt 0.2645593285560608 0.32495585083961487 
vt 0.2801677882671356 0.441927045583725 
vt 0.2718190550804138 0.44244301319122314 
vt 0.2684916853904724 0.3982222080230713 
vt 0.2651642858982086 0.3614979684352875 
vt 0.2675842046737671 0.4425947666168213 
vt 0.2643778324127197 0.39837396144866943 
vt 0.2634703516960144 0.44271618127822876 
vt 0.2668582499027252 0.48699769377708435 
vt 0.26274439692497253 0.4870584011077881 
vt 0.2660112679004669 0.5240254402160645 
vt 0.27024611830711365 0.5240254402160645 
vt 0.27109310030937195 0.48687630891799927 
vt 0.261292427778244 0.3616497218608856 
vt 0.261292427778244 0.3379459083080292 
vt 0.2606269419193268 0.32528969645500183 
vt 0.2595984935760498 0.44274652004241943 
vt 0.25887250900268555 0.4870280623435974 
vt 0.2605059742927551 0.3984043002128601 
vt 0.25778356194496155 0.36171042919158936 
vt 0.25784406065940857 0.338128000497818 
vt 0.2571180760860443 0.3255932033061981 
vt 0.25802555680274963 0.5237826108932495 
vt 0.2553636431694031 0.4869673550128937 
vt 0.25615009665489197 0.4426858127117157 
vt 0.25312522053718567 0.4425947666168213 
vt 0.2523387372493744 0.48681560158729553 
vt 0.25052380561828613 0.44241267442703247 
vt 0.24979783594608307 0.4866334795951843 
vt 0.24840638041496277 0.4421698749065399 
vt 0.2476804107427597 0.4863603413105011 
vt 0.2465914487838745 0.44183599948883057 
vt 0.24580496549606323 0.4860568344593048 
vt 0.25699707865715027 0.3984043002128601 
vt 0.24895086884498596 0.5230541825294495 
vt 0.24749891459941864 0.397554486989975 
vt 0.2493138462305069 0.39785799384117126 
vt 0.24828538298606873 0.36104270815849304 
vt 0.25143128633499146 0.3981007933616638 
vt 0.2539721727371216 0.39828288555145264 
vt 0.25475865602493286 0.3616497218608856 
vt 0.25221773982048035 0.36152830719947815 
vt 0.250100314617157 0.36131587624549866 
vt 0.24828538298606873 0.33797624707221985 
vt 0.250160813331604 0.338128000497818 
vt 0.24749891459941864 0.32604846358299255 
vt 0.25227823853492737 0.3382190465927124 
vt 0.2548191547393799 0.3382190465927124 
vt 0.2540326714515686 0.3258056640625 
vt 0.2514917850494385 0.3259877562522888 
vt 0.2493138462305069 0.32604846358299255 
vt 0.2465309500694275 0.32134413719177246 
vt 0.2484668791294098 0.3211316764354706 
vt 0.24604696035385132 0.32009974122047424 
vt 0.2506448030471802 0.3209192156791687 
vt 0.25336721539497375 0.32067641615867615 
vt 0.2565130889415741 0.32040324807167053 
vt 0.260142982006073 0.32009974122047424 
vt 0.26419633626937866 0.3197658956050873 
vt 0.2687941789627075 0.32459163665771484 
vt 0.27357351779937744 0.3369746804237366 
vt 0.2776873707771301 0.360678493976593 
vt 0.28101474046707153 0.39746344089508057 
vt 0.2840396463871002 0.4416235387325287 
vt 0.2848866283893585 0.3971295654773712 
vt 0.2875485122203827 0.4412896931171417 
vt 0.28833499550819397 0.3967653512954712 
vt 0.2905734181404114 0.4409254789352417 
vt 0.29135990142822266 0.39640116691589355 
vt 0.2931143343448639 0.44056129455566406 
vt 0.2939007878303528 0.39603695273399353 
vt 0.29523175954818726 0.4402274191379547 
vt 0.29601821303367615 0.39570310711860657 
vt 0.2970466911792755 0.4399542808532715 
vt 0.2978331744670868 0.3953996002674103 
vt 0.29886162281036377 0.43971145153045654 
vt 0.29964810609817505 0.39515677094459534 
vt 0.30097904801368713 0.4395293593406677 
vt 0.3017655313014984 0.3950050175189972 
vt 0.30358046293258667 0.4394383132457733 
vt 0.3043064475059509 0.3949139714241028 
vt 0.30654487013816833 0.4394383132457733 
vt 0.3073313236236572 0.39494433999061584 
vt 0.3100537359714508 0.4395293593406677 
vt 0.31077972054481506 0.39503538608551025 
vt 0.3139255940914154 0.43971145153045654 
vt 0.31465157866477966 0.39524784684181213 
vt 0.31797897815704346 0.43998461961746216 
vt 0.3187049329280853 0.3955513536930084 
vt 0.3222138285636902 0.4403184652328491 
vt 0.32293978333473206 0.39591553807258606 
vt 0.3264486789703369 0.4407130479812622 
vt 0.3271746337413788 0.3963404595851898 
vt 0.3305625319480896 0.4411379396915436 
vt 0.33128851652145386 0.39679571986198425 
vt 0.3344343900680542 0.441593199968338 
vt 0.33509987592697144 0.39728131890296936 
vt 0.33788278698921204 0.4420787990093231 
vt 0.3386087417602539 0.39779728651046753 
vt 0.34090766310691833 0.44253405928611755 
vt 0.3416336476802826 0.39825254678726196 
vt 0.34344857931137085 0.442989319562912 
vt 0.3441745638847351 0.3987078070640564 
vt 0.3422386348247528 0.36174076795578003 
vt 0.34477952122688293 0.3622567355632782 
vt 0.33927422761917114 0.3611944615840912 
vt 0.33576536178588867 0.3606177866458893 
vt 0.3319539725780487 0.36004114151000977 
vt 0.32790061831474304 0.35946446657180786 
vt 0.3236657679080963 0.3589485287666321 
vt 0.3194309175014496 0.35849326848983765 
vt 0.3153775632381439 0.3581290543079376 
vt 0.31150567531585693 0.35788625478744507 
vt 0.3080573081970215 0.3577345013618469 
vt 0.3050324022769928 0.3576737940311432 
vt 0.30249151587486267 0.3577345013618469 
vt 0.3003740906715393 0.35791659355163574 
vt 0.29855912923812866 0.3581290543079376 
vt 0.2967441976070404 0.3584325611591339 
vt 0.29462677240371704 0.35879677534103394 
vt 0.2920858561992645 0.3591609597206116 
vt 0.28912147879600525 0.35955554246902466 
vt 0.2856125831604004 0.35995009541511536 
vt 0.2818012237548828 0.360314279794693 
vt 0.27780836820602417 0.3365497887134552 
vt 0.2731500267982483 0.32419708371162415 
vt 0.2684916853904724 0.3193713426589966 
vt 0.2640753388404846 0.31830906867980957 
vt 0.26002198457717896 0.3186732828617096 
vt 0.25633159279823303 0.3189767897129059 
vt 0.25312522053718567 0.3192802965641022 
vt 0.25034230947494507 0.3195230960845947 
vt 0.24804338812828064 0.3197658956050873 
vt 0.24556298553943634 0.31891608238220215 
vt 0.2476804107427597 0.3184911608695984 
vt 0.2451394945383072 0.318066269159317 
vt 0.250100314617157 0.31821802258491516 
vt 0.2529437243938446 0.31794485449790955 
vt 0.256210595369339 0.31764134764671326 
vt 0.2599009871482849 0.31733784079551697 
vt 0.2640148401260376 0.31697362661361694 
vt 0.2684311866760254 0.31794485449790955 
vt 0.2729080319404602 0.3189767897129059 
vt 0.27750587463378906 0.3237721621990204 
vt 0.2819827198982239 0.33612486720085144 
vt 0.2859150767326355 0.3356999456882477 
vt 0.28942394256591797 0.33524468541145325 
vt 0.2925093472003937 0.33485013246536255 
vt 0.2951107621192932 0.33445557951927185 
vt 0.2972281873226166 0.3341217339038849 
vt 0.29910361766815186 0.3338182270526886 
vt 0.30097904801368713 0.33357542753219604 
vt 0.3031569719314575 0.3334540128707886 
vt 0.30575838685035706 0.33339330554008484 
vt 0.30878329277038574 0.33348435163497925 
vt 0.31235265731811523 0.33369681239128113 
vt 0.31628501415252686 0.3340306878089905 
vt 0.32039886713027954 0.3344859480857849 
vt 0.3246942460536957 0.33503225445747375 
vt 0.3289290964603424 0.33563926815986633 
vt 0.3330429494380951 0.33630695939064026 
vt 0.33685430884361267 0.3370353877544403 
vt 0.3403026759624481 0.3377334475517273 
vt 0.3432670831680298 0.3384315073490143 
vt 0.3458079993724823 0.33906885981559753 
vt 0.34453755617141724 0.3260788321495056 
vt 0.34707844257354736 0.32683756947517395 
vt 0.34157314896583557 0.32528969645500183 
vt 0.3380642533302307 0.3244702219963074 
vt 0.3341923952102661 0.32371148467063904 
vt 0.3300180435180664 0.322983056306839 
vt 0.32572269439697266 0.3223153352737427 
vt 0.3213668465614319 0.32176902890205383 
vt 0.31713199615478516 0.3212834298610687 
vt 0.31319963932037354 0.3209192156791687 
vt 0.30956974625587463 0.3206460475921631 
vt 0.30636337399482727 0.32049429416656494 
vt 0.3036409616470337 0.32046395540237427 
vt 0.3014025390148163 0.32058537006378174 
vt 0.299466609954834 0.32079780101776123 
vt 0.2975306808948517 0.3211013078689575 
vt 0.2952922582626343 0.32146552205085754 
vt 0.2925698459148407 0.3218904435634613 
vt 0.28942394256591797 0.32234570384025574 
vt 0.28579407930374146 0.32283130288124084 
vt 0.2817407250404358 0.32331690192222595 
vt 0.277324378490448 0.3185518682003021 
vt 0.2728475332260132 0.3175199627876282 
vt 0.26837068796157837 0.31657907366752625 
vt 0.2639543414115906 0.315941721200943 
vt 0.2598404884338379 0.3163362741470337 
vt 0.25608962774276733 0.31667011976242065 
vt 0.25276222825050354 0.31700399518013 
vt 0.2498583346605301 0.31727713346481323 
vt 0.2473779171705246 0.3175806403160095 
vt 0.24471600353717804 0.31745925545692444 
vt 0.2470754235982895 0.3169129490852356 
vt 0.24441352486610413 0.31700399518013 
vt 0.24689392745494843 0.31645768880844116 
vt 0.24967683851718903 0.31663978099823 
vt 0.2526412308216095 0.316305935382843 
vt 0.2560291290283203 0.31597205996513367 
vt 0.25977998971939087 0.31557750701904297 
vt 0.2639543414115906 0.3151526153087616 
vt 0.26831018924713135 0.3155471682548523 
vt 0.27278703451156616 0.31618452072143555 
vt 0.277263879776001 0.3170950412750244 
vt 0.28161972761154175 0.3180966079235077 
vt 0.2856125831604004 0.3176110088825226 
vt 0.2893029749393463 0.3170950412750244 
vt 0.2925093472003937 0.3166094422340393 
vt 0.2952922582626343 0.3161238133907318 
vt 0.2976516783237457 0.31569892168045044 
vt 0.29964810609817505 0.3153650462627411 
vt 0.3017050325870514 0.31518295407295227 
vt 0.30406445264816284 0.3151526153087616 
vt 0.3067868649959564 0.31521329283714294 
vt 0.3099932372570038 0.31539541482925415 
vt 0.3136836290359497 0.3156685531139374 
vt 0.31767648458480835 0.3160631060600281 
vt 0.3219113349914551 0.3165183663368225 
vt 0.32626718282699585 0.3170950412750244 
vt 0.3305625319480896 0.3177627623081207 
vt 0.33479738235473633 0.3184911608695984 
vt 0.33872973918914795 0.3192802965641022 
vt 0.34229913353919983 0.32009974122047424 
vt 0.34538450837135315 0.3209495544433594 
vt 0.34792542457580566 0.32176902890205383 
vt 0.34562650322914124 0.319462388753891 
vt 0.34822791814804077 0.3203425407409668 
vt 0.3424806296825409 0.31861257553100586 
vt 0.338911235332489 0.3177627623081207 
vt 0.3349788784980774 0.31697362661361694 
vt 0.33074402809143066 0.3162148594856262 
vt 0.3263881802558899 0.3155471682548523 
vt 0.3220323324203491 0.31500086188316345 
vt 0.3177974820137024 0.31451523303985596 
vt 0.31380459666252136 0.31412068009376526 
vt 0.3101142346858978 0.31384751200675964 
vt 0.30690786242485046 0.3136654198169708 
vt 0.3041854500770569 0.3136047124862671 
vt 0.3017655313014984 0.31363508105278015 
vt 0.29970860481262207 0.31381717324256897 
vt 0.2976516783237457 0.31415101885795593 
vt 0.2952922582626343 0.31460627913475037 
vt 0.2925093472003937 0.31512224674224854 
vt 0.2893029749393463 0.3156382143497467 
vt 0.2856125831604004 0.3161541819572449 
vt 0.2815592288970947 0.31663978099823 
vt 0.277263879776001 0.3157292604446411 
vt 0.27278703451156616 0.31512224674224854 
vt 0.26837068796157837 0.31472769379615784 
vt 0.2639543414115906 0.3144848942756653 
vt 0.25977998971939087 0.3149401545524597 
vt 0.25590813159942627 0.31539541482925415 
vt 0.25252023339271545 0.3158203065395355 
vt 0.24949534237384796 0.3161541819572449 
vt 0.26837068796157837 0.31402963399887085 
vt 0.2728475332260132 0.3142724335193634 
vt 0.2729080319404602 0.3135743737220764 
vt 0.277263879776001 0.3146669864654541 
vt 0.2815592288970947 0.3152740001678467 
vt 0.28555208444595337 0.3147884011268616 
vt 0.2892424762248993 0.3142724335193634 
vt 0.29244884848594666 0.31375646591186523 
vt 0.29517126083374023 0.3132101595401764 
vt 0.2975306808948517 0.3127245604991913 
vt 0.29964810609817505 0.31239068508148193 
vt 0.3017655313014984 0.3122085928916931 
vt 0.3041854500770569 0.31217825412750244 
vt 0.3069683611392975 0.3122389316558838 
vt 0.31023523211479187 0.312421053647995 
vt 0.3138650953769684 0.3126941919326782 
vt 0.31791847944259644 0.31305840611457825 
vt 0.32215332984924316 0.31354400515556335 
vt 0.32656967639923096 0.3140903413295746 
vt 0.33092552423477173 0.3147580325603485 
vt 0.33516037464141846 0.31551679968833923 
vt 0.3391532301902771 0.3163362741470337 
vt 0.3427830934524536 0.3171860873699188 
vt 0.34592899680137634 0.3180966079235077 
vt 0.3486514091491699 0.31900712847709656 
vt 0.34617099165916443 0.31700399518013 
vt 0.348893404006958 0.3179751932621002 
vt 0.3429645895957947 0.3160631060600281 
vt 0.33933472633361816 0.3151526153087616 
vt 0.3353418707847595 0.3143027722835541 
vt 0.33104652166366577 0.3135743737220764 
vt 0.326630175113678 0.3129066526889801 
vt 0.3222743272781372 0.3123300075531006 
vt 0.31797897815704346 0.3118443787097931 
vt 0.3139255940914154 0.31148016452789307 
vt 0.31023523211479187 0.3112373650074005 
vt 0.3069683611392975 0.31111598014831543 
vt 0.30412495136260986 0.31108561158180237 
vt 0.3017050325870514 0.31111598014831543 
vt 0.299527108669281 0.3112677335739136 
vt 0.29740968346595764 0.3116319179534912 
vt 0.2951107621192932 0.3121175467967987 
vt 0.29238834977149963 0.31266385316848755 
vt 0.2892424762248993 0.3131798207759857 
vt 0.2856125831604004 0.3136957585811615 
vt 0.2815592288970947 0.314181387424469 
vt 0.277324378490448 0.31381717324256897 
vt 0.277384877204895 0.31305840611457825 
vt 0.28161972761154175 0.31333157420158386 
vt 0.2856730818748474 0.3128156065940857 
vt 0.2892424762248993 0.3122996389865875 
vt 0.29238834977149963 0.31178367137908936 
vt 0.2950502634048462 0.3112373650074005 
vt 0.2973491847515106 0.3107517659664154 
vt 0.299466609954834 0.3103572130203247 
vt 0.30164453387260437 0.31023579835891724 
vt 0.30412495136260986 0.3101750910282135 
vt 0.3069683611392975 0.3101750910282135 
vt 0.3102957308292389 0.3102661669254303 
vt 0.3139860928058624 0.3104785978794098 
vt 0.3180394768714905 0.31081247329711914 
vt 0.32233482599258423 0.3112677335739136 
vt 0.326751172542572 0.3118140399456024 
vt 0.3311675190925598 0.31248176097869873 
vt 0.33546286821365356 0.3132708668708801 
vt 0.3394557237625122 0.31412068009376526 
vt 0.3430855870246887 0.31509190797805786 
vt 0.3463524878025055 0.3161238133907318 
vt 0.3491353690624237 0.3171860873699188 
vt 0.34647348523139954 0.3153347074985504 
vt 0.34925636649131775 0.31648802757263184 
vt 0.3432670831680298 0.314181387424469 
vt 0.33957672119140625 0.3131798207759857 
vt 0.3355838656425476 0.31226930022239685 
vt 0.33122801780700684 0.31148016452789307 
vt 0.32681167125701904 0.31081247329711914 
vt 0.32239532470703125 0.3102661669254303 
vt 0.3180394768714905 0.30984124541282654 
vt 0.3139860928058624 0.30953773856163025 
vt 0.31023523211479187 0.3093859851360321 
vt 0.30690786242485046 0.30935564637184143 
vt 0.3040039539337158 0.3094163239002228 
vt 0.30158403515815735 0.3094770312309265 
vt 0.29940611124038696 0.309598445892334 
vt 0.2972886860370636 0.3099929988384247 
vt 0.2950502634048462 0.3104785978794098 
vt 0.29244884848594666 0.31099456548690796 
vt 0.2893029749393463 0.31151053309440613 
vt 0.28573358058929443 0.3120265007019043 
vt 0.2817407250404358 0.3125424385070801 
s on 
f 1/1/1 2/2/2 3/3/3 
f 2/2/2 2/2/2 3/3/3 
f 3/3/3 2/2/2 4/4/4 
f 2/2/2 5/5/5 4/4/4 
f 4/4/4 5/5/5 6/6/6 
f 5/5/5 7/7/7 6/6/6 
f 6/6/6 7/7/7 8/8/8 
f 7/7/7 8/8/8 8/8/8 
f 8/8/8 8/8/8 9/9/9 
f 8/8/8 9/9/9 9/9/9 
f 9/9/9 9/9/9 3/3/3 
f 9/9/9 1/1/1 3/3/3 
f 3/3/3 1/1/1 1/1/1 
f 1/1/1 1/1/1 1/1/1 
f 1/1/1 1/1/1 1/1/1 
f 1/1/1 10/10/10 1/1/1 
f 1/1/1 10/10/10 2/2/2 
f 10/10/10 11/11/11 2/2/2 
f 2/2/2 11/11/11 5/5/5 
f 11/11/11 12/12/12 5/5/5 
f 5/5/5 12/12/12 7/7/7 
f 12/12/12 7/7/7 7/7/7 
f 7/7/7 7/7/7 10/10/10 
f 7/7/7 10/10/10 10/10/10 
f 10/10/10 10/10/10 11/11/11 
f 10/10/10 13/13/13 11/11/11 
f 11/11/11 13/13/13 14/14/14 
f 13/13/13 13/13/13 14/14/14 
f 14/14/14 13/13/13 15/15/15 
f 13/13/13 16/16/16 15/15/15 
f 15/15/15 16/16/16 17/17/17 
f 16/16/16 16/16/16 17/17/17 
f 17/17/17 16/16/16 18/18/18 
f 16/16/16 16/16/16 18/18/18 
f 18/18/18 16/16/16 19/19/19 
f 16/16/16 20/20/20 19/19/19 
f 19/19/19 20/20/20 20/20/20 
f 20/20/20 11/11/11 20/20/20 
f 20/20/20 11/11/11 11/11/11 
f 11/11/11 14/14/14 11/11/11 
f 11/11/11 14/14/14 12/12/12 
f 14/14/14 21/21/21 12/12/12 
f 12/12/12 21/21/21 12/12/12 
f 21/21/21 22/22/22 12/12/12 
f 12/12/12 22/22/22 7/7/7 
f 22/22/22 23/23/23 7/7/7 
f 7/7/7 23/23/23 8/8/8 
f 23/23/23 8/8/8 8/8/8 
f 8/8/8 8/8/8 15/15/15 
f 8/8/8 15/15/15 15/15/15 
f 15/15/15 15/15/15 24/24/24 
f 15/15/15 17/17/17 24/24/24 
f 24/24/24 17/17/17 25/25/25 
f 17/17/17 25/25/25 25/25/25 
f 25/25/25 25/25/25 24/24/24 
f 25/25/25 24/24/24 24/24/24 
f 24/24/24 24/24/24 15/15/15 
f 24/24/24 26/26/26 15/15/15 
f 15/15/15 26/26/26 14/14/14 
f 26/26/26 26/26/26 14/14/14 
f 14/14/14 26/26/26 21/21/21 
f 26/26/26 27/27/27 21/21/21 
f 21/21/21 27/27/27 21/21/21 
f 27/27/27 28/28/28 21/21/21 
f 21/21/21 28/28/28 22/22/22 
f 28/28/28 29/29/29 22/22/22 
f 22/22/22 29/29/29 23/23/23 
f 29/29/29 23/23/23 23/23/23 
f 23/23/23 23/23/23 30/30/30 
f 23/23/23 30/30/30 30/30/30 
f 30/30/30 30/30/30 25/25/25 
f 30/30/30 31/31/31 25/25/25 
f 25/25/25 31/31/31 32/32/32 
f 31/31/31 31/31/31 32/32/32 
f 32/32/32 31/31/31 33/33/33 
f 31/31/31 34/34/34 33/33/33 
f 33/33/33 34/34/34 35/35/35 
f 34/34/34 36/36/36 35/35/35 
f 35/35/35 36/36/36 37/37/37 
f 36/36/36 38/38/38 37/37/37 
f 37/37/37 38/38/38 39/39/39 
f 38/38/38 40/40/40 39/39/39 
f 39/39/39 40/40/40 40/40/40 
f 40/40/40 25/25/25 40/40/40 
f 40/40/40 25/25/25 25/25/25 
f 25/25/25 32/32/32 25/25/25 
f 25/25/25 32/32/32 24/24/24 
f 32/32/32 41/41/41 24/24/24 
f 24/24/24 41/41/41 26/26/26 
f 41/41/41 27/27/27 26/26/26 
f 26/26/26 27/27/27 27/27/27 
f 27/27/27 42/42/42 27/27/27 
f 27/27/27 42/42/42 42/42/42 
f 42/42/42 38/38/38 42/42/42 
f 42/42/42 38/38/38 36/36/36 
f 38/38/38 36/36/36 36/36/36 
f 36/36/36 36/36/36 39/39/39 
f 36/36/36 39/39/39 39/39/39 
f 39/39/39 39/39/39 37/37/37 
f 39/39/39 43/43/43 37/37/37 
f 37/37/37 43/43/43 44/44/44 
f 43/43/43 45/45/45 44/44/44 
f 44/44/44 45/45/45 45/45/45 
f 45/45/45 37/37/37 45/45/45 
f 45/45/45 37/37/37 37/37/37 
f 37/37/37 44/44/44 37/37/37 
f 37/37/37 44/44/44 35/35/35 
f 44/44/44 46/46/46 35/35/35 
f 35/35/35 46/46/46 33/33/33 
f 46/46/46 47/47/47 33/33/33 
f 33/33/33 47/47/47 32/32/32 
f 47/47/47 47/47/47 32/32/32 
f 32/32/32 47/47/47 41/41/41 
f 47/47/47 48/48/48 41/41/41 
f 41/41/41 48/48/48 27/27/27 
f 48/48/48 27/27/27 27/27/27 
f 27/27/27 27/27/27 48/48/48 
f 27/27/27 48/48/48 48/48/48 
f 48/48/48 48/48/48 49/49/49 
f 48/48/48 47/47/47 49/49/49 
f 49/49/49 47/47/47 49/49/49 
f 47/47/47 46/46/46 49/49/49 
f 49/49/49 46/46/46 50/50/50 
f 46/46/46 44/44/44 50/50/50 
f 50/50/50 44/44/44 50/50/50 
f 44/44/44 45/45/45 50/50/50 
f 50/50/50 45/45/45 50/50/50 
f 45/45/45 51/51/51 50/50/50 
f 50/50/50 51/51/51 52/52/52 
f 51/51/51 53/53/53 52/52/52 
f 52/52/52 53/53/53 53/53/53 
f 53/53/53 50/50/50 53/53/53 
f 53/53/53 50/50/50 50/50/50 
f 50/50/50 52/52/52 50/50/50 
f 50/50/50 52/52/52 49/49/49 
f 52/52/52 54/54/54 49/49/49 
f 49/49/49 54/54/54 48/48/48 
f 54/54/54 55/55/55 48/48/48 
f 48/48/48 55/55/55 27/27/27 
f 55/55/55 55/55/55 27/27/27 
f 27/27/27 55/55/55 28/28/28 
f 55/55/55 56/56/56 28/28/28 
f 28/28/28 56/56/56 29/29/29 
f 56/56/56 29/29/29 29/29/29 
f 29/29/29 29/29/29 56/56/56 
f 29/29/29 56/56/56 56/56/56 
f 56/56/56 56/56/56 57/57/57 
f 56/56/56 55/55/55 57/57/57 
f 57/57/57 55/55/55 57/57/57 
f 55/55/55 54/54/54 57/57/57 
f 57/57/57 54/54/54 58/58/58 
f 54/54/54 52/52/52 58/58/58 
f 58/58/58 52/52/52 58/58/58 
f 52/52/52 53/53/53 58/58/58 
f 58/58/58 53/53/53 58/58/58 
f 53/53/53 59/59/59 58/58/58 
f 58/58/58 59/59/59 60/60/60 
f 59/59/59 61/61/61 60/60/60 
f 60/60/60 61/61/61 61/61/61 
f 61/61/61 58/58/58 61/61/61 
f 61/61/61 58/58/58 58/58/58 
f 58/58/58 60/60/60 58/58/58 
f 58/58/58 60/60/60 57/57/57 
f 60/60/60 62/62/62 57/57/57 
f 57/57/57 62/62/62 56/56/56 
f 62/62/62 63/63/63 56/56/56 
f 56/56/56 63/63/63 29/29/29 
f 63/63/63 64/64/64 29/29/29 
f 29/29/29 64/64/64 23/23/23 
f 64/64/64 65/65/65 23/23/23 
f 23/23/23 65/65/65 8/8/8 
f 65/65/65 66/66/66 8/8/8 
f 8/8/8 66/66/66 8/8/8 
f 66/66/66 67/67/67 8/8/8 
f 8/8/8 67/67/67 6/6/6 
f 67/67/67 68/68/68 6/6/6 
f 6/6/6 68/68/68 4/4/4 
f 68/68/68 69/69/69 4/4/4 
f 4/4/4 69/69/69 3/3/3 
f 69/69/69 70/70/70 3/3/3 
f 3/3/3 70/70/70 9/9/9 
f 70/70/70 70/70/70 9/9/9 
f 9/9/9 70/70/70 71/71/71 
f 70/70/70 72/72/72 71/71/71 
f 71/71/71 72/72/72 73/73/73 
f 72/72/72 74/74/74 73/73/73 
f 73/73/73 74/74/74 75/75/75 
f 74/74/74 76/76/76 75/75/75 
f 75/75/75 76/76/76 77/77/77 
f 76/76/76 78/78/78 77/77/77 
f 77/77/77 78/78/78 79/79/79 
f 78/78/78 80/80/80 79/79/79 
f 79/79/79 80/80/80 81/81/81 
f 80/80/80 82/82/82 81/81/81 
f 81/81/81 82/82/82 83/83/83 
f 82/82/82 84/84/84 83/83/83 
f 83/83/83 84/84/84 85/85/85 
f 84/84/84 86/86/86 85/85/85 
f 85/85/85 86/86/86 87/87/87 
f 86/86/86 88/88/88 87/87/87 
f 87/87/87 88/88/88 89/89/89 
f 88/88/88 90/90/90 89/89/89 
f 89/89/89 90/90/90 91/91/91 
f 90/90/90 92/92/92 91/91/91 
f 91/91/91 92/92/92 93/93/93 
f 92/92/92 94/94/94 93/93/93 
f 93/93/93 94/94/94 95/95/95 
f 94/94/94 96/96/96 95/95/95 
f 95/95/95 96/96/96 97/97/97 
f 96/96/96 98/98/98 97/97/97 
f 97/97/97 98/98/98 99/99/99 
f 98/98/98 100/100/100 99/99/99 
f 99/99/99 100/100/100 101/101/101 
f 100/100/100 102/102/102 101/101/101 
f 101/101/101 102/102/102 103/103/103 
f 102/102/102 104/104/104 103/103/103 
f 103/103/103 104/104/104 105/105/105 
f 104/104/104 106/106/106 105/105/105 
f 105/105/105 106/106/106 107/107/107 
f 106/106/106 108/108/108 107/107/107 
f 107/107/107 108/108/108 109/109/109 
f 108/108/108 108/108/108 109/109/109 
f 109/109/109 108/108/108 110/110/110 
f 108/108/108 111/111/111 110/110/110 
f 110/110/110 111/111/111 112/112/112 
f 111/111/111 112/112/112 112/112/112 
f 112/112/112 112/112/112 111/111/111 
f 112/112/112 111/111/111 111/111/111 
f 111/111/111 111/111/111 113/113/113 
f 111/111/111 108/108/108 113/113/113 
f 113/113/113 108/108/108 113/113/113 
f 108/108/108 106/106/106 113/113/113 
f 113/113/113 106/106/106 114/114/114 
f 106/106/106 104/104/104 114/114/114 
f 114/114/114 104/104/104 115/115/115 
f 104/104/104 102/102/102 115/115/115 
f 115/115/115 102/102/102 116/116/116 
f 102/102/102 100/100/100 116/116/116 
f 116/116/116 100/100/100 117/117/117 
f 100/100/100 98/98/98 117/117/117 
f 117/117/117 98/98/98 118/118/118 
f 98/98/98 96/96/96 118/118/118 
f 118/118/118 96/96/96 119/119/119 
f 96/96/96 94/94/94 119/119/119 
f 119/119/119 94/94/94 120/120/120 
f 94/94/94 92/92/92 120/120/120 
f 120/120/120 92/92/92 121/121/121 
f 92/92/92 90/90/90 121/121/121 
f 121/121/121 90/90/90 122/122/122 
f 90/90/90 88/88/88 122/122/122 
f 122/122/122 88/88/88 123/123/123 
f 88/88/88 86/86/86 123/123/123 
f 123/123/123 86/86/86 124/124/124 
f 86/86/86 84/84/84 124/124/124 
f 124/124/124 84/84/84 125/125/125 
f 84/84/84 82/82/82 125/125/125 
f 125/125/125 82/82/82 126/126/126 
f 82/82/82 80/80/80 126/126/126 
f 126/126/126 80/80/80 127/127/127 
f 80/80/80 78/78/78 127/127/127 
f 127/127/127 78/78/78 128/128/128 
f 78/78/78 76/76/76 128/128/128 
f 128/128/128 76/76/76 129/129/129 
f 76/76/76 74/74/74 129/129/129 
f 129/129/129 74/74/74 130/130/130 
f 74/74/74 72/72/72 130/130/130 
f 130/130/130 72/72/72 131/131/131 
f 72/72/72 70/70/70 131/131/131 
f 131/131/131 70/70/70 131/131/131 
f 70/70/70 69/69/69 131/131/131 
f 131/131/131 69/69/69 132/132/132 
f 69/69/69 68/68/68 132/132/132 
f 132/132/132 68/68/68 133/133/133 
f 68/68/68 67/67/67 133/133/133 
f 133/133/133 67/67/67 134/134/134 
f 67/67/67 66/66/66 134/134/134 
f 134/134/134 66/66/66 135/135/135 
f 66/66/66 66/66/66 135/135/135 
f 135/135/135 66/66/66 136/136/136 
f 66/66/66 65/65/65 136/136/136 
f 136/136/136 65/65/65 137/137/137 
f 65/65/65 64/64/64 137/137/137 
f 137/137/137 64/64/64 138/138/138 
f 64/64/64 63/63/63 138/138/138 
f 138/138/138 63/63/63 139/139/139 
f 63/63/63 62/62/62 139/139/139 
f 139/139/139 62/62/62 140/140/140 
f 62/62/62 60/60/60 140/140/140 
f 140/140/140 60/60/60 140/140/140 
f 60/60/60 61/61/61 140/140/140 
f 140/140/140 61/61/61 140/140/140 
f 61/61/61 141/141/141 140/140/140 
f 140/140/140 141/141/141 142/142/142 
f 141/141/141 143/143/143 142/142/142 
f 142/142/142 143/143/143 143/143/143 
f 143/143/143 140/140/140 143/143/143 
f 143/143/143 140/140/140 140/140/140 
f 140/140/140 142/142/142 140/140/140 
f 140/140/140 142/142/142 139/139/139 
f 142/142/142 144/144/144 139/139/139 
f 139/139/139 144/144/144 138/138/138 
f 144/144/144 145/145/145 138/138/138 
f 138/138/138 145/145/145 137/137/137 
f 145/145/145 146/146/146 137/137/137 
f 137/137/137 146/146/146 136/136/136 
f 146/146/146 147/147/147 136/136/136 
f 136/136/136 147/147/147 135/135/135 
f 147/147/147 148/148/148 135/135/135 
f 135/135/135 148/148/148 135/135/135 
f 148/148/148 149/149/149 135/135/135 
f 135/135/135 149/149/149 134/134/134 
f 149/149/149 150/150/150 134/134/134 
f 134/134/134 150/150/150 133/133/133 
f 150/150/150 151/151/151 133/133/133 
f 133/133/133 151/151/151 132/132/132 
f 151/151/151 152/152/152 132/132/132 
f 132/132/132 152/152/152 131/131/131 
f 152/152/152 152/152/152 131/131/131 
f 131/131/131 152/152/152 130/130/130 
f 152/152/152 153/153/153 130/130/130 
f 130/130/130 153/153/153 129/129/129 
f 153/153/153 154/154/154 129/129/129 
f 129/129/129 154/154/154 128/128/128 
f 154/154/154 155/155/155 128/128/128 
f 128/128/128 155/155/155 127/127/127 
f 155/155/155 156/156/156 127/127/127 
f 127/127/127 156/156/156 126/126/126 
f 156/156/156 157/157/157 126/126/126 
f 126/126/126 157/157/157 125/125/125 
f 157/157/157 158/158/158 125/125/125 
f 125/125/125 158/158/158 124/124/124 
f 158/158/158 159/159/159 124/124/124 
f 124/124/124 159/159/159 123/123/123 
f 159/159/159 160/160/160 123/123/123 
f 123/123/123 160/160/160 122/122/122 
f 160/160/160 161/161/161 122/122/122 
f 122/122/122 161/161/161 121/121/121 
f 161/161/161 162/162/162 121/121/121 
f 121/121/121 162/162/162 120/120/120 
f 162/162/162 163/163/163 120/120/120 
f 120/120/120 163/163/163 119/119/119 
f 163/163/163 164/164/164 119/119/119 
f 119/119/119 164/164/164 118/118/118 
f 164/164/164 165/165/165 118/118/118 
f 118/118/118 165/165/165 117/117/117 
f 165/165/165 166/166/166 117/117/117 
f 117/117/117 166/166/166 116/116/116 
f 166/166/166 167/167/167 116/116/116 
f 116/116/116 167/167/167 115/115/115 
f 167/167/167 168/168/168 115/115/115 
f 115/115/115 168/168/168 114/114/114 
f 168/168/168 169/169/169 114/114/114 
f 114/114/114 169/169/169 113/113/113 
f 169/169/169 170/170/170 113/113/113 
f 113/113/113 170/170/170 111/111/111 
f 170/170/170 171/171/171 111/111/111 
f 111/111/111 171/171/171 112/112/112 
f 171/171/171 171/171/171 112/112/112 
f 112/112/112 171/171/171 172/172/172 
f 171/171/171 173/173/173 172/172/172 
f 172/172/172 173/173/173 174/174/174 
f 173/173/173 174/174/174 174/174/174 
f 174/174/174 174/174/174 173/173/173 
f 174/174/174 173/173/173 173/173/173 
f 173/173/173 173/173/173 175/175/175 
f 173/173/173 171/171/171 175/175/175 
f 175/175/175 171/171/171 175/175/175 
f 171/171/171 170/170/170 175/175/175 
f 175/175/175 170/170/170 176/176/176 
f 170/170/170 169/169/169 176/176/176 
f 176/176/176 169/169/169 177/177/177 
f 169/169/169 168/168/168 177/177/177 
f 177/177/177 168/168/168 178/178/178 
f 168/168/168 167/167/167 178/178/178 
f 178/178/178 167/167/167 179/179/179 
f 167/167/167 166/166/166 179/179/179 
f 179/179/179 166/166/166 180/180/180 
f 166/166/166 165/165/165 180/180/180 
f 180/180/180 165/165/165 181/181/181 
f 165/165/165 164/164/164 181/181/181 
f 181/181/181 164/164/164 182/182/182 
f 164/164/164 163/163/163 182/182/182 
f 182/182/182 163/163/163 183/183/183 
f 163/163/163 162/162/162 183/183/183 
f 183/183/183 162/162/162 184/184/184 
f 162/162/162 161/161/161 184/184/184 
f 184/184/184 161/161/161 185/185/185 
f 161/161/161 160/160/160 185/185/185 
f 185/185/185 160/160/160 186/186/186 
f 160/160/160 159/159/159 186/186/186 
f 186/186/186 159/159/159 187/187/187 
f 159/159/159 158/158/158 187/187/187 
f 187/187/187 158/158/158 188/188/188 
f 158/158/158 157/157/157 188/188/188 
f 188/188/188 157/157/157 189/189/189 
f 157/157/157 156/156/156 189/189/189 
f 189/189/189 156/156/156 190/190/190 
f 156/156/156 155/155/155 190/190/190 
f 190/190/190 155/155/155 191/191/191 
f 155/155/155 154/154/154 191/191/191 
f 191/191/191 154/154/154 192/192/192 
f 154/154/154 153/153/153 192/192/192 
f 192/192/192 153/153/153 193/193/193 
f 153/153/153 152/152/152 193/193/193 
f 193/193/193 152/152/152 193/193/193 
f 152/152/152 151/151/151 193/193/193 
f 193/193/193 151/151/151 194/194/194 
f 151/151/151 150/150/150 194/194/194 
f 194/194/194 150/150/150 195/195/195 
f 150/150/150 149/149/149 195/195/195 
f 195/195/195 149/149/149 196/196/196 
f 149/149/149 148/148/148 196/196/196 
f 196/196/196 148/148/148 197/197/197 
f 148/148/148 148/148/148 197/197/197 
f 197/197/197 148/148/148 198/198/198 
f 148/148/148 147/147/147 198/198/198 
f 198/198/198 147/147/147 199/199/199 
f 147/147/147 146/146/146 199/199/199 
f 199/199/199 146/146/146 200/200/200 
f 146/146/146 145/145/145 200/200/200 
f 200/200/200 145/145/145 201/201/201 
f 145/145/145 144/144/144 201/201/201 
f 201/201/201 144/144/144 202/202/202 
f 144/144/144 142/142/142 202/202/202 
f 202/202/202 142/142/142 202/202/202 
f 142/142/142 143/143/143 202/202/202 
f 202/202/202 143/143/143 202/202/202 
f 143/143/143 203/203/203 202/202/202 
f 202/202/202 203/203/203 204/204/204 
f 203/203/203 205/205/205 204/204/204 
f 204/204/204 205/205/205 204/204/204 
f 205/205/205 206/206/206 204/204/204 
f 204/204/204 206/206/206 204/204/204 
f 206/206/206 207/207/207 204/204/204 
f 204/204/204 207/207/207 201/201/201 
f 207/207/207 207/207/207 201/201/201 
f 201/201/201 207/207/207 200/200/200 
f 207/207/207 208/208/208 200/200/200 
f 200/200/200 208/208/208 199/199/199 
f 208/208/208 209/209/209 199/199/199 
f 199/199/199 209/209/209 198/198/198 
f 209/209/209 210/210/210 198/198/198 
f 198/198/198 210/210/210 197/197/197 
f 210/210/210 211/211/211 197/197/197 
f 197/197/197 211/211/211 197/197/197 
f 211/211/211 212/212/212 197/197/197 
f 197/197/197 212/212/212 196/196/196 
f 212/212/212 213/213/213 196/196/196 
f 196/196/196 213/213/213 195/195/195 
f 213/213/213 214/214/214 195/195/195 
f 195/195/195 214/214/214 194/194/194 
f 214/214/214 215/215/215 194/194/194 
f 194/194/194 215/215/215 193/193/193 
f 215/215/215 215/215/215 193/193/193 
f 193/193/193 215/215/215 192/192/192 
f 215/215/215 216/216/216 192/192/192 
f 192/192/192 216/216/216 191/191/191 
f 216/216/216 217/217/217 191/191/191 
f 191/191/191 217/217/217 190/190/190 
f 217/217/217 218/218/218 190/190/190 
f 190/190/190 218/218/218 189/189/189 
f 218/218/218 219/219/219 189/189/189 
f 189/189/189 219/219/219 188/188/188 
f 219/219/219 220/220/220 188/188/188 
f 188/188/188 220/220/220 187/187/187 
f 220/220/220 221/221/221 187/187/187 
f 187/187/187 221/221/221 186/186/186 
f 221/221/221 222/222/222 186/186/186 
f 186/186/186 222/222/222 185/185/185 
f 222/222/222 223/223/223 185/185/185 
f 185/185/185 223/223/223 184/184/184 
f 223/223/223 224/224/224 184/184/184 
f 184/184/184 224/224/224 183/183/183 
f 224/224/224 225/225/225 183/183/183 
f 183/183/183 225/225/225 182/182/182 
f 225/225/225 226/226/226 182/182/182 
f 182/182/182 226/226/226 181/181/181 
f 226/226/226 227/227/227 181/181/181 
f 181/181/181 227/227/227 180/180/180 
f 227/227/227 228/228/228 180/180/180 
f 180/180/180 228/228/228 179/179/179 
f 228/228/228 229/229/229 179/179/179 
f 179/179/179 229/229/229 178/178/178 
f 229/229/229 230/230/230 178/178/178 
f 178/178/178 230/230/230 177/177/177 
f 230/230/230 231/231/231 177/177/177 
f 177/177/177 231/231/231 176/176/176 
f 231/231/231 232/232/232 176/176/176 
f 176/176/176 232/232/232 175/175/175 
f 232/232/232 233/233/233 175/175/175 
f 175/175/175 233/233/233 173/173/173 
f 233/233/233 234/234/234 173/173/173 
f 173/173/173 234/234/234 174/174/174 
f 234/234/234 234/234/234 174/174/174 
f 174/174/174 234/234/234 235/235/235 
f 234/234/234 236/236/236 235/235/235 
f 235/235/235 236/236/236 237/237/237 
f 236/236/236 237/237/237 237/237/237 
f 237/237/237 237/237/237 201/201/201 
f 237/237/237 201/201/201 201/201/201 
f 201/201/201 201/201/201 204/204/204 
f 201/201/201 202/202/202 204/204/204 
f 204/204/204 202/202/202 202/202/202 
f 202/202/202 236/236/236 202/202/202 
f 202/202/202 236/236/236 236/236/236 
f 236/236/236 234/234/234 236/236/236 
f 236/236/236 234/234/234 238/238/238 
f 234/234/234 233/233/233 238/238/238 
f 238/238/238 233/233/233 239/239/239 
f 233/233/233 232/232/232 239/239/239 
f 239/239/239 232/232/232 240/240/240 
f 232/232/232 231/231/231 240/240/240 
f 240/240/240 231/231/231 241/241/241 
f 231/231/231 230/230/230 241/241/241 
f 241/241/241 230/230/230 242/242/242 
f 230/230/230 229/229/229 242/242/242 
f 242/242/242 229/229/229 243/243/243 
f 229/229/229 228/228/228 243/243/243 
f 243/243/243 228/228/228 244/244/244 
f 228/228/228 227/227/227 244/244/244 
f 244/244/244 227/227/227 245/245/245 
f 227/227/227 226/226/226 245/245/245 
f 245/245/245 226/226/226 246/246/246 
f 226/226/226 225/225/225 246/246/246 
f 246/246/246 225/225/225 247/247/247 
f 225/225/225 224/224/224 247/247/247 
f 247/247/247 224/224/224 248/248/248 
f 224/224/224 223/223/223 248/248/248 
f 248/248/248 223/223/223 249/249/249 
f 223/223/223 222/222/222 249/249/249 
f 249/249/249 222/222/222 250/250/250 
f 222/222/222 221/221/221 250/250/250 
f 250/250/250 221/221/221 251/251/251 
f 221/221/221 220/220/220 251/251/251 
f 251/251/251 220/220/220 252/252/252 
f 220/220/220 219/219/219 252/252/252 
f 252/252/252 219/219/219 253/253/253 
f 219/219/219 218/218/218 253/253/253 
f 253/253/253 218/218/218 254/254/254 
f 218/218/218 217/217/217 254/254/254 
f 254/254/254 217/217/217 255/255/255 
f 217/217/217 216/216/216 255/255/255 
f 255/255/255 216/216/216 256/256/256 
f 216/216/216 215/215/215 256/256/256 
f 256/256/256 215/215/215 256/256/256 
f 215/215/215 214/214/214 256/256/256 
f 256/256/256 214/214/214 257/257/257 
f 214/214/214 213/213/213 257/257/257 
f 257/257/257 213/213/213 258/258/258 
f 213/213/213 212/212/212 258/258/258 
f 258/258/258 212/212/212 259/259/259 
f 212/212/212 211/211/211 259/259/259 
f 259/259/259 211/211/211 260/260/260 
f 211/211/211 211/211/211 260/260/260 
f 260/260/260 211/211/211 261/261/261 
f 211/211/211 210/210/210 261/261/261 
f 261/261/261 210/210/210 262/262/262 
f 210/210/210 209/209/209 262/262/262 
f 262/262/262 209/209/209 263/263/263 
f 209/209/209 208/208/208 263/263/263 
f 263/263/263 208/208/208 264/264/264 
f 208/208/208 207/207/207 264/264/264 
f 264/264/264 207/207/207 206/206/206 
f 207/207/207 206/206/206 206/206/206 
f 206/206/206 206/206/206 260/260/260 
f 206/206/206 260/260/260 260/260/260 
f 260/260/260 260/260/260 259/259/259 
f 260/260/260 265/265/265 259/259/259 
f 259/259/259 265/265/265 266/266/266 
f 265/265/265 267/267/267 266/266/266 
f 266/266/266 267/267/267 267/267/267 
f 267/267/267 259/259/259 267/267/267 
f 267/267/267 259/259/259 259/259/259 
f 259/259/259 266/266/266 259/259/259 
f 259/259/259 266/266/266 258/258/258 
f 266/266/266 268/268/268 258/258/258 
f 258/258/258 268/268/268 257/257/257 
f 268/268/268 269/269/269 257/257/257 
f 257/257/257 269/269/269 256/256/256 
f 269/269/269 269/269/269 256/256/256 
f 256/256/256 269/269/269 255/255/255 
f 269/269/269 270/270/270 255/255/255 
f 255/255/255 270/270/270 254/254/254 
f 270/270/270 271/271/271 254/254/254 
f 254/254/254 271/271/271 253/253/253 
f 271/271/271 272/272/272 253/253/253 
f 253/253/253 272/272/272 252/252/252 
f 272/272/272 273/273/273 252/252/252 
f 252/252/252 273/273/273 251/251/251 
f 273/273/273 274/274/274 251/251/251 
f 251/251/251 274/274/274 250/250/250 
f 274/274/274 275/275/275 250/250/250 
f 250/250/250 275/275/275 249/249/249 
f 275/275/275 276/276/276 249/249/249 
f 249/249/249 276/276/276 248/248/248 
f 276/276/276 277/277/277 248/248/248 
f 248/248/248 277/277/277 247/247/247 
f 277/277/277 278/278/278 247/247/247 
f 247/247/247 278/278/278 246/246/246 
f 278/278/278 279/279/279 246/246/246 
f 246/246/246 279/279/279 245/245/245 
f 279/279/279 280/280/280 245/245/245 
f 245/245/245 280/280/280 244/244/244 
f 280/280/280 281/281/281 244/244/244 
f 244/244/244 281/281/281 243/243/243 
f 281/281/281 282/282/282 243/243/243 
f 243/243/243 282/282/282 242/242/242 
f 282/282/282 283/283/283 242/242/242 
f 242/242/242 283/283/283 241/241/241 
f 283/283/283 284/284/284 241/241/241 
f 241/241/241 284/284/284 240/240/240 
f 284/284/284 285/285/285 240/240/240 
f 240/240/240 285/285/285 239/239/239 
f 285/285/285 286/286/286 239/239/239 
f 239/239/239 286/286/286 238/238/238 
f 286/286/286 287/287/287 238/238/238 
f 238/238/238 287/287/287 236/236/236 
f 287/287/287 288/288/288 236/236/236 
f 236/236/236 288/288/288 237/237/237 
f 288/288/288 288/288/288 237/237/237 
f 237/237/237 288/288/288 289/289/289 
f 288/288/288 290/290/290 289/289/289 
f 289/289/289 290/290/290 291/291/291 
f 290/290/290 291/291/291 291/291/291 
f 291/291/291 291/291/291 290/290/290 
f 291/291/291 290/290/290 290/290/290 
f 290/290/290 290/290/290 292/292/292 
f 290/290/290 288/288/288 292/292/292 
f 292/292/292 288/288/288 292/292/292 
f 288/288/288 287/287/287 292/292/292 
f 292/292/292 287/287/287 293/293/293 
f 287/287/287 286/286/286 293/293/293 
f 293/293/293 286/286/286 294/294/294 
f 286/286/286 285/285/285 294/294/294 
f 294/294/294 285/285/285 295/295/295 
f 285/285/285 284/284/284 295/295/295 
f 295/295/295 284/284/284 296/296/296 
f 284/284/284 283/283/283 296/296/296 
f 296/296/296 283/283/283 297/297/297 
f 283/283/283 282/282/282 297/297/297 
f 297/297/297 282/282/282 298/298/298 
f 282/282/282 281/281/281 298/298/298 
f 298/298/298 281/281/281 299/299/299 
f 281/281/281 280/280/280 299/299/299 
f 299/299/299 280/280/280 300/300/300 
f 280/280/280 279/279/279 300/300/300 
f 300/300/300 279/279/279 301/301/301 
f 279/279/279 278/278/278 301/301/301 
f 301/301/301 278/278/278 302/302/302 
f 278/278/278 277/277/277 302/302/302 
f 302/302/302 277/277/277 303/303/303 
f 277/277/277 276/276/276 303/303/303 
f 303/303/303 276/276/276 304/304/304 
f 276/276/276 275/275/275 304/304/304 
f 304/304/304 275/275/275 305/305/305 
f 275/275/275 274/274/274 305/305/305 
f 305/305/305 274/274/274 306/306/306 
f 274/274/274 273/273/273 306/306/306 
f 306/306/306 273/273/273 307/307/307 
f 273/273/273 272/272/272 307/307/307 
f 307/307/307 272/272/272 308/308/308 
f 272/272/272 271/271/271 308/308/308 
f 308/308/308 271/271/271 309/309/309 
f 271/271/271 270/270/270 309/309/309 
f 309/309/309 270/270/270 310/310/310 
f 270/270/270 269/269/269 310/310/310 
f 310/310/310 269/269/269 310/310/310 
f 269/269/269 268/268/268 310/310/310 
f 310/310/310 268/268/268 311/311/311 
f 268/268/268 266/266/266 311/311/311 
f 311/311/311 266/266/266 311/311/311 
f 266/266/266 267/267/267 311/311/311 
f 311/311/311 267/267/267 311/311/311 
f 267/267/267 312/312/312 311/311/311 
f 311/311/311 312/312/312 311/311/311 
f 312/312/312 313/313/313 311/311/311 
f 311/311/311 313/313/313 310/310/310 
f 313/313/313 313/313/313 310/310/310 
f 310/310/310 313/313/313 309/309/309 
f 313/313/313 314/314/314 309/309/309 
f 309/309/309 314/314/314 308/308/308 
f 314/314/314 315/315/315 308/308/308 
f 308/308/308 315/315/315 307/307/307 
f 315/315/315 316/316/316 307/307/307 
f 307/307/307 316/316/316 306/306/306 
f 316/316/316 317/317/317 306/306/306 
f 306/306/306 317/317/317 305/305/305 
f 317/317/317 318/318/318 305/305/305 
f 305/305/305 318/318/318 304/304/304 
f 318/318/318 319/319/319 304/304/304 
f 304/304/304 319/319/319 303/303/303 
f 319/319/319 320/320/320 303/303/303 
f 303/303/303 320/320/320 302/302/302 
f 320/320/320 321/321/321 302/302/302 
f 302/302/302 321/321/321 301/301/301 
f 321/321/321 322/322/322 301/301/301 
f 301/301/301 322/322/322 300/300/300 
f 322/322/322 323/323/323 300/300/300 
f 300/300/300 323/323/323 299/299/299 
f 323/323/323 324/324/324 299/299/299 
f 299/299/299 324/324/324 298/298/298 
f 324/324/324 325/325/325 298/298/298 
f 298/298/298 325/325/325 297/297/297 
f 325/325/325 326/326/326 297/297/297 
f 297/297/297 326/326/326 296/296/296 
f 326/326/326 327/327/327 296/296/296 
f 296/296/296 327/327/327 295/295/295 
f 327/327/327 328/328/328 295/295/295 
f 295/295/295 328/328/328 294/294/294 
f 328/328/328 329/329/329 294/294/294 
f 294/294/294 329/329/329 293/293/293 
f 329/329/329 330/330/330 293/293/293 
f 293/293/293 330/330/330 292/292/292 
f 330/330/330 331/331/331 292/292/292 
f 292/292/292 331/331/331 290/290/290 
f 331/331/331 332/332/332 290/290/290 
f 290/290/290 332/332/332 291/291/291 
f 332/332/332 332/332/332 291/291/291 
f 291/291/291 332/332/332 333/333/333 
f 332/332/332 334/334/334 333/333/333 
f 333/333/333 334/334/334 335/335/335 
f 334/334/334 335/335/335 335/335/335 
f 335/335/335 335/335/335 334/334/334 
f 335/335/335 334/334/334 334/334/334 
f 334/334/334 334/334/334 336/336/336 
f 334/334/334 332/332/332 336/336/336 
f 336/336/336 332/332/332 336/336/336 
f 332/332/332 331/331/331 336/336/336 
f 336/336/336 331/331/331 337/337/337 
f 331/331/331 330/330/330 337/337/337 
f 337/337/337 330/330/330 338/338/338 
f 330/330/330 329/329/329 338/338/338 
f 338/338/338 329/329/329 339/339/339 
f 329/329/329 328/328/328 339/339/339 
f 339/339/339 328/328/328 340/340/340 
f 328/328/328 327/327/327 340/340/340 
f 340/340/340 327/327/327 341/341/341 
f 327/327/327 326/326/326 341/341/341 
f 341/341/341 326/326/326 342/342/342 
f 326/326/326 325/325/325 342/342/342 
f 342/342/342 325/325/325 343/343/343 
f 325/325/325 324/324/324 343/343/343 
f 343/343/343 324/324/324 344/344/344 
f 324/324/324 323/323/323 344/344/344 
f 344/344/344 323/323/323 345/345/345 
f 323/323/323 322/322/322 345/345/345 
f 345/345/345 322/322/322 346/346/346 
f 322/322/322 321/321/321 346/346/346 
f 346/346/346 321/321/321 347/347/347 
f 321/321/321 320/320/320 347/347/347 
f 347/347/347 320/320/320 348/348/348 
f 320/320/320 319/319/319 348/348/348 
f 348/348/348 319/319/319 349/349/349 
f 319/319/319 318/318/318 349/349/349 
f 349/349/349 318/318/318 350/350/350 
f 318/318/318 317/317/317 350/350/350 
f 350/350/350 317/317/317 351/351/351 
f 317/317/317 316/316/316 351/351/351 
f 351/351/351 316/316/316 352/352/352 
f 316/316/316 315/315/315 352/352/352 
f 352/352/352 315/315/315 353/353/353 
f 315/315/315 314/314/314 353/353/353 
f 353/353/353 314/314/314 354/354/354 
f 314/314/314 313/313/313 354/354/354 
f 354/354/354 313/313/313 312/312/312 

