mtllib model_4.mtl
o model_4
v -0.5491340756416321 0.6943418383598328 -2.775848627090454 
v -0.4931049644947052 0.5735031962394714 -2.7775449752807617 
v -0.556749701499939 0.690636396408081 -2.775939464569092 
v -0.5012645125389099 0.5695918798446655 -2.7775449752807617 
v 0.5491454005241394 0.6943418383598328 -2.7758638858795166 
v 0.5567610263824463 0.690636396408081 -2.7759547233581543 
v 0.4931162893772125 0.5735031962394714 -2.777559995651245 
v 0.5012758374214172 0.5695918798446655 -2.777559995651245 
v 0.04107554256916046 0.27295050024986267 -2.7688679695129395 
v 0.03128404915332794 0.2731563448905945 -2.7688376903533936 
v 0.04760320857167244 0.3044467866420746 -2.7688982486724854 
v 0.016052832826972008 0.2731563448905945 -2.7688376903533936 
v -0.04813586547970772 0.3046526312828064 -2.7688679695129395 
v -0.02909684367477894 0.27295050024986267 -2.7688376903533936 
v -0.04106422886252403 0.27295050024986267 -2.7688376903533936 
v 0.047059234231710434 0.3450008034706116 -2.7688982486724854 
v -0.04813586547970772 0.34520667791366577 -2.7688679695129395 
v 0.047059234231710434 0.3641456067562103 -2.768913507461548 
v -0.04813586547970772 0.36435145139694214 -2.7688679695129395 
v 0.019316663965582848 0.3913188576698303 -2.768852949142456 
v -0.01930534839630127 0.3911129832267761 -2.768852949142456 
v -0.04759189113974571 0.38123181462287903 -2.768852949142456 
v 0.04651526361703873 0.3810259699821472 -2.7688982486724854 
vn 0.007550950627774 0.015292437747120857 -0.999854564666748 
vn -3.0963000718052525e-13 0.015292437747120857 -0.9998830556869507 
vn -3.0963000718052525e-13 0.015292437747120857 -0.9998830556869507 
vn -0.007551383227109909 0.010923424735665321 -0.9999118447303772 
vn -0.007550950627774 0.015292437747120857 -0.999854564666748 
vn -3.0963000718052525e-13 0.015292437747120857 -0.9998830556869507 
vn -3.0963000718052525e-13 0.015292437747120857 -0.9998830556869507 
vn 0.007551383227109909 0.010923424735665321 -0.9999118447303772 
vn -3.096676561009648e-13 -0.0021845311857759953 -0.999997615814209 
vn -3.096676561009648e-13 -0.0021845311857759953 -0.999997615814209 
vn -3.096676561009648e-13 -0.0021845311857759953 -0.999997615814209 
vn -3.096676561009648e-13 -0.0021845311857759953 -0.999997615814209 
vn -3.096676561009648e-13 -0.0021845311857759953 -0.999997615814209 
vn -3.096676561009648e-13 -0.0021845311857759953 -0.999997615814209 
vn -3.096676561009648e-13 -0.0021845311857759953 -0.999997615814209 
vn -3.096676561009648e-13 -0.0021845311857759953 -0.999997615814209 
vn -3.096676561009648e-13 -0.0021845311857759953 -0.999997615814209 
vn -3.0966711399987856e-13 0.0021848571486771107 -0.999997615814209 
vn -3.0966711399987856e-13 0.0021848571486771107 -0.999997615814209 
vn -3.0966711399987856e-13 0.0021848571486771107 -0.999997615814209 
vn -3.0966711399987856e-13 0.0021848571486771107 -0.999997615814209 
vn -3.0966711399987856e-13 0.0021848571486771107 -0.999997615814209 
vn -3.0966711399987856e-13 0.0021848571486771107 -0.999997615814209 
vt 0.5088362097740173 0.12411009520292282 
vt 0.5088362097740173 0.0005977150285616517 
vt 0.5024827718734741 0.12411009520292282 
vt 0.5024827718734741 0.0005977150285616517 
vt 0.5091512799263 0.12465553730726242 
vt 0.5021152496337891 0.12465553730726242 
vt 0.5091512799263 0.0007795291021466255 
vt 0.5021152496337891 0.0007189243915490806 
vt 0.490511029958725 0.003506740555167198 
vt 0.4811646640300751 0.00362795009277761 
vt 0.49728453159332275 0.03508178889751434 
vt 0.46572738885879517 0.00362795009277761 
vt 0.4016680121421814 0.03526360169053078 
vt 0.42046576738357544 0.003567345207557082 
vt 0.40886154770851135 0.003567345207557082 
vt 0.49696946144104004 0.07556572556495667 
vt 0.4016680121421814 0.07568693906068802 
vt 0.4969169795513153 0.09459560364484787 
vt 0.40172049403190613 0.09489862620830536 
vt 0.46898287534713745 0.12186771631240845 
vt 0.430442214012146 0.12174651026725769 
vt 0.40182551741600037 0.11550422757863998 
vt 0.4963393807411194 0.11532241106033325 
s on 
f 1/1/1 2/2/2 3/3/3 
f 2/2/2 4/4/4 3/3/3 
f 3/3/3 4/4/4 4/4/4 
f 4/4/4 5/5/5 4/4/4 
f 4/4/4 5/5/5 5/5/5 
f 5/5/5 6/6/6 5/5/5 
f 5/5/5 6/6/6 7/7/7 
f 6/6/6 8/8/8 7/7/7 
f 7/7/7 8/8/8 8/8/8 
f 8/8/8 9/9/9 8/8/8 
f 8/8/8 9/9/9 9/9/9 
f 9/9/9 10/10/10 9/9/9 
f 9/9/9 10/10/10 11/11/11 
f 10/10/10 12/12/12 11/11/11 
f 11/11/11 12/12/12 13/13/13 
f 12/12/12 14/14/14 13/13/13 
f 13/13/13 14/14/14 15/15/15 
f 14/14/14 15/15/15 15/15/15 
f 15/15/15 15/15/15 11/11/11 
f 15/15/15 11/11/11 11/11/11 
f 11/11/11 11/11/11 16/16/16 
f 11/11/11 13/13/13 16/16/16 
f 16/16/16 13/13/13 16/16/16 
f 13/13/13 17/17/17 16/16/16 
f 16/16/16 17/17/17 18/18/18 
f 17/17/17 19/19/19 18/18/18 
f 18/18/18 19/19/19 20/20/20 
f 19/19/19 19/19/19 20/20/20 
f 20/20/20 19/19/19 21/21/21 
f 19/19/19 22/22/22 21/21/21 
f 21/21/21 22/22/22 22/22/22 
f 22/22/22 20/20/20 22/22/22 
f 22/22/22 20/20/20 20/20/20 
f 20/20/20 23/23/23 20/20/20 
f 20/20/20 23/23/23 18/18/18 

