mtllib model_10.mtl
o model_10
v -1.3841063976287842 0.2138347178697586 1.0662949085235596 
v -1.381665825843811 0.22978682816028595 1.0666054487228394 
v -1.383819341659546 0.1931101232767105 1.0661017894744873 
v -1.383388638496399 0.16778995096683502 1.0658583641052246 
v -1.3803737163543701 0.15029121935367584 1.065850019454956 
v -1.3750616312026978 0.23424990475177765 1.067025065422058 
v -1.3736259937286377 0.1455630213022232 1.0661941766738892 
v -1.3512293100357056 0.23438246548175812 1.0683847665786743 
v -1.3497936725616455 0.14573974907398224 1.0675455331802368 
v -1.3008370399475098 0.2347802072763443 1.0712637901306152 
v -1.2995449304580688 0.14609326422214508 1.0704244375228882 
v -1.244127631187439 0.2351778894662857 1.0744951963424683 
v -1.242835521697998 0.14653517305850983 1.0736559629440308 
v -1.2001957893371582 0.2354871779680252 1.0770132541656494 
v -1.1987601518630981 0.14684446156024933 1.0761739015579224 
v -1.1624374389648438 0.23575235903263092 1.0791620016098022 
v -1.1611453294754028 0.14710958302021027 1.0783226490020752 
v -1.1252533197402954 0.23601748049259186 1.0812855958938599 
v -1.1239612102508545 0.14737476408481598 1.0804462432861328 
v -1.0991239547729492 0.23067064583301544 1.0827208757400513 
v -1.1098915338516235 0.14878876507282257 1.0812687873840332 
v -1.0981190204620361 0.15356118977069855 1.0819822549819946 
v -1.0909405946731567 0.2152487188577652 1.083031415939331 
v -1.0925198793411255 0.16102905571460724 1.0823767185211182 
v -1.090222716331482 0.17052967846393585 1.0826116800308228 
v -1.090653419494629 0.19523121416568756 1.0828382968902588 
v 1.0939936637878418 0.17052967846393585 1.1119853258132935 
v 1.0942810773849487 0.19523121416568756 1.1122280359268188 
v 1.0962927341461182 0.16102905571460724 1.1118128299713135 
v 1.0945684909820557 0.2152487188577652 1.1124275922775269 
v 1.1029026508331299 0.23067064583301544 1.1123305559158325 
v 1.1018967628479004 0.15356118977069855 1.1115647554397583 
v 1.11353600025177 0.14878876507282257 1.1111602783203125 
v 1.1289111375808716 0.23601748049259186 1.1115916967391968 
v 1.1276178359985352 0.14737476408481598 1.110718011856079 
v 1.16497802734375 0.14710958302021027 1.109580159187317 
v 1.1662713289260864 0.23575235903263092 1.1104538440704346 
v 1.2026256322860718 0.14684446156024933 1.1084260940551758 
v 1.2039188146591187 0.2354871779680252 1.1092997789382935 
v 1.246739387512207 0.14653517305850983 1.1070778369903564 
v 1.248032569885254 0.2351778894662857 1.107956886291504 
v 1.3033543825149536 0.14609326422214508 1.1053467988967896 
v 1.3047913312911987 0.2347802072763443 1.1062203645706177 
v 1.3537906408309937 0.14573974907398224 1.1038044691085815 
v 1.3550838232040405 0.23438246548175812 1.1046833992004395 
v 1.3774999380111694 0.1455630213022232 1.1030818223953247 
v 1.3789368867874146 0.23424990475177765 1.1039553880691528 
v 1.384397268295288 0.15029121935367584 1.1029200553894043 
v 1.3855468034744263 0.22978682816028595 1.1037073135375977 
v 1.387414813041687 0.16778995096683502 1.1030117273330688 
v 1.3881332874298096 0.2138347178697586 1.1034647226333618 
v 1.3878458738327026 0.1931101232767105 1.103259801864624 
vn 0.056265007704496384 0.0075669074431061745 -0.9983872175216675 
vn 0.056265007704496384 0.0075669074431061745 -0.9983872175216675 
vn 0.056265007704496384 0.0075669074431061745 -0.9983872175216675 
vn 0.056265007704496384 0.0075669074431061745 -0.9983872175216675 
vn 0.056265007704496384 0.0075669074431061745 -0.9983872175216675 
vn 0.056265007704496384 0.0075669074431061745 -0.9983872175216675 
vn 0.056265007704496384 0.0075669074431061745 -0.9983872175216675 
vn 0.056265007704496384 0.0075669074431061745 -0.9983872175216675 
vn 0.056265007704496384 0.0075669074431061745 -0.9983872175216675 
vn 0.056265007704496384 0.0075669074431061745 -0.9983872175216675 
vn 0.056265007704496384 0.0075669074431061745 -0.9983872175216675 
vn 0.056265007704496384 0.0075669074431061745 -0.9983872175216675 
vn 0.056265007704496384 0.0075669074431061745 -0.9983872175216675 
vn 0.056265007704496384 0.0075669074431061745 -0.9983872175216675 
vn 0.056265007704496384 0.0075669074431061745 -0.9983872175216675 
vn 0.056265007704496384 0.0075669074431061745 -0.9983872175216675 
vn 0.056265007704496384 0.0075669074431061745 -0.9983872175216675 
vn 0.056265007704496384 0.0075669074431061745 -0.9983872175216675 
vn 0.056265007704496384 0.0075669074431061745 -0.9983872175216675 
vn 0.056265007704496384 0.0075669074431061745 -0.9983872175216675 
vn 0.056265007704496384 0.0075669074431061745 -0.9983872175216675 
vn 0.056265007704496384 0.0075669074431061745 -0.9983872175216675 
vn 0.056265007704496384 0.0075669074431061745 -0.9983872175216675 
vn 0.056265007704496384 0.0075669074431061745 -0.9983872175216675 
vn 0.056265007704496384 0.0075669074431061745 -0.9983872175216675 
vn 0.056265007704496384 0.0075669074431061745 -0.9983872175216675 
vn -0.02843347005546093 0.011257607489824295 -0.9995322823524475 
vn -0.02843347005546093 0.011257607489824295 -0.9995322823524475 
vn -0.02843347005546093 0.011257607489824295 -0.9995322823524475 
vn -0.02843347005546093 0.011257607489824295 -0.9995322823524475 
vn -0.02843347005546093 0.011257607489824295 -0.9995322823524475 
vn -0.02843347005546093 0.011257607489824295 -0.9995322823524475 
vn -0.02843347005546093 0.011257607489824295 -0.9995322823524475 
vn -0.02843347005546093 0.011257607489824295 -0.9995322823524475 
vn -0.02843347005546093 0.011257607489824295 -0.9995322823524475 
vn -0.02843347005546093 0.011257607489824295 -0.9995322823524475 
vn -0.02843347005546093 0.011257607489824295 -0.9995322823524475 
vn -0.02843347005546093 0.011257607489824295 -0.9995322823524475 
vn -0.02843347005546093 0.011257607489824295 -0.9995322823524475 
vn -0.02843347005546093 0.011257607489824295 -0.9995322823524475 
vn -0.02843347005546093 0.011257607489824295 -0.9995322823524475 
vn -0.02843347005546093 0.011257607489824295 -0.9995322823524475 
vn -0.02843347005546093 0.011257607489824295 -0.9995322823524475 
vn -0.02843347005546093 0.011257607489824295 -0.9995322823524475 
vn -0.02843347005546093 0.011257607489824295 -0.9995322823524475 
vn -0.02843347005546093 0.011257607489824295 -0.9995322823524475 
vn -0.02843347005546093 0.011257607489824295 -0.9995322823524475 
vn -0.02843347005546093 0.011257607489824295 -0.9995322823524475 
vn -0.02843347005546093 0.011257607489824295 -0.9995322823524475 
vn -0.02843347005546093 0.011257607489824295 -0.9995322823524475 
vn -0.02843347005546093 0.011257607489824295 -0.9995322823524475 
vn -0.02843347005546093 0.011257607489824295 -0.9995322823524475 
s on 
f 1//1 2//2 3//3 
f 2//2 2//2 3//3 
f 3//3 2//2 4//4 
f 2//2 2//2 4//4 
f 4//4 2//2 5//5 
f 2//2 6//6 5//5 
f 5//5 6//6 7//7 
f 6//6 8//8 7//7 
f 7//7 8//8 9//9 
f 8//8 10//10 9//9 
f 9//9 10//10 11//11 
f 10//10 12//12 11//11 
f 11//11 12//12 13//13 
f 12//12 14//14 13//13 
f 13//13 14//14 15//15 
f 14//14 16//16 15//15 
f 15//15 16//16 17//17 
f 16//16 18//18 17//17 
f 17//17 18//18 19//19 
f 18//18 20//20 19//19 
f 19//19 20//20 21//21 
f 20//20 20//20 21//21 
f 21//21 20//20 22//22 
f 20//20 23//23 22//22 
f 22//22 23//23 24//24 
f 23//23 23//23 24//24 
f 24//24 23//23 25//25 
f 23//23 26//26 25//25 
f 25//25 26//26 26//26 
f 26//26 27//27 26//26 
f 26//26 27//27 27//27 
f 27//27 28//28 27//27 
f 27//27 28//28 29//29 
f 28//28 30//30 29//29 
f 29//29 30//30 29//29 
f 30//30 31//31 29//29 
f 29//29 31//31 32//32 
f 31//31 31//31 32//32 
f 32//32 31//31 33//33 
f 31//31 34//34 33//33 
f 33//33 34//34 35//35 
f 34//34 34//34 35//35 
f 35//35 34//34 36//36 
f 34//34 37//37 36//36 
f 36//36 37//37 38//38 
f 37//37 39//39 38//38 
f 38//38 39//39 40//40 
f 39//39 41//41 40//40 
f 40//40 41//41 42//42 
f 41//41 43//43 42//42 
f 42//42 43//43 44//44 
f 43//43 45//45 44//44 
f 44//44 45//45 46//46 
f 45//45 47//47 46//46 
f 46//46 47//47 48//48 
f 47//47 49//49 48//48 
f 48//48 49//49 50//50 
f 49//49 51//51 50//50 
f 50//50 51//51 52//52 

