mtllib model_3.mtl
o model_3
v 0.04395781829953194 -1.1310758590698242 0.2493768334388733 
v 0.04249389469623566 -1.1272273063659668 0.24975305795669556 
v 0.051809776574373245 -1.1299279928207397 0.2665221393108368 
v 0.050745103508234024 -1.127058506011963 0.26743581891059875 
v 0.047817256301641464 -1.1265859603881836 0.2682957649230957 
v 0.05207594484090805 -1.127159833908081 0.2775940001010895 
v 0.04675258323550224 -1.127159833908081 0.2799588739871979 
v 0.04249389469623566 -1.1265859603881836 0.2706606388092041 
v 0.0395660474896431 -1.1265859603881836 0.2505055069923401 
v 0.02545914426445961 -1.1272273063659668 0.18966391682624817 
v 0.026789983734488487 -1.1310758590698242 0.1892876923084259 
v 0.051277440041303635 -1.143296480178833 0.2653397023677826 
v 0.021865876391530037 -1.1265859603881836 0.1881590038537979 
v 0.03424268960952759 -1.1265859603881836 0.2528703808784485 
v 0.04009838402271271 -1.1268559694290161 0.27109062671661377 
v 0.044357072561979294 -1.1273623704910278 0.28044259548187256 
v 0.04329239949584007 -1.1289153099060059 0.2802813649177551 
v 0.03929987922310829 -1.1287802457809448 0.271413117647171 
v 0.039432965219020844 -1.1372199058532715 0.27205806970596313 
v 0.03091558814048767 -1.129860520362854 0.25319287180900574 
v 0.03184717521071434 -1.1269910335540771 0.2530316412448883 
v 0.04768417030572891 -1.1327975988388062 0.2878596782684326 
v 0.046353332698345184 -1.133675217628479 0.28694599866867065 
v 0.05021276697516441 -1.132696270942688 0.28742972016334534 
v 0.05540304258465767 -1.132696270942688 0.28506484627723694 
v 0.05487070977687836 -1.1275311708450317 0.2766265571117401 
v 0.055802296847105026 -1.1297593116760254 0.27517539262771606 
v 0.05859706178307533 -1.1346205472946167 0.2814100384712219 
v 0.058197807520627975 -1.1329662799835205 0.28388240933418274 
v 0.05793163925409317 -1.1401907205581665 0.29043954610824585 
v 0.05260828137397766 -1.1401907205581665 0.29275065660476685 
v 0.05021276697516441 -1.1402244567871094 0.2931806445121765 
v 0.04848267510533333 -1.14059579372406 0.29167571663856506 
v 0.0398322157561779 -1.142486333847046 0.27275678515434265 
v 0.031048672273755074 -1.143431544303894 0.25373032689094543 
v 0.04009838402271271 -1.1470099687576294 0.27334800362586975 
v 0.048881929367780685 -1.1489003896713257 0.292428195476532 
v 0.050345852971076965 -1.14883291721344 0.2937180995941162 
v 0.052874449640512466 -1.14883291721344 0.29328814148902893 
v 0.058197807520627975 -1.14883291721344 0.29092326760292053 
v 0.060593318194150925 -1.1403257846832275 0.2890958786010742 
v 0.060593318194150925 -1.1412034034729004 0.28570979833602905 
v 0.051277440041303635 -1.144545555114746 0.2652859389781952 
v 0.04395781829953194 -1.1528501510620117 0.2493768334388733 
v 0.026789983734488487 -1.155483365058899 0.1892876923084259 
v 0.025326060131192207 -1.155483365058899 0.18380549550056458 
v 0.025326060131192207 -1.1310758590698242 0.18380549550056458 
v 0.02399522066116333 -1.1272273063659668 0.18412797152996063 
v 0.02106737159192562 -1.1265859603881836 0.18369799852371216 
v 0.01654251664876938 -1.1265859603881836 0.1881590038537979 
v 0.02399522066116333 -1.127193570137024 0.23088786005973816 
v 0.028253907337784767 -1.1315146684646606 0.24341091513633728 
v 0.03038325160741806 -1.1369836330413818 0.2510429918766022 
v 0.026257647201418877 -1.1369836330413818 0.2510429918766022 
v 0.02452755533158779 -1.1315146684646606 0.24341091513633728 
v 0.021732792258262634 -1.1278687715530396 0.23201654851436615 
v -0.00022606800484936684 -1.1315146684646606 0.24341091513633728 
v -0.00022606800484936684 -1.1369836330413818 0.2510429918766022 
v -0.00022606800484936684 -1.143431544303894 0.25373032689094543 
v 0.02692306786775589 -1.143431544303894 0.25373032689094543 
v -0.00022606800484936684 -1.154031753540039 0.25373032689094543 
v 0.02692306786775589 -1.154031753540039 0.25373032689094543 
v -0.00022606800484936684 -1.1278687715530396 0.23201654851436615 
v -0.022051844745874405 -1.1278687715530396 0.23201654851436615 
v -0.024846607819199562 -1.1315146684646606 0.24341091513633728 
v -0.026576699689030647 -1.1369836330413818 0.2510429918766022 
v -0.02724212035536766 -1.143431544303894 0.25373032689094543 
v -0.00022606800484936684 -1.1265859603881836 0.21852605044841766 
v 0.010819903574883938 -1.1265859603881836 0.1881590038537979 
v 0.015744011849164963 -1.1265859603881836 0.18369799852371216 
v 0.02106737159192562 -1.1310758590698242 0.18369799852371216 
v 0.02106737159192562 -1.1447818279266357 0.18369799852371216 
v 0.015744011849164963 -1.1310758590698242 0.18369799852371216 
v 0.0101544838398695 -1.1265859603881836 0.18369799852371216 
v -0.00022606800484936684 -1.1265859603881836 0.1881590038537979 
v -0.011138956062495708 -1.1265859603881836 0.1881590038537979 
v -0.02431427128612995 -1.127193570137024 0.23088786005973816 
v -0.028572959825396538 -1.1315146684646606 0.24341091513633728 
v -0.03070230409502983 -1.1369836330413818 0.2510429918766022 
v -0.03123464062809944 -1.129860520362854 0.25319287180900574 
v -0.03216622769832611 -1.1269910335540771 0.2530316412448883 
v -0.03456173837184906 -1.1265859603881836 0.2528703808784485 
v -0.016861567273736 -1.1265859603881836 0.1881590038537979 
v -0.016063064336776733 -1.1265859603881836 0.18369799852371216 
v -0.01047353632748127 -1.1265859603881836 0.18369799852371216 
v -0.00022606800484936684 -1.1265859603881836 0.18369799852371216 
v 0.0101544838398695 -1.1310758590698242 0.18369799852371216 
v 0.015744011849164963 -1.1447818279266357 0.18369799852371216 
v 0.02106737159192562 -1.1575764417648315 0.18369799852371216 
v 0.025326060131192207 -1.1575764417648315 0.18380549550056458 
v 0.026789983734488487 -1.1575764417648315 0.1892876923084259 
v 0.04262698069214821 -1.1605134010314941 0.2435184121131897 
v 0.04329239949584007 -1.1607835292816162 0.2470119595527649 
v 0.09293273091316223 -1.1600069999694824 0.23911115527153015 
v 0.07722882181406021 -1.1571037769317627 0.1892876923084259 
v 0.07576489448547363 -1.1571037769317627 0.18375174701213837 
v 0.025326060131192207 -1.1956900358200073 0.18380549550056458 
v 0.11702093482017517 -1.1444780826568604 0.18375174701213837 
v 0.11875102669000626 -1.1443767547607422 0.1892876923084259 
v 0.12753456830978394 -1.1468411684036255 0.21551622450351715 
v 0.12167887389659882 -1.1436340808868408 0.1898251622915268 
v 0.12021495401859283 -1.1436340808868408 0.18434296548366547 
v 0.12327588349580765 -1.1456595659255981 0.18375174701213837 
v 0.11462542414665222 -1.1820515394210815 0.18412797152996063 
v 0.026789983734488487 -1.1956900358200073 0.1892876923084259 
v 0.1262037307024002 -1.1802623271942139 0.18375174701213837 
v 0.12473981082439423 -1.1456595659255981 0.1892876923084259 
v 0.13219250738620758 -1.1455583572387695 0.21621493995189667 
v 0.12686915695667267 -1.1484278440475464 0.22841550409793854 
v 0.12074729055166245 -1.1511285305023193 0.2357788383960724 
v 0.11036673933267593 -1.1546056270599365 0.2388424277305603 
v 0.09373123943805695 -1.1603108644485474 0.24362590909004211 
v 0.11036673933267593 -1.1552133560180664 0.24362590909004211 
v 0.12354205548763275 -1.1507909297943115 0.2400248497724533 
v 0.13139401376247406 -1.1473138332366943 0.23013541102409363 
v 0.13498727977275848 -1.1475838422775269 0.21540872752666473 
v 0.13405568897724152 -1.1495418548583984 0.23072662949562073 
v 0.12500597536563873 -1.1535253524780273 0.24190600216388702 
v 0.11036673933267593 -1.1585216522216797 0.24599076807498932 
v 0.09439665824174881 -1.1634166240692139 0.24599076807498932 
v 0.04395781829953194 -1.1639230251312256 0.2493768334388733 
v 0.04475632309913635 -1.1552470922470093 0.2516342103481293 
v 0.04648641496896744 -1.1569349765777588 0.25507402420043945 
v 0.055802296847105026 -1.1547744274139404 0.27517539262771606 
v 0.055802296847105026 -1.1505546569824219 0.2752291262149811 
v 0.06085948646068573 -1.149271845817566 0.2861397862434387 
v 0.06085948646068573 -1.1535590887069702 0.2861397862434387 
v 0.06085948646068573 -1.1956900358200073 0.2861397862434387 
v 0.055669210851192474 -1.1956900358200073 0.27501416206359863 
v 0.04395781829953194 -1.1956900358200073 0.2493768334388733 
v 0.09439665824174881 -1.1952173709869385 0.24599076807498932 
v 0.11036673933267593 -1.1903561353683472 0.24599076807498932 
v 0.12527213990688324 -1.1855286359786987 0.24185225367546082 
v 0.13458801805973053 -1.1819502115249634 0.2306191325187683 
v 0.1360519528388977 -1.1805660724639893 0.2151937484741211 
v 0.1276676505804062 -1.1802623271942139 0.1892876923084259 
v 0.02106737159192562 -1.1956900358200073 0.18369799852371216 
v 0.015744011849164963 -1.1575764417648315 0.18369799852371216 
v 0.0101544838398695 -1.1447818279266357 0.18369799852371216 
v 0.0101544838398695 -1.1575764417648315 0.18369799852371216 
v 0.015744011849164963 -1.1956900358200073 0.18369799852371216 
v 0.0101544838398695 -1.1956900358200073 0.18369799852371216 
v -0.00022606800484936684 -1.1310758590698242 0.18369799852371216 
v -0.00022606800484936684 -1.1447818279266357 0.18369799852371216 
v -0.00022606800484936684 -1.1575764417648315 0.18369799852371216 
v -0.00022606800484936684 -1.1956900358200073 0.18369799852371216 
v -0.01047353632748127 -1.1956900358200073 0.18369799852371216 
v -0.01047353632748127 -1.1575764417648315 0.18369799852371216 
v -0.016063064336776733 -1.1956900358200073 0.18369799852371216 
v -0.01047353632748127 -1.1447818279266357 0.18369799852371216 
v -0.016063064336776733 -1.1575764417648315 0.18369799852371216 
v -0.02138642407953739 -1.1956900358200073 0.18369799852371216 
v -0.02138642407953739 -1.1575764417648315 0.18369799852371216 
v -0.025645112618803978 -1.1956900358200073 0.18380549550056458 
v -0.016063064336776733 -1.1447818279266357 0.18369799852371216 
v -0.01047353632748127 -1.1310758590698242 0.18369799852371216 
v -0.016063064336776733 -1.1310758590698242 0.18369799852371216 
v -0.02138642407953739 -1.1447818279266357 0.18369799852371216 
v -0.02138642407953739 -1.1310758590698242 0.18369799852371216 
v -0.02138642407953739 -1.1265859603881836 0.18369799852371216 
v -0.022184928879141808 -1.1265859603881836 0.1881590038537979 
v -0.02431427128612995 -1.1272273063659668 0.18412797152996063 
v -0.025645112618803978 -1.1310758590698242 0.18380549550056458 
v -0.02577819675207138 -1.1272273063659668 0.18966391682624817 
v -0.03988509997725487 -1.1265859603881836 0.2505055069923401 
v -0.04281294718384743 -1.1265859603881836 0.2706606388092041 
v -0.04041743651032448 -1.1268559694290161 0.27109062671661377 
v -0.03961893171072006 -1.1287802457809448 0.271413117647171 
v -0.025645112618803978 -1.155483365058899 0.18380549550056458 
v -0.027109036222100258 -1.1310758590698242 0.1892876923084259 
v -0.04281294718384743 -1.1272273063659668 0.24975305795669556 
v -0.048136308789253235 -1.1265859603881836 0.2682957649230957 
v -0.025645112618803978 -1.1575764417648315 0.18380549550056458 
v -0.0760839506983757 -1.1571037769317627 0.18375174701213837 
v -0.11733999103307724 -1.1444780826568604 0.18375174701213837 
v -0.1149444729089737 -1.1820515394210815 0.18412797152996063 
v -0.027109036222100258 -1.1956900358200073 0.1892876923084259 
v -0.12652277946472168 -1.1802623271942139 0.18375174701213837 
v -0.12798671424388885 -1.1802623271942139 0.1892876923084259 
v -0.04427687078714371 -1.1956900358200073 0.2493768334388733 
v -0.13637100160121918 -1.1805660724639893 0.2151937484741211 
v -0.1349070817232132 -1.1819502115249634 0.2306191325187683 
v -0.1255911886692047 -1.1855286359786987 0.24185225367546082 
v -0.1253250241279602 -1.1535253524780273 0.24190600216388702 
v -0.134374737739563 -1.1495418548583984 0.23072662949562073 
v -0.13530632853507996 -1.1475838422775269 0.21540872752666473 
v -0.1250588595867157 -1.1456595659255981 0.1892876923084259 
v -0.12359493970870972 -1.1456595659255981 0.18375174701213837 
v -0.1205340027809143 -1.1436340808868408 0.18434296548366547 
v -0.027109036222100258 -1.155483365058899 0.1892876923084259 
v -0.027109036222100258 -1.1575764417648315 0.1892876923084259 
v -0.12199793010950089 -1.1436340808868408 0.1898251622915268 
v -0.11907008290290833 -1.1443767547607422 0.1892876923084259 
v -0.07754787057638168 -1.1571037769317627 0.1892876923084259 
v -0.04294603317975998 -1.1605134010314941 0.2435184121131897 
v -0.04427687078714371 -1.1528501510620117 0.2493768334388733 
v -0.04427687078714371 -1.1310758590698242 0.2493768334388733 
v -0.052128829061985016 -1.1299279928207397 0.2665221393108368 
v -0.051596492528915405 -1.143296480178833 0.2653397023677826 
v -0.058916110545396805 -1.1346205472946167 0.2814100384712219 
v -0.051596492528915405 -1.144545555114746 0.2652859389781952 
v -0.051064155995845795 -1.127058506011963 0.26743581891059875 
v -0.0561213493347168 -1.1297593116760254 0.27517539262771606 
v -0.05518975853919983 -1.1275311708450317 0.2766265571117401 
v -0.058516860008239746 -1.1329662799835205 0.28388240933418274 
v -0.05572209507226944 -1.132696270942688 0.28506484627723694 
v -0.05825069174170494 -1.1401907205581665 0.29043954610824585 
v -0.060912370681762695 -1.1403257846832275 0.2890958786010742 
v -0.060912370681762695 -1.1412034034729004 0.28570979833602905 
v -0.0561213493347168 -1.1505546569824219 0.2752291262149811 
v -0.05239499732851982 -1.127159833908081 0.2775940001010895 
v -0.1106857880949974 -1.1903561353683472 0.24599076807498932 
v -0.0611785389482975 -1.149271845817566 0.2861397862434387 
v -0.0611785389482975 -1.1488666534423828 0.2895796000957489 
v -0.058516860008239746 -1.14883291721344 0.29092326760292053 
v -0.05292733386158943 -1.1401907205581665 0.29275065660476685 
v -0.050531819462776184 -1.132696270942688 0.28742972016334534 
v -0.047071635723114014 -1.127159833908081 0.2799588739871979 
v -0.044676125049591064 -1.1273623704910278 0.28044259548187256 
v -0.04361145198345184 -1.1289153099060059 0.2802813649177551 
v -0.039752017706632614 -1.1372199058532715 0.27205806970596313 
v -0.046672385185956955 -1.133675217628479 0.28694599866867065 
v -0.04800322279334068 -1.1327975988388062 0.2878596782684326 
v -0.050531819462776184 -1.1402244567871094 0.2931806445121765 
v -0.05319349840283394 -1.14883291721344 0.29328814148902893 
v -0.0488017275929451 -1.14059579372406 0.29167571663856506 
v -0.050664905458688736 -1.14883291721344 0.2937180995941162 
v -0.04015126824378967 -1.142486333847046 0.27275678515434265 
v -0.031367722898721695 -1.143431544303894 0.25373032689094543 
v -0.02724212035536766 -1.154031753540039 0.25373032689094543 
v -0.00022606800484936684 -1.1956900358200073 0.25373032689094543 
v -0.02724212035536766 -1.1956900358200073 0.25373032689094543 
v -0.031367722898721695 -1.154031753540039 0.25373032689094543 
v -0.04041743651032448 -1.1470099687576294 0.27334800362586975 
v -0.049200981855392456 -1.1489003896713257 0.292428195476532 
v -0.050664905458688736 -1.1531877517700195 0.2937180995941162 
v -0.05319349840283394 -1.1531877517700195 0.29328814148902893 
v -0.058516860008239746 -1.1531877517700195 0.29092326760292053 
v -0.0611785389482975 -1.153221607208252 0.2895796000957489 
v -0.0611785389482975 -1.1535590887069702 0.2861397862434387 
v -0.0561213493347168 -1.1547744274139404 0.27517539262771606 
v -0.031367722898721695 -1.1956900358200073 0.25373032689094543 
v -0.0611785389482975 -1.1956900358200073 0.2861397862434387 
v -0.0611785389482975 -1.1956900358200073 0.2895796000957489 
v -0.058516860008239746 -1.1956900358200073 0.29092326760292053 
v -0.05319349840283394 -1.1956900358200073 0.29328814148902893 
v -0.050664905458688736 -1.1956900358200073 0.2936643660068512 
v -0.049200981855392456 -1.153221607208252 0.292535662651062 
v -0.049067895859479904 -1.1956900358200073 0.29232069849967957 
v -0.04640621691942215 -1.1956900358200073 0.28635478019714355 
v -0.04055051878094673 -1.1535929441452026 0.2736704647541046 
v 0.050345852971076965 -1.1531877517700195 0.2937180995941162 
v 0.052874449640512466 -1.1531877517700195 0.29328814148902893 
v 0.058197807520627975 -1.1531877517700195 0.29092326760292053 
v 0.06085948646068573 -1.1488666534423828 0.2895796000957489 
v 0.06085948646068573 -1.153221607208252 0.2895796000957489 
v 0.06085948646068573 -1.1956900358200073 0.2895796000957489 
v 0.058197807520627975 -1.1956900358200073 0.29092326760292053 
v 0.052874449640512466 -1.1956900358200073 0.29328814148902893 
v 0.050345852971076965 -1.1956900358200073 0.2936643660068512 
v 0.048881929367780685 -1.153221607208252 0.292535662651062 
v 0.04023146629333496 -1.1535929441452026 0.2736704647541046 
v 0.031048672273755074 -1.154031753540039 0.25373032689094543 
v 0.048748843371868134 -1.1956900358200073 0.29232069849967957 
v 0.04608716443181038 -1.1956900358200073 0.28635478019714355 
v 0.031048672273755074 -1.1956900358200073 0.25373032689094543 
v 0.02692306786775589 -1.1956900358200073 0.25373032689094543 
v -0.1106857880949974 -1.1585216522216797 0.24599076807498932 
v -0.09471570700407028 -1.1634166240692139 0.24599076807498932 
v -0.1106857880949974 -1.1552133560180664 0.24362590909004211 
v -0.12386110424995422 -1.1507909297943115 0.2400248497724533 
v -0.13171306252479553 -1.1473138332366943 0.23013541102409363 
v -0.13251157104969025 -1.1455583572387695 0.21621493995189667 
v -0.1278536170721054 -1.1468411684036255 0.21551622450351715 
v -0.12718820571899414 -1.1484278440475464 0.22841550409793854 
v -0.12106633931398392 -1.1511285305023193 0.2357788383960724 
v -0.1106857880949974 -1.1546056270599365 0.2388424277305603 
v -0.0932517871260643 -1.1600069999694824 0.23911115527153015 
v -0.04361145198345184 -1.1607835292816162 0.2470119595527649 
v -0.09405028820037842 -1.1603108644485474 0.24362590909004211 
v -0.04427687078714371 -1.1639230251312256 0.2493768334388733 
v -0.09471570700407028 -1.1952173709869385 0.24599076807498932 
v -0.055988263338804245 -1.1956900358200073 0.27501416206359863 
v -0.04680546745657921 -1.1569349765777588 0.25507402420043945 
v -0.04507537558674812 -1.1552470922470093 0.2516342103481293 
vn 0.9227240085601807 0.1354418247938156 -0.36088213324546814 
vn 0.6507375240325928 0.7174511551856995 -0.24860523641109467 
vn 0.8862023949623108 0.20945920050144196 -0.41324591636657715 
vn 0.5334916710853577 0.8158430457115173 -0.22312943637371063 
vn 0.09049347788095474 0.9958371520042419 -0.010923261754214764 
vn 0.17813649773597717 0.9475123286247253 0.26549527049064636 
vn 0.05277803912758827 0.9446049928665161 0.3239381015300751 
vn -0.03964303061366081 0.9981608390808105 0.04586252197623253 
vn 0.09796451777219772 0.9946504235267639 -0.03276457265019417 
vn 0.6325950622558594 0.7552022337913513 -0.17173540592193604 
vn 0.9523013234138489 0.15044735372066498 -0.26549527049064636 
vn 0.9088051319122314 0 -0.417220801115036 
vn 0.10549934208393097 0.9941290020942688 -0.024029340595006943 
vn -0.07541686296463013 0.9967476725578308 0.028397228568792343 
vn -0.5266794562339783 0.8115929961204529 0.25283506512641907 
vn -0.42832356691360474 0.7820916771888733 0.45262736082077026 
vn -0.8474408388137817 0.2709874212741852 0.456519216299057 
vn -0.8853142857551575 0.23494167625904083 0.401274174451828 
vn -0.9087973237037659 0.0037715816870331764 0.417220801115036 
vn -0.9401897192001343 0.10539169609546661 0.3239381015300751 
vn -0.7581056952476501 0.5918183922767639 0.27391019463539124 
vn -0.3222131133079529 0.5983174443244934 0.7336177229881287 
vn -0.8125611543655396 0.19071367383003235 0.5507928133010864 
vn 0.18097107112407684 0.7275661826133728 0.661737859249115 
vn 0.2998279333114624 0.732475757598877 0.6112139225006104 
vn 0.6365046501159668 0.7670345306396484 0.08074574917554855 
vn 0.8803916573524475 0.3539355397224426 -0.31565824151039124 
vn 0.946241021156311 0.15789969265460968 -0.28230419754981995 
vn 0.7463447451591492 0.5814065933227539 0.3239381015300751 
vn 0.3900044858455658 0.41663312911987305 0.8211658596992493 
vn 0.29983457922935486 0.35700350999832153 0.8846737742424011 
vn -0.14907892048358917 0.30832692980766296 0.9395264387130737 
vn -0.7831578850746155 0.09406964480876923 0.6146662831306458 
vn -0.9087973237037659 0.0037715816870331764 0.417220801115036 
vn -0.6864795088768005 0.060269515961408615 0.7246471047401428 
vn -0.9087973237037659 0.0037715816870331764 0.417220801115036 
vn -0.7887061238288879 0.01131490059196949 0.6146662831306458 
vn -0.34904196858406067 0.03378729522228241 0.9364978075027466 
vn 0.24892732501029968 0.029934609308838844 0.9680594801902771 
vn 0.41751766204833984 0.037577271461486816 0.9078915119171143 
vn 0.7748832702636719 0.25217124819755554 0.5796254277229309 
vn 0.975014328956604 0.08298594504594803 -0.2060592919588089 
vn 0.9088051319122314 0 -0.417220801115036 
vn 0.93075031042099 -0.02264218218624592 -0.3649536371231079 
vn 0.9640825986862183 0.0075531587935984135 -0.26549527049064636 
vn 0.6163880825042725 0 -0.7874425053596497 
vn 0.5976296663284302 0.16437497735023499 -0.7847417593002319 
vn 0.4056725800037384 0.6572954654693604 -0.6351318359375 
vn 0.09799494594335556 0.8215266466140747 -0.5616858005523682 
vn -0.02265329100191593 0.999721884727478 0.006554040592163801 
vn -0.16893784701824188 0.9629226922988892 0.2103329300880432 
vn -0.6112566590309143 0.6205981373786926 0.4911448359489441 
vn -0.5021974444389343 0.4077226221561432 0.762600839138031 
vn -6.445081149547907e-14 0.6232457756996155 0.7820260524749756 
vn -0.020744606852531433 0.8894716501235962 0.456519216299057 
vn -0.0320732407271862 0.9304730892181396 0.3649536371231079 
vn -0.0018856911920011044 0.9159560203552246 0.401274174451828 
vn 0.0018846261082217097 0.6922772526741028 0.7216291427612305 
vn 0.0018760409438982606 0.2591639459133148 0.9658315181732178 
vn -2.0202289751562567e-14 0.19535815715789795 0.9807319641113281 
vn 0 0 1 
vn 0 0 1 
vn -9.840592967227946e-14 0.95159512758255 0.30735430121421814 
vn 0.02830115705728531 0.9305954575538635 0.3649536371231079 
vn 0.01697336882352829 0.8895516395568848 0.456519216299057 
vn -6.445081149547907e-14 0.6232457756996155 0.7820260524749756 
vn -2.0202289751562567e-14 0.19535815715789795 0.9807319641113281 
vn -1.0335603087361506e-13 0.9994630813598633 0.03276457265019417 
vn -1.0341130485562108e-13 0.999997615814209 0.002184694167226553 
vn 0.0018878303235396743 0.7078762650489807 -0.7063339352607727 
vn 0.03171795979142189 0.014674291014671326 -0.999389111995697 
vn 0.008738672360777855 0 -0.999961793422699 
vn -2.0682311115474694e-13 0 -1 
vn 0.0018878303235396743 0.7078762650489807 -0.7063339352607727 
vn -1.0341130485562108e-13 0.999997615814209 0.002184694167226553 
vn -1.0341130485562108e-13 0.999997615814209 0.002184694167226553 
vn 0.16893784701824188 0.9629226922988892 0.2103329300880432 
vn 0.6085616946220398 0.6232410669326782 0.4911448359489441 
vn 0.4998124837875366 0.4106427729129791 0.762600839138031 
vn 0.9401897192001343 0.10539169609546661 0.3239381015300751 
vn 0.7604209780693054 0.5888404846191406 0.27391019463539124 
vn 0.07541686296463013 0.9967476725578308 0.028397228568792343 
vn 0.02265329100191593 0.999721884727478 0.006554040592163801 
vn 0.0018878303235396743 0.7078762650489807 -0.7063339352607727 
vn 0.0018878303235396743 0.7078762650489807 -0.7063339352607727 
vn -0.0018916117260232568 0.4467694163322449 -0.8946471214294434 
vn -2.0682311115474694e-13 0 -1 
vn -2.0682311115474694e-13 0 -1 
vn 0.008738672360777855 0 -0.999961793422699 
vn 0.4730054438114166 0.24037200212478638 -0.8476362228393555 
vn 0.5310757160186768 0.8368414044380188 -0.1328723281621933 
vn 0.6857196092605591 0.7164258360862732 -0.12854042649269104 
vn 0.7478659749031067 0.6625514626502991 0.04149730131030083 
vn -0.11856453120708466 0.9885056018829346 0.09380380809307098 
vn -0.20247359573841095 0.9743564128875732 0.0981530249118805 
vn -0.08674158900976181 0.8349295854568481 -0.5434780716896057 
vn 0.04126138240098953 -0.19533105194568634 -0.97986900806427 
vn -0.16473837196826935 0.7072173357009888 -0.6875353455543518 
vn -0.27737659215927124 0.9537897706031799 0.11553031951189041 
vn -0.27738523483276367 0.9489495754241943 0.15017375349998474 
vn 0.1429940164089203 0.9897211194038391 -0.002184694167226553 
vn 0.003775842720642686 0.8148742914199829 -0.5796254277229309 
vn 0.5126441121101379 0.4926029145717621 -0.7032341957092285 
vn 0.06212745979428291 -0.43451929092407227 -0.8985171914100647 
vn 0.14855338633060455 -0.9873964786529541 -0.05459024757146835 
vn 0.6665922403335571 -0.550570547580719 -0.5025205612182617 
vn 0.8291965126991272 0.5027088522911072 -0.24437066912651062 
vn 0.15779003500938416 0.9866003394126892 0.04149730131030083 
vn -0.2702568769454956 0.9563462734222412 0.1111890971660614 
vn -0.2792217433452606 0.9521597027778625 0.1242060661315918 
vn -0.28844115138053894 0.9488303661346436 0.12854042649269104 
vn -0.13336357474327087 0.8263481259346008 0.5471406579017639 
vn -0.17981764674186707 0.8411349058151245 0.5100564956665039 
vn 0.01321122981607914 0.8974588513374329 0.4409002661705017 
vn 0.2518835961818695 0.936396062374115 0.24437066912651062 
vn 0.8736034631729126 0.47751209139823914 -0.09380380809307098 
vn 0.8168936371803284 0.4143233597278595 0.401274174451828 
vn 0.42918580770492554 0.34811317920684814 0.8334367275238037 
vn 0.035577721893787384 0.30738040804862976 0.9509214162826538 
vn -0.011248543858528137 0.25046828389167786 0.9680594801902771 
vn 0.9224629998207092 0.2390308976173401 0.30319350957870483 
vn 0.9126694798469543 -0.05280690640211105 -0.405272513628006 
vn 0.8841135501861572 -0.05282438546419144 -0.4642767012119293 
vn 0.9088051319122314 0 -0.417220801115036 
vn 0.9088051319122314 0 -0.417220801115036 
vn 0.9827784299850464 0.007549022324383259 -0.18463370203971863 
vn 0.9738045930862427 0 -0.22738653421401978 
vn 0.9568213224411011 0 -0.29067665338516235 
vn 0.9088051319122314 0 -0.417220801115036 
vn 0.2950766384601593 -0.9032672643661499 -0.31150925159454346 
vn 0.02933972142636776 0.10949733108282089 0.9935539960861206 
vn 0.16202327609062195 -0.33830419182777405 0.926983654499054 
vn 0.5257337689399719 -0.6056818962097168 0.5972883701324463 
vn 0.7825127243995667 -0.5461288690567017 0.2990269064903259 
vn 0.860332727432251 -0.5039763450622559 -0.0763898640871048 
vn 0.7425509095191956 -0.6252639889717102 -0.2401314377784729 
vn 0.004369377624243498 0 -0.9999904632568359 
vn -2.0682311115474694e-13 0 -1 
vn -2.0682311115474694e-13 0 -1 
vn -2.0682311115474694e-13 0 -1 
vn -2.0682311115474694e-13 0 -1 
vn -2.0682311115474694e-13 0 -1 
vn -2.0682311115474694e-13 0 -1 
vn -2.0682311115474694e-13 0 -1 
vn -2.0682311115474694e-13 0 -1 
vn -2.0682311115474694e-13 0 -1 
vn -2.0682311115474694e-13 0 -1 
vn -2.0682311115474694e-13 0 -1 
vn -2.0682311115474694e-13 0 -1 
vn -2.0682311115474694e-13 0 -1 
vn -2.0682311115474694e-13 0 -1 
vn -0.002184688812121749 -0.0037839922588318586 -0.9999904632568359 
vn -0.007873271591961384 -0.0037915678694844246 -0.999961793422699 
vn -0.04126138240098953 -0.19533105194568634 -0.97986900806427 
vn -2.0682311115474694e-13 0 -1 
vn -2.0682311115474694e-13 0 -1 
vn -2.0682311115474694e-13 0 -1 
vn -0.007873271591961384 -0.0037915678694844246 -0.999961793422699 
vn -0.029945457354187965 0.018017584457993507 -0.999389111995697 
vn -0.09799494594335556 0.8215266466140747 -0.5616858005523682 
vn -0.10549934208393097 0.9941290020942688 -0.024029340595006943 
vn -0.4056725800037384 0.6572954654693604 -0.6351318359375 
vn -0.5966158509254456 0.16801753640174866 -0.7847417593002319 
vn -0.6325950622558594 0.7552022337913513 -0.17173540592193604 
vn -0.09796451777219772 0.9946504235267639 -0.03276457265019417 
vn 0.043416284024715424 0.9980038404464722 0.04586252197623253 
vn 0.5235081315040588 0.8136422038078308 0.25283506512641907 
vn 0.8862741589546204 0.23129448294639587 0.401274174451828 
vn -0.6163880825042725 -1.2748329681396692e-13 -0.7874425053596497 
vn -0.9523013234138489 0.15044735372066498 -0.26549527049064636 
vn -0.6507375240325928 0.7174511551856995 -0.24860523641109467 
vn -0.09049347788095474 0.9958371520042419 -0.010923261754214764 
vn -0.47128111124038696 0.24373546242713928 -0.8476362228393555 
vn 0.08674158900976181 0.8349295854568481 -0.5434780716896057 
vn 0.16473837196826935 0.7072173357009888 -0.6875353455543518 
vn -0.06586506217718124 -0.4339684844017029 -0.8985171914100647 
vn -0.15228517353534698 -0.9868277907371521 -0.05459024757146835 
vn -0.6641802191734314 -0.5534778833389282 -0.5025205612182617 
vn -0.7425509095191956 -0.6252639889717102 -0.2401314377784729 
vn -0.2986617684364319 -0.9020882248878479 -0.31150925159454346 
vn -0.860332727432251 -0.5039763450622559 -0.0763898640871048 
vn -0.7825127243995667 -0.5461288690567017 0.2990269064903259 
vn -0.5257337689399719 -0.6056818962097168 0.5972883701324463 
vn -0.4315481185913086 0.34518033266067505 0.8334367275238037 
vn -0.815180778503418 0.41768333315849304 0.401274174451828 
vn -0.875406801700592 0.47419804334640503 -0.09380380809307098 
vn -0.8272331953048706 0.5059329867362976 -0.24437066912651062 
vn -0.5100183486938477 0.49532100558280945 -0.7032341957092285 
vn -0.003775842720642686 0.8148742914199829 -0.5796254277229309 
vn -0.9640825986862183 0.0075531587935984135 -0.26549527049064636 
vn -0.5278851985931396 0.8388576507568359 -0.1328723281621933 
vn -0.1429940164089203 0.9897211194038391 -0.002184694167226553 
vn 0.2737513780593872 0.9548366069793701 0.11553031951189041 
vn 0.20247359573841095 0.9743564128875732 0.0981530249118805 
vn -0.6829864978790283 0.7190318703651428 -0.12854042649269104 
vn -0.9308344721794128 -0.018869053572416306 -0.3649536371231079 
vn -0.9227240085601807 0.1354418247938156 -0.36088213324546814 
vn -0.8862023949623108 0.20945920050144196 -0.41324591636657715 
vn -0.9088051319122314 -1.8796191003384727e-13 -0.417220801115036 
vn -0.946241021156311 0.15789969265460968 -0.28230419754981995 
vn -0.9088051319122314 -1.8796191003384727e-13 -0.417220801115036 
vn -0.530327320098877 0.8179035186767578 -0.22312943637371063 
vn -0.8817939758300781 0.3504272699356079 -0.31565824151039124 
vn -0.6365046501159668 0.7670345306396484 0.08074574917554855 
vn -0.7463447451591492 0.5814065933227539 0.3239381015300751 
vn -0.2963326871395111 0.733896791934967 0.6112139225006104 
vn -0.3900044858455658 0.41663312911987305 0.8211658596992493 
vn -0.7760416865348816 0.2485833466053009 0.5796254277229309 
vn -0.975014328956604 0.08298594504594803 -0.2060592919588089 
vn -0.9088051319122314 -1.8796191003384727e-13 -0.417220801115036 
vn -0.18184208869934082 0.9468081593513489 0.26549527049064636 
vn -0.15861959755420685 -0.33991336822509766 0.926983654499054 
vn -0.9827784299850464 0.007549022324383259 -0.18463370203971863 
vn -0.853173017501831 0.018852027133107185 0.5212872624397278 
vn -0.41751766204833984 0.037577271461486816 0.9078915119171143 
vn -0.3027079403400421 0.3545704185962677 0.8846737742424011 
vn -0.18462590873241425 0.7266473174095154 0.661737859249115 
vn -0.05277803912758827 0.9446049928665161 0.3239381015300751 
vn 0.42501288652420044 0.78389573097229 0.45262736082077026 
vn 0.8462843298912048 0.2745778262615204 0.456519216299057 
vn 0.9088051319122314 0 0.417220801115036 
vn 0.8116907477378845 0.19438470900058746 0.5507928133010864 
vn 0.3222131133079529 0.5983174443244934 0.7336177229881287 
vn 0.14907892048358917 0.30832692980766296 0.9395264387130737 
vn -0.24892732501029968 0.029934609308838844 0.9680594801902771 
vn 0.7835987210273743 0.09032373875379562 0.6146662831306458 
vn 0.3493841588497162 0.030042938888072968 0.9364978075027466 
vn 0.9088051319122314 0 0.417220801115036 
vn 0.6864795088768005 0.060269515961408615 0.7246471047401428 
vn 0 0 1 
vn 0 0 1 
vn 0 0 1 
vn 0.5379648208618164 0 0.8429672718048096 
vn 0.9088051319122314 0 0.417220801115036 
vn 0.7887511849403381 0.0075434111058712006 0.6146662831306458 
vn 0.24225163459777832 0 0.9702134728431702 
vn -0.2927422523498535 -0.00375398900359869 0.9561840295791626 
vn -0.423151433467865 -0.003766018431633711 0.9060511589050293 
vn -0.8533729314804077 -0.0037706999573856592 0.5212872624397278 
vn -0.9738045930862427 -2.014052851362011e-13 -0.22738653421401978 
vn -0.9088051319122314 -1.8796191003384727e-13 -0.417220801115036 
vn 0.7047857642173767 0 0.7094202041625977 
vn -0.9568213224411011 -1.978927682529455e-13 -0.29067665338516235 
vn -0.9446462988853455 -0.0037709143944084644 0.3280687630176544 
vn -0.42710649967193604 -0.0037586253602057695 0.9041935205459595 
vn -0.32598263025283813 -0.003751464420929551 0.9453682899475098 
vn 0.2507207691669464 0 0.9680594801902771 
vn 0.7860940098762512 0 0.6181069612503052 
vn 0.7967764139175415 0 0.6042742133140564 
vn 0.9088051319122314 0 0.417220801115036 
vn 0.9088051319122314 0 0.417220801115036 
vn -0.2422226220369339 0.0037488944362848997 0.9702134728431702 
vn 0.2927663028240204 0 0.9561840295791626 
vn 0.4231681823730469 0 0.9060511589050293 
vn 0.8530814051628113 0.022621622309088707 0.5212872624397278 
vn 0.8533812761306763 0 0.5212872624397278 
vn 0.9446538686752319 0 0.3280687630176544 
vn 0.4271230399608612 0 0.9041935205459595 
vn 0.3260042071342468 0 0.9453682899475098 
vn -0.2507207691669464 -5.1854845423008125e-14 0.9680594801902771 
vn -0.7860849499702454 0.003770347684621811 0.6181069612503052 
vn -0.9087973237037659 0.0037715816870331764 0.417220801115036 
vn -0.537951648235321 0.0037640368100255728 0.8429672718048096 
vn -0.7967764139175415 -1.647917777713656e-13 0.6042742133140564 
vn -0.9087973237037659 -0.0037715816870331764 0.417220801115036 
vn -0.7047756910324097 -0.0037719577085226774 0.7094202041625977 
vn 0 0 1 
vn -0.03930344432592392 0.30692625045776367 0.9509214162826538 
vn 0.011248543858528137 0.25046828389167786 0.9680594801902771 
vn 0.17981764674186707 0.8411349058151245 0.5100564956665039 
vn -0.009436759166419506 0.8975064754486084 0.4409002661705017 
vn -0.24823637306690216 0.9373695254325867 0.24437066912651062 
vn -0.15779003500938416 0.9866003394126892 0.04149730131030083 
vn 0.2737608551979065 0.9500014781951904 0.15017375349998474 
vn 0.27388787269592285 0.9553127288818359 0.1111890971660614 
vn 0.2792217433452606 0.9521597027778625 0.1242060661315918 
vn 0.2848259508609772 0.9499218463897705 0.12854042649269104 
vn 0.12230972945690155 0.9880491495132446 0.09380380809307098 
vn -0.7478659749031067 0.6625514626502991 0.04149730131030083 
vn 0.12963762879371643 0.8269408345222473 0.5471406579017639 
vn -0.9215087890625 0.2426835000514984 0.30319350957870483 
vn -0.02933972142636776 0.10949733108282089 0.9935539960861206 
vn -0.9088051319122314 -1.8796191003384727e-13 -0.417220801115036 
vn -0.8838803172111511 -0.056592583656311035 -0.4642767012119293 
vn -0.9124436974525452 -0.05657416582107544 -0.405272513628006 
s on 
f 1//1 2//2 3//3 
f 2//2 2//2 3//3 
f 3//3 2//2 4//4 
f 2//2 5//5 4//4 
f 4//4 5//5 6//6 
f 5//5 5//5 6//6 
f 6//6 5//5 7//7 
f 5//5 5//5 7//7 
f 7//7 5//5 8//8 
f 5//5 5//5 8//8 
f 8//8 5//5 9//9 
f 5//5 2//2 9//9 
f 9//9 2//2 10//10 
f 2//2 2//2 10//10 
f 10//10 2//2 11//11 
f 2//2 1//1 11//11 
f 11//11 1//1 1//1 
f 1//1 1//1 1//1 
f 1//1 1//1 1//1 
f 1//1 3//3 1//1 
f 1//1 3//3 12//12 
f 3//3 12//12 12//12 
f 12//12 12//12 10//10 
f 12//12 10//10 10//10 
f 10//10 10//10 9//9 
f 10//10 13//13 9//9 
f 9//9 13//13 9//9 
f 13//13 14//14 9//9 
f 9//9 14//14 8//8 
f 14//14 15//15 8//8 
f 8//8 15//15 16//16 
f 15//15 15//15 16//16 
f 16//16 15//15 17//17 
f 15//15 18//18 17//17 
f 17//17 18//18 19//19 
f 18//18 18//18 19//19 
f 19//19 18//18 20//20 
f 18//18 18//18 20//20 
f 20//20 18//18 21//21 
f 18//18 15//15 21//21 
f 21//21 15//15 14//14 
f 15//15 14//14 14//14 
f 14//14 14//14 8//8 
f 14//14 8//8 8//8 
f 8//8 8//8 7//7 
f 8//8 16//16 7//7 
f 7//7 16//16 22//22 
f 16//16 16//16 22//22 
f 22//22 16//16 23//23 
f 16//16 17//17 23//23 
f 23//23 17//17 19//19 
f 17//17 19//19 19//19 
f 19//19 19//19 22//22 
f 19//19 22//22 22//22 
f 22//22 22//22 7//7 
f 22//22 24//24 7//7 
f 7//7 24//24 6//6 
f 24//24 25//25 6//6 
f 6//6 25//25 6//6 
f 25//25 26//26 6//6 
f 6//6 26//26 4//4 
f 26//26 27//27 4//4 
f 4//4 27//27 3//3 
f 27//27 28//28 3//3 
f 3//3 28//28 12//12 
f 28//28 12//12 12//12 
f 12//12 12//12 27//27 
f 12//12 27//27 27//27 
f 27//27 27//27 28//28 
f 27//27 26//26 28//28 
f 28//28 26//26 29//29 
f 26//26 25//25 29//29 
f 29//29 25//25 30//30 
f 25//25 25//25 30//30 
f 30//30 25//25 31//31 
f 25//25 24//24 31//31 
f 31//31 24//24 32//32 
f 24//24 22//22 32//32 
f 32//32 22//22 33//33 
f 22//22 23//23 33//33 
f 33//33 23//23 34//34 
f 23//23 19//19 34//34 
f 34//34 19//19 35//35 
f 19//19 20//20 35//35 
f 35//35 20//20 20//20 
f 20//20 35//35 20//20 
f 20//20 35//35 35//35 
f 35//35 36//36 35//35 
f 35//35 36//36 34//34 
f 36//36 36//36 34//34 
f 34//34 36//36 33//33 
f 36//36 37//37 33//33 
f 33//33 37//37 33//33 
f 37//37 38//38 33//33 
f 33//33 38//38 32//32 
f 38//38 39//39 32//32 
f 32//32 39//39 31//31 
f 39//39 40//40 31//31 
f 31//31 40//40 30//30 
f 40//40 41//41 30//30 
f 30//30 41//41 29//29 
f 41//41 42//42 29//29 
f 29//29 42//42 28//28 
f 42//42 43//43 28//28 
f 28//28 43//43 12//12 
f 43//43 44//44 12//12 
f 12//12 44//44 1//1 
f 44//44 44//44 1//1 
f 1//1 44//44 11//11 
f 44//44 45//45 11//11 
f 11//11 45//45 11//11 
f 45//45 46//46 11//11 
f 11//11 46//46 11//11 
f 46//46 47//47 11//11 
f 11//11 47//47 10//10 
f 47//47 48//48 10//10 
f 10//10 48//48 13//13 
f 48//48 49//49 13//13 
f 13//13 49//49 13//13 
f 49//49 50//50 13//13 
f 13//13 50//50 14//14 
f 50//50 51//51 14//14 
f 14//14 51//51 21//21 
f 51//51 52//52 21//21 
f 21//21 52//52 20//20 
f 52//52 53//53 20//20 
f 20//20 53//53 35//35 
f 53//53 35//35 35//35 
f 35//35 35//35 53//53 
f 35//35 53//53 53//53 
f 53//53 53//53 54//54 
f 53//53 52//52 54//54 
f 54//54 52//52 55//55 
f 52//52 51//51 55//55 
f 55//55 51//51 55//55 
f 51//51 56//56 55//55 
f 55//55 56//56 55//55 
f 56//56 57//57 55//55 
f 55//55 57//57 55//55 
f 57//57 58//58 55//55 
f 55//55 58//58 54//54 
f 58//58 59//59 54//54 
f 54//54 59//59 60//60 
f 59//59 61//61 60//60 
f 60//60 61//61 60//60 
f 61//61 62//62 60//60 
f 60//60 62//62 60//60 
f 62//62 35//35 60//60 
f 60//60 35//35 60//60 
f 35//35 53//53 60//60 
f 60//60 53//53 54//54 
f 53//53 54//54 54//54 
f 54//54 54//54 56//56 
f 54//54 56//56 56//56 
f 56//56 56//56 57//57 
f 56//56 63//63 57//57 
f 57//57 63//63 57//57 
f 63//63 64//64 57//57 
f 57//57 64//64 57//57 
f 64//64 65//65 57//57 
f 57//57 65//65 58//58 
f 65//65 66//66 58//58 
f 58//58 66//66 59//59 
f 66//66 67//67 59//59 
f 59//59 67//67 61//61 
f 67//67 61//61 61//61 
f 61//61 61//61 56//56 
f 61//61 56//56 56//56 
f 56//56 56//56 63//63 
f 56//56 51//51 63//63 
f 63//63 51//51 68//68 
f 51//51 51//51 68//68 
f 68//68 51//51 69//69 
f 51//51 50//50 69//69 
f 69//69 50//50 70//70 
f 50//50 49//49 70//70 
f 70//70 49//49 71//71 
f 49//49 48//48 71//71 
f 71//71 48//48 71//71 
f 48//48 47//47 71//71 
f 71//71 47//47 72//72 
f 47//47 46//46 72//72 
f 72//72 46//46 46//46 
f 46//46 72//72 46//46 
f 46//46 72//72 72//72 
f 72//72 73//73 72//72 
f 72//72 73//73 71//71 
f 73//73 73//73 71//71 
f 71//71 73//73 70//70 
f 73//73 74//74 70//70 
f 70//70 74//74 69//69 
f 74//74 75//75 69//69 
f 69//69 75//75 68//68 
f 75//75 76//76 68//68 
f 68//68 76//76 68//68 
f 76//76 77//77 68//68 
f 68//68 77//77 63//63 
f 77//77 77//77 63//63 
f 63//63 77//77 64//64 
f 77//77 77//77 64//64 
f 64//64 77//77 65//65 
f 77//77 78//78 65//65 
f 65//65 78//78 66//66 
f 78//78 79//79 66//66 
f 66//66 79//79 67//67 
f 79//79 67//67 67//67 
f 67//67 67//67 79//79 
f 67//67 79//79 79//79 
f 79//79 79//79 80//80 
f 79//79 78//78 80//80 
f 80//80 78//78 81//81 
f 78//78 77//77 81//81 
f 81//81 77//77 82//82 
f 77//77 77//77 82//82 
f 82//82 77//77 83//83 
f 77//77 76//76 83//83 
f 83//83 76//76 84//84 
f 76//76 76//76 84//84 
f 84//84 76//76 85//85 
f 76//76 75//75 85//85 
f 85//85 75//75 86//86 
f 75//75 74//74 86//86 
f 86//86 74//74 87//87 
f 74//74 73//73 87//87 
f 87//87 73//73 88//88 
f 73//73 72//72 88//88 
f 88//88 72//72 89//89 
f 72//72 46//46 89//89 
f 89//89 46//46 90//90 
f 46//46 45//45 90//90 
f 90//90 45//45 91//91 
f 45//45 45//45 91//91 
f 91//91 45//45 92//92 
f 45//45 44//44 92//92 
f 92//92 44//44 92//92 
f 44//44 93//93 92//92 
f 92//92 93//93 92//92 
f 93//93 94//94 92//92 
f 92//92 94//94 92//92 
f 94//94 95//95 92//92 
f 92//92 95//95 91//91 
f 95//95 96//96 91//91 
f 91//91 96//96 90//90 
f 96//96 97//97 90//90 
f 90//90 97//97 89//89 
f 97//97 89//89 89//89 
f 89//89 89//89 97//97 
f 89//89 97//97 97//97 
f 97//97 97//97 98//98 
f 97//97 96//96 98//98 
f 98//98 96//96 98//98 
f 96//96 95//95 98//98 
f 98//98 95//95 99//99 
f 95//95 100//100 99//99 
f 99//99 100//100 99//99 
f 100//100 101//101 99//99 
f 99//99 101//101 102//102 
f 101//101 103//103 102//102 
f 102//102 103//103 102//102 
f 103//103 104//104 102//102 
f 102//102 104//104 98//98 
f 104//104 104//104 98//98 
f 98//98 104//104 97//97 
f 104//104 104//104 97//97 
f 97//97 104//104 105//105 
f 104//104 104//104 105//105 
f 105//105 104//104 106//106 
f 104//104 103//103 106//106 
f 106//106 103//103 107//107 
f 103//103 101//101 107//107 
f 107//107 101//101 108//108 
f 101//101 100//100 108//108 
f 108//108 100//100 109//109 
f 100//100 95//95 109//109 
f 109//109 95//95 110//110 
f 95//95 95//95 110//110 
f 110//110 95//95 111//111 
f 95//95 94//94 111//111 
f 111//111 94//94 112//112 
f 94//94 93//93 112//112 
f 112//112 93//93 93//93 
f 93//93 98//98 93//93 
f 93//93 98//98 98//98 
f 98//98 99//99 98//98 
f 98//98 99//99 102//102 
f 99//99 102//102 102//102 
f 102//102 102//102 112//112 
f 102//102 112//112 112//112 
f 112//112 112//112 111//111 
f 112//112 113//113 111//111 
f 111//111 113//113 110//110 
f 113//113 114//114 110//110 
f 110//110 114//114 109//109 
f 114//114 115//115 109//109 
f 109//109 115//115 108//108 
f 115//115 116//116 108//108 
f 108//108 116//116 107//107 
f 116//116 107//107 107//107 
f 107//107 107//107 116//116 
f 107//107 116//116 116//116 
f 116//116 116//116 117//117 
f 116//116 115//115 117//117 
f 117//117 115//115 117//117 
f 115//115 114//114 117//117 
f 117//117 114//114 118//118 
f 114//114 113//113 118//118 
f 118//118 113//113 119//119 
f 113//113 112//112 119//119 
f 119//119 112//112 120//120 
f 112//112 112//112 120//120 
f 120//120 112//112 121//121 
f 112//112 93//93 121//121 
f 121//121 93//93 122//122 
f 93//93 44//44 122//122 
f 122//122 44//44 123//123 
f 44//44 124//124 123//123 
f 123//123 124//124 123//123 
f 124//124 121//121 123//123 
f 123//123 121//121 122//122 
f 121//121 122//122 122//122 
f 122//122 122//122 124//124 
f 122//122 124//124 124//124 
f 124//124 124//124 125//125 
f 124//124 44//44 125//125 
f 125//125 44//44 125//125 
f 44//44 43//43 125//125 
f 125//125 43//43 125//125 
f 43//43 42//42 125//125 
f 125//125 42//42 125//125 
f 42//42 126//126 125//125 
f 125//125 126//126 125//125 
f 126//126 127//127 125//125 
f 125//125 127//127 124//124 
f 127//127 128//128 124//124 
f 124//124 128//128 124//124 
f 128//128 129//129 124//124 
f 124//124 129//129 121//121 
f 129//129 130//130 121//121 
f 121//121 130//130 131//131 
f 130//130 132//132 131//131 
f 131//131 132//132 120//120 
f 132//132 132//132 120//120 
f 120//120 132//132 119//119 
f 132//132 133//133 119//119 
f 119//119 133//133 118//118 
f 133//133 134//134 118//118 
f 118//118 134//134 117//117 
f 134//134 134//134 117//117 
f 117//117 134//134 135//135 
f 134//134 134//134 135//135 
f 135//135 134//134 130//130 
f 134//134 133//133 130//130 
f 130//130 133//133 132//132 
f 133//133 132//132 132//132 
f 132//132 132//132 121//121 
f 132//132 121//121 121//121 
f 121//121 121//121 120//120 
f 121//121 131//131 120//120 
f 120//120 131//131 131//131 
f 131//131 117//117 131//131 
f 131//131 117//117 117//117 
f 117//117 135//135 117//117 
f 117//117 135//135 116//116 
f 135//135 136//136 116//116 
f 116//116 136//136 107//107 
f 136//136 136//136 107//107 
f 107//107 136//136 106//106 
f 136//136 136//136 106//106 
f 106//106 136//136 105//105 
f 136//136 136//136 105//105 
f 105//105 136//136 130//130 
f 136//136 135//135 130//130 
f 130//130 135//135 135//135 
f 135//135 97//97 135//135 
f 135//135 97//97 97//97 
f 97//97 137//137 97//97 
f 97//97 137//137 89//89 
f 137//137 138//138 89//89 
f 89//89 138//138 88//88 
f 138//138 138//138 88//88 
f 88//88 138//138 139//139 
f 138//138 138//138 139//139 
f 139//139 138//138 140//140 
f 138//138 141//141 140//140 
f 140//140 141//141 142//142 
f 141//141 142//142 142//142 
f 142//142 142//142 137//137 
f 142//142 137//137 137//137 
f 137//137 137//137 138//138 
f 137//137 141//141 138//138 
f 138//138 141//141 141//141 
f 141//141 88//88 141//141 
f 141//141 88//88 88//88 
f 88//88 139//139 88//88 
f 88//88 139//139 87//87 
f 139//139 143//143 87//87 
f 87//87 143//143 86//86 
f 143//143 86//86 86//86 
f 86//86 86//86 143//143 
f 86//86 143//143 143//143 
f 143//143 143//143 144//144 
f 143//143 139//139 144//144 
f 144//144 139//139 144//144 
f 139//139 140//140 144//144 
f 144//144 140//140 145//145 
f 140//140 142//142 145//145 
f 145//145 142//142 145//145 
f 142//142 146//146 145//145 
f 145//145 146//146 145//145 
f 146//146 147//147 145//145 
f 145//145 147//147 148//148 
f 147//147 149//149 148//148 
f 148//148 149//149 149//149 
f 149//149 145//145 149//149 
f 149//149 145//145 145//145 
f 145//145 148//148 145//145 
f 145//145 148//148 144//144 
f 148//148 150//150 144//144 
f 144//144 150//150 143//143 
f 150//150 143//143 143//143 
f 143//143 143//143 150//150 
f 143//143 150//150 150//150 
f 150//150 150//150 151//151 
f 150//150 148//148 151//151 
f 151//151 148//148 151//151 
f 148//148 149//149 151//151 
f 151//151 149//149 151//151 
f 149//149 152//152 151//151 
f 151//151 152//152 153//153 
f 152//152 154//154 153//153 
f 153//153 154//154 154//154 
f 154//154 153//153 154//154 
f 154//154 153//153 153//153 
f 153//153 155//155 153//153 
f 153//153 155//155 151//151 
f 155//155 155//155 151//151 
f 151//151 155//155 150//150 
f 155//155 156//156 150//150 
f 150//150 156//156 143//143 
f 156//156 156//156 143//143 
f 143//143 156//156 86//86 
f 156//156 156//156 86//86 
f 86//86 156//156 85//85 
f 156//156 157//157 85//85 
f 85//85 157//157 84//84 
f 157//157 84//84 84//84 
f 84//84 84//84 156//156 
f 84//84 156//156 156//156 
f 156//156 156//156 157//157 
f 156//156 155//155 157//157 
f 157//157 155//155 158//158 
f 155//155 153//153 158//158 
f 158//158 153//153 153//153 
f 153//153 158//158 153//153 
f 153//153 158//158 158//158 
f 158//158 159//159 158//158 
f 158//158 159//159 157//157 
f 159//159 159//159 157//157 
f 157//157 159//159 84//84 
f 159//159 160//160 84//84 
f 84//84 160//160 83//83 
f 160//160 161//161 83//83 
f 83//83 161//161 82//82 
f 161//161 82//82 82//82 
f 82//82 82//82 161//161 
f 82//82 161//161 161//161 
f 161//161 161//161 162//162 
f 161//161 160//160 162//162 
f 162//162 160//160 162//162 
f 160//160 159//159 162//162 
f 162//162 159//159 163//163 
f 159//159 158//158 163//163 
f 163//163 158//158 158//158 
f 158//158 163//163 158//158 
f 158//158 163//163 163//163 
f 163//163 164//164 163//163 
f 163//163 164//164 162//162 
f 164//164 164//164 162//162 
f 162//162 164//164 161//161 
f 164//164 165//165 161//161 
f 161//161 165//165 82//82 
f 165//165 166//166 82//82 
f 82//82 166//166 82//82 
f 166//166 167//167 82//82 
f 82//82 167//167 81//81 
f 167//167 168//168 81//81 
f 81//81 168//168 80//80 
f 168//168 80//80 80//80 
f 80//80 80//80 158//158 
f 80//80 158//158 158//158 
f 158//158 158//158 163//163 
f 158//158 169//169 163//163 
f 163//163 169//169 163//163 
f 169//169 170//170 163//163 
f 163//163 170//170 164//164 
f 170//170 171//171 164//164 
f 164//164 171//171 165//165 
f 171//171 172//172 165//165 
f 165//165 172//172 166//166 
f 172//172 166//166 166//166 
f 166//166 166//166 158//158 
f 166//166 158//158 158//158 
f 158//158 158//158 169//169 
f 158//158 153//153 169//169 
f 169//169 153//153 173//173 
f 153//153 154//154 173//173 
f 173//173 154//154 174//174 
f 154//154 154//154 174//174 
f 174//174 154//154 175//175 
f 154//154 154//154 175//175 
f 175//175 154//154 176//176 
f 154//154 177//177 176//176 
f 176//176 177//177 178//178 
f 177//177 177//177 178//178 
f 178//178 177//177 179//179 
f 177//177 180//180 179//179 
f 179//179 180//180 181//181 
f 180//180 180//180 181//181 
f 181//181 180//180 182//182 
f 180//180 183//183 182//182 
f 182//182 183//183 182//182 
f 183//183 184//184 182//182 
f 182//182 184//184 182//182 
f 184//184 185//185 182//182 
f 182//182 185//185 181//181 
f 185//185 186//186 181//181 
f 181//181 186//186 179//179 
f 186//186 187//187 179//179 
f 179//179 187//187 178//178 
f 187//187 188//188 178//178 
f 178//178 188//188 176//176 
f 188//188 189//189 176//176 
f 176//176 189//189 175//175 
f 189//189 175//175 175//175 
f 175//175 175//175 173//173 
f 175//175 173//173 173//173 
f 173//173 173//173 169//169 
f 173//173 190//190 169//169 
f 169//169 190//190 170//170 
f 190//190 170//170 170//170 
f 170//170 170//170 190//190 
f 170//170 190//190 190//190 
f 190//190 190//190 191//191 
f 190//190 173//173 191//191 
f 191//191 173//173 174//174 
f 173//173 174//174 174//174 
f 174//174 174//174 189//189 
f 174//174 189//189 189//189 
f 189//189 189//189 192//192 
f 189//189 188//188 192//192 
f 192//192 188//188 187//187 
f 188//188 187//187 187//187 
f 187//187 187//187 192//192 
f 187//187 192//192 192//192 
f 192//192 192//192 189//189 
f 192//192 193//193 189//189 
f 189//189 193//193 175//175 
f 193//193 194//194 175//175 
f 175//175 194//194 174//174 
f 194//194 194//194 174//174 
f 174//174 194//194 191//191 
f 194//194 195//195 191//191 
f 191//191 195//195 190//190 
f 195//195 196//196 190//190 
f 190//190 196//196 170//170 
f 196//196 197//197 170//170 
f 170//170 197//197 171//171 
f 197//197 197//197 171//171 
f 171//171 197//197 198//198 
f 197//197 199//199 198//198 
f 198//198 199//199 200//200 
f 199//199 199//199 200//200 
f 200//200 199//199 201//201 
f 199//199 199//199 201//201 
f 201//201 199//199 196//196 
f 199//199 197//197 196//196 
f 196//196 197//197 197//197 
f 197//197 171//171 197//197 
f 197//197 171//171 171//171 
f 171//171 198//198 171//171 
f 171//171 198//198 202//202 
f 198//198 203//203 202//202 
f 202//202 203//203 204//204 
f 203//203 200//200 204//204 
f 204//204 200//200 204//204 
f 200//200 205//205 204//204 
f 204//204 205//205 206//206 
f 205//205 205//205 206//206 
f 206//206 205//205 207//207 
f 205//205 205//205 207//207 
f 207//207 205//205 208//208 
f 205//205 205//205 208//208 
f 208//208 205//205 209//209 
f 205//205 200//200 209//209 
f 209//209 200//200 209//209 
f 200//200 201//201 209//209 
f 209//209 201//201 210//210 
f 201//201 196//196 210//210 
f 210//210 196//196 196//196 
f 196//196 200//200 196//196 
f 196//196 200//200 200//200 
f 200//200 203//203 200//200 
f 200//200 203//203 198//198 
f 203//203 198//198 198//198 
f 198//198 198//198 171//171 
f 198//198 171//171 171//171 
f 171//171 171//171 172//172 
f 171//171 202//202 172//172 
f 172//172 202//202 211//211 
f 202//202 204//204 211//211 
f 211//211 204//204 206//206 
f 204//204 206//206 206//206 
f 206//206 206//206 180//180 
f 206//206 180//180 180//180 
f 180//180 180//180 183//183 
f 180//180 212//212 183//183 
f 183//183 212//212 212//212 
f 212//212 210//210 212//212 
f 212//212 210//210 210//210 
f 210//210 213//213 210//210 
f 210//210 213//213 209//209 
f 213//213 214//214 209//209 
f 209//209 214//214 208//208 
f 214//214 215//215 208//208 
f 208//208 215//215 207//207 
f 215//215 216//216 207//207 
f 207//207 216//216 206//206 
f 216//216 217//217 206//206 
f 206//206 217//217 211//211 
f 217//217 218//218 211//211 
f 211//211 218//218 172//172 
f 218//218 218//218 172//172 
f 172//172 218//218 166//166 
f 218//218 219//219 166//166 
f 166//166 219//219 167//167 
f 219//219 220//220 167//167 
f 167//167 220//220 168//168 
f 220//220 221//221 168//168 
f 168//168 221//221 80//80 
f 221//221 80//80 80//80 
f 80//80 80//80 221//221 
f 80//80 221//221 221//221 
f 221//221 221//221 222//222 
f 221//221 220//220 222//222 
f 222//222 220//220 222//222 
f 220//220 219//219 222//222 
f 222//222 219//219 223//223 
f 219//219 218//218 223//223 
f 223//223 218//218 223//223 
f 218//218 217//217 223//223 
f 223//223 217//217 224//224 
f 217//217 216//216 224//224 
f 224//224 216//216 225//225 
f 216//216 215//215 225//225 
f 225//225 215//215 215//215 
f 215//215 223//223 215//215 
f 215//215 223//223 223//223 
f 223//223 224//224 223//223 
f 223//223 224//224 226//226 
f 224//224 224//224 226//226 
f 226//226 224//224 227//227 
f 224//224 225//225 227//227 
f 227//227 225//225 225//225 
f 225//225 223//223 225//225 
f 225//225 223//223 223//223 
f 223//223 226//226 223//223 
f 223//223 226//226 222//222 
f 226//226 228//228 222//222 
f 222//222 228//228 221//221 
f 228//228 229//229 221//221 
f 221//221 229//229 80//80 
f 229//229 229//229 80//80 
f 80//80 229//229 79//79 
f 229//229 229//229 79//79 
f 79//79 229//229 67//67 
f 229//229 230//230 67//67 
f 67//67 230//230 61//61 
f 230//230 231//231 61//61 
f 61//61 231//231 62//62 
f 231//231 62//62 62//62 
f 62//62 62//62 231//231 
f 62//62 231//231 231//231 
f 231//231 231//231 232//232 
f 231//231 230//230 232//232 
f 232//232 230//230 233//233 
f 230//230 229//229 233//233 
f 233//233 229//229 234//234 
f 229//229 228//228 234//234 
f 234//234 228//228 234//234 
f 228//228 226//226 234//234 
f 234//234 226//226 235//235 
f 226//226 227//227 235//235 
f 235//235 227//227 236//236 
f 227//227 225//225 236//236 
f 236//236 225//225 237//237 
f 225//225 215//215 237//237 
f 237//237 215//215 238//238 
f 215//215 214//214 238//238 
f 238//238 214//214 239//239 
f 214//214 213//213 239//239 
f 239//239 213//213 240//240 
f 213//213 210//210 240//240 
f 240//240 210//210 241//241 
f 210//210 196//196 241//241 
f 241//241 196//196 196//196 
f 196//196 233//233 196//196 
f 196//196 233//233 233//233 
f 233//233 242//242 233//233 
f 233//233 242//242 232//232 
f 242//242 232//232 232//232 
f 232//232 232//232 241//241 
f 232//232 241//241 241//241 
f 241//241 241//241 240//240 
f 241//241 243//243 240//240 
f 240//240 243//243 240//240 
f 243//243 244//244 240//240 
f 240//240 244//244 239//239 
f 244//244 245//245 239//239 
f 239//239 245//245 238//238 
f 245//245 246//246 238//238 
f 238//238 246//246 237//237 
f 246//246 247//247 237//237 
f 237//237 247//247 236//236 
f 247//247 247//247 236//236 
f 236//236 247//247 248//248 
f 247//247 249//249 248//248 
f 248//248 249//249 248//248 
f 249//249 250//250 248//248 
f 248//248 250//250 251//251 
f 250//250 242//242 251//251 
f 251//251 242//242 251//251 
f 242//242 233//233 251//251 
f 251//251 233//233 251//251 
f 233//233 234//234 251//251 
f 251//251 234//234 251//251 
f 234//234 235//235 251//251 
f 251//251 235//235 248//248 
f 235//235 236//236 248//248 
f 248//248 236//236 236//236 
f 236//236 38//38 236//236 
f 236//236 38//38 38//38 
f 38//38 252//252 38//38 
f 38//38 252//252 39//39 
f 252//252 253//253 39//39 
f 39//39 253//253 40//40 
f 253//253 254//254 40//40 
f 40//40 254//254 255//255 
f 254//254 256//256 255//255 
f 255//255 256//256 126//126 
f 256//256 256//256 126//126 
f 126//126 256//256 127//127 
f 256//256 257//257 127//127 
f 127//127 257//257 128//128 
f 257//257 128//128 128//128 
f 128//128 128//128 40//40 
f 128//128 40//40 40//40 
f 40//40 40//40 41//41 
f 40//40 255//255 41//41 
f 41//41 255//255 42//42 
f 255//255 126//126 42//42 
f 42//42 126//126 126//126 
f 126//126 257//257 126//126 
f 126//126 257//257 257//257 
f 257//257 256//256 257//257 
f 257//257 256//256 258//258 
f 256//256 254//254 258//258 
f 258//258 254//254 259//259 
f 254//254 253//253 259//259 
f 259//259 253//253 260//260 
f 253//253 252//252 260//260 
f 260//260 252//252 261//261 
f 252//252 37//37 261//261 
f 261//261 37//37 262//262 
f 37//37 36//36 262//262 
f 262//262 36//36 263//263 
f 36//36 35//35 263//263 
f 263//263 35//35 35//35 
f 35//35 260//260 35//35 
f 35//35 260//260 260//260 
f 260//260 261//261 260//260 
f 260//260 261//261 264//264 
f 261//261 261//261 264//264 
f 264//264 261//261 265//265 
f 261//261 262//262 265//265 
f 265//265 262//262 266//266 
f 262//262 263//263 266//266 
f 266//266 263//263 267//267 
f 263//263 62//62 267//267 
f 267//267 62//62 231//231 
f 62//62 231//231 231//231 
f 231//231 231//231 38//38 
f 231//231 38//38 38//38 
f 38//38 38//38 252//252 
f 38//38 37//37 252//252 
f 252//252 37//37 37//37 
f 37//37 62//62 37//37 
f 37//37 62//62 62//62 
f 62//62 263//263 62//62 
f 62//62 263//263 35//35 
f 263//263 35//35 35//35 
f 35//35 35//35 183//183 
f 35//35 183//183 183//183 
f 183//183 183//183 268//268 
f 183//183 212//212 268//268 
f 268//268 212//212 269//269 
f 212//212 269//269 269//269 
f 269//269 269//269 183//183 
f 269//269 183//183 183//183 
f 183//183 183//183 184//184 
f 183//183 268//268 184//184 
f 184//184 268//268 184//184 
f 268//268 270//270 184//184 
f 184//184 270//270 184//184 
f 270//270 271//271 184//184 
f 184//184 271//271 185//185 
f 271//271 272//272 185//185 
f 185//185 272//272 186//186 
f 272//272 273//273 186//186 
f 186//186 273//273 187//187 
f 273//273 273//273 187//187 
f 187//187 273//273 192//192 
f 273//273 274//274 192//192 
f 192//192 274//274 193//193 
f 274//274 274//274 193//193 
f 193//193 274//274 194//194 
f 274//274 275//275 194//194 
f 194//194 275//275 276//276 
f 275//275 271//271 276//276 
f 276//276 271//271 276//276 
f 271//271 270//270 276//276 
f 276//276 270//270 276//276 
f 270//270 277//277 276//276 
f 276//276 277//277 194//194 
f 277//277 278//278 194//194 
f 194//194 278//278 195//195 
f 278//278 279//279 195//195 
f 195//195 279//279 196//196 
f 279//279 196//196 196//196 
f 196//196 196//196 274//274 
f 196//196 274//274 274//274 
f 274//274 274//274 275//275 
f 274//274 273//273 275//275 
f 275//275 273//273 275//275 
f 273//273 272//272 275//275 
f 275//275 272//272 271//271 
f 272//272 271//271 271//271 
f 271//271 271//271 279//279 
f 271//271 279//279 279//279 
f 279//279 279//279 280//280 
f 279//279 278//278 280//280 
f 280//280 278//278 280//280 
f 278//278 277//277 280//280 
f 280//280 277//277 280//280 
f 277//277 270//270 280//280 
f 280//280 270//270 280//280 
f 270//270 268//268 280//280 
f 280//280 268//268 280//280 
f 268//268 269//269 280//280 
f 280//280 269//269 281//281 
f 269//269 282//282 281//281 
f 281//281 282//282 180//180 
f 282//282 282//282 180//180 
f 180//180 282//282 212//212 
f 282//282 269//269 212//212 
f 212//212 269//269 269//269 
f 269//269 281//281 269//269 
f 269//269 281//281 281//281 
f 281//281 279//279 281//281 
f 281//281 279//279 280//280 
f 279//279 280//280 280//280 
f 280//280 280//280 180//180 
f 280//280 180//180 180//180 
f 180//180 180//180 281//281 
f 180//180 283//283 281//281 
f 281//281 283//283 241//241 
f 283//283 243//243 241//241 
f 241//241 243//243 243//243 
f 243//243 281//281 243//243 
f 243//243 281//281 281//281 
f 281//281 241//241 281//281 
f 281//281 241//241 284//284 
f 241//241 196//196 284//284 
f 284//284 196//196 285//285 
f 196//196 279//279 285//285 
f 285//285 279//279 285//285 
f 279//279 281//281 285//285 
f 285//285 281//281 284//284 

