mtllib model_2.mtl
o model_2
v -0.013641107827425003 -1.769777536392212 0.25362101197242737 
v -0.01095413975417614 -1.7697943449020386 0.2568153440952301 
v -0.014505571685731411 -1.1080111265182495 0.25823530554771423 
v -0.011820832267403603 -1.1080279350280762 0.2614273428916931 
v -0.12089216709136963 -1.146865963935852 0.2628754675388336 
v -0.12088993936777115 -1.1482661962509155 0.26286613941192627 
v -0.1224072054028511 -1.1482661962509155 0.2625863254070282 
v -0.12239383906126022 -1.1461377143859863 0.26303166151046753 
v -0.12134891003370285 -1.1461377143859863 0.26323452591896057 
v -0.10169348865747452 -1.1459697484970093 0.29507073760032654 
v -0.10172245651483536 -1.144429326057434 0.2950311005115509 
v -0.10317065566778183 -1.1445077657699585 0.295523077249527 
v -0.13964079320430756 -1.1489944458007812 0.2632555067539215 
v -0.14126276969909668 -1.1482605934143066 0.26423946022987366 
v -0.14068572223186493 -1.1489776372909546 0.2643234133720398 
v 0.11594605445861816 -1.1477042436599731 0.17373399436473846 
v 0.11439536511898041 -1.1462758779525757 0.17406976222991943 
v 0.11594382673501968 -1.1462702751159668 0.1737433224916458 
v 0.11593937128782272 -1.145525336265564 0.17419566214084625 
v 0.09544622898101807 -1.1453908681869507 0.20459792017936707 
v 0.09695903956890106 -1.1453908681869507 0.20503859221935272 
v 0.09696795046329498 -1.1438785791397095 0.20502227544784546 
v 0.13534079492092133 -1.1476482152938843 0.1749674379825592 
v 0.13365420699119568 -1.1484043598175049 0.17399513721466064 
v 0.1347503811120987 -1.1483875513076782 0.17506536841392517 
v 0.20128542184829712 -1.0966908931732178 0.298535019159317 
v 0.19857840240001678 -1.098085641860962 0.29796844720840454 
v 0.19888809323310852 -1.0994410514831543 0.2980593740940094 
v 0.19396643340587616 -1.100494146347046 0.29679563641548157 
v -0.10326212644577026 -1.1458027362823486 0.2804158627986908 
v -0.08335717767477036 -1.141657829284668 0.28022700548171997 
v -0.08340619504451752 -1.1416298151016235 0.27622124552726746 
v -0.1213490292429924 -1.1461387872695923 0.2632339894771576 
v -0.1221778467297554 -1.1458195447921753 0.2796837091445923 
v -0.12236499786376953 -1.14614999294281 0.2640267610549927 
v 0.12093691527843475 -1.1485666036605835 0.21091432869434357 
v 0.11942633241415024 -1.147171974182129 0.2112407684326172 
v 0.12093245983123779 -1.14716637134552 0.21092365682125092 
v 0.12093023210763931 -1.1464381217956543 0.21136200428009033 
v 0.10100522637367249 -1.1463261842727661 0.24389071762561798 
v 0.10247571021318436 -1.1463261842727661 0.24432207643985748 
v 0.10248684883117676 -1.1448585987091064 0.24430574476718903 
v 0.13982589542865753 -1.1485105752944946 0.21211279928684235 
v 0.1381838619709015 -1.1492500305175781 0.21116848289966583 
v 0.13925330340862274 -1.1492276191711426 0.21221305429935455 
v -0.12321232259273529 -1.144567608833313 0.24668367207050323 
v -0.1061280146241188 -1.1464439630508423 0.23075157403945923 
v -0.12427952885627747 -1.1447243690490723 0.245643749833107 
v -0.12445999681949615 -1.1464663743972778 0.23053239285945892 
v 0.08225829899311066 -1.1420414447784424 0.22548440098762512 
v 0.10221894830465317 -1.1461583375930786 0.22920569777488708 
v 0.1020696684718132 -1.1464999914169312 0.2168480008840561 
v 0.12110792845487595 -1.1461247205734253 0.22801189124584198 
v -0.11904790252447128 -1.143552303314209 0.2072727382183075 
v -0.10150908678770065 -1.1454792022705078 0.1909162849187851 
v -0.1201440766453743 -1.1437091827392578 0.20620717108249664 
v -0.12032900005578995 -1.1455016136169434 0.19069243967533112 
v 0.07620064914226532 -1.1409813165664673 0.1857004016637802 
v 0.09669379889965057 -1.1452102661132812 0.1895172894001007 
v 0.09657794237136841 -1.1455744504928589 0.17982932925224304 
v 0.11609076708555222 -1.1451767683029175 0.18829551339149475 
vn -0.8248798847198486 -0.003772132098674774 0.5652954578399658 
vn -0.6985187530517578 -0.007541397586464882 0.715552031993866 
vn -0.8248798847198486 -0.003772132098674774 0.5652954578399658 
vn -0.6985187530517578 -0.007541397586464882 0.715552031993866 
vn 0.2160949558019638 0.2761789858341217 -0.9364978075027466 
vn 0.21693141758441925 -0.27029094099998474 -0.9380210638046265 
vn 0.11737833172082901 -0.26363605260849 -0.9574540853500366 
vn 0.13088060915470123 0.5103541612625122 -0.8499464392662048 
vn 0.18193195760250092 0.5256578922271729 -0.8310141563415527 
vn 0.3790661692619324 -0.22898449003696442 0.8965907096862793 
vn 0.3610623776912689 0.33575138449668884 0.8700028657913208 
vn 0.19618678092956543 0.3523363769054413 0.9150791168212891 
vn -0.3451843559741974 -0.6180130243301392 -0.7063339352607727 
vn -0.8872398138046265 -0.31131619215011597 -0.34042292833328247 
vn -0.718752920627594 -0.6173503398895264 -0.3198012113571167 
vn -0.13966485857963562 -0.2620457112789154 -0.9548956751823425 
vn -0.23869705200195312 0.2733747065067291 -0.931820809841156 
vn -0.1483655869960785 0.26202183961868286 -0.953589141368866 
vn -0.1492035835981369 0.5130200982093811 -0.8453097939491272 
vn -0.3583782911300659 -0.22502514719963074 0.9060511589050293 
vn -0.20231986045837402 -0.21160998940467834 0.9561840295791626 
vn -0.17577701807022095 0.3495355248451233 0.9202865362167358 
vn 0.881692111492157 -0.3039458990097046 -0.36088213324546814 
vn 0.3283613622188568 -0.6165745258331299 -0.715552031993866 
vn 0.7121769785881042 -0.6161969900131226 -0.3363112509250641 
vn -0.31057772040367126 0.06703837215900421 0.9481810927391052 
vn -0.2290220409631729 0.015010898001492023 0.9733054637908936 
vn -0.24971142411231995 0.022474436089396477 0.9680594801902771 
vn -0.24637389183044434 -0.007516956888139248 0.9691457152366638 
vn -0.10175357013940811 0.9921983480453491 -0.07203252613544464 
vn -0.29026734828948975 0.9568832516670227 0.010923261754214764 
vn -0.283049076795578 0.9591029286384583 0.002184694167226553 
vn -0.007551383227109909 0.9999118447303772 -0.010923261754214764 
vn 0.003776365192607045 0.9977003335952759 -0.06767380982637405 
vn -1.0339945994688668e-13 0.9998830556869507 -0.0152922747656703 
vn -0.13966485857963562 -0.2620457112789154 -0.9548956751823425 
vn -0.23869705200195312 0.2733747065067291 -0.931820809841156 
vn -0.1483655869960785 0.26202183961868286 -0.953589141368866 
vn -0.1492035835981369 0.5130200982093811 -0.8453097939491272 
vn -0.3583782911300659 -0.22502514719963074 0.9060511589050293 
vn -0.20231986045837402 -0.21160998940467834 0.9561840295791626 
vn -0.17577701807022095 0.3495355248451233 0.9202865362167358 
vn 0.881692111492157 -0.3039458990097046 -0.36088213324546814 
vn 0.3283613622188568 -0.6165745258331299 -0.715552031993866 
vn 0.7121769785881042 -0.6161969900131226 -0.3363112509250641 
vn -0.013217012397944927 0.9916161894798279 -0.12854042649269104 
vn 0.003776365192607045 0.9977003335952759 -0.06767380982637405 
vn -0.013217012397944927 0.9916161894798279 -0.12854042649269104 
vn -0.003776365192607045 0.9977003335952759 -0.06767380982637405 
vn 0.2757980227470398 0.9612131118774414 -0.002184694167226553 
vn 0.09420904517173767 0.9926173686981201 -0.0763898640871048 
vn 0.07542550563812256 0.9968618750572205 -0.024029340595006943 
vn -0.003776365192607045 0.9977003335952759 -0.06767380982637405 
vn -0.013217012397944927 0.9916161894798279 -0.12854042649269104 
vn 0.0037752098869532347 0.9973951578140259 -0.07203252613544464 
vn -0.011321541853249073 0.9921918511390686 -0.1242060661315918 
vn -0.003776365192607045 0.9977003335952759 -0.06767380982637405 
vn 0.283049076795578 0.9591029286384583 -0.002184694167226553 
vn 0.09240955859422684 0.992441713809967 -0.08074574917554855 
vn 0.08291822671890259 0.9958643913269043 -0.03713129088282585 
vn -0.0037752098869532347 0.9973951578140259 -0.07203252613544464 
s on 
f 1//1 2//2 3//3 
f 2//2 4//4 3//3 
f 3//3 4//4 4//4 
f 4//4 5//5 4//4 
f 4//4 5//5 5//5 
f 5//5 6//6 5//5 
f 5//5 6//6 7//7 
f 6//6 7//7 7//7 
f 7//7 7//7 8//8 
f 7//7 8//8 8//8 
f 8//8 8//8 5//5 
f 8//8 9//9 5//5 
f 5//5 9//9 9//9 
f 9//9 10//10 9//9 
f 9//9 10//10 10//10 
f 10//10 11//11 10//10 
f 10//10 11//11 12//12 
f 11//11 12//12 12//12 
f 12//12 12//12 13//13 
f 12//12 13//13 13//13 
f 13//13 13//13 14//14 
f 13//13 15//15 14//14 
f 14//14 15//15 15//15 
f 15//15 16//16 15//15 
f 15//15 16//16 16//16 
f 16//16 17//17 16//16 
f 16//16 17//17 18//18 
f 17//17 19//19 18//18 
f 18//18 19//19 19//19 
f 19//19 20//20 19//19 
f 19//19 20//20 20//20 
f 20//20 21//21 20//20 
f 20//20 21//21 22//22 
f 21//21 22//22 22//22 
f 22//22 22//22 23//23 
f 22//22 23//23 23//23 
f 23//23 23//23 24//24 
f 23//23 25//25 24//24 
f 24//24 25//25 25//25 
f 25//25 26//26 25//25 
f 25//25 26//26 26//26 
f 26//26 27//27 26//26 
f 26//26 27//27 28//28 
f 27//27 29//29 28//28 
f 28//28 29//29 29//29 
f 29//29 30//30 29//29 
f 29//29 30//30 30//30 
f 30//30 31//31 30//30 
f 30//30 31//31 32//32 
f 31//31 32//32 32//32 
f 32//32 32//32 33//33 
f 32//32 33//33 33//33 
f 33//33 33//33 34//34 
f 33//33 35//35 34//34 
f 34//34 35//35 35//35 
f 35//35 36//36 35//35 
f 35//35 36//36 36//36 
f 36//36 37//37 36//36 
f 36//36 37//37 38//38 
f 37//37 39//39 38//38 
f 38//38 39//39 39//39 
f 39//39 40//40 39//39 
f 39//39 40//40 40//40 
f 40//40 41//41 40//40 
f 40//40 41//41 42//42 
f 41//41 42//42 42//42 
f 42//42 42//42 43//43 
f 42//42 43//43 43//43 
f 43//43 43//43 44//44 
f 43//43 45//45 44//44 
f 44//44 45//45 45//45 
f 45//45 46//46 45//45 
f 45//45 46//46 46//46 
f 46//46 47//47 46//46 
f 46//46 47//47 48//48 
f 47//47 49//49 48//48 
f 48//48 49//49 49//49 
f 49//49 50//50 49//49 
f 49//49 50//50 50//50 
f 50//50 51//51 50//50 
f 50//50 51//51 52//52 
f 51//51 53//53 52//52 
f 52//52 53//53 53//53 
f 53//53 54//54 53//53 
f 53//53 54//54 54//54 
f 54//54 55//55 54//54 
f 54//54 55//55 56//56 
f 55//55 57//57 56//56 
f 56//56 57//57 57//57 
f 57//57 58//58 57//57 
f 57//57 58//58 58//58 
f 58//58 59//59 58//58 
f 58//58 59//59 60//60 
f 59//59 61//61 60//60 

