mtllib model_1.mtl
o model_1
v 0.07649744302034378 4.51216983795166 -0.259378582239151 
v 0.07649744302034378 4.52496337890625 -0.259378582239151 
v -0.10113999992609024 4.51216983795166 -0.259378582239151 
v -0.10113999992609024 4.52496337890625 -0.259378582239151 
v -0.09414640069007874 4.51216983795166 -0.2667149305343628 
v -0.09414640069007874 4.52496337890625 -0.2667149305343628 
v 0.06950383633375168 4.51216983795166 -0.2667149305343628 
v 0.06950383633375168 4.52496337890625 -0.2667149305343628 
v 0.07649744302034378 4.52496337890625 -0.451958030462265 
v 0.07649744302034378 4.52496337890625 -0.259378582239151 
v 0.07649744302034378 4.51216983795166 -0.451958030462265 
v 0.07649744302034378 4.51216983795166 -0.259378582239151 
v 0.06950383633375168 4.51216983795166 -0.2667149305343628 
v 0.06950383633375168 4.52496337890625 -0.2667149305343628 
v 0.06950383633375168 4.51216983795166 -0.44462165236473083 
v 0.06950383633375168 4.52496337890625 -0.44462165236473083 
v -0.09414640069007874 4.52496337890625 -0.2667149305343628 
v -0.09414640069007874 4.51216983795166 -0.2667149305343628 
v -0.09414640069007874 4.52496337890625 -0.44462165236473083 
v -0.09414640069007874 4.51216983795166 -0.44462165236473083 
v 0.06950383633375168 4.51216983795166 -0.44462165236473083 
v 0.06950383633375168 4.52496337890625 -0.44462165236473083 
v 0.037333279848098755 4.51216983795166 -0.4831375479698181 
v 0.037333279848098755 4.52496337890625 -0.4831375479698181 
v -0.06617199629545212 4.52496337890625 -0.4831375479698181 
v -0.06617199629545212 4.51216983795166 -0.4831375479698181 
v -0.09414640069007874 4.52496337890625 -0.44462165236473083 
v -0.09414640069007874 4.51216983795166 -0.44462165236473083 
v -0.10113999992609024 4.51216983795166 -0.451958030462265 
v -0.10113999992609024 4.52496337890625 -0.451958030462265 
v -0.10113999992609024 4.51216983795166 -0.259378582239151 
v -0.10113999992609024 4.52496337890625 -0.259378582239151 
v -0.10113999992609024 4.51216983795166 -0.451958030462265 
v -0.07036816328763962 4.51216983795166 -0.49230799078941345 
v -0.10113999992609024 4.52496337890625 -0.451958030462265 
v -0.07036816328763962 4.52496337890625 -0.49230799078941345 
v 0.04292815923690796 4.52496337890625 -0.49230799078941345 
v 0.04292815923690796 4.51216983795166 -0.49230799078941345 
v 0.07649744302034378 4.52496337890625 -0.451958030462265 
v 0.07649744302034378 4.51216983795166 -0.451958030462265 
v 0.06950383633375168 4.51216983795166 -0.2667149305343628 
v 0.07649744302034378 4.51216983795166 -0.259378582239151 
v 0.06950383633375168 4.51216983795166 -0.44462165236473083 
v 0.07649744302034378 4.51216983795166 -0.451958030462265 
v 0.037333279848098755 4.51216983795166 -0.4831375479698181 
v 0.04292815923690796 4.51216983795166 -0.49230799078941345 
v -0.06617199629545212 4.51216983795166 -0.4831375479698181 
v -0.07036816328763962 4.51216983795166 -0.49230799078941345 
v -0.09414640069007874 4.51216983795166 -0.44462165236473083 
v -0.10113999992609024 4.51216983795166 -0.451958030462265 
v -0.10113999992609024 4.51216983795166 -0.259378582239151 
v -0.09414640069007874 4.51216983795166 -0.2667149305343628 
v -0.09414640069007874 4.52496337890625 -0.2667149305343628 
v -0.10113999992609024 4.52496337890625 -0.259378582239151 
v 0.06950383633375168 4.52496337890625 -0.2667149305343628 
v 0.07649744302034378 4.52496337890625 -0.259378582239151 
v -0.09414640069007874 4.52496337890625 -0.44462165236473083 
v -0.10113999992609024 4.52496337890625 -0.451958030462265 
v -0.06617199629545212 4.52496337890625 -0.4831375479698181 
v -0.07036816328763962 4.52496337890625 -0.49230799078941345 
v 0.037333279848098755 4.52496337890625 -0.4831375479698181 
v 0.04292815923690796 4.52496337890625 -0.49230799078941345 
v 0.06950383633375168 4.52496337890625 -0.44462165236473083 
v 0.07649744302034378 4.52496337890625 -0.451958030462265 
vn 0 0 1 
vn 0 0 1 
vn 0 0 1 
vn 0 0 1 
vn -2.0682311115474694e-13 0 -1 
vn -2.0682311115474694e-13 0 -1 
vn -2.0682311115474694e-13 0 -1 
vn -2.0682311115474694e-13 0 -1 
vn 0.999997615814209 0 0.002184694167226553 
vn 0.999997615814209 0 0.002184694167226553 
vn 0.999997615814209 0 0.002184694167226553 
vn 0.999997615814209 0 0.002184694167226553 
vn -0.999997615814209 -2.0682260971124217e-13 0.002184694167226553 
vn -0.999997615814209 -2.0682260971124217e-13 0.002184694167226553 
vn -0.999997615814209 -2.0682260971124217e-13 0.002184694167226553 
vn -0.999997615814209 -2.0682260971124217e-13 0.002184694167226553 
vn 0.999997615814209 0 0.002184694167226553 
vn 0.999997615814209 0 0.002184694167226553 
vn 0.999997615814209 0 0.002184694167226553 
vn 0.999997615814209 0 0.002184694167226553 
vn -0.7887782454490662 -0.0037717486266046762 0.6146662831306458 
vn -0.7887782454490662 -0.0037717486266046762 0.6146662831306458 
vn -0.28020769357681274 -5.795342504499867e-14 0.9599394202232361 
vn -0.28020769357681274 -5.795342504499867e-14 0.9599394202232361 
vn 0.2885856032371521 0 0.9574540853500366 
vn 0.2885856032371521 0 0.9574540853500366 
vn 0.8174078464508057 0 0.5760593414306641 
vn 0.8174078464508057 0 0.5760593414306641 
vn -0.999997615814209 -2.0682260971124217e-13 0.002184694167226553 
vn -0.999997615814209 -2.0682260971124217e-13 0.002184694167226553 
vn -0.999997615814209 -2.0682260971124217e-13 0.002184694167226553 
vn -0.999997615814209 -2.0682260971124217e-13 0.002184694167226553 
vn -0.7941284775733948 -1.6424412014898887e-13 -0.607749879360199 
vn -0.26336124539375305 -0.0037782215513288975 -0.9646899104118347 
vn -0.7941284775733948 -1.6424412014898887e-13 -0.607749879360199 
vn -0.26336124539375305 -0.0037782215513288975 -0.9646899104118347 
vn 0.2591707408428192 0 -0.9658315181732178 
vn 0.2591707408428192 0 -0.9658315181732178 
vn 0.758344829082489 0 -0.651853621006012 
vn 0.758344829082489 0 -0.651853621006012 
vn 3.097898456858039e-13 -0.999997615814209 0.002184694167226553 
vn 3.097898456858039e-13 -0.999997615814209 0.002184694167226553 
vn 3.097898456858039e-13 -0.999997615814209 0.002184694167226553 
vn 3.097898456858039e-13 -0.999997615814209 0.002184694167226553 
vn 3.097898456858039e-13 -0.999997615814209 0.002184694167226553 
vn 3.097898456858039e-13 -0.999997615814209 0.002184694167226553 
vn 3.097898456858039e-13 -0.999997615814209 0.002184694167226553 
vn 3.097898456858039e-13 -0.999997615814209 0.002184694167226553 
vn 3.097898456858039e-13 -0.999997615814209 0.002184694167226553 
vn 3.097898456858039e-13 -0.999997615814209 0.002184694167226553 
vn 3.097898456858039e-13 -0.999997615814209 0.002184694167226553 
vn 3.097898456858039e-13 -0.999997615814209 0.002184694167226553 
vn -1.0341130485562108e-13 0.999997615814209 0.002184694167226553 
vn -1.0341130485562108e-13 0.999997615814209 0.002184694167226553 
vn -1.0341130485562108e-13 0.999997615814209 0.002184694167226553 
vn -1.0341130485562108e-13 0.999997615814209 0.002184694167226553 
vn -1.0341130485562108e-13 0.999997615814209 0.002184694167226553 
vn -1.0341130485562108e-13 0.999997615814209 0.002184694167226553 
vn -1.0341130485562108e-13 0.999997615814209 0.002184694167226553 
vn -1.0341130485562108e-13 0.999997615814209 0.002184694167226553 
vn -1.0341130485562108e-13 0.999997615814209 0.002184694167226553 
vn -1.0341130485562108e-13 0.999997615814209 0.002184694167226553 
vn -1.0341130485562108e-13 0.999997615814209 0.002184694167226553 
vn -1.0341130485562108e-13 0.999997615814209 0.002184694167226553 
s on 
f 1//1 2//2 3//3 
f 2//2 4//4 3//3 
f 3//3 4//4 4//4 
f 4//4 5//5 4//4 
f 4//4 5//5 5//5 
f 5//5 6//6 5//5 
f 5//5 6//6 7//7 
f 6//6 8//8 7//7 
f 7//7 8//8 8//8 
f 8//8 9//9 8//8 
f 8//8 9//9 9//9 
f 9//9 10//10 9//9 
f 9//9 10//10 11//11 
f 10//10 12//12 11//11 
f 11//11 12//12 12//12 
f 12//12 13//13 12//12 
f 12//12 13//13 13//13 
f 13//13 14//14 13//13 
f 13//13 14//14 15//15 
f 14//14 16//16 15//15 
f 15//15 16//16 16//16 
f 16//16 17//17 16//16 
f 16//16 17//17 17//17 
f 17//17 18//18 17//17 
f 17//17 18//18 19//19 
f 18//18 20//20 19//19 
f 19//19 20//20 20//20 
f 20//20 21//21 20//20 
f 20//20 21//21 21//21 
f 21//21 22//22 21//21 
f 21//21 22//22 23//23 
f 22//22 24//24 23//23 
f 23//23 24//24 23//23 
f 24//24 25//25 23//23 
f 23//23 25//25 26//26 
f 25//25 27//27 26//26 
f 26//26 27//27 28//28 
f 27//27 28//28 28//28 
f 28//28 28//28 29//29 
f 28//28 29//29 29//29 
f 29//29 29//29 30//30 
f 29//29 31//31 30//30 
f 30//30 31//31 32//32 
f 31//31 32//32 32//32 
f 32//32 32//32 33//33 
f 32//32 33//33 33//33 
f 33//33 33//33 34//34 
f 33//33 35//35 34//34 
f 34//34 35//35 34//34 
f 35//35 36//36 34//34 
f 34//34 36//36 34//34 
f 36//36 37//37 34//34 
f 34//34 37//37 38//38 
f 37//37 39//39 38//38 
f 38//38 39//39 40//40 
f 39//39 40//40 40//40 
f 40//40 40//40 41//41 
f 40//40 41//41 41//41 
f 41//41 41//41 42//42 
f 41//41 43//43 42//42 
f 42//42 43//43 44//44 
f 43//43 45//45 44//44 
f 44//44 45//45 46//46 
f 45//45 47//47 46//46 
f 46//46 47//47 48//48 
f 47//47 49//49 48//48 
f 48//48 49//49 50//50 
f 49//49 49//49 50//50 
f 50//50 49//49 51//51 
f 49//49 52//52 51//51 
f 51//51 52//52 42//42 
f 52//52 41//41 42//42 
f 42//42 41//41 41//41 
f 41//41 53//53 41//41 
f 41//41 53//53 53//53 
f 53//53 54//54 53//53 
f 53//53 54//54 55//55 
f 54//54 56//56 55//55 
f 55//55 56//56 56//56 
f 56//56 53//53 56//56 
f 56//56 53//53 53//53 
f 53//53 57//57 53//53 
f 53//53 57//57 54//54 
f 57//57 57//57 54//54 
f 54//54 57//57 58//58 
f 57//57 59//59 58//58 
f 58//58 59//59 60//60 
f 59//59 61//61 60//60 
f 60//60 61//61 62//62 
f 61//61 63//63 62//62 
f 62//62 63//63 64//64 
f 63//63 63//63 64//64 
f 64//64 63//63 56//56 
f 63//63 55//55 56//56 

