mtllib model_1.mtl
o model_1
v 0.0644456148147583 -1.069628119468689 0.2978527545928955 
v -0.05275290086865425 -1.069749355316162 0.2992616295814514 
v 0.06449063867330551 -1.0696483850479126 0.3014049530029297 
v -0.05270787701010704 -1.0697897672653198 0.30281761288642883 
v 0.06453566253185272 -1.0696887969970703 0.30495718121528625 
v -0.05266284942626953 -1.0698100328445435 0.30636605620384216 
v 0.08884439617395401 0.5513927340507507 0.8053104877471924 
v 0.08081702888011932 0.5902669429779053 0.81900554895401 
v 0.08721091598272324 0.5560466647148132 0.8031548857688904 
v 0.07901553809642792 0.59368896484375 0.8155850172042847 
v 0.07855816185474396 0.6573386192321777 0.8189022541046143 
v 0.0772327110171318 0.6587074398994446 0.8154946565628052 
v 0.08630550652742386 0.7526077628135681 0.8039035201072693 
v 0.08469069749116898 0.7508283257484436 0.8018770217895508 
v 0.09182199090719223 0.8532153367996216 0.7814828753471375 
v 0.09372615814208984 0.8582799434661865 0.7814183235168457 
v 0.09204600751399994 0.8536259531974792 0.7765392065048218 
v 0.09391283988952637 0.8585537075996399 0.7759583592414856 
v 0.09270873665809631 0.8255653381347656 0.7675812840461731 
v 0.09094458073377609 0.8215957880020142 0.7689236402511597 
v 0.09018851071596146 0.8485613465309143 0.7771071791648865 
v 0.0892457664012909 0.8176262378692627 0.7702789902687073 
v 0.0895911306142807 0.8237859010696411 0.7684977054595947 
v 0.09072989225387573 0.8563635945320129 0.7763456106185913 
v 0.08933910727500916 0.8283029794692993 0.7671811580657959 
v 0.09055254608392715 0.8621125817298889 0.7757905721664429 
v 0.09039386361837387 0.8618388175964355 0.7814053893089294 
v 0.09052453935146332 0.8560898303985596 0.7814699411392212 
v 0.08300121873617172 0.7537028193473816 0.8044973015785217 
v 0.08994582295417786 0.8482875823974609 0.7815474271774292 
v 0.08315056562423706 0.7491857409477234 0.7998505234718323 
v 0.07609394937753677 0.6599393486976624 0.8120741248130798 
v 0.07744739949703217 0.5971109867095947 0.8121644854545593 
v 0.08562411367893219 0.5607006549835205 0.8009992837905884 
v 0.09241004288196564 0.5487920045852661 0.7821024060249329 
v 0.09419286251068115 0.5437273979187012 0.7821024060249329 
v 0.10160417854785919 0.5560466647148132 0.7610499858856201 
v 0.10391904413700104 0.5513927340507507 0.7588943839073181 
v 0.096125029027462 0.5386627912521362 0.7821024060249329 
v 0.09934531152248383 0.5607006549835205 0.7632055282592773 
v 0.10021339356899261 0.5534459352493286 0.7603529691696167 
v 0.09273673593997955 0.5408529043197632 0.7821024060249329 
v 0.10038140416145325 0.5481075644493103 0.7582619190216064 
v 0.0926060602068901 0.5351038575172424 0.7821024060249329 
v 0.08518540859222412 0.5481075644493103 0.805942952632904 
v 0.0857267901301384 0.5534459352493286 0.8038519024848938 
v 0.07776475697755814 0.5917726159095764 0.8166821599006653 
v 0.0757765844464302 0.6580229997634888 0.8165917992591858 
v 0.08332791179418564 0.7517865300178528 0.8025224208831787 
v 0.07517919689416885 0.6565173268318176 0.8199219703674316 
v 0.07769008725881577 0.587803065776825 0.8200252652168274 
v 0.002428994746878743 -1.0483568906784058 0.24779175221920013 
v -0.0017222549067810178 -1.0483568906784058 0.24825263023376465 
v 0.006589249242097139 -1.0483568906784058 0.24815146625041962 
v 0.010596420615911484 -1.0483568906784058 0.24931305646896362 
v -0.005693406797945499 -1.0483771562576294 0.24951164424419403 
v 0.0142974266782403 -1.0483771562576294 0.25123530626296997 
v -0.00934938807040453 -1.0483973026275635 0.25152382254600525 
v 0.017557192593812943 -1.0483771562576294 0.2538432478904724 
v -0.012546120211482048 -1.048417568206787 0.25420671701431274 
v 0.020240647718310356 -1.0483973026275635 0.25703948736190796 
v -0.015148530714213848 -1.0484377145767212 0.25746291875839233 
v 0.022248735651373863 -1.0484377145767212 0.26069286465644836 
v -0.01707557588815689 -1.048478126525879 0.2611687481403351 
v 0.023509418591856956 -1.0484579801559448 0.26467224955558777 
v -0.01823720522224903 -1.0484983921051025 0.26517435908317566 
v 0.023968668654561043 -1.048478126525879 0.26882025599479675 
v -0.018597399815917015 -1.0485388040542603 0.26932984590530396 
v 0.02360847219824791 -1.0485185384750366 0.27297574281692505 
v -0.018138151615858078 -1.0485589504241943 0.27347785234451294 
v 0.02244684286415577 -1.0485388040542603 0.2769813537597656 
v -0.016877468675374985 -1.048579216003418 0.27745720744132996 
v 0.0205197986215353 -1.048579216003418 0.2806871831417084 
v -0.014869379810988903 -1.048599362373352 0.28111061453819275 
v 0.017917389050126076 -1.048599362373352 0.28394338488578796 
v -0.012185925617814064 -1.0486196279525757 0.2843068540096283 
v 0.014720655977725983 -1.0486196279525757 0.2866300344467163 
v -0.008926158770918846 -1.0486397743225098 0.28691479563713074 
v 0.011064674705266953 -1.0486397743225098 0.28864219784736633 
v -0.005225153174251318 -1.0486600399017334 0.2888370454311371 
v 0.007084517739713192 -1.0486397743225098 0.2899011969566345 
v -0.00121798156760633 -1.0486600399017334 0.2899986207485199 
v 0.0029422729276120663 -1.0486600399017334 0.2903583347797394 
v 0.10038138180971146 0.5481083393096924 0.7582619190216064 
v 0.09260603785514832 0.5351046323776245 0.7821024060249329 
v 0.09914927184581757 0.5459182262420654 0.7573970556259155 
v 0.09128058701753616 0.5327776670455933 0.7821024060249329 
v 0.09707709401845932 0.5456444621086121 0.7572680115699768 
v 0.08918973803520203 0.5323669910430908 0.7821024060249329 
v 0.08150772750377655 0.5456444621086121 0.8069368004798889 
v 0.08362658321857452 0.5459182262420654 0.8068077564239502 
v 0.07466579973697662 0.5860243439674377 0.8215999603271484 
v 0.07651396095752716 0.5861612558364868 0.821406364440918 
v 0.07201489806175232 0.6556968092918396 0.8214837908744812 
v 0.07383506000041962 0.6558336615562439 0.8212901949882507 
v 0.07769006490707397 0.5878037810325623 0.8200252652168274 
v 0.07517917454242706 0.6565180420875549 0.8199219703674316 
v 0.08300119638442993 0.7537035942077637 0.8044973015785217 
v 0.08169441670179367 0.7545248866081238 0.8053104877471924 
v 0.09039384126663208 0.8618395924568176 0.7814053893089294 
v 0.08909639716148376 0.8641665577888489 0.7813795804977417 
v 0.07980891317129135 0.7546617388725281 0.8054266571998596 
v 0.08712688833475113 0.8645771741867065 0.7813795804977417 
v 0.08923640847206116 0.8645771741867065 0.7755711078643799 
v 0.08726689964532852 0.8648509383201599 0.7755324244499207 
v 0.08615613728761673 0.8304938077926636 0.7665615677833557 
v 0.0880509689450264 0.8302200436592102 0.766638994216919 
v 0.09055252373218536 0.862113356590271 0.7757905721664429 
v 0.08518538624048233 0.5481083393096924 0.805942952632904 
v 0.08933908492326736 0.8283036947250366 0.7671810984611511 
v 0.09270870685577393 0.8255658149719238 0.7675809264183044 
v 0.10328429937362671 0.7478173971176147 0.7539374828338623 
v 0.0909445509314537 0.8215962648391724 0.7689233422279358 
v 0.10081074386835098 0.7463116645812988 0.7565577626228333 
v 0.0892457365989685 0.8176267147064209 0.7702786326408386 
v 0.09641436487436295 0.7448059916496277 0.7591651082038879 
v 0.10328429937362671 0.658707857131958 0.7470576763153076 
v 0.1065979152917862 0.6573390364646912 0.7434693574905396 
v 0.10546848922967911 0.5936893820762634 0.7484129667282104 
v 0.10847408324480057 0.5902673602104187 0.7449666261672974 
v 0.1016041487455368 0.5560470819473267 0.7610496282577515 
v 0.10391901433467865 0.5513931512832642 0.7588940262794495 
v 0.09934528172016144 0.5607010722160339 0.7632052302360535 
v 0.10224820673465729 0.5971114039421082 0.7518593668937683 
v 0.09871989488601685 0.6599397659301758 0.7506331205368042 
v 0.10123078525066376 0.7471329569816589 0.7557187676429749 
v 0.08959110081195831 0.8237863183021545 0.7684973478317261 
v 0.10317228734493256 0.7489124536514282 0.7531630396842957 
v 0.08933907747268677 0.8283033967018127 0.7671808004379272 
v 0.10038137435913086 0.5481079816818237 0.7582615613937378 
v 0.10021336376667023 0.553446352481842 0.760352611541748 
v 0.1052631363272667 0.5878034830093384 0.74394690990448 
v 0.10446973145008087 0.5917730331420898 0.7473029494285583 
v 0.10521646589040756 0.656517744064331 0.7424108982086182 
v 0.10322829335927963 0.6580234169960022 0.7459089159965515 
v 0.5677040219306946 2.782780170440674 -0.5769315361976624 
v -0.5673331022262573 2.782780170440674 -0.5769315361976624 
v 0.4700663983821869 3.110370397567749 -0.6400273442268372 
v -0.469695508480072 3.110370397567749 -0.6400273442268372 
v 0.5677040219306946 2.782780170440674 -0.5769315361976624 
v 0.5677040219306946 2.673583507537842 -0.5874475240707397 
v -0.5673331022262573 2.782780170440674 -0.5769315361976624 
v -0.5673331022262573 2.673583507537842 -0.5874475240707397 
v 0.5677040219306946 2.673583507537842 -0.5874475240707397 
v 0.7629792094230652 1.800009846687317 -0.6340181827545166 
v -0.5673331022262573 2.673583507537842 -0.5874475240707397 
v -0.7626082897186279 1.800009846687317 -0.6340181827545166 
v 0.775183916091919 1.072031855583191 -0.6490409970283508 
v -0.7748129963874817 1.072031855583191 -0.6490409970283508 
v 0.7507745027542114 0.4896495044231415 -0.579936146736145 
v -0.7504035830497742 0.4896495044231415 -0.579936146736145 
v 0.775183916091919 -0.3475252091884613 -0.4988130033016205 
v -0.7748129963874817 -0.3475252091884613 -0.4988130033016205 
v 0.28699588775634766 -1.5122900009155273 -0.4582514464855194 
v -0.2866249978542328 -1.5122900009155273 -0.4582514464855194 
v 0.09707708656787872 0.5456439852714539 0.757267951965332 
v 0.10224820673465729 0.5860238671302795 0.7423595786094666 
v 0.09914927184581757 0.5459177494049072 0.7573969960212708 
v 0.10423637926578522 0.5861607789993286 0.7425660490989685 
v 0.10038138180971146 0.5481078624725342 0.7582618594169617 
v 0.1052631363272667 0.5878033638000488 0.7439472079277039 
v 0.10471242666244507 0.6558331847190857 0.7409655451774597 
v 0.10521646589040756 0.6565176248550415 0.742411196231842 
v 0.10285492986440659 0.749733567237854 0.7521177530288696 
v 0.10134279727935791 0.749733567237854 0.7519629001617432 
v 0.08615613728761673 0.8304933905601501 0.7665615081787109 
v 0.0880509689450264 0.8302196264266968 0.7666389346122742 
v 0.08933907747268677 0.8283032774925232 0.7671810388565063 
v 0.10317228734493256 0.7489122748374939 0.7531632781028748 
v 0.10305094718933105 0.6556963324546814 0.740759015083313 
v 0.05083024501800537 -1.071008324623108 0.2486010044813156 
v -0.036706194281578064 -1.0710891485214233 0.24965767562389374 
v 0.050839249044656754 -1.0703011751174927 0.2492792159318924 
v -0.03669719025492668 -1.070381999015808 0.25033214688301086 
v 0.050929296761751175 -1.0703415870666504 0.2563799023628235 
v -0.03661614656448364 -1.0704425573349 0.2574365735054016 
v 0.05093830078840256 -1.0710690021514893 0.2570468783378601 
v -0.03660714253783226 -1.0711498260498047 0.2580997943878174 
v 0.0644456148147583 -1.069630742073059 0.2978532314300537 
v 0.06443661451339722 -1.0703378915786743 0.2971787452697754 
v -0.052752893418073654 -1.0697519779205322 0.2992621064186096 
v -0.052761901170015335 -1.0704591274261475 0.2985876500606537 
v -0.05266284570097923 -1.0698126554489136 0.30636653304100037 
v -0.05265384167432785 -1.0705198049545288 0.307033509016037 
v 0.06453566998243332 -1.0696914196014404 0.30495765805244446 
v 0.0645446702837944 -1.0703985691070557 0.30562087893486023 
v 0.04395050182938576 -1.0696285963058472 0.20882299542427063 
v -0.03022269532084465 -1.0697094202041626 0.20971480011940002 
v 0.04395050182938576 -1.0689011812210083 0.20951995253562927 
v -0.03022269532084465 -1.0689820051193237 0.21041175723075867 
v 0.04404054954648018 -1.0689617395401 0.21681173145771027 
v -0.03013264574110508 -1.0690224170684814 0.21770353615283966 
v 0.04404955357313156 -1.069689154624939 0.2174936980009079 
v -0.030123641714453697 -1.0697699785232544 0.2183855026960373 
v -0.030222700908780098 -1.0689793825149536 0.21041154861450195 
v -0.030177675187587738 -1.0689996480941772 0.21405743062496185 
v 0.04395049810409546 -1.0688985586166382 0.20951974391937256 
v 0.04399552196264267 -1.0689188241958618 0.21316564083099365 
v -0.030132651329040527 -1.0690197944641113 0.21770332753658295 
v 0.04404054582118988 -1.0689592361450195 0.21681152284145355 
v -0.03669719398021698 -1.070379376411438 0.25033268332481384 
v -0.03666117414832115 -1.0704197883605957 0.253884881734848 
v 0.05083924159407616 -1.0702985525131226 0.24927975237369537 
v 0.050884269177913666 -1.0703188180923462 0.2528282105922699 
v -0.03661615028977394 -1.0704400539398193 0.2574371099472046 
v 0.050929293036460876 -1.0703389644622803 0.25638043880462646 
vn 0.18767400085926056 0.9822095036506653 0.006554040592163801 
vn -0.18766683340072632 0.9821720123291016 0.010923261754214764 
vn 0.18767400085926056 0.9822095036506653 0.006554040592163801 
vn -0.18766683340072632 0.9821720123291016 0.010923261754214764 
vn 0.18767757713794708 0.9822282791137695 0.002184694167226553 
vn -0.18766683340072632 0.9821720123291016 0.010923261754214764 
vn -0.7225069403648376 -0.45414024591445923 0.5212872624397278 
vn -0.5730047225952148 -0.1746811866760254 0.8007197380065918 
vn -0.9565695524215698 -0.16526229679584503 0.2401314377784729 
vn -0.9351131916046143 -0.03395548090338707 0.3527185618877411 
vn -0.5497302412986755 0.056390535086393356 0.8334367275238037 
vn -0.9070448279380798 0.05653735622763634 0.417220801115036 
vn -0.5191999077796936 0.16671882569789886 0.838234007358551 
vn -0.8240228891372681 0.11657083034515381 0.5544344186782837 
vn -0.8859511613845825 0.2458481788635254 0.3932546079158783 
vn -0.5018425583839417 0.638791561126709 0.5831804275512695 
vn -0.9290355443954468 0.23915965855121613 -0.28230419754981995 
vn -0.48820510506629944 0.54559326171875 -0.681163489818573 
vn -0.46766355633735657 0.19883106648921967 -0.8612531423568726 
vn -0.8402596116065979 0.13537821173667908 -0.5250110030174255 
vn 0.2866467833518982 0.5417850017547607 -0.790128231048584 
vn 0.24250242114067078 0.16402649879455566 -0.9561840295791626 
vn 0.9836047291755676 0 -0.18033768236637115 
vn 0.9917558431625366 0.04529576003551483 -0.11986933648586273 
vn 0.7907372713088989 0.09791449457406998 -0.6042742133140564 
vn 0.8782860040664673 0.30403831601142883 -0.3690181374549866 
vn 0.8671825528144836 0.2239007204771042 0.44481781125068665 
vn 0.9868481159210205 0.03018239513039589 0.15880759060382843 
vn 0.7835987210273743 0.09032373875379562 0.6146662831306458 
vn 0.3527754843235016 0.32219621539115906 0.8784868121147156 
vn 0.7451558113098145 0.08273989707231522 0.661737859249115 
vn -0.4432370662689209 0.1008898988366127 0.8907088041305542 
vn 0.17507325112819672 -0.08668428659439087 0.9807319641113281 
vn 0.15899115800857544 -0.4747133255004883 0.865661084651947 
vn 0.15046414732933044 -0.9886130690574646 -0.002184694167226553 
vn -0.969104528427124 -0.2466406375169754 0.002184694167226553 
vn -0.9579862356185913 -0.16913193464279175 -0.23163928091526031 
vn -0.6136385202407837 -0.5762448906898499 -0.5398051738739014 
vn -0.515047013759613 -0.8468007445335388 0.1328723281621933 
vn 0.1489391177892685 -0.4779624044895172 -0.865661084651947 
vn 0.9963736534118652 -0.04528705030679703 -0.07203252613544464 
vn 0.9965491890907288 -0.08297525346279144 -0.002184694167226553 
vn 0.9222667217254639 -0.21714343130588531 -0.3198012113571167 
vn 0.9179922342300415 -0.3965924084186554 -0.002184694167226553 
vn 0.9237452149391174 -0.216920867562294 0.31565824151039124 
vn 0.9963070154190063 -0.05284449830651283 0.06767380982637405 
vn 0.9949134588241577 -0.022653281688690186 0.0981530249118805 
vn 0.9962579607963562 -0.015102901495993137 0.08510008454322815 
vn 0.9858840703964233 0 0.16742929816246033 
vn 0.910494327545166 0.015095854178071022 0.41324591636657715 
vn 0.8891184329986572 -0.06780049204826355 0.45262736082077026 
vn -1.0340933296291988e-13 0.9999785423278809 0.006554040592163801 
vn -1.0340933296291988e-13 0.9999785423278809 0.006554040592163801 
vn -1.0340933296291988e-13 0.9999785423278809 0.006554040592163801 
vn -1.0340933296291988e-13 0.9999785423278809 0.006554040592163801 
vn -1.0340933296291988e-13 0.9999785423278809 0.006554040592163801 
vn -1.0340933296291988e-13 0.9999785423278809 0.006554040592163801 
vn -1.0340933296291988e-13 0.9999785423278809 0.006554040592163801 
vn -1.0340933296291988e-13 0.9999785423278809 0.006554040592163801 
vn -1.0340933296291988e-13 0.9999785423278809 0.006554040592163801 
vn -1.0340933296291988e-13 0.9999785423278809 0.006554040592163801 
vn -1.0340933296291988e-13 0.9999785423278809 0.006554040592163801 
vn -1.0340933296291988e-13 0.9999785423278809 0.006554040592163801 
vn -1.0340933296291988e-13 0.9999785423278809 0.006554040592163801 
vn -1.0340933296291988e-13 0.9999785423278809 0.006554040592163801 
vn -1.0340933296291988e-13 0.9999785423278809 0.006554040592163801 
vn -1.0340933296291988e-13 0.9999785423278809 0.006554040592163801 
vn -1.0340933296291988e-13 0.9999785423278809 0.006554040592163801 
vn -1.0340933296291988e-13 0.9999785423278809 0.006554040592163801 
vn -1.0340933296291988e-13 0.9999785423278809 0.006554040592163801 
vn -1.0340933296291988e-13 0.9999785423278809 0.006554040592163801 
vn -1.0340933296291988e-13 0.9999785423278809 0.006554040592163801 
vn -1.0340933296291988e-13 0.9999785423278809 0.006554040592163801 
vn -1.0340933296291988e-13 0.9999785423278809 0.006554040592163801 
vn -1.0340933296291988e-13 0.9999785423278809 0.006554040592163801 
vn -1.0340933296291988e-13 0.9999785423278809 0.006554040592163801 
vn -1.0340933296291988e-13 0.9999785423278809 0.006554040592163801 
vn -1.0340933296291988e-13 0.9999785423278809 0.006554040592163801 
vn -1.0340933296291988e-13 0.9999785423278809 0.006554040592163801 
vn -1.0340933296291988e-13 0.9999785423278809 0.006554040592163801 
vn -1.0340933296291988e-13 0.9999785423278809 0.006554040592163801 
vn -1.0340933296291988e-13 0.9999785423278809 0.006554040592163801 
vn -1.0340933296291988e-13 0.9999785423278809 0.006554040592163801 
vn 0.9222667217254639 -0.21714343130588531 -0.3198012113571167 
vn 0.9179922342300415 -0.3965924084186554 -0.002184694167226553 
vn 0.5226859450340271 -0.529360294342041 -0.6682642698287964 
vn 0.4377666711807251 -0.8990859389305115 -0.002184694167226553 
vn 0.1463657021522522 -0.7382501363754272 -0.6584556698799133 
vn 0.16537824273109436 -0.986227810382843 -0.002184694167226553 
vn 0.14798440039157867 -0.7379273772239685 0.6584556698799133 
vn 0.5233615040779114 -0.528692364692688 0.6682642698287964 
vn 0.11085980385541916 -0.2295837104320526 0.9669547080993652 
vn 0.44209524989128113 -0.14800021052360535 0.8846737742424011 
vn 0.08518357574939728 0.08122237771749496 0.9930492043495178 
vn 0.46621230244636536 0.06011141836643219 0.882628321647644 
vn 0.8891184329986572 -0.06780049204826355 0.45262736082077026 
vn 0.910494327545166 0.015095854178071022 0.41324591636657715 
vn 0.7835987210273743 0.09032373875379562 0.6146662831306458 
vn 0.2680271863937378 0.17062854766845703 0.9481810927391052 
vn 0.8671825528144836 0.2239007204771042 0.44481781125068665 
vn 0.4919320344924927 0.5771392583847046 0.651853621006012 
vn 0.05739106237888336 0.19121450185775757 0.97986900806427 
vn 0.14643527567386627 0.8835688233375549 0.44481781125068665 
vn 0.39394888281822205 0.7075018882751465 -0.5867242813110352 
vn 0.13896562159061432 0.7977738976478577 -0.5867242813110352 
vn 0.06539959460496902 0.21110087633132935 -0.9752739667892456 
vn 0.33471107482910156 0.19469965994358063 -0.9219872951507568 
vn 0.8782860040664673 0.30403831601142883 -0.3690181374549866 
vn 0.9237452149391174 -0.216920867562294 0.31565824151039124 
vn 0.7907372713088989 0.09791449457406998 -0.6042742133140564 
vn -0.46766355633735657 0.19883106648921967 -0.8612531423568726 
vn -0.5045836567878723 0.1381363868713379 -0.8522403836250305 
vn -0.8402596116065979 0.13537821173667908 -0.5250110030174255 
vn -0.8894463181495667 0.08677223324775696 -0.4487268626689911 
vn 0.24250242114067078 0.16402649879455566 -0.9561840295791626 
vn -0.46156856417655945 0.12335075438022614 -0.8784868121147156 
vn -0.9220590591430664 0.03773894160985947 -0.3852050006389618 
vn -0.6252787709236145 0.04153518006205559 -0.7792953848838806 
vn -0.9391800165176392 -0.04531164467334747 -0.34042292833328247 
vn -0.5768182277679443 -0.18583084642887115 -0.7954543828964233 
vn -0.9579862356185913 -0.16913193464279175 -0.23163928091526031 
vn -0.6136385202407837 -0.5762448906898499 -0.5398051738739014 
vn 0.1489391177892685 -0.4779624044895172 -0.865661084651947 
vn 0.1632193624973297 -0.10735105723142624 -0.9807319641113281 
vn 0.8046286702156067 0 -0.5937783122062683 
vn 0.9936845302581787 -0.015100325457751751 -0.1111890971660614 
vn 0.9836047291755676 0 -0.18033768236637115 
vn 0.8909006118774414 0.03774286434054375 -0.45262736082077026 
vn 0.7907372713088989 0.09791449457406998 -0.6042742133140564 
vn 0.9222667217254639 -0.21714343130588531 -0.3198012113571167 
vn 0.9963736534118652 -0.04528705030679703 -0.07203252613544464 
vn 0.892437756061554 -0.07544542849063873 -0.44481781125068665 
vn 0.9949134588241577 -0.022653281688690186 -0.0981530249118805 
vn 0.8666210770606995 0.015105942264199257 -0.4987381398677826 
vn 0.99318927526474 -0.015092799440026283 -0.11553031951189041 
vn -2.0682311115474694e-13 0 -1 
vn -2.0682311115474694e-13 0 -1 
vn -2.0682311115474694e-13 0 -1 
vn -2.0682311115474694e-13 0 -1 
vn 0.0018979120068252087 0.12202323973178864 -0.9925254583358765 
vn 0.0018979120068252087 0.12202323973178864 -0.9925254583358765 
vn 0.0018979120068252087 0.12202323973178864 -0.9925254583358765 
vn 0.0018979120068252087 0.12202323973178864 -0.9925254583358765 
vn 0.0040505328215658665 -0.012466258369386196 -0.9999141097068787 
vn 1.2214145642705336e-14 -0.0393143892288208 -0.9992268681526184 
vn 0.0040505328215658665 -0.012466258369386196 -0.9999141097068787 
vn 1.2214145642705336e-14 -0.0393143892288208 -0.9992268681526184 
vn 1.3531657111281407e-14 -0.043680015951395035 -0.9990455508232117 
vn 1.3531657111281407e-14 -0.043680015951395035 -0.9990455508232117 
vn 0.001958925975486636 -0.02614004909992218 -0.9996563792228699 
vn 0.001958925975486636 -0.02614004909992218 -0.9996563792228699 
vn 1.488382747399323e-14 -0.048044804483652115 -0.9988451600074768 
vn 1.488382747399323e-14 -0.048044804483652115 -0.9988451600074768 
vn 2.8385652931905286e-14 -0.09162852168083191 -0.9957932829856873 
vn 2.8385652931905286e-14 -0.09162852168083191 -0.9957932829856873 
vn 0.1463657021522522 -0.7382501363754272 -0.6584556698799133 
vn 0.11366473883390427 -0.2422613948583603 -0.9635298252105713 
vn 0.5226859450340271 -0.529360294342041 -0.6682642698287964 
vn 0.44759541749954224 -0.15576250851154327 -0.8805659413337708 
vn 0.9222667217254639 -0.21714343130588531 -0.3198012113571167 
vn 0.892437756061554 -0.07544542849063873 -0.44481781125068665 
vn 0.40952160954475403 0.03772459179162979 -0.9115201234817505 
vn 0.8666210770606995 0.015105942264199257 -0.4987381398677826 
vn 0.3829481303691864 0.12641562521457672 -0.9150791168212891 
vn 0.08803906291723251 0.13475380837917328 -0.986960232257843 
vn 0.06539959460496902 0.21110087633132935 -0.9752739667892456 
vn 0.33471107482910156 0.19469965994358063 -0.9219872951507568 
vn 0.7907372713088989 0.09791449457406998 -0.6042742133140564 
vn 0.8909006118774414 0.03774286434054375 -0.45262736082077026 
vn 0.09775081276893616 0.02258920483291149 -0.994954526424408 
vn 0.07334887236356735 0.46431371569633484 -0.882628321647644 
vn -0.09575556218624115 0.46807244420051575 -0.8784868121147156 
vn 0.10916195064783096 0.6868051886558533 -0.7185974717140198 
vn -0.12584741413593292 0.6871300935745239 -0.715552031993866 
vn 0.12378928810358047 0.6779106259346008 0.7246471047401428 
vn -0.10507259517908096 0.6778520941734314 0.7276512384414673 
vn 0.09519696980714798 0.4484694302082062 0.888714075088501 
vn -0.07687363028526306 0.4480271339416504 0.8907088041305542 
vn 0.10916195064783096 0.6868051886558533 -0.7185974717140198 
vn 0.07334887236356735 0.46431371569633484 -0.882628321647644 
vn -0.12584741413593292 0.6871300935745239 -0.715552031993866 
vn -0.09575556218624115 0.46807244420051575 -0.8784868121147156 
vn -0.10507259517908096 0.6778520941734314 0.7276512384414673 
vn -0.07672901451587677 0.45199552178382874 0.888714075088501 
vn 0.12378928810358047 0.6779106259346008 0.7246471047401428 
vn 0.09342515468597412 0.4528030455112457 0.8867024183273315 
vn 0.07152420282363892 0.46849533915519714 -0.8805659413337708 
vn -0.09575556218624115 0.46807244420051575 -0.8784868121147156 
vn 0.10916195064783096 0.6868051886558533 -0.7185974717140198 
vn -0.12584741413593292 0.6871300935745239 -0.715552031993866 
vn 0.12378928810358047 0.6779106259346008 0.7246471047401428 
vn -0.10891956090927124 0.6804580092430115 0.7246471047401428 
vn 0.09342515468597412 0.4528030455112457 0.8867024183273315 
vn -0.07672901451587677 0.45199552178382874 0.888714075088501 
vn -0.18766683340072632 0.9821720123291016 0.010923261754214764 
vn -0.18766683340072632 0.9821720123291016 0.010923261754214764 
vn 0.18767400085926056 0.9822095036506653 0.006554040592163801 
vn 0.18767400085926056 0.9822095036506653 0.006554040592163801 
vn -0.18766683340072632 0.9821720123291016 0.010923261754214764 
vn 0.18767757713794708 0.9822282791137695 0.002184694167226553 
vn -0.18766683340072632 0.9821720123291016 0.010923261754214764 
vn -0.18766683340072632 0.9821720123291016 0.010923261754214764 
vn 0.18767400085926056 0.9822095036506653 0.006554040592163801 
vn 0.18767400085926056 0.9822095036506653 0.006554040592163801 
vn -0.18766683340072632 0.9821720123291016 0.010923261754214764 
vn 0.18767757713794708 0.9822282791137695 0.002184694167226553 
s on 
f 1//1 2//2 3//3 
f 2//2 4//4 3//3 
f 3//3 4//4 5//5 
f 4//4 6//6 5//5 
f 5//5 6//6 6//6 
f 6//6 7//7 6//6 
f 6//6 7//7 7//7 
f 7//7 8//8 7//7 
f 7//7 8//8 9//9 
f 8//8 8//8 9//9 
f 9//9 8//8 10//10 
f 8//8 11//11 10//10 
f 10//10 11//11 12//12 
f 11//11 13//13 12//12 
f 12//12 13//13 14//14 
f 13//13 13//13 14//14 
f 14//14 13//13 15//15 
f 13//13 16//16 15//15 
f 15//15 16//16 17//17 
f 16//16 18//18 17//17 
f 17//17 18//18 17//17 
f 18//18 19//19 17//17 
f 17//17 19//19 17//17 
f 19//19 20//20 17//17 
f 17//17 20//20 21//21 
f 20//20 22//22 21//21 
f 21//21 22//22 21//21 
f 22//22 23//23 21//21 
f 21//21 23//23 24//24 
f 23//23 25//25 24//24 
f 24//24 25//25 24//24 
f 25//25 26//26 24//24 
f 24//24 26//26 24//24 
f 26//26 27//27 24//24 
f 24//24 27//27 28//28 
f 27//27 29//29 28//28 
f 28//28 29//29 29//29 
f 29//29 17//17 29//29 
f 29//29 17//17 17//17 
f 17//17 21//21 17//17 
f 17//17 21//21 15//15 
f 21//21 30//30 15//15 
f 15//15 30//30 14//14 
f 30//30 31//31 14//14 
f 14//14 31//31 14//14 
f 31//31 32//32 14//14 
f 14//14 32//32 12//12 
f 32//32 33//33 12//12 
f 12//12 33//33 10//10 
f 33//33 34//34 10//10 
f 10//10 34//34 9//9 
f 34//34 35//35 9//9 
f 9//9 35//35 36//36 
f 35//35 37//37 36//36 
f 36//36 37//37 36//36 
f 37//37 38//38 36//36 
f 36//36 38//38 36//36 
f 38//38 39//39 36//36 
f 36//36 39//39 36//36 
f 39//39 7//7 36//36 
f 36//36 7//7 9//9 
f 7//7 9//9 9//9 
f 9//9 9//9 24//24 
f 9//9 24//24 24//24 
f 24//24 24//24 21//21 
f 24//24 28//28 21//21 
f 21//21 28//28 30//30 
f 28//28 30//30 30//30 
f 30//30 30//30 37//37 
f 30//30 37//37 37//37 
f 37//37 37//37 40//40 
f 37//37 35//35 40//40 
f 40//40 35//35 41//41 
f 35//35 42//42 41//41 
f 41//41 42//42 43//43 
f 42//42 42//42 43//43 
f 43//43 42//42 44//44 
f 42//42 42//42 44//44 
f 44//44 42//42 45//45 
f 42//42 42//42 45//45 
f 45//45 42//42 46//46 
f 42//42 35//35 46//46 
f 46//46 35//35 46//46 
f 35//35 34//34 46//46 
f 46//46 34//34 47//47 
f 34//34 33//33 47//47 
f 47//47 33//33 48//48 
f 33//33 32//32 48//48 
f 48//48 32//32 48//48 
f 32//32 31//31 48//48 
f 48//48 31//31 49//49 
f 31//31 30//30 49//49 
f 49//49 30//30 49//49 
f 30//30 28//28 49//49 
f 49//49 28//28 49//49 
f 28//28 29//29 49//49 
f 49//49 29//29 49//49 
f 29//29 50//50 49//49 
f 49//49 50//50 48//48 
f 50//50 50//50 48//48 
f 48//48 50//50 47//47 
f 50//50 51//51 47//47 
f 47//47 51//51 46//46 
f 51//51 45//45 46//46 
f 46//46 45//45 45//45 
f 45//45 52//52 45//45 
f 45//45 52//52 52//52 
f 52//52 53//53 52//52 
f 52//52 53//53 54//54 
f 53//53 53//53 54//54 
f 54//54 53//53 55//55 
f 53//53 56//56 55//55 
f 55//55 56//56 57//57 
f 56//56 58//58 57//57 
f 57//57 58//58 59//59 
f 58//58 60//60 59//59 
f 59//59 60//60 61//61 
f 60//60 62//62 61//61 
f 61//61 62//62 63//63 
f 62//62 64//64 63//63 
f 63//63 64//64 65//65 
f 64//64 66//66 65//65 
f 65//65 66//66 67//67 
f 66//66 68//68 67//67 
f 67//67 68//68 69//69 
f 68//68 70//70 69//69 
f 69//69 70//70 71//71 
f 70//70 72//72 71//71 
f 71//71 72//72 73//73 
f 72//72 74//74 73//73 
f 73//73 74//74 75//75 
f 74//74 76//76 75//75 
f 75//75 76//76 77//77 
f 76//76 78//78 77//77 
f 77//77 78//78 79//79 
f 78//78 80//80 79//79 
f 79//79 80//80 81//81 
f 80//80 82//82 81//81 
f 81//81 82//82 83//83 
f 82//82 83//83 83//83 
f 83//83 83//83 84//84 
f 83//83 84//84 84//84 
f 84//84 84//84 84//84 
f 84//84 85//85 84//84 
f 84//84 85//85 86//86 
f 85//85 87//87 86//86 
f 86//86 87//87 88//88 
f 87//87 87//87 88//88 
f 88//88 87//87 89//89 
f 87//87 87//87 89//89 
f 89//89 87//87 90//90 
f 87//87 91//91 90//90 
f 90//90 91//91 92//92 
f 91//91 93//93 92//92 
f 92//92 93//93 94//94 
f 93//93 93//93 94//94 
f 94//94 93//93 95//95 
f 93//93 96//96 95//95 
f 95//95 96//96 95//95 
f 96//96 97//97 95//95 
f 95//95 97//97 95//95 
f 97//97 98//98 95//95 
f 95//95 98//98 99//99 
f 98//98 100//100 99//99 
f 99//99 100//100 99//99 
f 100//100 101//101 99//99 
f 99//99 101//101 102//102 
f 101//101 101//101 102//102 
f 102//102 101//101 103//103 
f 101//101 104//104 103//103 
f 103//103 104//104 105//105 
f 104//104 104//104 105//105 
f 105//105 104//104 106//106 
f 104//104 104//104 106//106 
f 106//106 104//104 107//107 
f 104//104 104//104 107//107 
f 107//107 104//104 108//108 
f 104//104 101//101 108//108 
f 108//108 101//101 101//101 
f 101//101 96//96 101//101 
f 101//101 96//96 96//96 
f 96//96 93//93 96//96 
f 96//96 93//93 109//109 
f 93//93 91//91 109//109 
f 109//109 91//91 85//85 
f 91//91 87//87 85//85 
f 85//85 87//87 87//87 
f 87//87 95//95 87//87 
f 87//87 95//95 95//95 
f 95//95 99//99 95//95 
f 95//95 99//99 94//94 
f 99//99 102//102 94//94 
f 94//94 102//102 102//102 
f 102//102 108//108 102//102 
f 102//102 108//108 108//108 
f 108//108 110//110 108//108 
f 108//108 110//110 107//107 
f 110//110 107//107 107//107 
f 107//107 107//107 100//100 
f 107//107 100//100 100//100 
f 100//100 100//100 101//101 
f 100//100 108//108 101//101 
f 101//101 108//108 108//108 
f 108//108 111//111 108//108 
f 108//108 111//111 111//111 
f 111//111 112//112 111//111 
f 111//111 112//112 113//113 
f 112//112 114//114 113//113 
f 113//113 114//114 115//115 
f 114//114 114//114 115//115 
f 115//115 114//114 116//116 
f 114//114 114//114 116//116 
f 116//116 114//114 117//117 
f 114//114 118//118 117//117 
f 117//117 118//118 119//119 
f 118//118 120//120 119//119 
f 119//119 120//120 121//121 
f 120//120 122//122 121//121 
f 121//121 122//122 122//122 
f 122//122 112//112 122//122 
f 122//122 112//112 112//112 
f 112//112 118//118 112//112 
f 112//112 118//118 114//114 
f 118//118 114//114 114//114 
f 114//114 114//114 121//121 
f 114//114 121//121 121//121 
f 121//121 121//121 119//119 
f 121//121 123//123 119//119 
f 119//119 123//123 119//119 
f 123//123 124//124 119//119 
f 119//119 124//124 117//117 
f 124//124 125//125 117//117 
f 117//117 125//125 116//116 
f 125//125 126//126 116//116 
f 116//116 126//126 115//115 
f 126//126 126//126 115//115 
f 115//115 126//126 127//127 
f 126//126 128//128 127//127 
f 127//127 128//128 129//129 
f 128//128 129//129 129//129 
f 129//129 129//129 130//130 
f 129//129 130//130 130//130 
f 130//130 130//130 131//131 
f 130//130 132//132 131//131 
f 131//131 132//132 133//133 
f 132//132 134//134 133//133 
f 133//133 134//134 135//135 
f 134//134 128//128 135//135 
f 135//135 128//128 135//135 
f 128//128 126//126 135//135 
f 135//135 126//126 135//135 
f 126//126 125//125 135//135 
f 135//135 125//125 135//135 
f 125//125 124//124 135//135 
f 135//135 124//124 133//133 
f 124//124 123//123 133//133 
f 133//133 123//123 131//131 
f 123//123 131//131 131//131 
f 131//131 131//131 136//136 
f 131//131 136//136 136//136 
f 136//136 136//136 136//136 
f 136//136 137//137 136//136 
f 136//136 137//137 138//138 
f 137//137 139//139 138//138 
f 138//138 139//139 139//139 
f 139//139 140//140 139//139 
f 139//139 140//140 140//140 
f 140//140 141//141 140//140 
f 140//140 141//141 142//142 
f 141//141 143//143 142//142 
f 142//142 143//143 143//143 
f 143//143 144//144 143//143 
f 143//143 144//144 144//144 
f 144//144 145//145 144//144 
f 144//144 145//145 146//146 
f 145//145 145//145 146//146 
f 146//146 145//145 147//147 
f 145//145 148//148 147//147 
f 147//147 148//148 149//149 
f 148//148 150//150 149//149 
f 149//149 150//150 151//151 
f 150//150 152//152 151//151 
f 151//151 152//152 153//153 
f 152//152 154//154 153//153 
f 153//153 154//154 155//155 
f 154//154 155//155 155//155 
f 155//155 155//155 156//156 
f 155//155 156//156 156//156 
f 156//156 156//156 156//156 
f 156//156 157//157 156//156 
f 156//156 157//157 158//158 
f 157//157 159//159 158//158 
f 158//158 159//159 160//160 
f 159//159 159//159 160//160 
f 160//160 159//159 161//161 
f 159//159 162//162 161//161 
f 161//161 162//162 163//163 
f 162//162 162//162 163//163 
f 163//163 162//162 164//164 
f 162//162 165//165 164//164 
f 164//164 165//165 164//164 
f 165//165 166//166 164//164 
f 164//164 166//166 164//164 
f 166//166 167//167 164//164 
f 164//164 167//167 164//164 
f 167//167 168//168 164//164 
f 164//164 168//168 164//164 
f 168//168 169//169 164//164 
f 164//164 169//169 163//163 
f 169//169 163//163 163//163 
f 163//163 163//163 157//157 
f 163//163 157//157 157//157 
f 157//157 157//157 159//159 
f 157//157 170//170 159//159 
f 159//159 170//170 162//162 
f 170//170 165//165 162//162 
f 162//162 165//165 165//165 
f 165//165 171//171 165//165 
f 165//165 171//171 171//171 
f 171//171 172//172 171//171 
f 171//171 172//172 173//173 
f 172//172 174//174 173//173 
f 173//173 174//174 174//174 
f 174//174 175//175 174//174 
f 174//174 175//175 175//175 
f 175//175 176//176 175//175 
f 175//175 176//176 177//177 
f 176//176 178//178 177//177 
f 177//177 178//178 178//178 
f 178//178 179//179 178//178 
f 178//178 179//179 179//179 
f 179//179 180//180 179//179 
f 179//179 180//180 181//181 
f 180//180 182//182 181//181 
f 181//181 182//182 182//182 
f 182//182 183//183 182//182 
f 182//182 183//183 183//183 
f 183//183 184//184 183//183 
f 183//183 184//184 185//185 
f 184//184 186//186 185//185 
f 185//185 186//186 186//186 
f 186//186 187//187 186//186 
f 186//186 187//187 187//187 
f 187//187 188//188 187//187 
f 187//187 188//188 189//189 
f 188//188 190//190 189//189 
f 189//189 190//190 190//190 
f 190//190 191//191 190//190 
f 190//190 191//191 191//191 
f 191//191 192//192 191//191 
f 191//191 192//192 193//193 
f 192//192 194//194 193//193 
f 193//193 194//194 194//194 
f 194//194 195//195 194//194 
f 194//194 195//195 195//195 
f 195//195 196//196 195//195 
f 195//195 196//196 197//197 
f 196//196 196//196 197//197 
f 197//197 196//196 198//198 
f 196//196 199//199 198//198 
f 198//198 199//199 200//200 
f 199//199 200//200 200//200 
f 200//200 200//200 201//201 
f 200//200 201//201 201//201 
f 201//201 201//201 201//201 
f 201//201 202//202 201//201 
f 201//201 202//202 203//203 
f 202//202 202//202 203//203 
f 203//203 202//202 204//204 
f 202//202 205//205 204//204 
f 204//204 205//205 206//206 

