mtllib model_4.mtl
o model_4
v 0.027628879994153976 -8.067752838134766 1.3343425989151 
v 0.027628879994153976 -8.054369926452637 1.3343425989151 
v 0.031035352498292923 -8.059127807617188 1.3527171611785889 
v 0.029959624633193016 -7.647826671600342 1.3527171611785889 
v 0.00862435158342123 -7.650205612182617 1.3562171459197998 
v 0.00844506360590458 -7.62284517288208 1.3566546440124512 
v -0.012890207581222057 -7.648123741149902 1.3527171611785889 
v -0.009483736008405685 -8.059425354003906 1.3527171611785889 
v -0.006256551947444677 -8.054666519165039 1.3343425989151 
v -0.006077263969928026 -8.068049430847168 1.3343425989151 
v -0.009483736008405685 -8.072808265686035 1.3527171611785889 
v 0.010775808244943619 -8.061507225036621 1.3562171459197998 
v 0.010775808244943619 -8.07489013671875 1.3562171459197998 
v 0.031035352498292923 -8.072510719299316 1.3527171611785889 
v 0.010775808244943619 -8.069239616394043 1.333030104637146 
v 0.010775808244943619 -8.055856704711914 1.333030104637146 
v 0.00862435158342123 -7.64871883392334 1.333030104637146 
v 0.02655315212905407 -7.647231578826904 1.3343425989151 
v 0.034262534230947495 -7.646934509277344 1.350529670715332 
v 0.02978033572435379 -7.6204657554626465 1.3527171611785889 
v 0.03408324718475342 -7.619573593139648 1.3509671688079834 
v 0.10382627695798874 -7.634146213531494 1.3168429136276245 
v 0.08446317911148071 -7.632361888885498 1.3076555728912354 
v 0.029959624633193016 -7.646339416503906 1.333030104637146 
v 0.029959624633193016 -7.618978977203369 1.333030104637146 
v 0.02655315212905407 -7.619871139526367 1.3343425989151 
v 0.08428388833999634 -7.604703903198242 1.3124680519104004 
v 0.10364699363708496 -7.606488227844238 1.3220927715301514 
v 0.11512142419815063 -7.6005401611328125 1.2875310182571411 
v 0.11530071496963501 -7.628198146820068 1.2827186584472656 
v 0.19113953411579132 -7.494666576385498 0.49173489212989807 
v 0.09593760967254639 -7.626413822174072 1.2735313177108765 
v 0.16299131512641907 -7.494964122772217 0.49173489212989807 
v 0.09575831890106201 -7.598755836486816 1.278343677520752 
v 0.19096024334430695 -7.467008590698242 0.49654728174209595 
v 0.1628120392560959 -7.467008590698242 0.49654728174209595 
v 0.00844506360590458 -7.6213579177856445 1.3334676027297974 
v -0.009483736008405685 -7.647231578826904 1.3343425989151 
v -0.01719311997294426 -7.647231578826904 1.350529670715332 
v -0.013069495558738708 -7.620763301849365 1.3527171611785889 
v 0.007548624183982611 -7.478309631347656 1.357092022895813 
v 0.02798745594918728 -7.476227760314941 1.3531546592712402 
v 0.024580983445048332 -7.471469402313232 1.334779977798462 
v 0.007548624183982611 -7.472956657409668 1.3339051008224487 
v -0.009663023985922337 -7.619871139526367 1.3343425989151 
v -0.012890207581222057 -7.646636962890625 1.333030104637146 
v -0.06757304817438126 -7.632956504821777 1.3076555728912354 
v -0.08693615347146988 -7.635038375854492 1.3168429136276245 
v -0.017372408881783485 -7.619871139526367 1.3509671688079834 
v -0.013069495558738708 -7.618978977203369 1.333030104637146 
v -0.06775233894586563 -7.60559606552124 1.3124680519104004 
v -0.08711543679237366 -7.607677936553955 1.3220927715301514 
v -0.09858987480401993 -7.601729869842529 1.2875310182571411 
v -0.09841058403253555 -7.629387855529785 1.2827186584472656 
v -0.17568370699882507 -7.496748447418213 0.49173489212989807 
v -0.07904747873544693 -7.62730598449707 1.2735313177108765 
v -0.147535502910614 -7.496450901031494 0.49173489212989807 
v -0.1477147787809372 -7.468792915344238 0.49654728174209595 
v -0.0792267695069313 -7.5996479988098145 1.278343677520752 
v -0.17586299777030945 -7.468792915344238 0.49654728174209595 
v -0.012710919603705406 -7.476227760314941 1.3531546592712402 
v 0.007548624183982611 -7.4732537269592285 1.357092022895813 
v 0.027808168902993202 -7.470874786376953 1.3531546592712402 
v 0.024580983445048332 -7.466116428375244 1.334779977798462 
v 0.007548624183982611 -7.4676032066345215 1.3339051008224487 
v -0.012710919603705406 -7.471171855926514 1.3531546592712402 
v -0.009483736008405685 -7.471469402313232 1.334779977798462 
v -0.009483736008405685 -7.466413497924805 1.334779977798462 
v 0.026911728084087372 -7.696897029876709 1.3343425989151 
v 0.008803639560937881 -7.690651893615723 0.4619854986667633 
v 0.008803639560937881 -7.6983842849731445 1.3334676027297974 
v -0.009304448030889034 -7.696897029876709 1.3343425989151 
v 0.03246965631842613 -7.689164638519287 0.46286046504974365 
v 0.026911728084087372 -7.724257946014404 1.3343425989151 
v 0.03264894336462021 -7.716525554656982 0.46286046504974365 
v 0.008982927538454533 -7.725744724273682 1.333030104637146 
v 0.008982927538454533 -7.71801233291626 0.46154800057411194 
v -0.014862376265227795 -7.716822624206543 0.46286046504974365 
v -0.009125160053372383 -7.724555015563965 1.3343425989151 
v -0.015041664242744446 -7.689462184906006 0.46286046504974365 
vn 0.6223044991493225 -0.2649284303188324 -0.736579954624176 
vn 0.669887900352478 0 -0.7424622178077698 
vn 0.8224106431007385 0 0.5688942670822144 
vn 0.654689371585846 -0.21510091423988342 0.7246471047401428 
vn 0.0013502120273187757 -0.0041555254720151424 0.9999904632568359 
vn 0.0015174545114859939 -0.008605912327766418 0.999961793422699 
vn -0.6522956490516663 -0.22225432097911835 0.7246471047401428 
vn -0.8224020004272461 -0.0037717814557254314 0.5688942670822144 
vn -0.6698772311210632 -0.0037782832514494658 -0.7424622178077698 
vn -0.6193037629127502 -0.27186909317970276 -0.736579954624176 
vn -0.5420241355895996 -0.7030217051506042 0.46040233969688416 
vn 0 0 1 
vn 0.0056595769710838795 -0.7914451956748962 0.6112139225006104 
vn 0.5509456992149353 -0.696052074432373 0.46040233969688416 
vn 0.007554909680038691 -0.7887510657310486 -0.6146662831306458 
vn -2.0682311115474694e-13 0 -1 
vn -0.002184688812121749 0.0037839922588318586 -0.9999904632568359 
vn 0.2363751232624054 -0.4018445909023285 -0.8846737742424011 
vn 0.38677674531936646 -0.8056350946426392 0.4487268626689911 
vn 0.4245837926864624 0.18299579620361328 0.8867024183273315 
vn 0.11829429119825363 0.7432648539543152 0.6584556698799133 
vn 0.6848694086074829 -0.545131266117096 0.4835140109062195 
vn -0.46146324276924133 -0.6685448884963989 -0.5831804275512695 
vn -0.22113123536109924 -0.5338580012321472 -0.8161473870277405 
vn -0.43507900834083557 0.5776136517524719 -0.6907016038894653 
vn 0.17913949489593506 0.36575525999069214 -0.913308322429657 
vn -0.3563752770423889 0.9282136559486389 -0.10684575140476227 
vn 0.4790603518486023 0.6266470551490784 0.6146662831306458 
vn 0.7813112139701843 0.5648584365844727 0.26549527049064636 
vn 0.5363036394119263 -0.8433889150619507 -0.03276457265019417 
vn 0.705546498298645 -0.7068814635276794 -0.05022686347365379 
vn -0.6965011954307556 -0.6791386604309082 -0.23163928091526031 
vn -0.7007209658622742 -0.6913759112358093 -0.1760382205247879 
vn -0.6812347173690796 0.7306270599365234 -0.04586252197623253 
vn 0.4456464946269989 0.8750463128089905 0.18892620503902435 
vn -0.8923717141151428 0.4512958228588104 -0.002184694167226553 
vn -0.0019445375073701143 0.00851957593113184 -0.999961793422699 
vn -0.23310527205467224 -0.4037501811981201 -0.8846737742424011 
vn -0.37311482429504395 -0.8120526671409607 0.4487268626689911 
vn -0.4245837926864624 0.18299579620361328 0.8867024183273315 
vn 0 0 1 
vn 0.8248540163040161 0.007544185034930706 0.5652954578399658 
vn 0.6665945649147034 0.007560499478131533 -0.7453821301460266 
vn 2.0682311115474694e-13 4.2775797696334704e-26 -1 
vn -0.1859072893857956 0.36236217617988586 -0.913308322429657 
vn 0.2281002700328827 -0.530917763710022 -0.8161473870277405 
vn 0.46765708923339844 -0.6642269492149353 -0.5831804275512695 
vn -0.6777647137641907 -0.553939700126648 0.4835140109062195 
vn -0.12201692909002304 0.742662787437439 0.6584556698799133 
vn 0.43205374479293823 0.5798799991607666 -0.6907016038894653 
vn 0.352846622467041 0.9295607805252075 -0.10684575140476227 
vn -0.4820513129234314 0.6243491172790527 0.6146662831306458 
vn -0.7878869771957397 0.5556495189666748 0.26549527049064636 
vn -0.5299192070960999 -0.8474149703979492 -0.03276457265019417 
vn -0.6974842548370361 -0.7148377299308777 -0.05022686347365379 
vn 0.7043656706809998 -0.6709786057472229 -0.23163928091526031 
vn 0.7086305022239685 -0.6832666993141174 -0.1760382205247879 
vn 0.8889381885528564 0.45802199840545654 -0.002184694167226553 
vn 0.6729046702384949 0.7383061051368713 -0.04586252197623253 
vn -0.4557110071182251 0.8698473572731018 0.18892620503902435 
vn -0.8248798847198486 0.003772132098674774 0.5652954578399658 
vn -0.005638942122459412 0.40323489904403687 0.9150791168212891 
vn 0.6621925234794617 0.6475160717964172 0.37712597846984863 
vn 0.58040452003479 0.5964336395263672 -0.5544344186782837 
vn -0.003778803162276745 0.791456401348114 -0.6112139225006104 
vn -0.6700581312179565 0.6393731832504272 0.37712597846984863 
vn -0.6666374206542969 -1.3787602515854397e-13 -0.7453821301460266 
vn -0.5857959985733032 0.5911391973495483 -0.5544344186782837 
vn 0.38962626457214355 0.9209082722663879 0.010923261754214764 
vn -0.0075516714714467525 0.9999499917030334 0.006554040592163801 
vn -0.007551383227109909 0.9999118447303772 0.010923261754214764 
vn -0.40349051356315613 0.9149186015129089 0.010923261754214764 
vn 0.8888872265815735 0.45799577236175537 0.010923261754214764 
vn 0.9023662805557251 -0.4309644401073456 0.002184694167226553 
vn 0.49780768156051636 -0.8672626614570618 -0.006554040592163801 
vn 0.0075516714714467525 -0.9999499917030334 -0.006554040592163801 
vn 0.007551383227109909 -0.9999118447303772 -0.010923261754214764 
vn -0.48465242981910706 -0.8746822476387024 -0.006554040592163801 
vn -0.8990859389305115 -0.4377666711807251 0.002184694167226553 
vn -0.8923206329345703 0.4512699842453003 0.010923261754214764 
s on 
f 1//1 2//2 3//3 
f 2//2 4//4 3//3 
f 3//3 4//4 5//5 
f 4//4 6//6 5//5 
f 5//5 6//6 5//5 
f 6//6 7//7 5//5 
f 5//5 7//7 8//8 
f 7//7 9//9 8//8 
f 8//8 9//9 8//8 
f 9//9 10//10 8//8 
f 8//8 10//10 8//8 
f 10//10 11//11 8//8 
f 8//8 11//11 12//12 
f 11//11 13//13 12//12 
f 12//12 13//13 14//14 
f 13//13 15//15 14//14 
f 14//14 15//15 14//14 
f 15//15 1//1 14//14 
f 14//14 1//1 14//14 
f 1//1 3//3 14//14 
f 14//14 3//3 12//12 
f 3//3 5//5 12//12 
f 12//12 5//5 8//8 
f 5//5 8//8 8//8 
f 8//8 8//8 13//13 
f 8//8 13//13 13//13 
f 13//13 13//13 15//15 
f 13//13 11//11 15//15 
f 15//15 11//11 15//15 
f 11//11 10//10 15//15 
f 15//15 10//10 16//16 
f 10//10 9//9 16//16 
f 16//16 9//9 16//16 
f 9//9 17//17 16//16 
f 16//16 17//17 2//2 
f 17//17 18//18 2//2 
f 2//2 18//18 4//4 
f 18//18 19//19 4//4 
f 4//4 19//19 20//20 
f 19//19 19//19 20//20 
f 20//20 19//19 21//21 
f 19//19 19//19 21//21 
f 21//21 19//19 22//22 
f 19//19 19//19 22//22 
f 22//22 19//19 23//23 
f 19//19 24//24 23//23 
f 23//23 24//24 25//25 
f 24//24 26//26 25//25 
f 25//25 26//26 21//21 
f 26//26 20//20 21//21 
f 21//21 20//20 20//20 
f 20//20 4//4 20//20 
f 20//20 4//4 4//4 
f 4//4 20//20 4//4 
f 4//4 20//20 6//6 
f 20//20 6//6 6//6 
f 6//6 6//6 15//15 
f 6//6 15//15 15//15 
f 15//15 15//15 1//1 
f 15//15 16//16 1//1 
f 1//1 16//16 2//2 
f 16//16 2//2 2//2 
f 2//2 2//2 19//19 
f 2//2 19//19 19//19 
f 19//19 19//19 24//24 
f 19//19 18//18 24//24 
f 24//24 18//18 26//26 
f 18//18 26//26 26//26 
f 26//26 26//26 21//21 
f 26//26 21//21 21//21 
f 21//21 21//21 25//25 
f 21//21 27//27 25//25 
f 25//25 27//27 23//23 
f 27//27 23//23 23//23 
f 23//23 23//23 27//27 
f 23//23 27//27 27//27 
f 27//27 27//27 28//28 
f 27//27 21//21 28//28 
f 28//28 21//21 28//28 
f 21//21 22//22 28//28 
f 28//28 22//22 29//29 
f 22//22 30//30 29//29 
f 29//29 30//30 31//31 
f 30//30 32//32 31//31 
f 31//31 32//32 33//33 
f 32//32 33//33 33//33 
f 33//33 33//33 28//28 
f 33//33 28//28 28//28 
f 28//28 28//28 27//27 
f 28//28 29//29 27//27 
f 27//27 29//29 34//34 
f 29//29 29//29 34//34 
f 34//34 29//29 35//35 
f 29//29 31//31 35//35 
f 35//35 31//31 31//31 
f 31//31 22//22 31//31 
f 31//31 22//22 22//22 
f 22//22 23//23 22//22 
f 22//22 23//23 30//30 
f 23//23 23//23 30//30 
f 30//30 23//23 32//32 
f 23//23 34//34 32//32 
f 32//32 34//34 36//36 
f 34//34 35//35 36//36 
f 36//36 35//35 35//35 
f 35//35 23//23 35//35 
f 35//35 23//23 23//23 
f 23//23 27//27 23//23 
f 23//23 27//27 34//34 
f 27//27 34//34 34//34 
f 34//34 34//34 33//33 
f 34//34 33//33 33//33 
f 33//33 33//33 36//36 
f 33//33 32//32 36//36 
f 36//36 32//32 32//32 
f 32//32 26//26 32//32 
f 32//32 26//26 26//26 
f 26//26 18//18 26//26 
f 26//26 18//18 37//37 
f 18//18 17//17 37//37 
f 37//37 17//17 38//38 
f 17//17 9//9 38//38 
f 38//38 9//9 38//38 
f 9//9 7//7 38//38 
f 38//38 7//7 39//39 
f 7//7 7//7 39//39 
f 39//39 7//7 40//40 
f 7//7 6//6 40//40 
f 40//40 6//6 41//41 
f 6//6 20//20 41//41 
f 41//41 20//20 42//42 
f 20//20 26//26 42//42 
f 42//42 26//26 43//43 
f 26//26 26//26 43//43 
f 43//43 26//26 44//44 
f 26//26 37//37 44//44 
f 44//44 37//37 45//45 
f 37//37 38//38 45//45 
f 45//45 38//38 46//46 
f 38//38 39//39 46//46 
f 46//46 39//39 47//47 
f 39//39 39//39 47//47 
f 47//47 39//39 48//48 
f 39//39 39//39 48//48 
f 48//48 39//39 49//49 
f 39//39 40//40 49//49 
f 49//49 40//40 49//49 
f 40//40 45//45 49//49 
f 49//49 45//45 50//50 
f 45//45 46//46 50//50 
f 50//50 46//46 50//50 
f 46//46 47//47 50//50 
f 50//50 47//47 50//50 
f 47//47 51//51 50//50 
f 50//50 51//51 49//49 
f 51//51 52//52 49//49 
f 49//49 52//52 48//48 
f 52//52 53//53 48//48 
f 48//48 53//53 54//54 
f 53//53 55//55 54//54 
f 54//54 55//55 56//56 
f 55//55 57//57 56//56 
f 56//56 57//57 56//56 
f 57//57 58//58 56//56 
f 56//56 58//58 56//56 
f 58//58 59//59 56//56 
f 56//56 59//59 47//47 
f 59//59 59//59 47//47 
f 47//47 59//59 51//51 
f 59//59 53//53 51//51 
f 51//51 53//53 52//52 
f 53//53 52//52 52//52 
f 52//52 52//52 48//48 
f 52//52 48//48 48//48 
f 48//48 48//48 47//47 
f 48//48 54//54 47//47 
f 47//47 54//54 56//56 
f 54//54 56//56 56//56 
f 56//56 56//56 55//55 
f 56//56 55//55 55//55 
f 55//55 55//55 60//60 
f 55//55 53//53 60//60 
f 60//60 53//53 60//60 
f 53//53 59//59 60//60 
f 60//60 59//59 58//58 
f 59//59 58//58 58//58 
f 58//58 58//58 45//45 
f 58//58 45//45 45//45 
f 45//45 45//45 61//61 
f 45//45 40//40 61//61 
f 61//61 40//40 61//61 
f 40//40 41//41 61//61 
f 61//61 41//41 62//62 
f 41//41 42//42 62//62 
f 62//62 42//42 63//63 
f 42//42 43//43 63//63 
f 63//63 43//43 64//64 
f 43//43 65//65 64//64 
f 64//64 65//65 63//63 
f 65//65 65//65 63//63 
f 63//63 65//65 62//62 
f 65//65 66//66 62//62 
f 62//62 66//66 61//61 
f 66//66 67//67 61//61 
f 61//61 67//67 45//45 
f 67//67 67//67 45//45 
f 45//45 67//67 44//44 
f 67//67 65//65 44//44 
f 44//44 65//65 43//43 
f 65//65 43//43 43//43 
f 43//43 43//43 67//67 
f 43//43 67//67 67//67 
f 67//67 67//67 65//65 
f 67//67 68//68 65//65 
f 65//65 68//68 66//66 
f 68//68 67//67 66//66 
f 66//66 67//67 67//67 
f 67//67 69//69 67//67 
f 67//67 69//69 69//69 
f 69//69 70//70 69//69 
f 69//69 70//70 71//71 
f 70//70 72//72 71//71 
f 71//71 72//72 72//72 
f 72//72 70//70 72//72 
f 72//72 70//70 70//70 
f 70//70 69//69 70//70 
f 70//70 69//69 73//73 
f 69//69 74//74 73//73 
f 73//73 74//74 75//75 
f 74//74 76//76 75//75 
f 75//75 76//76 77//77 
f 76//76 76//76 77//77 
f 77//77 76//76 78//78 
f 76//76 79//79 78//78 
f 78//78 79//79 80//80 
f 79//79 72//72 80//80 
f 80//80 72//72 70//70 

