mtllib model_9.mtl
o model_9
v 0.04395781829953194 -0.025830814614892006 1.5234580039978027 
v 0.04249389469623566 -0.02545459009706974 1.5196095705032349 
v 0.051809776574373245 -0.008685657754540443 1.5223102569580078 
v 0.050745103508234024 -0.007772038225084543 1.519440770149231 
v 0.047817256301641464 -0.006912300828844309 1.518968105316162 
v 0.05207594484090805 0.0023860239889472723 1.5195420980453491 
v 0.04675258323550224 0.0047506592236459255 1.5195420980453491 
v 0.04249389469623566 -0.004547188524156809 1.518968105316162 
v 0.0395660474896431 -0.02470214106142521 1.518968105316162 
v 0.02545914426445961 -0.08554322272539139 1.5196095705032349 
v 0.026789983734488487 -0.08591944724321365 1.5234580039978027 
v 0.051277440041303635 -0.009868213906884193 1.535678744316101 
v 0.021865876391530037 -0.08704812079668045 1.518968105316162 
v 0.03424268960952759 -0.022337505593895912 1.518968105316162 
v 0.04009838402271271 -0.004117558244615793 1.5192382335662842 
v 0.044357072561979294 0.005234648939222097 1.519744634628296 
v 0.04329239949584007 0.005073477979749441 1.5212974548339844 
v 0.03929987922310829 -0.003794739255681634 1.521162509918213 
v 0.039432965219020844 -0.003150055417791009 1.5296021699905396 
v 0.03091558814048767 -0.0220151636749506 1.522242784500122 
v 0.03184717521071434 -0.022176334634423256 1.5193732976913452 
v 0.04768417030572891 0.012651374563574791 1.5251797437667847 
v 0.046353332698345184 0.011737754568457603 1.526057481765747 
v 0.05021276697516441 0.012221744284033775 1.5250784158706665 
v 0.05540304258465767 0.009856631979346275 1.5250784158706665 
v 0.05487070977687836 0.0014185213949531317 1.5199134349822998 
v 0.055802296847105026 -0.000032494121114723384 1.522141456604004 
v 0.05859706178307533 0.006202151533216238 1.5270026922225952 
v 0.058197807520627975 0.008674552664160728 1.5253485441207886 
v 0.05793163925409317 0.0152315404266119 1.532572865486145 
v 0.05260828137397766 0.017542770132422447 1.532572865486145 
v 0.05021276697516441 0.017972400411963463 1.532606601715088 
v 0.04848267510533333 0.0164675023406744 1.5329780578613281 
v 0.0398322157561779 -0.0024510121438652277 1.5348684787750244 
v 0.031048672273755074 -0.021477291360497475 1.5358136892318726 
v 0.04009838402271271 -0.0018597340676933527 1.539392113685608 
v 0.048881929367780685 0.01721995137631893 1.5412826538085938 
v 0.050345852971076965 0.018509795889258385 1.541215181350708 
v 0.052874449640512466 0.01808016560971737 1.541215181350708 
v 0.058197807520627975 0.01571505330502987 1.541215181350708 
v 0.060593318194150925 0.013887813314795494 1.532707929611206 
v 0.060593318194150925 0.010501792654395103 1.5335856676101685 
v 0.051277440041303635 -0.009922096505761147 1.5369278192520142 
v 0.04395781829953194 -0.025830814614892006 1.5452324151992798 
v 0.026789983734488487 -0.08591944724321365 1.547865629196167 
v 0.025326060131192207 -0.09140164405107498 1.547865629196167 
v 0.025326060131192207 -0.09140164405107498 1.5234580039978027 
v 0.02399522066116333 -0.09107930213212967 1.5196095705032349 
v 0.02106737159192562 -0.09150940924882889 1.518968105316162 
v 0.01654251664876938 -0.08704812079668045 1.518968105316162 
v 0.02399522066116333 -0.044319700449705124 1.519575834274292 
v 0.028253907337784767 -0.031797003000974655 1.5238969326019287 
v 0.03038325160741806 -0.024164745584130287 1.5293657779693604 
v 0.026257647201418877 -0.024164745584130287 1.5293657779693604 
v 0.02452755533158779 -0.031797003000974655 1.5238969326019287 
v 0.021732792258262634 -0.04319102689623833 1.5202510356903076 
v -0.00022606800484936684 -0.031797003000974655 1.5238969326019287 
v -0.00022606800484936684 -0.024164745584130287 1.5293657779693604 
v -0.00022606800484936684 -0.021477291360497475 1.5358136892318726 
v 0.02692306786775589 -0.021477291360497475 1.5358136892318726 
v -0.00022606800484936684 -0.021477291360497475 1.5464140176773071 
v 0.02692306786775589 -0.021477291360497475 1.5464140176773071 
v -0.00022606800484936684 -0.04319102689623833 1.5202510356903076 
v -0.022051844745874405 -0.04319102689623833 1.5202510356903076 
v -0.024846607819199562 -0.031797003000974655 1.5238969326019287 
v -0.026576699689030647 -0.024164745584130287 1.5293657779693604 
v -0.02724212035536766 -0.021477291360497475 1.5358136892318726 
v -0.00022606800484936684 -0.05668170377612114 1.518968105316162 
v 0.010819903574883938 -0.08704812079668045 1.518968105316162 
v 0.015744011849164963 -0.09150940924882889 1.518968105316162 
v 0.02106737159192562 -0.09150940924882889 1.5234580039978027 
v 0.02106737159192562 -0.09150940924882889 1.5371640920639038 
v 0.015744011849164963 -0.09150940924882889 1.5234580039978027 
v 0.0101544838398695 -0.09150940924882889 1.518968105316162 
v -0.00022606800484936684 -0.08704812079668045 1.518968105316162 
v -0.011138956062495708 -0.08704812079668045 1.518968105316162 
v -0.02431427128612995 -0.044319700449705124 1.519575834274292 
v -0.028572959825396538 -0.031797003000974655 1.5238969326019287 
v -0.03070230409502983 -0.024164745584130287 1.5293657779693604 
v -0.03123464062809944 -0.0220151636749506 1.522242784500122 
v -0.03216622769832611 -0.022176334634423256 1.5193732976913452 
v -0.03456173837184906 -0.022337505593895912 1.518968105316162 
v -0.016861567273736 -0.08704812079668045 1.518968105316162 
v -0.016063064336776733 -0.09150940924882889 1.518968105316162 
v -0.01047353632748127 -0.09150940924882889 1.518968105316162 
v -0.00022606800484936684 -0.09150940924882889 1.518968105316162 
v 0.0101544838398695 -0.09150940924882889 1.5234580039978027 
v 0.015744011849164963 -0.09150940924882889 1.5371640920639038 
v 0.02106737159192562 -0.09150940924882889 1.54995858669281 
v 0.025326060131192207 -0.09140164405107498 1.54995858669281 
v 0.026789983734488487 -0.08591944724321365 1.54995858669281 
v 0.04262698069214821 -0.03168923780322075 1.5528956651687622 
v 0.04329239949584007 -0.028195926919579506 1.5531656742095947 
v 0.09293273091316223 -0.03609664365649223 1.5523892641067505 
v 0.07722882181406021 -0.08591944724321365 1.5494860410690308 
v 0.07576489448547363 -0.09145552664995193 1.5494860410690308 
v 0.025326060131192207 -0.09140164405107498 1.5880721807479858 
v 0.11702093482017517 -0.09145552664995193 1.5368602275848389 
v 0.11875102669000626 -0.08591944724321365 1.5367590188980103 
v 0.12753456830978394 -0.059691499918699265 1.539223313331604 
v 0.12167887389659882 -0.08538205176591873 1.5360163450241089 
v 0.12021495401859283 -0.09086424857378006 1.5360163450241089 
v 0.12327588349580765 -0.09145552664995193 1.5380418300628662 
v 0.11462542414665222 -0.09107930213212967 1.57443368434906 
v 0.026789983734488487 -0.08591944724321365 1.5880721807479858 
v 0.1262037307024002 -0.09145552664995193 1.5726444721221924 
v 0.12473981082439423 -0.08591944724321365 1.5380418300628662 
v 0.13219250738620758 -0.05899245664477348 1.537940502166748 
v 0.12686915695667267 -0.04679210111498833 1.540809988975525 
v 0.12074729055166245 -0.03942878171801567 1.5435106754302979 
v 0.11036673933267593 -0.03636510297656059 1.5469878911972046 
v 0.09373123943805695 -0.031581949442625046 1.5526931285858154 
v 0.11036673933267593 -0.031581949442625046 1.547595500946045 
v 0.12354205548763275 -0.035183023661375046 1.54317307472229 
v 0.13139401376247406 -0.045072149485349655 1.5396959781646729 
v 0.13498727977275848 -0.05979878827929497 1.539966106414795 
v 0.13405568897724152 -0.04448087140917778 1.5419241189956665 
v 0.12500597536563873 -0.03330190107226372 1.5459076166152954 
v 0.11036673933267593 -0.029216835275292397 1.5509039163589478 
v 0.09439665824174881 -0.029216835275292397 1.555798888206482 
v 0.04395781829953194 -0.025830814614892006 1.5563052892684937 
v 0.04475632309913635 -0.023573467507958412 1.5476292371749878 
v 0.04648641496896744 -0.02013404108583927 1.5493172407150269 
v 0.055802296847105026 -0.000032494121114723384 1.5471566915512085 
v 0.055802296847105026 0.000021388475943240337 1.5429368019104004 
v 0.06085948646068573 0.010931899771094322 1.5416539907455444 
v 0.06085948646068573 0.010931899771094322 1.5459413528442383 
v 0.06085948646068573 0.010931899771094322 1.5880721807479858 
v 0.055669210851192474 -0.00019366508058737963 1.5880721807479858 
v 0.04395781829953194 -0.025830814614892006 1.5880721807479858 
v 0.09439665824174881 -0.029216835275292397 1.5875996351242065 
v 0.11036673933267593 -0.029216835275292397 1.5827382802963257 
v 0.12527213990688324 -0.03335530683398247 1.5779107809066772 
v 0.13458801805973053 -0.044588636606931686 1.574332356452942 
v 0.1360519528388977 -0.06001384183764458 1.5729483366012573 
v 0.1276676505804062 -0.08591944724321365 1.5726444721221924 
v 0.02106737159192562 -0.09150940924882889 1.5880721807479858 
v 0.015744011849164963 -0.09150940924882889 1.54995858669281 
v 0.0101544838398695 -0.09150940924882889 1.5371640920639038 
v 0.0101544838398695 -0.09150940924882889 1.54995858669281 
v 0.015744011849164963 -0.09150940924882889 1.5880721807479858 
v 0.0101544838398695 -0.09150940924882889 1.5880721807479858 
v -0.00022606800484936684 -0.09150940924882889 1.5234580039978027 
v -0.00022606800484936684 -0.09150940924882889 1.5371640920639038 
v -0.00022606800484936684 -0.09150940924882889 1.54995858669281 
v -0.00022606800484936684 -0.09150940924882889 1.5880721807479858 
v -0.01047353632748127 -0.09150940924882889 1.5880721807479858 
v -0.01047353632748127 -0.09150940924882889 1.54995858669281 
v -0.016063064336776733 -0.09150940924882889 1.5880721807479858 
v -0.01047353632748127 -0.09150940924882889 1.5371640920639038 
v -0.016063064336776733 -0.09150940924882889 1.54995858669281 
v -0.02138642407953739 -0.09150940924882889 1.5880721807479858 
v -0.02138642407953739 -0.09150940924882889 1.54995858669281 
v -0.025645112618803978 -0.09140164405107498 1.5880721807479858 
v -0.016063064336776733 -0.09150940924882889 1.5371640920639038 
v -0.01047353632748127 -0.09150940924882889 1.5234580039978027 
v -0.016063064336776733 -0.09150940924882889 1.5234580039978027 
v -0.02138642407953739 -0.09150940924882889 1.5371640920639038 
v -0.02138642407953739 -0.09150940924882889 1.5234580039978027 
v -0.02138642407953739 -0.09150940924882889 1.518968105316162 
v -0.022184928879141808 -0.08704812079668045 1.518968105316162 
v -0.02431427128612995 -0.09107930213212967 1.5196095705032349 
v -0.025645112618803978 -0.09140164405107498 1.5234580039978027 
v -0.02577819675207138 -0.08554322272539139 1.5196095705032349 
v -0.03988509997725487 -0.02470214106142521 1.518968105316162 
v -0.04281294718384743 -0.004547188524156809 1.518968105316162 
v -0.04041743651032448 -0.004117558244615793 1.5192382335662842 
v -0.03961893171072006 -0.003794739255681634 1.521162509918213 
v -0.025645112618803978 -0.09140164405107498 1.547865629196167 
v -0.027109036222100258 -0.08591944724321365 1.5234580039978027 
v -0.04281294718384743 -0.02545459009706974 1.5196095705032349 
v -0.048136308789253235 -0.006912300828844309 1.518968105316162 
v -0.025645112618803978 -0.09140164405107498 1.54995858669281 
v -0.0760839506983757 -0.09145552664995193 1.5494860410690308 
v -0.11733999103307724 -0.09145552664995193 1.5368602275848389 
v -0.1149444729089737 -0.09107930213212967 1.57443368434906 
v -0.027109036222100258 -0.08591944724321365 1.5880721807479858 
v -0.12652277946472168 -0.09145552664995193 1.5726444721221924 
v -0.12798671424388885 -0.08591944724321365 1.5726444721221924 
v -0.04427687078714371 -0.025830814614892006 1.5880721807479858 
v -0.13637100160121918 -0.06001384183764458 1.5729483366012573 
v -0.1349070817232132 -0.044588636606931686 1.574332356452942 
v -0.1255911886692047 -0.03335530683398247 1.5779107809066772 
v -0.1253250241279602 -0.03330190107226372 1.5459076166152954 
v -0.134374737739563 -0.04448087140917778 1.5419241189956665 
v -0.13530632853507996 -0.05979878827929497 1.539966106414795 
v -0.1250588595867157 -0.08591944724321365 1.5380418300628662 
v -0.12359493970870972 -0.09145552664995193 1.5380418300628662 
v -0.1205340027809143 -0.09086424857378006 1.5360163450241089 
v -0.027109036222100258 -0.08591944724321365 1.547865629196167 
v -0.027109036222100258 -0.08591944724321365 1.54995858669281 
v -0.12199793010950089 -0.08538205176591873 1.5360163450241089 
v -0.11907008290290833 -0.08591944724321365 1.5367590188980103 
v -0.07754787057638168 -0.08591944724321365 1.5494860410690308 
v -0.04294603317975998 -0.03168923780322075 1.5528956651687622 
v -0.04427687078714371 -0.025830814614892006 1.5452324151992798 
v -0.04427687078714371 -0.025830814614892006 1.5234580039978027 
v -0.052128829061985016 -0.008685657754540443 1.5223102569580078 
v -0.051596492528915405 -0.009868213906884193 1.535678744316101 
v -0.058916110545396805 0.006202151533216238 1.5270026922225952 
v -0.051596492528915405 -0.009922096505761147 1.5369278192520142 
v -0.051064155995845795 -0.007772038225084543 1.519440770149231 
v -0.0561213493347168 -0.000032494121114723384 1.522141456604004 
v -0.05518975853919983 0.0014185213949531317 1.5199134349822998 
v -0.058516860008239746 0.008674552664160728 1.5253485441207886 
v -0.05572209507226944 0.009856631979346275 1.5250784158706665 
v -0.05825069174170494 0.0152315404266119 1.532572865486145 
v -0.060912370681762695 0.013887813314795494 1.532707929611206 
v -0.060912370681762695 0.010501792654395103 1.5335856676101685 
v -0.0561213493347168 0.000021388475943240337 1.5429368019104004 
v -0.05239499732851982 0.0023860239889472723 1.5195420980453491 
v -0.1106857880949974 -0.029216835275292397 1.5827382802963257 
v -0.0611785389482975 0.010931899771094322 1.5416539907455444 
v -0.0611785389482975 0.014425208792090416 1.5412489175796509 
v -0.058516860008239746 0.01571505330502987 1.541215181350708 
v -0.05292733386158943 0.017542770132422447 1.532572865486145 
v -0.050531819462776184 0.012221744284033775 1.5250784158706665 
v -0.047071635723114014 0.0047506592236459255 1.5195420980453491 
v -0.044676125049591064 0.005234648939222097 1.519744634628296 
v -0.04361145198345184 0.005073477979749441 1.5212974548339844 
v -0.039752017706632614 -0.003150055417791009 1.5296021699905396 
v -0.046672385185956955 0.011737754568457603 1.526057481765747 
v -0.04800322279334068 0.012651374563574791 1.5251797437667847 
v -0.050531819462776184 0.017972400411963463 1.532606601715088 
v -0.05319349840283394 0.01808016560971737 1.541215181350708 
v -0.0488017275929451 0.0164675023406744 1.5329780578613281 
v -0.050664905458688736 0.018509795889258385 1.541215181350708 
v -0.04015126824378967 -0.0024510121438652277 1.5348684787750244 
v -0.031367722898721695 -0.021477291360497475 1.5358136892318726 
v -0.02724212035536766 -0.021477291360497475 1.5464140176773071 
v -0.00022606800484936684 -0.021477291360497475 1.5880721807479858 
v -0.02724212035536766 -0.021477291360497475 1.5880721807479858 
v -0.031367722898721695 -0.021477291360497475 1.5464140176773071 
v -0.04041743651032448 -0.0018597340676933527 1.539392113685608 
v -0.049200981855392456 0.01721995137631893 1.5412826538085938 
v -0.050664905458688736 0.018509795889258385 1.5455700159072876 
v -0.05319349840283394 0.01808016560971737 1.5455700159072876 
v -0.058516860008239746 0.01571505330502987 1.5455700159072876 
v -0.0611785389482975 0.014371326193213463 1.5456037521362305 
v -0.0611785389482975 0.010931899771094322 1.5459413528442383 
v -0.0561213493347168 -0.000032494121114723384 1.5471566915512085 
v -0.031367722898721695 -0.021477291360497475 1.5880721807479858 
v -0.0611785389482975 0.010931899771094322 1.5880721807479858 
v -0.0611785389482975 0.014371326193213463 1.5880721807479858 
v -0.058516860008239746 0.01571505330502987 1.5880721807479858 
v -0.05319349840283394 0.01808016560971737 1.5880721807479858 
v -0.050664905458688736 0.018456390127539635 1.5880721807479858 
v -0.049200981855392456 0.017327716574072838 1.5456037521362305 
v -0.049067895859479904 0.01711266301572323 1.5880721807479858 
v -0.04640621691942215 0.011146476492285728 1.5880721807479858 
v -0.04055051878094673 -0.0015373921487480402 1.5459750890731812 
v 0.050345852971076965 0.018509795889258385 1.5455700159072876 
v 0.052874449640512466 0.01808016560971737 1.5455700159072876 
v 0.058197807520627975 0.01571505330502987 1.5455700159072876 
v 0.06085948646068573 0.014425208792090416 1.5412489175796509 
v 0.06085948646068573 0.014371326193213463 1.5456037521362305 
v 0.06085948646068573 0.014371326193213463 1.5880721807479858 
v 0.058197807520627975 0.01571505330502987 1.5880721807479858 
v 0.052874449640512466 0.01808016560971737 1.5880721807479858 
v 0.050345852971076965 0.018456390127539635 1.5880721807479858 
v 0.048881929367780685 0.017327716574072838 1.5456037521362305 
v 0.04023146629333496 -0.0015373921487480402 1.5459750890731812 
v 0.031048672273755074 -0.021477291360497475 1.5464140176773071 
v 0.048748843371868134 0.01711266301572323 1.5880721807479858 
v 0.04608716443181038 0.011146476492285728 1.5880721807479858 
v 0.031048672273755074 -0.021477291360497475 1.5880721807479858 
v 0.02692306786775589 -0.021477291360497475 1.5880721807479858 
v -0.1106857880949974 -0.029216835275292397 1.5509039163589478 
v -0.09471570700407028 -0.029216835275292397 1.555798888206482 
v -0.1106857880949974 -0.031581949442625046 1.547595500946045 
v -0.12386110424995422 -0.035183023661375046 1.54317307472229 
v -0.13171306252479553 -0.045072149485349655 1.5396959781646729 
v -0.13251157104969025 -0.05899245664477348 1.537940502166748 
v -0.1278536170721054 -0.059691499918699265 1.539223313331604 
v -0.12718820571899414 -0.04679210111498833 1.540809988975525 
v -0.12106633931398392 -0.03942878171801567 1.5435106754302979 
v -0.1106857880949974 -0.03636510297656059 1.5469878911972046 
v -0.0932517871260643 -0.03609664365649223 1.5523892641067505 
v -0.04361145198345184 -0.028195926919579506 1.5531656742095947 
v -0.09405028820037842 -0.031581949442625046 1.5526931285858154 
v -0.04427687078714371 -0.025830814614892006 1.5563052892684937 
v -0.09471570700407028 -0.029216835275292397 1.5875996351242065 
v -0.055988263338804245 -0.00019366508058737963 1.5880721807479858 
v -0.04680546745657921 -0.02013404108583927 1.5493172407150269 
v -0.04507537558674812 -0.023573467507958412 1.5476292371749878 
vn 0.922201931476593 -0.3615511953830719 -0.1372016966342926 
vn 0.651867687702179 -0.2511051893234253 -0.715552031993866 
vn 0.8853446841239929 -0.4167785346508026 -0.2060592919588089 
vn 0.5338580012321472 -0.22113123536109924 -0.8161473870277405 
vn 0.09037882834672928 -0.015081559307873249 -0.9957932829856873 
vn 0.17704643309116364 0.2688031494617462 -0.946783721446991 
vn 0.058263421058654785 0.3207555413246155 -0.9453682899475098 
vn -0.038967858999967575 0.04710404947400093 -0.9981296062469482 
vn 0.09792270511388779 -0.03698170185089111 -0.9945066571235657 
vn 0.6339378952980042 -0.17181938886642456 -0.7540562748908997 
vn 0.9535741209983826 -0.261044442653656 -0.15017375349998474 
vn 0.9087722897529602 -0.41728663444519043 0.002184694167226553 
vn 0.10663539171218872 -0.022666051983833313 -0.9940398335456848 
vn -0.07874707877635956 0.025983458384871483 -0.9965559244155884 
vn -0.5238271951675415 0.2522618770599365 -0.8136147856712341 
vn -0.4267721474170685 0.4494951367378235 -0.7847417593002319 
vn -0.8464055061340332 0.45669564604759216 -0.27391019463539124 
vn -0.8869486451148987 0.3995814919471741 -0.23163928091526031 
vn -0.9087722897529602 0.41728663444519043 -0.002184694167226553 
vn -0.9397988319396973 0.32599368691444397 -0.10250037163496017 
vn -0.7605249881744385 0.27055221796035767 -0.590256929397583 
vn -0.3247174918651581 0.73335200548172 -0.5972883701324463 
vn -0.813697099685669 0.5482380986213684 -0.19321508705615997 
vn 0.1830078363418579 0.6610838174819946 -0.7276512384414673 
vn 0.2991520166397095 0.6137354373931885 -0.7306414246559143 
vn 0.6347856521606445 0.08293560892343521 -0.7682244777679443 
vn 0.8798710107803345 -0.31845974922180176 -0.3527185618877411 
vn 0.9459523558616638 -0.28276190161705017 -0.15880759060382843 
vn 0.7480724453926086 0.323143869638443 -0.5796254277229309 
vn 0.3907254636287689 0.8225335478782654 -0.41324591636657715 
vn 0.29871687293052673 0.885132372379303 -0.3568037748336792 
vn -0.1503533571958542 0.939642071723938 -0.30735430121421814 
vn -0.7845619916915894 0.6129137873649597 -0.09380380809307098 
vn -0.9087722897529602 0.41728663444519043 -0.002184694167226553 
vn -0.6862671971321106 0.7249565124511719 -0.058952588587999344 
vn -0.9087722897529602 0.41728663444519043 -0.002184694167226553 
vn -0.7871364951133728 0.6166820526123047 -0.010923261754214764 
vn -0.34734711050987244 0.9371640682220459 -0.03276457265019417 
vn 0.24650880694389343 0.9685865640640259 -0.03276457265019417 
vn 0.41699984669685364 0.9081477522850037 -0.03713129088282585 
vn 0.772829532623291 0.5838920474052429 -0.24860523641109467 
vn 0.9755824208259583 -0.2024768441915512 -0.08510008454322815 
vn 0.9087722897529602 -0.41728663444519043 0.002184694167226553 
vn 0.9321314692497253 -0.36158594489097595 0.01966099627315998 
vn 0.9632501006126404 -0.2685261070728302 -0.006554040592163801 
vn 0.6167173981666565 -0.7871816158294678 0.002184694167226553 
vn 0.5976679921150208 -0.7840665578842163 -0.16742929816246033 
vn 0.40787017345428467 -0.6359293460845947 -0.6551609039306641 
vn 0.10158155858516693 -0.561576247215271 -0.8211658596992493 
vn -0.02361740916967392 0.011373545043170452 -0.9996563792228699 
vn -0.17115242779254913 0.21115551888942719 -0.962351381778717 
vn -0.6118026375770569 0.4892757534980774 -0.6215357780456543 
vn -0.5012056827545166 0.7624280452728271 -0.40926313400268555 
vn -8.101113909472074e-14 0.7833857536315918 -0.6215357780456543 
vn -0.020784612745046616 0.45799049735069275 -0.888714075088501 
vn -0.02832237258553505 0.365892231464386 -0.9302261471748352 
vn -0.0018909238278865814 0.40326988697052 -0.9150791168212891 
vn -0.0018884019227698445 0.7201125621795654 -0.6938546895980835 
vn -0.0018882075091823936 0.9652611613273621 -0.2612801790237427 
vn -1.0115697071221702e-13 0.9803028106689453 -0.1975002884864807 
vn -1.0341130485562108e-13 0.999997615814209 0.002184694167226553 
vn -1.0341130485562108e-13 0.999997615814209 0.002184694167226553 
vn 0.0018912545638158917 0.3094267249107361 -0.9509214162826538 
vn 0.032089605927467346 0.36558109521865845 -0.9302261471748352 
vn 0.01700752042233944 0.4581463038921356 -0.888714075088501 
vn -8.101113909472074e-14 0.7833857536315918 -0.6215357780456543 
vn -1.0115697071221702e-13 0.9803028106689453 -0.1975002884864807 
vn 0.001892047468572855 0.03489676117897034 -0.999389111995697 
vn 0.004369377624243498 0 -0.9999904632568359 
vn 0.0018878303235396743 -0.7078762650489807 -0.7063339352607727 
vn 0.03019949607551098 -0.9994269013404846 -0.0152922747656703 
vn 0.007551815826445818 -0.9999691247940063 0.002184694167226553 
vn 3.097898456858039e-13 -0.999997615814209 0.002184694167226553 
vn 0.0018878303235396743 -0.7078762650489807 -0.7063339352607727 
vn -2.0682311115474694e-13 0 -1 
vn -0.002184688812121749 0.0037839922588318586 -0.9999904632568359 
vn 0.17115242779254913 0.21115551888942719 -0.962351381778717 
vn 0.6118026375770569 0.4892757534980774 -0.6215357780456543 
vn 0.4980456233024597 0.7644960880279541 -0.40926313400268555 
vn 0.9397988319396973 0.32599368691444397 -0.10250037163496017 
vn 0.7592499256134033 0.27410998940467834 -0.590256929397583 
vn 0.07748284935951233 0.02954067289829254 -0.9965559244155884 
vn 0.025048762559890747 0.007726519834250212 -0.9996563792228699 
vn 0.0018878303235396743 -0.7078762650489807 -0.7063339352607727 
vn 0.0018878303235396743 -0.7078762650489807 -0.7063339352607727 
vn -0.0018893282394856215 -0.8936669826507568 -0.4487268626689911 
vn 3.097898456858039e-13 -0.999997615814209 0.002184694167226553 
vn 3.097898456858039e-13 -0.999997615814209 0.002184694167226553 
vn 0.007551815826445818 -0.9999691247940063 0.002184694167226553 
vn 0.4700373113155365 -0.8493537902832031 -0.2401314377784729 
vn 0.5284037590026855 -0.13473396003246307 -0.838234007358551 
vn 0.6867873072624207 -0.1277046799659729 -0.715552031993866 
vn 0.7487853169441223 0.03773025795817375 -0.661737859249115 
vn -0.11669408529996872 0.09791796654462814 -0.9883291721343994 
vn -0.1976810097694397 0.09880740940570831 -0.9752739667892456 
vn -0.09035716950893402 -0.5414808392524719 -0.8358433246612549 
vn 0.03960384801030159 -0.9803568124771118 0.19321508705615997 
vn -0.1627717912197113 -0.6889104843139648 -0.7063339352607727 
vn -0.2770918607711792 0.11784688383340836 -0.953589141368866 
vn -0.274062842130661 0.15239687263965607 -0.949560284614563 
vn 0.14801347255706787 0 -0.9889853596687317 
vn 0.005672380328178406 -0.5813766121864319 -0.8136147856712341 
vn 0.5104787349700928 -0.7058244943618774 -0.4911448359489441 
vn 0.05840400978922844 -0.8994805812835693 0.43303996324539185 
vn 0.14993487298488617 -0.058557674288749695 0.986960232257843 
vn 0.6685248613357544 -0.49970167875289917 0.5507928133010864 
vn 0.828863799571991 -0.2458818107843399 -0.5025205612182617 
vn 0.16094858944416046 0.03756848722696304 -0.9862475395202637 
vn -0.26956671476364136 0.11421868205070496 -0.9561840295791626 
vn -0.2786771059036255 0.12462612241506577 -0.9522643685340881 
vn -0.2843817472457886 0.13214485347270966 -0.949560284614563 
vn -0.13485245406627655 0.5471178889274597 -0.8261215686798096 
vn -0.18169496953487396 0.5102587342262268 -0.8406086564064026 
vn 0.009444239549338818 0.4388366937637329 -0.8985171914100647 
vn 0.2499631643295288 0.2459477335214615 -0.9364978075027466 
vn 0.8748668432235718 -0.0904339924454689 -0.4758462607860565 
vn 0.8154997229576111 0.4011072516441345 -0.417220801115036 
vn 0.4307313859462738 0.8341287970542908 -0.34452807903289795 
vn 0.037736620754003525 0.9508466124534607 -0.30735430121421814 
vn -0.011325903236865997 0.9685386419296265 -0.24860523641109467 
vn 0.9218193292617798 0.30427953600883484 -0.2401314377784729 
vn 0.9134073257446289 -0.4033694863319397 0.05459024757146835 
vn 0.8838656544685364 -0.4645443558692932 0.05459024757146835 
vn 0.9087722897529602 -0.41728663444519043 -0.002184694167226553 
vn 0.9087722897529602 -0.41728663444519043 -0.002184694167226553 
vn 0.9822282791137695 -0.18767757713794708 -0.002184694167226553 
vn 0.9744431972503662 -0.22462347149848938 0.002184694167226553 
vn 0.9569380283355713 -0.2902839779853821 0.002184694167226553 
vn 0.9087722897529602 -0.41728663444519043 0.002184694167226553 
vn 0.2994461953639984 -0.31008559465408325 0.9023185968399048 
vn 0.035874057561159134 0.993628203868866 -0.10684575140476227 
vn 0.16327659785747528 0.9259876012802124 0.34042292833328247 
vn 0.5215953588485718 0.5988141298294067 0.607749879360199 
vn 0.7830591797828674 0.30240675806999207 0.5434780716896057 
vn 0.8590614795684814 -0.07536856830120087 0.5062933564186096 
vn 0.7436115145683289 -0.23764675855636597 0.6249527335166931 
vn 0.007551815826445818 -0.9999691247940063 0.002184694167226553 
vn 3.097898456858039e-13 -0.999997615814209 0.002184694167226553 
vn 3.097898456858039e-13 -0.999997615814209 0.002184694167226553 
vn 3.097898456858039e-13 -0.999997615814209 0.002184694167226553 
vn 3.097898456858039e-13 -0.999997615814209 0.002184694167226553 
vn 3.097898456858039e-13 -0.999997615814209 0.002184694167226553 
vn 3.097898456858039e-13 -0.999997615814209 0.002184694167226553 
vn 3.097898456858039e-13 -0.999997615814209 0.002184694167226553 
vn 3.097898456858039e-13 -0.999997615814209 0.002184694167226553 
vn 3.097898456858039e-13 -0.999997615814209 0.002184694167226553 
vn 3.097898456858039e-13 -0.999997615814209 0.002184694167226553 
vn 3.097898456858039e-13 -0.999997615814209 0.002184694167226553 
vn 3.097898456858039e-13 -0.999997615814209 0.002184694167226553 
vn 3.097898456858039e-13 -0.999997615814209 0.002184694167226553 
vn 3.097898456858039e-13 -0.999997615814209 0.002184694167226553 
vn -0.007551815826445818 -0.9999691247940063 0.002184694167226553 
vn -0.007551815826445818 -0.9999691247940063 0.002184694167226553 
vn -0.03583381697535515 -0.9805018305778503 0.19321508705615997 
vn 3.097898456858039e-13 -0.999997615814209 0.002184694167226553 
vn 3.097898456858039e-13 -0.999997615814209 0.002184694167226553 
vn 3.097898456858039e-13 -0.999997615814209 0.002184694167226553 
vn -0.007551815826445818 -0.9999691247940063 0.002184694167226553 
vn -0.03019949607551098 -0.9994269013404846 -0.0152922747656703 
vn -0.10158155858516693 -0.561576247215271 -0.8211658596992493 
vn -0.10663539171218872 -0.022666051983833313 -0.9940398335456848 
vn -0.40787017345428467 -0.6359293460845947 -0.6551609039306641 
vn -0.5976679921150208 -0.7840665578842163 -0.16742929816246033 
vn -0.6339378952980042 -0.17181938886642456 -0.7540562748908997 
vn -0.0991939976811409 -0.03342234715819359 -0.9945066571235657 
vn 0.038967858999967575 0.04710404947400093 -0.9981296062469482 
vn 0.5221753120422363 0.25566366314888 -0.8136147856712341 
vn 0.8853902220726013 0.40302276611328125 -0.23163928091526031 
vn -0.6167173981666565 -0.7871816158294678 0.002184694167226553 
vn -0.9525707364082336 -0.2646825611591339 -0.15017375349998474 
vn -0.6532159447669983 -0.2475767582654953 -0.715552031993866 
vn -0.09037882834672928 -0.015081559307873249 -0.9957932829856873 
vn -0.4700373113155365 -0.8493537902832031 -0.2401314377784729 
vn 0.09035716950893402 -0.5414808392524719 -0.8358433246612549 
vn 0.16644395887851715 -0.6880325078964233 -0.7063339352607727 
vn -0.062166206538677216 -0.8992283940315247 0.43303996324539185 
vn -0.15125685930252075 -0.0550529919564724 0.986960232257843 
vn -0.6662592887878418 -0.5027185082435608 0.5507928133010864 
vn -0.7436115145683289 -0.23764675855636597 0.6249527335166931 
vn -0.2994461953639984 -0.31008559465408325 0.9023185968399048 
vn -0.8590614795684814 -0.07536856830120087 0.5062933564186096 
vn -0.7844104170799255 0.2988843321800232 0.5434780716896057 
vn -0.5215953588485718 0.5988141298294067 0.607749879360199 
vn -0.4340831935405731 0.8323894739151001 -0.34452807903289795 
vn -0.8154997229576111 0.4011072516441345 -0.417220801115036 
vn -0.8748668432235718 -0.0904339924454689 -0.4758462607860565 
vn -0.8299302458763123 -0.24225783348083496 -0.5025205612182617 
vn -0.5135324001312256 -0.7036058902740479 -0.4911448359489441 
vn -0.009453700855374336 -0.5813274383544922 -0.8136147856712341 
vn -0.9632501006126404 -0.2685261070728302 -0.006554040592163801 
vn -0.5293254256248474 -0.1310662180185318 -0.838234007358551 
vn -0.1479651927947998 -0.003780060913413763 -0.9889853596687317 
vn 0.2770918607711792 0.11784688383340836 -0.953589141368866 
vn 0.19934804737567902 0.0953993946313858 -0.9752739667892456 
vn -0.6860867738723755 -0.1314164102077484 -0.715552031993866 
vn -0.9321314692497253 -0.36158594489097595 0.01966099627315998 
vn -0.922201931476593 -0.3615511953830719 -0.1372016966342926 
vn -0.8853446841239929 -0.4167785346508026 -0.2060592919588089 
vn -0.9087722897529602 -0.41728663444519043 0.002184694167226553 
vn -0.9459523558616638 -0.28276190161705017 -0.15880759060382843 
vn -0.9087722897529602 -0.41728663444519043 0.002184694167226553 
vn -0.5338580012321472 -0.22113123536109924 -0.8161473870277405 
vn -0.8798710107803345 -0.31845974922180176 -0.3527185618877411 
vn -0.6347856521606445 0.08293560892343521 -0.7682244777679443 
vn -0.7480724453926086 0.323143869638443 -0.5796254277229309 
vn -0.2991520166397095 0.6137354373931885 -0.7306414246559143 
vn -0.3907254636287689 0.8225335478782654 -0.41324591636657715 
vn -0.772829532623291 0.5838920474052429 -0.24860523641109467 
vn -0.9748081564903259 -0.20617246627807617 -0.08510008454322815 
vn -0.9087722897529602 -0.41728663444519043 0.002184694167226553 
vn -0.18019691109657288 0.2667014002799988 -0.946783721446991 
vn -0.15955999493598938 0.926635205745697 0.34042292833328247 
vn -0.9822282791137695 -0.18767757713794708 -0.002184694167226553 
vn -0.8516040444374084 0.5236345529556274 -0.024029340595006943 
vn -0.41699984669685364 0.9081477522850037 -0.03713129088282585 
vn -0.30229321122169495 0.8839173316955566 -0.3568037748336792 
vn -0.1830078363418579 0.6610838174819946 -0.7276512384414673 
vn -0.054541200399398804 0.3214094042778015 -0.9453682899475098 
vn 0.42402222752571106 0.45209014415740967 -0.7847417593002319 
vn 0.8464055061340332 0.45669564604759216 -0.27391019463539124 
vn 0.9087722897529602 0.41728663444519043 -0.002184694167226553 
vn 0.813697099685669 0.5482380986213684 -0.19321508705615997 
vn 0.3212597668170929 0.7348732948303223 -0.5972883701324463 
vn 0.1503533571958542 0.939642071723938 -0.30735430121421814 
vn -0.24650880694389343 0.9685865640640259 -0.03276457265019417 
vn 0.7822336554527283 0.6158825755119324 -0.09380380809307098 
vn 0.34734711050987244 0.9371640682220459 -0.03276457265019417 
vn 0.9087722897529602 0.41728663444519043 -0.002184694167226553 
vn 0.6890029311180115 0.722356915473938 -0.058952588587999344 
vn -1.0341130485562108e-13 0.999997615814209 0.002184694167226553 
vn -1.0341130485562108e-13 0.999997615814209 0.002184694167226553 
vn -1.0341130485562108e-13 0.999997615814209 0.002184694167226553 
vn 0.5365904569625854 0.8438400030136108 -0.002184694167226553 
vn 0.9087722897529602 0.41728663444519043 -0.002184694167226553 
vn 0.7871364951133728 0.6166820526123047 -0.010923261754214764 
vn 0.23931509256362915 0.9709395170211792 -0.002184694167226553 
vn -0.2902839779853821 0.9569380283355713 0.002184694167226553 
vn -0.4241376221179962 0.9055951237678528 0.002184694167226553 
vn -0.8518480062484741 0.5237845182418823 0.002184694167226553 
vn -0.9744431972503662 -0.22462347149848938 0.002184694167226553 
vn -0.9087722897529602 -0.41728663444519043 -0.002184694167226553 
vn 0.7017449736595154 0.7124248743057251 0.002184694167226553 
vn -0.9569380283355713 -0.2902839779853821 0.002184694167226553 
vn -0.9452975392341614 0.32620200514793396 0.002184694167226553 
vn -0.4241376221179962 0.9055951237678528 0.002184694167226553 
vn -0.32620200514793396 0.9452975392341614 0.002184694167226553 
vn 0.25395211577415466 0.9672143459320068 0.002184694167226553 
vn 0.7871816158294678 0.6167173981666565 -0.002184694167226553 
vn 0.7964062690734863 0.604758083820343 0.002184694167226553 
vn 0.9087722897529602 0.41728663444519043 -0.002184694167226553 
vn 0.9087722897529602 0.41728663444519043 -0.002184694167226553 
vn -0.23931509256362915 0.9709395170211792 -0.002184694167226553 
vn 0.2902839779853821 0.9569380283355713 0.002184694167226553 
vn 0.4241376221179962 0.9055951237678528 0.002184694167226553 
vn 0.8516040444374084 0.5236345529556274 -0.024029340595006943 
vn 0.8518480062484741 0.5237845182418823 0.002184694167226553 
vn 0.9452975392341614 0.32620200514793396 0.002184694167226553 
vn 0.4241376221179962 0.9055951237678528 0.002184694167226553 
vn 0.32620200514793396 0.9452975392341614 0.002184694167226553 
vn -0.25395211577415466 0.9672143459320068 0.002184694167226553 
vn -0.7871816158294678 0.6167173981666565 -0.002184694167226553 
vn -0.9087722897529602 0.41728663444519043 -0.002184694167226553 
vn -0.5365904569625854 0.8438400030136108 -0.002184694167226553 
vn -0.7964062690734863 0.604758083820343 0.002184694167226553 
vn -0.9087722897529602 0.41728663444519043 0.002184694167226553 
vn -0.7017449736595154 0.7124248743057251 0.002184694167226553 
vn -1.0341130485562108e-13 0.999997615814209 0.002184694167226553 
vn -0.037736620754003525 0.9508466124534607 -0.30735430121421814 
vn 0.011325903236865997 0.9685386419296265 -0.24860523641109467 
vn 0.18169496953487396 0.5102587342262268 -0.8406086564064026 
vn -0.01322095561772585 0.438739150762558 -0.8985171914100647 
vn -0.25260376930236816 0.24323488771915436 -0.9364978075027466 
vn -0.160044863820076 0.041249051690101624 -0.9862475395202637 
vn 0.274062842130661 0.15239687263965607 -0.949560284614563 
vn 0.2710207998752594 0.11072418093681335 -0.9561840295791626 
vn 0.2786771059036255 0.12462612241506577 -0.9522643685340881 
vn 0.2843817472457886 0.13214485347270966 -0.949560284614563 
vn 0.11669408529996872 0.09791796654462814 -0.9883291721343994 
vn -0.7487853169441223 0.03773025795817375 -0.661737859249115 
vn 0.13485245406627655 0.5471178889274597 -0.8261215686798096 
vn -0.9218193292617798 0.30427953600883484 -0.2401314377784729 
vn -0.03209922835230827 0.9937573075294495 -0.10684575140476227 
vn -0.9087722897529602 -0.41728663444519043 -0.002184694167226553 
vn -0.8821030855178833 -0.4678824543952942 0.05459024757146835 
vn -0.9118759036064148 -0.40681973099708557 0.05459024757146835 
s on 
f 1//1 2//2 3//3 
f 2//2 2//2 3//3 
f 3//3 2//2 4//4 
f 2//2 5//5 4//4 
f 4//4 5//5 6//6 
f 5//5 5//5 6//6 
f 6//6 5//5 7//7 
f 5//5 5//5 7//7 
f 7//7 5//5 8//8 
f 5//5 5//5 8//8 
f 8//8 5//5 9//9 
f 5//5 2//2 9//9 
f 9//9 2//2 10//10 
f 2//2 2//2 10//10 
f 10//10 2//2 11//11 
f 2//2 1//1 11//11 
f 11//11 1//1 1//1 
f 1//1 1//1 1//1 
f 1//1 1//1 1//1 
f 1//1 3//3 1//1 
f 1//1 3//3 12//12 
f 3//3 12//12 12//12 
f 12//12 12//12 10//10 
f 12//12 10//10 10//10 
f 10//10 10//10 9//9 
f 10//10 13//13 9//9 
f 9//9 13//13 9//9 
f 13//13 14//14 9//9 
f 9//9 14//14 8//8 
f 14//14 15//15 8//8 
f 8//8 15//15 16//16 
f 15//15 15//15 16//16 
f 16//16 15//15 17//17 
f 15//15 18//18 17//17 
f 17//17 18//18 19//19 
f 18//18 18//18 19//19 
f 19//19 18//18 20//20 
f 18//18 18//18 20//20 
f 20//20 18//18 21//21 
f 18//18 15//15 21//21 
f 21//21 15//15 14//14 
f 15//15 14//14 14//14 
f 14//14 14//14 8//8 
f 14//14 8//8 8//8 
f 8//8 8//8 7//7 
f 8//8 16//16 7//7 
f 7//7 16//16 22//22 
f 16//16 16//16 22//22 
f 22//22 16//16 23//23 
f 16//16 17//17 23//23 
f 23//23 17//17 19//19 
f 17//17 19//19 19//19 
f 19//19 19//19 22//22 
f 19//19 22//22 22//22 
f 22//22 22//22 7//7 
f 22//22 24//24 7//7 
f 7//7 24//24 6//6 
f 24//24 25//25 6//6 
f 6//6 25//25 6//6 
f 25//25 26//26 6//6 
f 6//6 26//26 4//4 
f 26//26 27//27 4//4 
f 4//4 27//27 3//3 
f 27//27 28//28 3//3 
f 3//3 28//28 12//12 
f 28//28 12//12 12//12 
f 12//12 12//12 27//27 
f 12//12 27//27 27//27 
f 27//27 27//27 28//28 
f 27//27 26//26 28//28 
f 28//28 26//26 29//29 
f 26//26 25//25 29//29 
f 29//29 25//25 30//30 
f 25//25 25//25 30//30 
f 30//30 25//25 31//31 
f 25//25 24//24 31//31 
f 31//31 24//24 32//32 
f 24//24 22//22 32//32 
f 32//32 22//22 33//33 
f 22//22 23//23 33//33 
f 33//33 23//23 34//34 
f 23//23 19//19 34//34 
f 34//34 19//19 35//35 
f 19//19 20//20 35//35 
f 35//35 20//20 20//20 
f 20//20 35//35 20//20 
f 20//20 35//35 35//35 
f 35//35 36//36 35//35 
f 35//35 36//36 34//34 
f 36//36 36//36 34//34 
f 34//34 36//36 33//33 
f 36//36 37//37 33//33 
f 33//33 37//37 33//33 
f 37//37 38//38 33//33 
f 33//33 38//38 32//32 
f 38//38 39//39 32//32 
f 32//32 39//39 31//31 
f 39//39 40//40 31//31 
f 31//31 40//40 30//30 
f 40//40 41//41 30//30 
f 30//30 41//41 29//29 
f 41//41 42//42 29//29 
f 29//29 42//42 28//28 
f 42//42 43//43 28//28 
f 28//28 43//43 12//12 
f 43//43 44//44 12//12 
f 12//12 44//44 1//1 
f 44//44 44//44 1//1 
f 1//1 44//44 11//11 
f 44//44 45//45 11//11 
f 11//11 45//45 11//11 
f 45//45 46//46 11//11 
f 11//11 46//46 11//11 
f 46//46 47//47 11//11 
f 11//11 47//47 10//10 
f 47//47 48//48 10//10 
f 10//10 48//48 13//13 
f 48//48 49//49 13//13 
f 13//13 49//49 13//13 
f 49//49 50//50 13//13 
f 13//13 50//50 14//14 
f 50//50 51//51 14//14 
f 14//14 51//51 21//21 
f 51//51 52//52 21//21 
f 21//21 52//52 20//20 
f 52//52 53//53 20//20 
f 20//20 53//53 35//35 
f 53//53 35//35 35//35 
f 35//35 35//35 53//53 
f 35//35 53//53 53//53 
f 53//53 53//53 54//54 
f 53//53 52//52 54//54 
f 54//54 52//52 55//55 
f 52//52 51//51 55//55 
f 55//55 51//51 55//55 
f 51//51 56//56 55//55 
f 55//55 56//56 55//55 
f 56//56 57//57 55//55 
f 55//55 57//57 55//55 
f 57//57 58//58 55//55 
f 55//55 58//58 54//54 
f 58//58 59//59 54//54 
f 54//54 59//59 60//60 
f 59//59 61//61 60//60 
f 60//60 61//61 60//60 
f 61//61 62//62 60//60 
f 60//60 62//62 60//60 
f 62//62 35//35 60//60 
f 60//60 35//35 60//60 
f 35//35 53//53 60//60 
f 60//60 53//53 54//54 
f 53//53 54//54 54//54 
f 54//54 54//54 56//56 
f 54//54 56//56 56//56 
f 56//56 56//56 57//57 
f 56//56 63//63 57//57 
f 57//57 63//63 57//57 
f 63//63 64//64 57//57 
f 57//57 64//64 57//57 
f 64//64 65//65 57//57 
f 57//57 65//65 58//58 
f 65//65 66//66 58//58 
f 58//58 66//66 59//59 
f 66//66 67//67 59//59 
f 59//59 67//67 61//61 
f 67//67 61//61 61//61 
f 61//61 61//61 56//56 
f 61//61 56//56 56//56 
f 56//56 56//56 63//63 
f 56//56 51//51 63//63 
f 63//63 51//51 68//68 
f 51//51 51//51 68//68 
f 68//68 51//51 69//69 
f 51//51 50//50 69//69 
f 69//69 50//50 70//70 
f 50//50 49//49 70//70 
f 70//70 49//49 71//71 
f 49//49 48//48 71//71 
f 71//71 48//48 71//71 
f 48//48 47//47 71//71 
f 71//71 47//47 72//72 
f 47//47 46//46 72//72 
f 72//72 46//46 46//46 
f 46//46 72//72 46//46 
f 46//46 72//72 72//72 
f 72//72 73//73 72//72 
f 72//72 73//73 71//71 
f 73//73 73//73 71//71 
f 71//71 73//73 70//70 
f 73//73 74//74 70//70 
f 70//70 74//74 69//69 
f 74//74 75//75 69//69 
f 69//69 75//75 68//68 
f 75//75 76//76 68//68 
f 68//68 76//76 68//68 
f 76//76 77//77 68//68 
f 68//68 77//77 63//63 
f 77//77 77//77 63//63 
f 63//63 77//77 64//64 
f 77//77 77//77 64//64 
f 64//64 77//77 65//65 
f 77//77 78//78 65//65 
f 65//65 78//78 66//66 
f 78//78 79//79 66//66 
f 66//66 79//79 67//67 
f 79//79 67//67 67//67 
f 67//67 67//67 79//79 
f 67//67 79//79 79//79 
f 79//79 79//79 80//80 
f 79//79 78//78 80//80 
f 80//80 78//78 81//81 
f 78//78 77//77 81//81 
f 81//81 77//77 82//82 
f 77//77 77//77 82//82 
f 82//82 77//77 83//83 
f 77//77 76//76 83//83 
f 83//83 76//76 84//84 
f 76//76 76//76 84//84 
f 84//84 76//76 85//85 
f 76//76 75//75 85//85 
f 85//85 75//75 86//86 
f 75//75 74//74 86//86 
f 86//86 74//74 87//87 
f 74//74 73//73 87//87 
f 87//87 73//73 88//88 
f 73//73 72//72 88//88 
f 88//88 72//72 89//89 
f 72//72 46//46 89//89 
f 89//89 46//46 90//90 
f 46//46 45//45 90//90 
f 90//90 45//45 91//91 
f 45//45 45//45 91//91 
f 91//91 45//45 92//92 
f 45//45 44//44 92//92 
f 92//92 44//44 92//92 
f 44//44 93//93 92//92 
f 92//92 93//93 92//92 
f 93//93 94//94 92//92 
f 92//92 94//94 92//92 
f 94//94 95//95 92//92 
f 92//92 95//95 91//91 
f 95//95 96//96 91//91 
f 91//91 96//96 90//90 
f 96//96 97//97 90//90 
f 90//90 97//97 89//89 
f 97//97 89//89 89//89 
f 89//89 89//89 97//97 
f 89//89 97//97 97//97 
f 97//97 97//97 98//98 
f 97//97 96//96 98//98 
f 98//98 96//96 98//98 
f 96//96 95//95 98//98 
f 98//98 95//95 99//99 
f 95//95 100//100 99//99 
f 99//99 100//100 99//99 
f 100//100 101//101 99//99 
f 99//99 101//101 102//102 
f 101//101 103//103 102//102 
f 102//102 103//103 102//102 
f 103//103 104//104 102//102 
f 102//102 104//104 98//98 
f 104//104 104//104 98//98 
f 98//98 104//104 97//97 
f 104//104 104//104 97//97 
f 97//97 104//104 105//105 
f 104//104 104//104 105//105 
f 105//105 104//104 106//106 
f 104//104 103//103 106//106 
f 106//106 103//103 107//107 
f 103//103 101//101 107//107 
f 107//107 101//101 108//108 
f 101//101 100//100 108//108 
f 108//108 100//100 109//109 
f 100//100 95//95 109//109 
f 109//109 95//95 110//110 
f 95//95 95//95 110//110 
f 110//110 95//95 111//111 
f 95//95 94//94 111//111 
f 111//111 94//94 112//112 
f 94//94 93//93 112//112 
f 112//112 93//93 93//93 
f 93//93 98//98 93//93 
f 93//93 98//98 98//98 
f 98//98 99//99 98//98 
f 98//98 99//99 102//102 
f 99//99 102//102 102//102 
f 102//102 102//102 112//112 
f 102//102 112//112 112//112 
f 112//112 112//112 111//111 
f 112//112 113//113 111//111 
f 111//111 113//113 110//110 
f 113//113 114//114 110//110 
f 110//110 114//114 109//109 
f 114//114 115//115 109//109 
f 109//109 115//115 108//108 
f 115//115 116//116 108//108 
f 108//108 116//116 107//107 
f 116//116 107//107 107//107 
f 107//107 107//107 116//116 
f 107//107 116//116 116//116 
f 116//116 116//116 117//117 
f 116//116 115//115 117//117 
f 117//117 115//115 117//117 
f 115//115 114//114 117//117 
f 117//117 114//114 118//118 
f 114//114 113//113 118//118 
f 118//118 113//113 119//119 
f 113//113 112//112 119//119 
f 119//119 112//112 120//120 
f 112//112 112//112 120//120 
f 120//120 112//112 121//121 
f 112//112 93//93 121//121 
f 121//121 93//93 122//122 
f 93//93 44//44 122//122 
f 122//122 44//44 123//123 
f 44//44 124//124 123//123 
f 123//123 124//124 123//123 
f 124//124 121//121 123//123 
f 123//123 121//121 122//122 
f 121//121 122//122 122//122 
f 122//122 122//122 124//124 
f 122//122 124//124 124//124 
f 124//124 124//124 125//125 
f 124//124 44//44 125//125 
f 125//125 44//44 125//125 
f 44//44 43//43 125//125 
f 125//125 43//43 125//125 
f 43//43 42//42 125//125 
f 125//125 42//42 125//125 
f 42//42 126//126 125//125 
f 125//125 126//126 125//125 
f 126//126 127//127 125//125 
f 125//125 127//127 124//124 
f 127//127 128//128 124//124 
f 124//124 128//128 124//124 
f 128//128 129//129 124//124 
f 124//124 129//129 121//121 
f 129//129 130//130 121//121 
f 121//121 130//130 131//131 
f 130//130 132//132 131//131 
f 131//131 132//132 120//120 
f 132//132 132//132 120//120 
f 120//120 132//132 119//119 
f 132//132 133//133 119//119 
f 119//119 133//133 118//118 
f 133//133 134//134 118//118 
f 118//118 134//134 117//117 
f 134//134 134//134 117//117 
f 117//117 134//134 135//135 
f 134//134 134//134 135//135 
f 135//135 134//134 130//130 
f 134//134 133//133 130//130 
f 130//130 133//133 132//132 
f 133//133 132//132 132//132 
f 132//132 132//132 121//121 
f 132//132 121//121 121//121 
f 121//121 121//121 120//120 
f 121//121 131//131 120//120 
f 120//120 131//131 131//131 
f 131//131 117//117 131//131 
f 131//131 117//117 117//117 
f 117//117 135//135 117//117 
f 117//117 135//135 116//116 
f 135//135 136//136 116//116 
f 116//116 136//136 107//107 
f 136//136 136//136 107//107 
f 107//107 136//136 106//106 
f 136//136 136//136 106//106 
f 106//106 136//136 105//105 
f 136//136 136//136 105//105 
f 105//105 136//136 130//130 
f 136//136 135//135 130//130 
f 130//130 135//135 135//135 
f 135//135 97//97 135//135 
f 135//135 97//97 97//97 
f 97//97 137//137 97//97 
f 97//97 137//137 89//89 
f 137//137 138//138 89//89 
f 89//89 138//138 88//88 
f 138//138 138//138 88//88 
f 88//88 138//138 139//139 
f 138//138 138//138 139//139 
f 139//139 138//138 140//140 
f 138//138 141//141 140//140 
f 140//140 141//141 142//142 
f 141//141 142//142 142//142 
f 142//142 142//142 137//137 
f 142//142 137//137 137//137 
f 137//137 137//137 138//138 
f 137//137 141//141 138//138 
f 138//138 141//141 141//141 
f 141//141 88//88 141//141 
f 141//141 88//88 88//88 
f 88//88 139//139 88//88 
f 88//88 139//139 87//87 
f 139//139 143//143 87//87 
f 87//87 143//143 86//86 
f 143//143 86//86 86//86 
f 86//86 86//86 143//143 
f 86//86 143//143 143//143 
f 143//143 143//143 144//144 
f 143//143 139//139 144//144 
f 144//144 139//139 144//144 
f 139//139 140//140 144//144 
f 144//144 140//140 145//145 
f 140//140 142//142 145//145 
f 145//145 142//142 145//145 
f 142//142 146//146 145//145 
f 145//145 146//146 145//145 
f 146//146 147//147 145//145 
f 145//145 147//147 148//148 
f 147//147 149//149 148//148 
f 148//148 149//149 149//149 
f 149//149 145//145 149//149 
f 149//149 145//145 145//145 
f 145//145 148//148 145//145 
f 145//145 148//148 144//144 
f 148//148 150//150 144//144 
f 144//144 150//150 143//143 
f 150//150 143//143 143//143 
f 143//143 143//143 150//150 
f 143//143 150//150 150//150 
f 150//150 150//150 151//151 
f 150//150 148//148 151//151 
f 151//151 148//148 151//151 
f 148//148 149//149 151//151 
f 151//151 149//149 151//151 
f 149//149 152//152 151//151 
f 151//151 152//152 153//153 
f 152//152 154//154 153//153 
f 153//153 154//154 154//154 
f 154//154 153//153 154//154 
f 154//154 153//153 153//153 
f 153//153 155//155 153//153 
f 153//153 155//155 151//151 
f 155//155 155//155 151//151 
f 151//151 155//155 150//150 
f 155//155 156//156 150//150 
f 150//150 156//156 143//143 
f 156//156 156//156 143//143 
f 143//143 156//156 86//86 
f 156//156 156//156 86//86 
f 86//86 156//156 85//85 
f 156//156 157//157 85//85 
f 85//85 157//157 84//84 
f 157//157 84//84 84//84 
f 84//84 84//84 156//156 
f 84//84 156//156 156//156 
f 156//156 156//156 157//157 
f 156//156 155//155 157//157 
f 157//157 155//155 158//158 
f 155//155 153//153 158//158 
f 158//158 153//153 153//153 
f 153//153 158//158 153//153 
f 153//153 158//158 158//158 
f 158//158 159//159 158//158 
f 158//158 159//159 157//157 
f 159//159 159//159 157//157 
f 157//157 159//159 84//84 
f 159//159 160//160 84//84 
f 84//84 160//160 83//83 
f 160//160 161//161 83//83 
f 83//83 161//161 82//82 
f 161//161 82//82 82//82 
f 82//82 82//82 161//161 
f 82//82 161//161 161//161 
f 161//161 161//161 162//162 
f 161//161 160//160 162//162 
f 162//162 160//160 162//162 
f 160//160 159//159 162//162 
f 162//162 159//159 163//163 
f 159//159 158//158 163//163 
f 163//163 158//158 158//158 
f 158//158 163//163 158//158 
f 158//158 163//163 163//163 
f 163//163 164//164 163//163 
f 163//163 164//164 162//162 
f 164//164 164//164 162//162 
f 162//162 164//164 161//161 
f 164//164 165//165 161//161 
f 161//161 165//165 82//82 
f 165//165 166//166 82//82 
f 82//82 166//166 82//82 
f 166//166 167//167 82//82 
f 82//82 167//167 81//81 
f 167//167 168//168 81//81 
f 81//81 168//168 80//80 
f 168//168 80//80 80//80 
f 80//80 80//80 158//158 
f 80//80 158//158 158//158 
f 158//158 158//158 163//163 
f 158//158 169//169 163//163 
f 163//163 169//169 163//163 
f 169//169 170//170 163//163 
f 163//163 170//170 164//164 
f 170//170 171//171 164//164 
f 164//164 171//171 165//165 
f 171//171 172//172 165//165 
f 165//165 172//172 166//166 
f 172//172 166//166 166//166 
f 166//166 166//166 158//158 
f 166//166 158//158 158//158 
f 158//158 158//158 169//169 
f 158//158 153//153 169//169 
f 169//169 153//153 173//173 
f 153//153 154//154 173//173 
f 173//173 154//154 174//174 
f 154//154 154//154 174//174 
f 174//174 154//154 175//175 
f 154//154 154//154 175//175 
f 175//175 154//154 176//176 
f 154//154 177//177 176//176 
f 176//176 177//177 178//178 
f 177//177 177//177 178//178 
f 178//178 177//177 179//179 
f 177//177 180//180 179//179 
f 179//179 180//180 181//181 
f 180//180 180//180 181//181 
f 181//181 180//180 182//182 
f 180//180 183//183 182//182 
f 182//182 183//183 182//182 
f 183//183 184//184 182//182 
f 182//182 184//184 182//182 
f 184//184 185//185 182//182 
f 182//182 185//185 181//181 
f 185//185 186//186 181//181 
f 181//181 186//186 179//179 
f 186//186 187//187 179//179 
f 179//179 187//187 178//178 
f 187//187 188//188 178//178 
f 178//178 188//188 176//176 
f 188//188 189//189 176//176 
f 176//176 189//189 175//175 
f 189//189 175//175 175//175 
f 175//175 175//175 173//173 
f 175//175 173//173 173//173 
f 173//173 173//173 169//169 
f 173//173 190//190 169//169 
f 169//169 190//190 170//170 
f 190//190 170//170 170//170 
f 170//170 170//170 190//190 
f 170//170 190//190 190//190 
f 190//190 190//190 191//191 
f 190//190 173//173 191//191 
f 191//191 173//173 174//174 
f 173//173 174//174 174//174 
f 174//174 174//174 189//189 
f 174//174 189//189 189//189 
f 189//189 189//189 192//192 
f 189//189 188//188 192//192 
f 192//192 188//188 187//187 
f 188//188 187//187 187//187 
f 187//187 187//187 192//192 
f 187//187 192//192 192//192 
f 192//192 192//192 189//189 
f 192//192 193//193 189//189 
f 189//189 193//193 175//175 
f 193//193 194//194 175//175 
f 175//175 194//194 174//174 
f 194//194 194//194 174//174 
f 174//174 194//194 191//191 
f 194//194 195//195 191//191 
f 191//191 195//195 190//190 
f 195//195 196//196 190//190 
f 190//190 196//196 170//170 
f 196//196 197//197 170//170 
f 170//170 197//197 171//171 
f 197//197 197//197 171//171 
f 171//171 197//197 198//198 
f 197//197 199//199 198//198 
f 198//198 199//199 200//200 
f 199//199 199//199 200//200 
f 200//200 199//199 201//201 
f 199//199 199//199 201//201 
f 201//201 199//199 196//196 
f 199//199 197//197 196//196 
f 196//196 197//197 197//197 
f 197//197 171//171 197//197 
f 197//197 171//171 171//171 
f 171//171 198//198 171//171 
f 171//171 198//198 202//202 
f 198//198 203//203 202//202 
f 202//202 203//203 204//204 
f 203//203 200//200 204//204 
f 204//204 200//200 204//204 
f 200//200 205//205 204//204 
f 204//204 205//205 206//206 
f 205//205 205//205 206//206 
f 206//206 205//205 207//207 
f 205//205 205//205 207//207 
f 207//207 205//205 208//208 
f 205//205 205//205 208//208 
f 208//208 205//205 209//209 
f 205//205 200//200 209//209 
f 209//209 200//200 209//209 
f 200//200 201//201 209//209 
f 209//209 201//201 210//210 
f 201//201 196//196 210//210 
f 210//210 196//196 196//196 
f 196//196 200//200 196//196 
f 196//196 200//200 200//200 
f 200//200 203//203 200//200 
f 200//200 203//203 198//198 
f 203//203 198//198 198//198 
f 198//198 198//198 171//171 
f 198//198 171//171 171//171 
f 171//171 171//171 172//172 
f 171//171 202//202 172//172 
f 172//172 202//202 211//211 
f 202//202 204//204 211//211 
f 211//211 204//204 206//206 
f 204//204 206//206 206//206 
f 206//206 206//206 180//180 
f 206//206 180//180 180//180 
f 180//180 180//180 183//183 
f 180//180 212//212 183//183 
f 183//183 212//212 212//212 
f 212//212 210//210 212//212 
f 212//212 210//210 210//210 
f 210//210 213//213 210//210 
f 210//210 213//213 209//209 
f 213//213 214//214 209//209 
f 209//209 214//214 208//208 
f 214//214 215//215 208//208 
f 208//208 215//215 207//207 
f 215//215 216//216 207//207 
f 207//207 216//216 206//206 
f 216//216 217//217 206//206 
f 206//206 217//217 211//211 
f 217//217 218//218 211//211 
f 211//211 218//218 172//172 
f 218//218 218//218 172//172 
f 172//172 218//218 166//166 
f 218//218 219//219 166//166 
f 166//166 219//219 167//167 
f 219//219 220//220 167//167 
f 167//167 220//220 168//168 
f 220//220 221//221 168//168 
f 168//168 221//221 80//80 
f 221//221 80//80 80//80 
f 80//80 80//80 221//221 
f 80//80 221//221 221//221 
f 221//221 221//221 222//222 
f 221//221 220//220 222//222 
f 222//222 220//220 222//222 
f 220//220 219//219 222//222 
f 222//222 219//219 223//223 
f 219//219 218//218 223//223 
f 223//223 218//218 223//223 
f 218//218 217//217 223//223 
f 223//223 217//217 224//224 
f 217//217 216//216 224//224 
f 224//224 216//216 225//225 
f 216//216 215//215 225//225 
f 225//225 215//215 215//215 
f 215//215 223//223 215//215 
f 215//215 223//223 223//223 
f 223//223 224//224 223//223 
f 223//223 224//224 226//226 
f 224//224 224//224 226//226 
f 226//226 224//224 227//227 
f 224//224 225//225 227//227 
f 227//227 225//225 225//225 
f 225//225 223//223 225//225 
f 225//225 223//223 223//223 
f 223//223 226//226 223//223 
f 223//223 226//226 222//222 
f 226//226 228//228 222//222 
f 222//222 228//228 221//221 
f 228//228 229//229 221//221 
f 221//221 229//229 80//80 
f 229//229 229//229 80//80 
f 80//80 229//229 79//79 
f 229//229 229//229 79//79 
f 79//79 229//229 67//67 
f 229//229 230//230 67//67 
f 67//67 230//230 61//61 
f 230//230 231//231 61//61 
f 61//61 231//231 62//62 
f 231//231 62//62 62//62 
f 62//62 62//62 231//231 
f 62//62 231//231 231//231 
f 231//231 231//231 232//232 
f 231//231 230//230 232//232 
f 232//232 230//230 233//233 
f 230//230 229//229 233//233 
f 233//233 229//229 234//234 
f 229//229 228//228 234//234 
f 234//234 228//228 234//234 
f 228//228 226//226 234//234 
f 234//234 226//226 235//235 
f 226//226 227//227 235//235 
f 235//235 227//227 236//236 
f 227//227 225//225 236//236 
f 236//236 225//225 237//237 
f 225//225 215//215 237//237 
f 237//237 215//215 238//238 
f 215//215 214//214 238//238 
f 238//238 214//214 239//239 
f 214//214 213//213 239//239 
f 239//239 213//213 240//240 
f 213//213 210//210 240//240 
f 240//240 210//210 241//241 
f 210//210 196//196 241//241 
f 241//241 196//196 196//196 
f 196//196 233//233 196//196 
f 196//196 233//233 233//233 
f 233//233 242//242 233//233 
f 233//233 242//242 232//232 
f 242//242 232//232 232//232 
f 232//232 232//232 241//241 
f 232//232 241//241 241//241 
f 241//241 241//241 240//240 
f 241//241 243//243 240//240 
f 240//240 243//243 240//240 
f 243//243 244//244 240//240 
f 240//240 244//244 239//239 
f 244//244 245//245 239//239 
f 239//239 245//245 238//238 
f 245//245 246//246 238//238 
f 238//238 246//246 237//237 
f 246//246 247//247 237//237 
f 237//237 247//247 236//236 
f 247//247 247//247 236//236 
f 236//236 247//247 248//248 
f 247//247 249//249 248//248 
f 248//248 249//249 248//248 
f 249//249 250//250 248//248 
f 248//248 250//250 251//251 
f 250//250 242//242 251//251 
f 251//251 242//242 251//251 
f 242//242 233//233 251//251 
f 251//251 233//233 251//251 
f 233//233 234//234 251//251 
f 251//251 234//234 251//251 
f 234//234 235//235 251//251 
f 251//251 235//235 248//248 
f 235//235 236//236 248//248 
f 248//248 236//236 236//236 
f 236//236 38//38 236//236 
f 236//236 38//38 38//38 
f 38//38 252//252 38//38 
f 38//38 252//252 39//39 
f 252//252 253//253 39//39 
f 39//39 253//253 40//40 
f 253//253 254//254 40//40 
f 40//40 254//254 255//255 
f 254//254 256//256 255//255 
f 255//255 256//256 126//126 
f 256//256 256//256 126//126 
f 126//126 256//256 127//127 
f 256//256 257//257 127//127 
f 127//127 257//257 128//128 
f 257//257 128//128 128//128 
f 128//128 128//128 40//40 
f 128//128 40//40 40//40 
f 40//40 40//40 41//41 
f 40//40 255//255 41//41 
f 41//41 255//255 42//42 
f 255//255 126//126 42//42 
f 42//42 126//126 126//126 
f 126//126 257//257 126//126 
f 126//126 257//257 257//257 
f 257//257 256//256 257//257 
f 257//257 256//256 258//258 
f 256//256 254//254 258//258 
f 258//258 254//254 259//259 
f 254//254 253//253 259//259 
f 259//259 253//253 260//260 
f 253//253 252//252 260//260 
f 260//260 252//252 261//261 
f 252//252 37//37 261//261 
f 261//261 37//37 262//262 
f 37//37 36//36 262//262 
f 262//262 36//36 263//263 
f 36//36 35//35 263//263 
f 263//263 35//35 35//35 
f 35//35 260//260 35//35 
f 35//35 260//260 260//260 
f 260//260 261//261 260//260 
f 260//260 261//261 264//264 
f 261//261 261//261 264//264 
f 264//264 261//261 265//265 
f 261//261 262//262 265//265 
f 265//265 262//262 266//266 
f 262//262 263//263 266//266 
f 266//266 263//263 267//267 
f 263//263 62//62 267//267 
f 267//267 62//62 231//231 
f 62//62 231//231 231//231 
f 231//231 231//231 38//38 
f 231//231 38//38 38//38 
f 38//38 38//38 252//252 
f 38//38 37//37 252//252 
f 252//252 37//37 37//37 
f 37//37 62//62 37//37 
f 37//37 62//62 62//62 
f 62//62 263//263 62//62 
f 62//62 263//263 35//35 
f 263//263 35//35 35//35 
f 35//35 35//35 183//183 
f 35//35 183//183 183//183 
f 183//183 183//183 268//268 
f 183//183 212//212 268//268 
f 268//268 212//212 269//269 
f 212//212 269//269 269//269 
f 269//269 269//269 183//183 
f 269//269 183//183 183//183 
f 183//183 183//183 184//184 
f 183//183 268//268 184//184 
f 184//184 268//268 184//184 
f 268//268 270//270 184//184 
f 184//184 270//270 184//184 
f 270//270 271//271 184//184 
f 184//184 271//271 185//185 
f 271//271 272//272 185//185 
f 185//185 272//272 186//186 
f 272//272 273//273 186//186 
f 186//186 273//273 187//187 
f 273//273 273//273 187//187 
f 187//187 273//273 192//192 
f 273//273 274//274 192//192 
f 192//192 274//274 193//193 
f 274//274 274//274 193//193 
f 193//193 274//274 194//194 
f 274//274 275//275 194//194 
f 194//194 275//275 276//276 
f 275//275 271//271 276//276 
f 276//276 271//271 276//276 
f 271//271 270//270 276//276 
f 276//276 270//270 276//276 
f 270//270 277//277 276//276 
f 276//276 277//277 194//194 
f 277//277 278//278 194//194 
f 194//194 278//278 195//195 
f 278//278 279//279 195//195 
f 195//195 279//279 196//196 
f 279//279 196//196 196//196 
f 196//196 196//196 274//274 
f 196//196 274//274 274//274 
f 274//274 274//274 275//275 
f 274//274 273//273 275//275 
f 275//275 273//273 275//275 
f 273//273 272//272 275//275 
f 275//275 272//272 271//271 
f 272//272 271//271 271//271 
f 271//271 271//271 279//279 
f 271//271 279//279 279//279 
f 279//279 279//279 280//280 
f 279//279 278//278 280//280 
f 280//280 278//278 280//280 
f 278//278 277//277 280//280 
f 280//280 277//277 280//280 
f 277//277 270//270 280//280 
f 280//280 270//270 280//280 
f 270//270 268//268 280//280 
f 280//280 268//268 280//280 
f 268//268 269//269 280//280 
f 280//280 269//269 281//281 
f 269//269 282//282 281//281 
f 281//281 282//282 180//180 
f 282//282 282//282 180//180 
f 180//180 282//282 212//212 
f 282//282 269//269 212//212 
f 212//212 269//269 269//269 
f 269//269 281//281 269//269 
f 269//269 281//281 281//281 
f 281//281 279//279 281//281 
f 281//281 279//279 280//280 
f 279//279 280//280 280//280 
f 280//280 280//280 180//180 
f 280//280 180//180 180//180 
f 180//180 180//180 281//281 
f 180//180 283//283 281//281 
f 281//281 283//283 241//241 
f 283//283 243//243 241//241 
f 241//241 243//243 243//243 
f 243//243 281//281 243//243 
f 243//243 281//281 281//281 
f 281//281 241//241 281//281 
f 281//281 241//241 284//284 
f 241//241 196//196 284//284 
f 284//284 196//196 285//285 
f 196//196 279//279 285//285 
f 285//285 279//279 285//285 
f 279//279 281//281 285//285 
f 285//285 281//281 284//284 

