mtllib model_2.mtl
o model_2
v 0.5128830075263977 2.7806990146636963 -0.7789437770843506 
v -0.5258430242538452 2.7806990146636963 -0.7789437770843506 
v 0.45961499214172363 3.084459066390991 -0.6126448512077332 
v -0.45925799012184143 3.084459066390991 -0.6126448512077332 
v 0.5128830075263977 2.7806990146636963 -0.7789437770843506 
v 0.5661510229110718 2.689570903778076 -0.7810488343238831 
v -0.5258430242538452 2.7806990146636963 -0.7789437770843506 
v -0.5657939910888672 2.689570903778076 -0.7810488343238831 
v 0.5661510229110718 2.689570903778076 -0.7810488343238831 
v 0.8058570027351379 1.8086669445037842 -0.7999942898750305 
v -0.5657939910888672 2.689570903778076 -0.7810488343238831 
v -0.8054999709129333 1.8086669445037842 -0.7999942898750305 
v 0.8458080291748047 1.0796430110931396 -0.8715659976005554 
v -0.8454509973526001 1.0796430110931396 -0.8715659976005554 
v 0.8324909806251526 0.502498984336853 -0.7999942898750305 
v -0.8321340084075928 0.502498984336853 -0.7999942898750305 
v 0.8324909806251526 -0.3480289876461029 -0.6442205905914307 
v -0.8321340084075928 -0.3480289876461029 -0.6442205905914307 
v 0.6993209719657898 -0.7732930183410645 -0.6042246222496033 
v -0.69896399974823 -0.7732930183410645 -0.6042246222496033 
vn -2.0682311115474694e-13 0 -1 
vn -2.0682311115474694e-13 0 -1 
vn -2.0682311115474694e-13 0 -1 
vn -2.0682311115474694e-13 0 -1 
vn 0.0018979120068252087 0.12202323973178864 -0.9925254583358765 
vn 0.0018979120068252087 0.12202323973178864 -0.9925254583358765 
vn 0.0018979120068252087 0.12202323973178864 -0.9925254583358765 
vn 0.0018979120068252087 0.12202323973178864 -0.9925254583358765 
vn 0.0040505328215658665 -0.012466258369386196 -0.9999141097068787 
vn 1.2214145642705336e-14 -0.0393143892288208 -0.9992268681526184 
vn 0.0040505328215658665 -0.012466258369386196 -0.9999141097068787 
vn 1.2214145642705336e-14 -0.0393143892288208 -0.9992268681526184 
vn 1.3531657111281407e-14 -0.043680015951395035 -0.9990455508232117 
vn 1.3531657111281407e-14 -0.043680015951395035 -0.9990455508232117 
vn 0.001958925975486636 -0.02614004909992218 -0.9996563792228699 
vn 0.001958925975486636 -0.02614004909992218 -0.9996563792228699 
vn 1.488382747399323e-14 -0.048044804483652115 -0.9988451600074768 
vn 1.488382747399323e-14 -0.048044804483652115 -0.9988451600074768 
vn 2.8385652931905286e-14 -0.09162852168083191 -0.9957932829856873 
vn 2.8385652931905286e-14 -0.09162852168083191 -0.9957932829856873 
s on 
f 1//1 2//2 3//3 
f 2//2 4//4 3//3 
f 3//3 4//4 4//4 
f 4//4 5//5 4//4 
f 4//4 5//5 5//5 
f 5//5 6//6 5//5 
f 5//5 6//6 7//7 
f 6//6 8//8 7//7 
f 7//7 8//8 8//8 
f 8//8 9//9 8//8 
f 8//8 9//9 9//9 
f 9//9 10//10 9//9 
f 9//9 10//10 11//11 
f 10//10 10//10 11//11 
f 11//11 10//10 12//12 
f 10//10 13//13 12//12 
f 12//12 13//13 14//14 
f 13//13 15//15 14//14 
f 14//14 15//15 16//16 
f 15//15 17//17 16//16 
f 16//16 17//17 18//18 
f 17//17 19//19 18//18 
f 18//18 19//19 20//20 

